<svg width="21" height="21" viewBox="0 0 21 21" fill="none" xmlns="http://www.w3.org/2000/svg">
<path d="M10.1827 5.44086C7.28551 5.44086 4.97685 7.79479 4.97685 10.6467C4.97685 13.5438 7.28551 15.8525 10.1827 15.8525C13.0345 15.8525 15.3885 13.5438 15.3885 10.6467C15.3885 7.79479 13.0345 5.44086 10.1827 5.44086ZM10.1827 14.0418C8.32667 14.0418 6.78756 12.5479 6.78756 10.6467C6.78756 8.79068 8.2814 7.29684 10.1827 7.29684C12.0386 7.29684 13.5325 8.79068 13.5325 10.6467C13.5325 12.5479 12.0386 14.0418 10.1827 14.0418ZM16.7918 5.25979C16.7918 4.58077 16.2485 4.03756 15.5695 4.03756C14.8905 4.03756 14.3473 4.58077 14.3473 5.25979C14.3473 5.93881 14.8905 6.48202 15.5695 6.48202C16.2485 6.48202 16.7918 5.93881 16.7918 5.25979ZM20.2321 6.48202C20.1416 4.85238 19.7794 3.40381 18.6025 2.22684C17.4255 1.04988 15.9769 0.687734 14.3473 0.597199C12.6724 0.506663 7.64765 0.506663 5.97274 0.597199C4.3431 0.687734 2.9398 1.04988 1.71756 2.22684C0.5406 3.40381 0.178457 4.85238 0.0879213 6.48202C-0.0026144 8.15693 -0.0026144 13.1817 0.0879213 14.8566C0.178457 16.4862 0.5406 17.8895 1.71756 19.1118C2.9398 20.2887 4.3431 20.6509 5.97274 20.7414C7.64765 20.8319 12.6724 20.8319 14.3473 20.7414C15.9769 20.6509 17.4255 20.2887 18.6025 19.1118C19.7794 17.8895 20.1416 16.4862 20.2321 14.8566C20.3227 13.1817 20.3227 8.15693 20.2321 6.48202ZM18.0593 16.622C17.7424 17.5274 17.0181 18.2064 16.158 18.5685C14.8 19.1118 11.6312 18.9759 10.1827 18.9759C8.68881 18.9759 5.52006 19.1118 4.2073 18.5685C3.30194 18.2064 2.62292 17.5274 2.26078 16.622C1.71756 15.3093 1.85337 12.1405 1.85337 10.6467C1.85337 9.19809 1.71756 6.02934 2.26078 4.67131C2.62292 3.81122 3.30194 3.1322 4.2073 2.77006C5.52006 2.22684 8.68881 2.36265 10.1827 2.36265C11.6312 2.36265 14.8 2.22684 16.158 2.77006C17.0181 3.08693 17.6971 3.81122 18.0593 4.67131C18.6025 6.02934 18.4667 9.19809 18.4667 10.6467C18.4667 12.1405 18.6025 15.3093 18.0593 16.622Z" fill="#9359A4"/>
</svg>
