<svg width="21" height="21" viewBox="0 0 21 21" fill="none" xmlns="http://www.w3.org/2000/svg">
<path d="M18.4871 0.529297H2.55286C1.33063 0.529297 0.380005 1.52519 0.380005 2.70215V18.6364C0.380005 19.8587 1.33063 20.8093 2.55286 20.8093H8.75456V13.9286H5.90268V10.6693H8.75456V8.22483C8.75456 5.41823 10.4295 3.83385 12.9645 3.83385C14.232 3.83385 15.4995 4.06019 15.4995 4.06019V6.82153H14.0962C12.6929 6.82153 12.2402 7.68162 12.2402 8.58698V10.6693H15.3637L14.8657 13.9286H12.2402V20.8093H18.4871C19.6641 20.8093 20.66 19.8587 20.66 18.6364V2.70215C20.66 1.52519 19.6641 0.529297 18.4871 0.529297Z" fill="#9359A4"/>
</svg>
