<svg width="21" height="21" viewBox="0 0 21 21" fill="none" xmlns="http://www.w3.org/2000/svg">
<path d="M18.8071 0.529297H2.87281C1.65058 0.529297 0.699951 1.52519 0.699951 2.70215V18.6364C0.699951 19.8587 1.65058 20.8093 2.87281 20.8093H18.8071C19.9841 20.8093 20.98 19.8587 20.98 18.6364V2.70215C20.98 1.52519 19.9841 0.529297 18.8071 0.529297ZM16.589 7.72689C16.589 7.86269 16.589 7.99849 16.589 8.1343C16.589 12.0273 13.6013 16.5541 8.12388 16.5541C6.44897 16.5541 4.90986 16.1014 3.59709 15.2414C3.82343 15.2866 4.04977 15.2866 4.27611 15.2866C5.67942 15.2866 6.94692 14.7887 7.98808 14.0191C6.67531 13.9739 5.58888 13.1138 5.18147 11.9368C5.67942 12.0273 6.08683 12.0273 6.53951 11.8915C5.18147 11.6199 4.18558 10.443 4.18558 8.99439V8.94912C4.54772 9.17546 5.0004 9.31126 5.49834 9.31126C4.68352 8.76805 4.18558 7.86269 4.18558 6.8668C4.18558 6.27831 4.32138 5.78037 4.59299 5.32769C6.04156 7.1384 8.25968 8.31537 10.7041 8.45117C10.2967 6.45939 11.7906 4.78448 13.6013 4.78448C14.4614 4.78448 15.2309 5.14662 15.7741 5.7351C16.4532 5.5993 17.0869 5.37296 17.6754 5.01081C17.4491 5.7351 16.9511 6.27831 16.3626 6.64046C16.9511 6.59519 17.5396 6.41412 18.0828 6.18778C17.6754 6.77626 17.1322 7.31948 16.589 7.72689Z" fill="#9359A4"/>
</svg>
