<svg width="21" height="21" viewBox="0 0 21 21" fill="none" xmlns="http://www.w3.org/2000/svg">
<path d="M20.1751 3.75086C19.9526 2.48336 19.2482 1.47992 18.3955 1.16305C16.8012 0.529297 10.4985 0.529297 10.4985 0.529297C10.4985 0.529297 4.15869 0.529297 2.56446 1.16305C1.71174 1.47992 1.00732 2.48336 0.784865 3.75086C0.339966 5.96898 0.339966 10.7221 0.339966 10.7221C0.339966 10.7221 0.339966 15.4224 0.784865 17.6934C1.00732 18.9609 1.71174 19.9115 2.56446 20.2284C4.15869 20.8093 10.4985 20.8093 10.4985 20.8093C10.4985 20.8093 16.8012 20.8093 18.3955 20.2284C19.2482 19.9115 19.9526 18.9609 20.1751 17.6934C20.62 15.4224 20.62 10.7221 20.62 10.7221C20.62 10.7221 20.62 5.96898 20.1751 3.75086ZM8.42231 14.9999V6.4443L13.6869 10.7221L8.42231 14.9999Z" fill="#9359A4"/>
</svg>
