<svg width="49" height="3" viewBox="0 0 49 3" fill="none" xmlns="http://www.w3.org/2000/svg">
<path d="M0.84 1.064C0.84 0.92 0.866667 0.784 0.92 0.656C0.973333 0.528 1.04533 0.416 1.136 0.32C1.232 0.224 1.344 0.149333 1.472 0.096C1.6 0.0373333 1.73867 0.0079999 1.888 0.0079999C2.032 0.0079999 2.168 0.0373333 2.296 0.096C2.424 0.149333 2.536 0.224 2.632 0.32C2.728 0.416 2.80267 0.528 2.856 0.656C2.91467 0.784 2.944 0.92 2.944 1.064C2.944 1.21333 2.91467 1.352 2.856 1.48C2.80267 1.608 2.728 1.72 2.632 1.816C2.536 1.912 2.424 1.98667 2.296 2.04C2.168 2.09333 2.032 2.12 1.888 2.12C1.73867 2.12 1.6 2.09333 1.472 2.04C1.344 1.98667 1.232 1.912 1.136 1.816C1.04533 1.72 0.973333 1.608 0.92 1.48C0.866667 1.352 0.84 1.21333 0.84 1.064ZM4.62125 1.064C4.62125 0.92 4.64792 0.784 4.70125 0.656C4.75458 0.528 4.82658 0.416 4.91725 0.32C5.01325 0.224 5.12525 0.149333 5.25325 0.096C5.38125 0.0373333 5.51992 0.0079999 5.66925 0.0079999C5.81325 0.0079999 5.94925 0.0373333 6.07725 0.096C6.20525 0.149333 6.31725 0.224 6.41325 0.32C6.50925 0.416 6.58392 0.528 6.63725 0.656C6.69592 0.784 6.72525 0.92 6.72525 1.064C6.72525 1.21333 6.69592 1.352 6.63725 1.48C6.58392 1.608 6.50925 1.72 6.41325 1.816C6.31725 1.912 6.20525 1.98667 6.07725 2.04C5.94925 2.09333 5.81325 2.12 5.66925 2.12C5.51992 2.12 5.38125 2.09333 5.25325 2.04C5.12525 1.98667 5.01325 1.912 4.91725 1.816C4.82658 1.72 4.75458 1.608 4.70125 1.48C4.64792 1.352 4.62125 1.21333 4.62125 1.064ZM8.4025 1.064C8.4025 0.92 8.42917 0.784 8.4825 0.656C8.53583 0.528 8.60783 0.416 8.6985 0.32C8.7945 0.224 8.9065 0.149333 9.0345 0.096C9.1625 0.0373333 9.30117 0.0079999 9.4505 0.0079999C9.5945 0.0079999 9.7305 0.0373333 9.8585 0.096C9.9865 0.149333 10.0985 0.224 10.1945 0.32C10.2905 0.416 10.3652 0.528 10.4185 0.656C10.4772 0.784 10.5065 0.92 10.5065 1.064C10.5065 1.21333 10.4772 1.352 10.4185 1.48C10.3652 1.608 10.2905 1.72 10.1945 1.816C10.0985 1.912 9.9865 1.98667 9.8585 2.04C9.7305 2.09333 9.5945 2.12 9.4505 2.12C9.30117 2.12 9.1625 2.09333 9.0345 2.04C8.9065 1.98667 8.7945 1.912 8.6985 1.816C8.60783 1.72 8.53583 1.608 8.4825 1.48C8.42917 1.352 8.4025 1.21333 8.4025 1.064ZM12.1838 1.064C12.1838 0.92 12.2104 0.784 12.2638 0.656C12.3171 0.528 12.3891 0.416 12.4798 0.32C12.5758 0.224 12.6878 0.149333 12.8158 0.096C12.9438 0.0373333 13.0824 0.0079999 13.2318 0.0079999C13.3758 0.0079999 13.5118 0.0373333 13.6398 0.096C13.7678 0.149333 13.8798 0.224 13.9758 0.32C14.0718 0.416 14.1464 0.528 14.1998 0.656C14.2584 0.784 14.2878 0.92 14.2878 1.064C14.2878 1.21333 14.2584 1.352 14.1998 1.48C14.1464 1.608 14.0718 1.72 13.9758 1.816C13.8798 1.912 13.7678 1.98667 13.6398 2.04C13.5118 2.09333 13.3758 2.12 13.2318 2.12C13.0824 2.12 12.9438 2.09333 12.8158 2.04C12.6878 1.98667 12.5758 1.912 12.4798 1.816C12.3891 1.72 12.3171 1.608 12.2638 1.48C12.2104 1.352 12.1838 1.21333 12.1838 1.064ZM15.965 1.064C15.965 0.92 15.9917 0.784 16.045 0.656C16.0983 0.528 16.1703 0.416 16.261 0.32C16.357 0.224 16.469 0.149333 16.597 0.096C16.725 0.0373333 16.8637 0.0079999 17.013 0.0079999C17.157 0.0079999 17.293 0.0373333 17.421 0.096C17.549 0.149333 17.661 0.224 17.757 0.32C17.853 0.416 17.9277 0.528 17.981 0.656C18.0397 0.784 18.069 0.92 18.069 1.064C18.069 1.21333 18.0397 1.352 17.981 1.48C17.9277 1.608 17.853 1.72 17.757 1.816C17.661 1.912 17.549 1.98667 17.421 2.04C17.293 2.09333 17.157 2.12 17.013 2.12C16.8637 2.12 16.725 2.09333 16.597 2.04C16.469 1.98667 16.357 1.912 16.261 1.816C16.1703 1.72 16.0983 1.608 16.045 1.48C15.9917 1.352 15.965 1.21333 15.965 1.064ZM19.7463 1.064C19.7463 0.92 19.7729 0.784 19.8263 0.656C19.8796 0.528 19.9516 0.416 20.0423 0.32C20.1383 0.224 20.2503 0.149333 20.3783 0.096C20.5063 0.0373333 20.6449 0.0079999 20.7943 0.0079999C20.9383 0.0079999 21.0743 0.0373333 21.2023 0.096C21.3303 0.149333 21.4423 0.224 21.5383 0.32C21.6343 0.416 21.7089 0.528 21.7623 0.656C21.8209 0.784 21.8503 0.92 21.8503 1.064C21.8503 1.21333 21.8209 1.352 21.7623 1.48C21.7089 1.608 21.6343 1.72 21.5383 1.816C21.4423 1.912 21.3303 1.98667 21.2023 2.04C21.0743 2.09333 20.9383 2.12 20.7943 2.12C20.6449 2.12 20.5063 2.09333 20.3783 2.04C20.2503 1.98667 20.1383 1.912 20.0423 1.816C19.9516 1.72 19.8796 1.608 19.8263 1.48C19.7729 1.352 19.7463 1.21333 19.7463 1.064ZM23.5275 1.064C23.5275 0.92 23.5542 0.784 23.6075 0.656C23.6608 0.528 23.7328 0.416 23.8235 0.32C23.9195 0.224 24.0315 0.149333 24.1595 0.096C24.2875 0.0373333 24.4262 0.0079999 24.5755 0.0079999C24.7195 0.0079999 24.8555 0.0373333 24.9835 0.096C25.1115 0.149333 25.2235 0.224 25.3195 0.32C25.4155 0.416 25.4902 0.528 25.5435 0.656C25.6022 0.784 25.6315 0.92 25.6315 1.064C25.6315 1.21333 25.6022 1.352 25.5435 1.48C25.4902 1.608 25.4155 1.72 25.3195 1.816C25.2235 1.912 25.1115 1.98667 24.9835 2.04C24.8555 2.09333 24.7195 2.12 24.5755 2.12C24.4262 2.12 24.2875 2.09333 24.1595 2.04C24.0315 1.98667 23.9195 1.912 23.8235 1.816C23.7328 1.72 23.6608 1.608 23.6075 1.48C23.5542 1.352 23.5275 1.21333 23.5275 1.064ZM27.3088 1.064C27.3088 0.92 27.3354 0.784 27.3888 0.656C27.4421 0.528 27.5141 0.416 27.6048 0.32C27.7008 0.224 27.8128 0.149333 27.9408 0.096C28.0688 0.0373333 28.2074 0.0079999 28.3568 0.0079999C28.5008 0.0079999 28.6368 0.0373333 28.7648 0.096C28.8928 0.149333 29.0048 0.224 29.1008 0.32C29.1968 0.416 29.2714 0.528 29.3248 0.656C29.3834 0.784 29.4128 0.92 29.4128 1.064C29.4128 1.21333 29.3834 1.352 29.3248 1.48C29.2714 1.608 29.1968 1.72 29.1008 1.816C29.0048 1.912 28.8928 1.98667 28.7648 2.04C28.6368 2.09333 28.5008 2.12 28.3568 2.12C28.2074 2.12 28.0688 2.09333 27.9408 2.04C27.8128 1.98667 27.7008 1.912 27.6048 1.816C27.5141 1.72 27.4421 1.608 27.3888 1.48C27.3354 1.352 27.3088 1.21333 27.3088 1.064ZM31.09 1.064C31.09 0.92 31.1167 0.784 31.17 0.656C31.2233 0.528 31.2953 0.416 31.386 0.32C31.482 0.224 31.594 0.149333 31.722 0.096C31.85 0.0373333 31.9887 0.0079999 32.138 0.0079999C32.282 0.0079999 32.418 0.0373333 32.546 0.096C32.674 0.149333 32.786 0.224 32.882 0.32C32.978 0.416 33.0527 0.528 33.106 0.656C33.1647 0.784 33.194 0.92 33.194 1.064C33.194 1.21333 33.1647 1.352 33.106 1.48C33.0527 1.608 32.978 1.72 32.882 1.816C32.786 1.912 32.674 1.98667 32.546 2.04C32.418 2.09333 32.282 2.12 32.138 2.12C31.9887 2.12 31.85 2.09333 31.722 2.04C31.594 1.98667 31.482 1.912 31.386 1.816C31.2953 1.72 31.2233 1.608 31.17 1.48C31.1167 1.352 31.09 1.21333 31.09 1.064ZM34.8713 1.064C34.8713 0.92 34.8979 0.784 34.9513 0.656C35.0046 0.528 35.0766 0.416 35.1673 0.32C35.2633 0.224 35.3753 0.149333 35.5033 0.096C35.6313 0.0373333 35.7699 0.0079999 35.9193 0.0079999C36.0633 0.0079999 36.1993 0.0373333 36.3273 0.096C36.4553 0.149333 36.5673 0.224 36.6633 0.32C36.7593 0.416 36.8339 0.528 36.8873 0.656C36.9459 0.784 36.9753 0.92 36.9753 1.064C36.9753 1.21333 36.9459 1.352 36.8873 1.48C36.8339 1.608 36.7593 1.72 36.6633 1.816C36.5673 1.912 36.4553 1.98667 36.3273 2.04C36.1993 2.09333 36.0633 2.12 35.9193 2.12C35.7699 2.12 35.6313 2.09333 35.5033 2.04C35.3753 1.98667 35.2633 1.912 35.1673 1.816C35.0766 1.72 35.0046 1.608 34.9513 1.48C34.8979 1.352 34.8713 1.21333 34.8713 1.064ZM38.6525 1.064C38.6525 0.92 38.6792 0.784 38.7325 0.656C38.7858 0.528 38.8578 0.416 38.9485 0.32C39.0445 0.224 39.1565 0.149333 39.2845 0.096C39.4125 0.0373333 39.5512 0.0079999 39.7005 0.0079999C39.8445 0.0079999 39.9805 0.0373333 40.1085 0.096C40.2365 0.149333 40.3485 0.224 40.4445 0.32C40.5405 0.416 40.6152 0.528 40.6685 0.656C40.7272 0.784 40.7565 0.92 40.7565 1.064C40.7565 1.21333 40.7272 1.352 40.6685 1.48C40.6152 1.608 40.5405 1.72 40.4445 1.816C40.3485 1.912 40.2365 1.98667 40.1085 2.04C39.9805 2.09333 39.8445 2.12 39.7005 2.12C39.5512 2.12 39.4125 2.09333 39.2845 2.04C39.1565 1.98667 39.0445 1.912 38.9485 1.816C38.8578 1.72 38.7858 1.608 38.7325 1.48C38.6792 1.352 38.6525 1.21333 38.6525 1.064ZM42.4338 1.064C42.4338 0.92 42.4604 0.784 42.5138 0.656C42.5671 0.528 42.6391 0.416 42.7298 0.32C42.8258 0.224 42.9378 0.149333 43.0658 0.096C43.1938 0.0373333 43.3324 0.0079999 43.4818 0.0079999C43.6258 0.0079999 43.7618 0.0373333 43.8898 0.096C44.0178 0.149333 44.1298 0.224 44.2258 0.32C44.3218 0.416 44.3964 0.528 44.4498 0.656C44.5084 0.784 44.5378 0.92 44.5378 1.064C44.5378 1.21333 44.5084 1.352 44.4498 1.48C44.3964 1.608 44.3218 1.72 44.2258 1.816C44.1298 1.912 44.0178 1.98667 43.8898 2.04C43.7618 2.09333 43.6258 2.12 43.4818 2.12C43.3324 2.12 43.1938 2.09333 43.0658 2.04C42.9378 1.98667 42.8258 1.912 42.7298 1.816C42.6391 1.72 42.5671 1.608 42.5138 1.48C42.4604 1.352 42.4338 1.21333 42.4338 1.064ZM46.215 1.064C46.215 0.92 46.2417 0.784 46.295 0.656C46.3483 0.528 46.4203 0.416 46.511 0.32C46.607 0.224 46.719 0.149333 46.847 0.096C46.975 0.0373333 47.1137 0.0079999 47.263 0.0079999C47.407 0.0079999 47.543 0.0373333 47.671 0.096C47.799 0.149333 47.911 0.224 48.007 0.32C48.103 0.416 48.1777 0.528 48.231 0.656C48.2897 0.784 48.319 0.92 48.319 1.064C48.319 1.21333 48.2897 1.352 48.231 1.48C48.1777 1.608 48.103 1.72 48.007 1.816C47.911 1.912 47.799 1.98667 47.671 2.04C47.543 2.09333 47.407 2.12 47.263 2.12C47.1137 2.12 46.975 2.09333 46.847 2.04C46.719 1.98667 46.607 1.912 46.511 1.816C46.4203 1.72 46.3483 1.608 46.295 1.48C46.2417 1.352 46.215 1.21333 46.215 1.064Z" fill="black"/>
</svg>
