<svg width="11" height="11" viewBox="0 0 11 11" fill="none" xmlns="http://www.w3.org/2000/svg">
<rect x="0.666016" y="0.445068" width="9.64337" height="9.64337" rx="4.82169" fill="#0A66C2"/>
<g clip-path="url(#clip0_159_330)">
<path d="M2.6748 3.20487C2.6748 3.02388 2.73815 2.87456 2.86485 2.75691C2.99154 2.63927 3.15625 2.58044 3.35896 2.58044C3.55806 2.58044 3.71914 2.63836 3.84222 2.7542C3.96891 2.87365 4.03226 3.02931 4.03226 3.22116C4.03226 3.39492 3.97072 3.53971 3.84765 3.65555C3.72095 3.77501 3.55444 3.83473 3.3481 3.83473H3.34267C3.14358 3.83473 2.9825 3.77501 2.85942 3.65555C2.73634 3.53609 2.6748 3.38587 2.6748 3.20487ZM2.74539 7.95597V4.32885H3.95081V7.95597H2.74539ZM4.61868 7.95597H5.8241V5.93065C5.8241 5.80395 5.83858 5.70621 5.86754 5.63744C5.91822 5.51436 5.99514 5.41028 6.09831 5.32522C6.20148 5.24015 6.33089 5.19762 6.48654 5.19762C6.89197 5.19762 7.09468 5.47092 7.09468 6.01752V7.95597H8.3001V5.87635C8.3001 5.3406 8.17341 4.93427 7.92002 4.65735C7.66662 4.38043 7.33179 4.24197 6.9155 4.24197C6.44853 4.24197 6.08473 4.44287 5.8241 4.84468V4.85554H5.81867L5.8241 4.84468V4.32885H4.61868C4.62592 4.44468 4.62954 4.80486 4.62954 5.40938C4.62954 6.0139 4.62592 6.86276 4.61868 7.95597Z" fill="white"/>
</g>
<defs>
<clipPath id="clip0_159_330">
<rect x="2.6748" y="2.45422" width="5.6253" height="5.6253" fill="white"/>
</clipPath>
</defs>
</svg>
