<svg width="11" height="10" viewBox="0 0 11 10" fill="none" xmlns="http://www.w3.org/2000/svg">
<rect x="0.84375" y="0.445068" width="9.68114" height="9.42639" rx="4.7132" fill="#1D9BF0"/>
<path d="M4.62933 7.46067C6.76775 7.46067 7.93701 5.6887 7.93701 4.15299C7.93701 4.10236 7.93701 4.05174 7.93459 4.00352C8.16121 3.83958 8.3589 3.63466 8.51561 3.40081C8.30828 3.49242 8.08407 3.5551 7.8478 3.58403C8.08889 3.43938 8.27211 3.21276 8.3589 2.94034C8.13469 3.07293 7.88638 3.16937 7.62119 3.22241C7.40903 2.99579 7.10768 2.85596 6.77257 2.85596C6.13128 2.85596 5.61054 3.3767 5.61054 4.01798C5.61054 4.1096 5.62019 4.1988 5.64188 4.28318C4.67514 4.23496 3.81929 3.77208 3.24551 3.06811C3.14666 3.23928 3.0888 3.43938 3.0888 3.65154C3.0888 4.05415 3.29372 4.41095 3.60713 4.61828C3.41668 4.61346 3.23827 4.56042 3.08157 4.47363C3.08157 4.47845 3.08157 4.48328 3.08157 4.4881C3.08157 5.05223 3.48177 5.51994 4.01456 5.62843C3.91813 5.65495 3.81447 5.66941 3.70839 5.66941C3.63365 5.66941 3.56133 5.66218 3.489 5.64771C3.63606 6.11059 4.06519 6.4457 4.57388 6.45534C4.17609 6.76634 3.67464 6.95198 3.12979 6.95198C3.03576 6.95198 2.94415 6.94716 2.85254 6.9351C3.36123 7.2678 3.97358 7.46067 4.62933 7.46067Z" fill="white"/>
</svg>
