<svg width="12" height="11" viewBox="0 0 12 11" fill="none" xmlns="http://www.w3.org/2000/svg">
<path fill-rule="evenodd" clip-rule="evenodd" d="M11.0908 5.51866C11.0908 8.37068 8.77876 10.6827 5.92674 10.6827C3.07472 10.6827 0.762695 8.37068 0.762695 5.51866C0.762695 2.66664 3.07472 0.354614 5.92674 0.354614C8.77876 0.354614 11.0908 2.66664 11.0908 5.51866ZM6.35864 6.10072C6.23017 6.18637 6.08093 6.23164 5.92707 6.23164C5.77322 6.23164 5.62399 6.18637 5.49551 6.10072L3.37943 4.68995C3.36769 4.68213 3.35625 4.67397 3.34505 4.66558V6.97726C3.34505 7.2423 3.56013 7.45265 3.82043 7.45265H8.0337C8.29874 7.45265 8.50908 7.23756 8.50908 6.97726V4.66557C8.49786 4.67398 8.4864 4.68216 8.47463 4.68999L6.35864 6.10072ZM5.66335 5.8491L3.54727 4.43832C3.42065 4.35395 3.34505 4.21275 3.34505 4.0606C3.34505 3.79831 3.55824 3.58514 3.82027 3.58513H8.03387C8.2959 3.58513 8.50909 3.7983 8.50909 4.06035C8.50909 4.21275 8.4335 4.35395 8.30687 4.43832L6.19079 5.8491C6.11069 5.90249 6.01887 5.9292 5.92706 5.9292C5.83526 5.9292 5.74345 5.9025 5.66335 5.8491Z" fill="black"/>
</svg>
