<svg width="12" height="12" viewBox="0 0 12 12" fill="none" xmlns="http://www.w3.org/2000/svg">
<path fill-rule="evenodd" clip-rule="evenodd" d="M5.92674 11.1593C8.77876 11.1593 11.0908 8.84725 11.0908 5.99522C11.0908 3.1432 8.77876 0.831177 5.92674 0.831177C3.07472 0.831177 0.762695 3.1432 0.762695 5.99522C0.762695 8.84725 3.07472 11.1593 5.92674 11.1593ZM3.99027 5.36392C3.99027 4.28829 4.85912 3.41341 5.92679 3.41341C6.99446 3.41341 7.86331 4.28829 7.86331 5.36392C7.86331 6.89226 6.10882 8.4703 6.03416 8.53679C6.00339 8.5639 5.96509 8.57746 5.92679 8.57746C5.88849 8.57746 5.85019 8.5639 5.81942 8.53658C5.74476 8.4703 3.99027 6.89226 3.99027 5.36392ZM4.85095 5.34993C4.85095 5.94315 5.33357 6.42577 5.92679 6.42577C6.52001 6.42577 7.00263 5.94315 7.00263 5.34993C7.00263 4.75671 6.52001 4.27409 5.92679 4.27409C5.33357 4.27409 4.85095 4.75671 4.85095 5.34993Z" fill="black"/>
</svg>
