<svg width="22" height="22" viewBox="0 0 22 22" fill="none" xmlns="http://www.w3.org/2000/svg">
<g id="linkedin">
<rect x="0.841797" y="0.487061" width="20.6562" height="20.6562" rx="10.3281" fill="white"/>
<path id="Vector" d="M8.50768 15.6563H6.502V9.18976H8.50768V15.6563ZM7.50484 8.32524C6.84781 8.32524 6.3291 7.77195 6.3291 7.1495C6.3291 6.52705 6.84781 5.97375 7.50484 5.97375C8.16188 5.97375 8.68059 6.49246 8.68059 7.1495C8.64601 7.77195 8.1273 8.32524 7.50484 8.32524ZM16.0117 15.6563H14.006V12.5095C14.006 11.7487 14.006 10.815 12.9686 10.815C11.9312 10.815 11.7583 11.645 11.7583 12.4749V15.6563H9.75259V9.18976H11.6891V10.0889H11.7237C12.0003 9.57014 12.6574 9.05143 13.6256 9.05143C15.6659 9.05143 16.0463 10.4001 16.0463 12.1291L16.0117 15.6563Z" fill="#099DAB"/>
</g>
</svg>
