<svg width="12" height="12" viewBox="0 0 12 12" fill="none" xmlns="http://www.w3.org/2000/svg">
<path fill-rule="evenodd" clip-rule="evenodd" d="M5.92674 11.175C8.77876 11.175 11.0908 8.86299 11.0908 6.01097C11.0908 3.15895 8.77876 0.846924 5.92674 0.846924C3.07472 0.846924 0.762695 3.15895 0.762695 6.01097C0.762695 8.86299 3.07472 11.175 5.92674 11.175ZM7.64782 6.49798L8.36848 7.21864C8.54865 7.39881 8.54865 7.70766 8.36848 7.91356L7.87946 8.40258C7.36471 8.91735 6.0006 8.35111 4.79093 7.14143C3.58125 5.93175 3.04076 4.56765 3.52978 4.05289L4.01879 3.56388C4.19896 3.38371 4.50781 3.38371 4.71371 3.56388L5.43437 4.28453C5.69175 4.54191 5.5888 4.97945 5.25421 5.08241C5.02257 5.15961 4.86814 5.41699 4.94535 5.64864C5.07404 6.18913 5.76896 6.85831 6.28372 6.987C6.51536 7.03849 6.77274 6.9098 6.84995 6.67815C6.9529 6.34357 7.39044 6.24061 7.64782 6.49798Z" fill="black"/>
</svg>
