<svg width="12" height="11" viewBox="0 0 12 11" fill="none" xmlns="http://www.w3.org/2000/svg">
<path fill-rule="evenodd" clip-rule="evenodd" d="M11.0908 5.50303C11.0908 8.35506 8.77876 10.6671 5.92674 10.6671C3.07472 10.6671 0.762695 8.35506 0.762695 5.50303C0.762695 2.65101 3.07472 0.338989 5.92674 0.338989C8.77876 0.338989 11.0908 2.65101 11.0908 5.50303ZM6.01902 8.08179C6.41392 8.02569 6.7601 7.61353 6.97794 7.00485C6.66303 6.93433 6.34168 6.89647 6.01902 6.89197V8.08179ZM6.71976 7.96408C6.69669 7.97156 6.67343 7.97837 6.65009 7.98513L6.63043 7.99104L6.63036 7.99106L6.6303 7.99108C6.61753 7.99494 6.60469 7.99883 6.59169 8.00248L6.58047 8.0052L6.56925 8.00793C6.84242 7.74268 7.04517 7.41345 7.15909 7.05014C7.37814 7.10791 7.59017 7.18952 7.79147 7.29349L7.7834 7.30218C7.77282 7.31313 7.76197 7.32376 7.75112 7.3344L7.73892 7.34639L7.73295 7.35227C7.71777 7.36723 7.70254 7.38223 7.68697 7.39677C7.67461 7.4083 7.66195 7.4195 7.64929 7.43071L7.64019 7.43877L7.63266 7.44545L7.63266 7.44546L7.63266 7.44546L7.63265 7.44546L7.63265 7.44546L7.63265 7.44547L7.63265 7.44547L7.63264 7.44547L7.63264 7.44548L7.63264 7.44548L7.63263 7.44548L7.63263 7.44548L7.63263 7.44549C7.6173 7.4591 7.60203 7.47266 7.5862 7.48582C7.57134 7.4982 7.55629 7.51019 7.54119 7.52223L7.54118 7.52224L7.54117 7.52225L7.54115 7.52226L7.54114 7.52227L7.54113 7.52228L7.54112 7.52229L7.5411 7.5223L7.54109 7.52231L7.54108 7.52232L7.54106 7.52233L7.53717 7.52543C7.51865 7.54021 7.49973 7.55495 7.48125 7.56919C7.46449 7.58153 7.44741 7.59379 7.43024 7.60609C7.41113 7.61975 7.39193 7.6334 7.37247 7.64652C7.35503 7.65832 7.33736 7.66977 7.31965 7.68104L7.25994 7.71794C7.24196 7.72876 7.22416 7.73926 7.20568 7.74971C7.18527 7.76134 7.16472 7.77265 7.14404 7.78374C7.12556 7.7936 7.10713 7.8032 7.08865 7.81262C7.06761 7.82326 7.04638 7.83349 7.02507 7.84354C7.00623 7.85232 6.98739 7.86107 6.96842 7.8694L6.90276 7.89707L6.90082 7.89786L6.9008 7.89787C6.88239 7.90536 6.86402 7.91282 6.84549 7.91987C6.82296 7.92844 6.80033 7.9365 6.77762 7.94434L6.77353 7.94578C6.7557 7.95202 6.73784 7.95826 6.71976 7.96408ZM8.50885 5.59718H7.40226C7.39807 6.02925 7.33538 6.45875 7.21592 6.87402C7.45953 6.93909 7.69463 7.03264 7.91635 7.15274C8.28037 6.714 8.48875 6.16697 8.50885 5.59718ZM7.21759 5.41276H6.01902V4.30261C6.36128 4.29811 6.70214 4.25746 7.03589 4.18135C7.15175 4.58174 7.2129 4.99597 7.21759 5.41276ZM6.01902 2.92827V4.11809C6.34168 4.11354 6.66303 4.07573 6.97794 4.00521C6.7601 3.39653 6.41392 2.98437 6.01902 2.92827ZM7.03589 6.82864C6.70214 6.75253 6.36128 6.71188 6.01902 6.70733V5.59718H7.21759C7.2129 6.01397 7.15175 6.42825 7.03589 6.82864ZM7.91635 3.85729C7.69463 3.97738 7.45953 4.07094 7.21592 4.13601C7.33538 4.55127 7.39807 4.98078 7.40226 5.41285H8.50885C8.4887 4.84311 8.28033 4.29607 7.91635 3.85729ZM7.78682 3.71199L7.79171 3.71723C7.59023 3.82138 7.37789 3.90303 7.15861 3.9608C7.04464 3.59745 6.84194 3.26826 6.56876 3.00301L6.57871 3.00544L6.59125 3.00856C6.60887 3.01322 6.62638 3.01836 6.64381 3.02348L6.64381 3.02348L6.64382 3.02348L6.64382 3.02349L6.64383 3.02349L6.64384 3.02349L6.64384 3.02349L6.64385 3.02349L6.64385 3.02349L6.64916 3.02505C6.67286 3.0319 6.69593 3.03871 6.71901 3.04619C6.73847 3.05249 6.75767 3.05921 6.77687 3.06597C6.79958 3.07381 6.82229 3.08183 6.84469 3.09039C6.86389 3.09769 6.88281 3.10535 6.90183 3.11311L6.92372 3.12217C6.93846 3.12824 6.95318 3.13429 6.9678 3.14077C6.98682 3.14911 7.00557 3.15767 7.02404 3.16646C7.04599 3.1766 7.0674 3.18692 7.08862 3.19765C7.09786 3.20226 7.10708 3.20709 7.11631 3.21191L7.11634 3.21192C7.12556 3.21674 7.13478 3.22156 7.144 3.22617C7.16487 3.23735 7.18555 3.24879 7.20619 3.2606C7.22422 3.27083 7.2422 3.28137 7.26 3.29205C7.28032 3.30422 7.30024 3.31679 7.3202 3.32964C7.33773 3.34077 7.35526 3.35212 7.37252 3.36375C7.39217 3.37696 7.41155 3.39079 7.43084 3.40467C7.44783 3.41684 7.46472 3.429 7.4814 3.44158C7.50042 3.45586 7.51934 3.47073 7.53782 3.48569L7.54482 3.49127C7.55874 3.50235 7.57269 3.51345 7.58635 3.52499C7.60275 3.53866 7.61876 3.55286 7.63473 3.56703L7.64052 3.57217L7.65951 3.58909C7.66887 3.59736 7.67818 3.60558 7.6873 3.61408C7.70225 3.62797 7.71679 3.64235 7.73129 3.65669L7.7313 3.6567L7.73131 3.65671L7.73132 3.65671L7.73133 3.65672L7.73134 3.65673L7.73134 3.65674L7.73135 3.65674L7.73137 3.65676L7.73916 3.66446L7.75134 3.6764C7.76223 3.68704 7.77315 3.69771 7.78378 3.70867L7.78682 3.71199ZM3.34505 5.41285H4.45164C4.45583 4.98078 4.51851 4.55127 4.63793 4.13601C4.39436 4.07098 4.15926 3.97743 3.93755 3.85729C3.57352 4.29603 3.36515 4.84311 3.34505 5.41285ZM5.83505 6.89197V8.08179C5.44015 8.02569 5.09393 7.61353 4.87613 7.00485C5.19104 6.93433 5.51239 6.89652 5.83505 6.89197ZM5.83455 5.59718H4.63598C4.64067 6.01397 4.70177 6.42825 4.81768 6.82864C5.15142 6.75248 5.49224 6.71183 5.83455 6.70733V5.59718ZM4.87613 4.00521C5.09393 3.39653 5.44015 2.98437 5.83505 2.92827V4.11809C5.51239 4.11358 5.19104 4.07578 4.87613 4.00521ZM5.83455 4.30261C5.49229 4.29811 5.15142 4.25746 4.81768 4.18135C4.70177 4.58174 4.64067 4.99597 4.63598 5.41276H5.83455V4.30261ZM5.27334 3.00574L5.28456 3.00301C5.01152 3.26813 4.80891 3.59714 4.69499 3.96026C4.47593 3.90249 4.26386 3.82088 4.06261 3.71687L4.06542 3.71389L4.07063 3.70817C4.08107 3.69738 4.09178 3.68689 4.10248 3.67642L4.11524 3.66388L4.12259 3.65664L4.12261 3.65661L4.12262 3.65661C4.13728 3.64216 4.15196 3.62769 4.16698 3.61368C4.17805 3.60322 4.18937 3.59323 4.20072 3.58322L4.21407 3.57141L4.22196 3.5644C4.23708 3.55097 4.25213 3.5376 4.26787 3.52463C4.28111 3.51344 4.29468 3.50262 4.30823 3.49181L4.30827 3.49179L4.31686 3.48493L4.33913 3.46742L4.33914 3.46741L4.3392 3.46736C4.35035 3.45852 4.36141 3.44976 4.37278 3.44122C4.38959 3.42882 4.40667 3.41657 4.42384 3.40426C4.44295 3.39061 4.46214 3.37696 4.48161 3.36384C4.49905 3.35203 4.51667 3.34059 4.53443 3.32923L4.5419 3.32455L4.54193 3.32453C4.55919 3.31373 4.57653 3.30287 4.59405 3.29232C4.61185 3.28151 4.63001 3.27092 4.64848 3.2606C4.66885 3.24897 4.68936 3.23762 4.71004 3.22653C4.72847 3.21671 4.74695 3.20706 4.76542 3.19765C4.78647 3.18701 4.80769 3.17678 4.82901 3.16673C4.84785 3.15794 4.86664 3.1492 4.88566 3.14087L4.95127 3.1132C4.97038 3.10535 4.98939 3.09769 5.00868 3.0903C5.02908 3.08257 5.0497 3.07529 5.0703 3.06802L5.07623 3.06592L5.08088 3.06431C5.09862 3.05813 5.11638 3.05194 5.13441 3.0461C5.15766 3.03871 5.18064 3.0319 5.20381 3.02514L5.21892 3.02074C5.23329 3.01653 5.24763 3.01234 5.26212 3.00847L5.27334 3.00574ZM4.11487 7.34582L4.12453 7.35534L4.12454 7.35535C4.13847 7.36911 4.15243 7.38289 4.16674 7.39624C4.17585 7.40469 4.18512 7.41287 4.19445 7.42111L4.19448 7.42114L4.21356 7.43811L4.2157 7.44002C4.23288 7.45529 4.25007 7.47058 4.26773 7.48529C4.28347 7.4985 4.29951 7.51126 4.31561 7.52407L4.31626 7.52459C4.33474 7.53955 4.35317 7.55442 4.37272 7.56879C4.38363 7.57698 4.39465 7.58499 4.40572 7.59304L4.40573 7.59305L4.42315 7.60575C4.44244 7.61958 4.46191 7.63342 4.48155 7.64671C4.49881 7.65834 4.51634 7.66969 4.53387 7.68087C4.55384 7.69367 4.57375 7.70624 4.59408 7.71841C4.61188 7.72913 4.62986 7.73963 4.64788 7.74991C4.66852 7.76171 4.68921 7.77316 4.71007 7.78429C4.71913 7.78883 4.72819 7.79356 4.73726 7.7983L4.73735 7.79835C4.74672 7.80324 4.75609 7.80813 4.76546 7.81282C4.78668 7.82354 4.80809 7.83386 4.83003 7.84404C4.84851 7.85274 4.86726 7.8613 4.88627 7.86969C4.90117 7.87629 4.91614 7.88245 4.93116 7.88863L4.95225 7.89736C4.97126 7.90511 4.99019 7.91277 5.00939 7.92007C5.03178 7.92867 5.0545 7.9367 5.07721 7.94454L5.08128 7.94596L5.08134 7.94598C5.09916 7.95222 5.117 7.95846 5.13507 7.96428C5.15814 7.97176 5.18122 7.97861 5.20492 7.98541L5.21068 7.9871C5.22798 7.99218 5.24534 7.99728 5.26278 8.00195L5.27524 8.00504L5.28531 8.00749C5.01214 7.7422 4.80944 7.41301 4.69547 7.04966C4.47642 7.10748 4.26435 7.18909 4.06309 7.29314L4.06762 7.29798L4.07107 7.3017C4.08486 7.31661 4.09972 7.33108 4.11472 7.34567L4.11477 7.34572L4.11487 7.34582ZM4.63793 6.87402C4.39436 6.93909 4.15926 7.03264 3.93755 7.15274C3.57352 6.71395 3.36519 6.16692 3.34505 5.59718H4.45164C4.45583 6.02925 4.51851 6.45875 4.63793 6.87402Z" fill="black"/>
</svg>
