<svg width="15" height="11" viewBox="0 0 15 11" fill="none" xmlns="http://www.w3.org/2000/svg">
<path d="M12.1878 0.651245H3.20355C2.84451 0.651245 2.489 0.721992 2.15732 0.859443C1.82563 0.996895 1.52429 1.19836 1.2705 1.45232C1.0167 1.70627 0.815442 2.00775 0.67821 2.33953C0.540978 2.6713 0.470466 3.02686 0.470704 3.3859V8.24469C0.470466 8.60372 0.540978 8.95928 0.67821 9.29105C0.815442 9.62283 1.0167 9.92431 1.2705 10.1783C1.52429 10.4322 1.82563 10.6337 2.15732 10.7711C2.489 10.9086 2.84451 10.9793 3.20355 10.9793H12.1878C12.5468 10.9793 12.9023 10.9086 13.234 10.7711C13.5657 10.6337 13.8671 10.4322 14.1208 10.1783C14.3746 9.92431 14.5759 9.62283 14.7131 9.29105C14.8504 8.95928 14.9209 8.60372 14.9206 8.24469V3.3859C14.9209 3.02686 14.8504 2.6713 14.7131 2.33953C14.5759 2.00775 14.3746 1.70627 14.1208 1.45232C13.8671 1.19836 13.5657 0.996895 13.234 0.859443C12.9023 0.721992 12.5468 0.651245 12.1878 0.651245ZM5.79189 8.02974V3.60084L9.59945 5.81529L5.79189 8.02974Z" fill="white"/>
</svg>
