<svg width="21" height="22" viewBox="0 0 21 22" fill="none" xmlns="http://www.w3.org/2000/svg">
<rect x="0.0214844" y="0.487183" width="20.6562" height="20.6562" rx="10.3281" fill="white"/>
<path d="M13.7287 6.92993H6.96919C6.69907 6.92993 6.43159 6.98316 6.18204 7.08657C5.93249 7.18999 5.70577 7.34156 5.51482 7.53263C5.32388 7.7237 5.17246 7.95053 5.06921 8.20014C4.96596 8.44976 4.91291 8.71727 4.91309 8.9874V12.643C4.91291 12.9131 4.96596 13.1806 5.06921 13.4303C5.17246 13.6799 5.32388 13.9067 5.51482 14.0978C5.70577 14.2888 5.93249 14.4404 6.18204 14.5438C6.43159 14.6472 6.69907 14.7005 6.96919 14.7005H13.7287C13.9988 14.7005 14.2663 14.6472 14.5158 14.5438C14.7654 14.4404 14.9921 14.2888 15.183 14.0978C15.374 13.9067 15.5254 13.6799 15.6286 13.4303C15.7319 13.1806 15.7849 12.9131 15.7848 12.643V8.9874C15.7849 8.71727 15.7319 8.44976 15.6286 8.20014C15.5254 7.95053 15.374 7.7237 15.183 7.53263C14.9921 7.34156 14.7654 7.18999 14.5158 7.08657C14.2663 6.98316 13.9988 6.92993 13.7287 6.92993ZM8.91658 12.4813V9.14911L11.7813 10.8152L8.91658 12.4813Z" fill="#099DAB"/>
</svg>
