<svg width="19" height="19" viewBox="0 0 19 19" fill="none" xmlns="http://www.w3.org/2000/svg">
<path d="M16.4289 0.960938H2.25463C1.1674 0.960938 0.321777 1.84683 0.321777 2.89379V17.0681C0.321777 18.1553 1.1674 19.0009 2.25463 19.0009H7.77133V12.8802H5.23446V9.98094H7.77133V7.80647C7.77133 5.30987 9.26124 3.90049 11.5162 3.90049C12.6437 3.90049 13.7712 4.10183 13.7712 4.10183V6.55817H12.5229C11.2746 6.55817 10.872 7.32326 10.872 8.12862V9.98094H13.6504L13.2075 12.8802H10.872V19.0009H16.4289C17.4759 19.0009 18.3618 18.1553 18.3618 17.0681V2.89379C18.3618 1.84683 17.4759 0.960938 16.4289 0.960938Z" fill="white"/>
</svg>
