<svg width="19" height="19" viewBox="0 0 19 19" fill="none" xmlns="http://www.w3.org/2000/svg">
<path d="M16.4956 0.960938H2.32129C1.23405 0.960938 0.388428 1.84683 0.388428 2.89379V17.0681C0.388428 18.1553 1.23405 19.0009 2.32129 19.0009H16.4956C17.5425 19.0009 18.4284 18.1553 18.4284 17.0681V2.89379C18.4284 1.84683 17.5425 0.960938 16.4956 0.960938ZM14.5224 7.36353C14.5224 7.48433 14.5224 7.60513 14.5224 7.72594C14.5224 11.189 11.8648 15.2158 6.99236 15.2158C5.50245 15.2158 4.13334 14.8131 2.96557 14.048C3.16691 14.0883 3.36825 14.0883 3.56959 14.0883C4.81789 14.0883 5.94539 13.6453 6.87155 12.9608C5.70379 12.9205 4.73736 12.1554 4.37495 11.1084C4.81789 11.189 5.1803 11.189 5.58298 11.0682C4.37495 10.8266 3.48905 9.7796 3.48905 8.49103V8.45076C3.8112 8.6521 4.21387 8.7729 4.65682 8.7729C3.932 8.28969 3.48905 7.48433 3.48905 6.59844C3.48905 6.07496 3.60986 5.63201 3.85146 5.22933C5.14004 6.84004 7.11316 7.88701 9.28762 8.00781C8.92521 6.23603 10.2541 4.74612 11.8648 4.74612C12.6299 4.74612 13.3144 5.06826 13.7976 5.59174C14.4016 5.47094 14.9654 5.2696 15.4889 4.94746C15.2875 5.59174 14.8446 6.07496 14.3211 6.3971C14.8446 6.35683 15.3681 6.19576 15.8513 5.99442C15.4889 6.5179 15.0057 7.00112 14.5224 7.36353Z" fill="white"/>
</svg>
