<svg width="19" height="19" viewBox="0 0 19 19" fill="none" xmlns="http://www.w3.org/2000/svg">
<path d="M9.49521 5.33C6.91807 5.33 4.86441 7.42393 4.86441 9.9608C4.86441 12.5379 6.91807 14.5916 9.49521 14.5916C12.0321 14.5916 14.126 12.5379 14.126 9.9608C14.126 7.42393 12.0321 5.33 9.49521 5.33ZM9.49521 12.9809C7.84423 12.9809 6.47512 11.6521 6.47512 9.9608C6.47512 8.30982 7.80396 6.98098 9.49521 6.98098C11.1462 6.98098 12.475 8.30982 12.475 9.9608C12.475 11.6521 11.1462 12.9809 9.49521 12.9809ZM15.3743 5.16893C15.3743 4.56491 14.8911 4.0817 14.2871 4.0817C13.6831 4.0817 13.1999 4.56491 13.1999 5.16893C13.1999 5.77295 13.6831 6.25616 14.2871 6.25616C14.8911 6.25616 15.3743 5.77295 15.3743 5.16893ZM18.4347 6.25616C18.3541 4.80652 18.032 3.51795 16.985 2.47098C15.9381 1.42402 14.6495 1.10188 13.1999 1.02134C11.7099 0.940804 7.24021 0.940804 5.7503 1.02134C4.30066 1.10188 3.05236 1.42402 1.96512 2.47098C0.918159 3.51795 0.596016 4.80652 0.51548 6.25616C0.434944 7.74607 0.434944 12.2158 0.51548 13.7057C0.596016 15.1554 0.918159 16.4037 1.96512 17.4909C3.05236 18.5379 4.30066 18.86 5.7503 18.9405C7.24021 19.0211 11.7099 19.0211 13.1999 18.9405C14.6495 18.86 15.9381 18.5379 16.985 17.4909C18.032 16.4037 18.3541 15.1554 18.4347 13.7057C18.5152 12.2158 18.5152 7.74607 18.4347 6.25616ZM16.5018 15.2762C16.2199 16.0815 15.5757 16.6855 14.8106 17.0077C13.6025 17.4909 10.7838 17.3701 9.49521 17.3701C8.16637 17.3701 5.34762 17.4909 4.17986 17.0077C3.3745 16.6855 2.77048 16.0815 2.44834 15.2762C1.96512 14.1084 2.08593 11.2896 2.08593 9.9608C2.08593 8.67223 1.96512 5.85348 2.44834 4.64545C2.77048 3.88036 3.3745 3.27634 4.17986 2.9542C5.34762 2.47098 8.16637 2.59179 9.49521 2.59179C10.7838 2.59179 13.6025 2.47098 14.8106 2.9542C15.5757 3.23607 16.1797 3.88036 16.5018 4.64545C16.985 5.85348 16.8642 8.67223 16.8642 9.9608C16.8642 11.2896 16.985 14.1084 16.5018 15.2762Z" fill="white"/>
</svg>
