<svg width="19" height="19" viewBox="0 0 19 19" fill="none" xmlns="http://www.w3.org/2000/svg">
<path d="M18.166 3.82667C17.9681 2.69917 17.3415 1.80656 16.5829 1.52469C15.1648 0.960938 9.55822 0.960938 9.55822 0.960938C9.55822 0.960938 3.91866 0.960938 2.50052 1.52469C1.74198 1.80656 1.11537 2.69917 0.917487 3.82667C0.521729 5.79979 0.521729 10.0279 0.521729 10.0279C0.521729 10.0279 0.521729 14.2091 0.917487 16.2292C1.11537 17.3567 1.74198 18.2023 2.50052 18.4842C3.91866 19.0009 9.55822 19.0009 9.55822 19.0009C9.55822 19.0009 15.1648 19.0009 16.5829 18.4842C17.3415 18.2023 17.9681 17.3567 18.166 16.2292C18.5617 14.2091 18.5617 10.0279 18.5617 10.0279C18.5617 10.0279 18.5617 5.79979 18.166 3.82667ZM7.71134 13.8332V6.2226L12.3945 10.0279L7.71134 13.8332Z" fill="white"/>
</svg>
