<svg width="22" height="21" viewBox="0 0 22 21" fill="none" xmlns="http://www.w3.org/2000/svg">
<path d="M18.9421 0.5H3.00782C1.78559 0.5 0.834961 1.49589 0.834961 2.67286V18.6071C0.834961 19.8294 1.78559 20.78 3.00782 20.78H9.20951V13.8993H6.35764V10.64H9.20951V8.19554C9.20951 5.38893 10.8844 3.80455 13.4194 3.80455C14.6869 3.80455 15.9544 4.03089 15.9544 4.03089V6.79223H14.5511C13.1478 6.79223 12.6951 7.65232 12.6951 8.55768V10.64H15.8186L15.3207 13.8993H12.6951V20.78H18.9421C20.1191 20.78 21.115 19.8294 21.115 18.6071V2.67286C21.115 1.49589 20.1191 0.5 18.9421 0.5Z" fill="#242424"/>
</svg>
