<svg width="21" height="21" viewBox="0 0 21 21" fill="none" xmlns="http://www.w3.org/2000/svg">
<path d="M10.5976 5.41156C7.70043 5.41156 5.39177 7.76549 5.39177 10.6174C5.39177 13.5145 7.70043 15.8232 10.5976 15.8232C13.4494 15.8232 15.8034 13.5145 15.8034 10.6174C15.8034 7.76549 13.4494 5.41156 10.5976 5.41156ZM10.5976 14.0125C8.74159 14.0125 7.20248 12.5186 7.20248 10.6174C7.20248 8.76138 8.69632 7.26754 10.5976 7.26754C12.4536 7.26754 13.9474 8.76138 13.9474 10.6174C13.9474 12.5186 12.4536 14.0125 10.5976 14.0125ZM17.2067 5.23049C17.2067 4.55147 16.6635 4.00826 15.9844 4.00826C15.3054 4.00826 14.7622 4.55147 14.7622 5.23049C14.7622 5.90951 15.3054 6.45272 15.9844 6.45272C16.6635 6.45272 17.2067 5.90951 17.2067 5.23049ZM20.647 6.45272C20.5565 4.82308 20.1944 3.37451 19.0174 2.19754C17.8404 1.02058 16.3919 0.658438 14.7622 0.567902C13.0873 0.477366 8.06257 0.477366 6.38766 0.567902C4.75802 0.658438 3.35471 1.02058 2.13248 2.19754C0.955517 3.37451 0.593374 4.82308 0.502838 6.45272C0.412303 8.12763 0.412303 13.1524 0.502838 14.8273C0.593374 16.4569 0.955517 17.8602 2.13248 19.0825C3.35471 20.2594 4.75802 20.6216 6.38766 20.7121C8.06257 20.8026 13.0873 20.8026 14.7622 20.7121C16.3919 20.6216 17.8404 20.2594 19.0174 19.0825C20.1944 17.8602 20.5565 16.4569 20.647 14.8273C20.7376 13.1524 20.7376 8.12763 20.647 6.45272ZM18.4742 16.5927C18.1573 17.4981 17.433 18.1771 16.5729 18.5392C15.2149 19.0825 12.0461 18.9467 10.5976 18.9467C9.10373 18.9467 5.93498 19.0825 4.62221 18.5392C3.71686 18.1771 3.03784 17.4981 2.6757 16.5927C2.13248 15.28 2.26828 12.1112 2.26828 10.6174C2.26828 9.16879 2.13248 6.00004 2.6757 4.64201C3.03784 3.78192 3.71686 3.1029 4.62221 2.74076C5.93498 2.19754 9.10373 2.33335 10.5976 2.33335C12.0461 2.33335 15.2149 2.19754 16.5729 2.74076C17.433 3.05763 18.112 3.78192 18.4742 4.64201C19.0174 6.00004 18.8816 9.16879 18.8816 10.6174C18.8816 12.1112 19.0174 15.28 18.4742 16.5927Z" fill="#242424"/>
</svg>
