<svg width="21" height="21" viewBox="0 0 21 21" fill="none" xmlns="http://www.w3.org/2000/svg">
<path d="M18.742 0.5H2.80774C1.58551 0.5 0.634888 1.49589 0.634888 2.67286V18.6071C0.634888 19.8294 1.58551 20.78 2.80774 20.78H18.742C19.919 20.78 20.9149 19.8294 20.9149 18.6071V2.67286C20.9149 1.49589 19.919 0.5 18.742 0.5ZM16.5239 7.69759C16.5239 7.83339 16.5239 7.9692 16.5239 8.105C16.5239 11.998 13.5362 16.5248 8.05882 16.5248C6.38391 16.5248 4.8448 16.0721 3.53203 15.2121C3.75837 15.2573 3.98471 15.2573 4.21105 15.2573C5.61435 15.2573 6.88185 14.7594 7.92301 13.9898C6.61024 13.9446 5.52382 13.0845 5.11641 11.9075C5.61435 11.998 6.02176 11.998 6.47444 11.8622C5.11641 11.5906 4.12051 10.4137 4.12051 8.96509V8.91982C4.48266 9.14616 4.93533 9.28196 5.43328 9.28196C4.61846 8.73875 4.12051 7.83339 4.12051 6.8375C4.12051 6.24902 4.25632 5.75107 4.52792 5.29839C5.97649 7.10911 8.19462 8.28607 10.6391 8.42188C10.2317 6.43009 11.7255 4.75518 13.5362 4.75518C14.3963 4.75518 15.1659 5.11732 15.7091 5.7058C16.3881 5.57 17.0219 5.34366 17.6103 4.98152C17.384 5.7058 16.886 6.24902 16.2976 6.61116C16.886 6.56589 17.4745 6.38482 18.0177 6.15848C17.6103 6.74696 17.0671 7.29018 16.5239 7.69759Z" fill="#242424"/>
</svg>
