<svg width="32" height="21" viewBox="0 0 32 21" fill="none" xmlns="http://www.w3.org/2000/svg">
<path opacity="0.5" d="M20.7125 21C18.6358 21.0003 16.6056 20.3848 14.8788 19.2313C13.1519 18.0778 11.8058 16.4381 11.0108 14.5196C10.2158 12.6011 10.0076 10.4899 10.4124 8.45309C10.8172 6.41623 11.817 4.54516 13.2852 3.07649C14.7535 1.60782 16.6242 0.607511 18.661 0.202064C20.6977 -0.203384 22.8089 0.00423713 24.7277 0.798672C26.6464 1.59311 28.2865 2.93867 29.4405 4.66522C30.5945 6.39176 31.2106 8.42174 31.2109 10.4984V10.5C31.208 13.2836 30.1011 15.9524 28.1329 17.9209C26.1648 19.8893 23.4961 20.9967 20.7125 21Z" fill="#EBA140"/>
<path d="M10.5 21C8.4233 21 6.39323 20.3842 4.66652 19.2304C2.9398 18.0767 1.59399 16.4368 0.799269 14.5182C0.0045495 12.5996 -0.203385 10.4884 0.201759 8.45155C0.606904 6.41475 1.60693 4.54383 3.07538 3.07538C4.54383 1.60693 6.41475 0.606904 8.45156 0.201759C10.4884 -0.203386 12.5996 0.00454977 14.5182 0.79927C16.4368 1.59399 18.0767 2.9398 19.2304 4.66652C20.3842 6.39323 21 8.4233 21 10.5C20.9971 13.2839 19.8899 15.9529 17.9214 17.9214C15.9529 19.8899 13.2839 20.9971 10.5 21Z" fill="#D82E2B"/>
</svg>
