<svg width="27" height="21" viewBox="0 0 27 21" fill="none" xmlns="http://www.w3.org/2000/svg">
<path d="M8.73281 10.6031C8.73281 11.175 8.27812 11.6109 7.70156 11.6109C7.27031 11.6109 6.95156 11.3672 6.95156 10.9078C6.95156 10.3359 7.39687 9.87656 7.96875 9.87656C8.40469 9.87656 8.73281 10.1438 8.73281 10.6031ZM3.77344 8.32969H3.55313C3.48281 8.32969 3.4125 8.37656 3.40312 8.45625L3.20156 9.70781L3.58594 9.69375C4.10156 9.69375 4.5 9.62344 4.59375 9.02813C4.70156 8.4 4.30312 8.32969 3.77344 8.32969ZM17.0859 8.32969H16.875C16.7906 8.32969 16.7344 8.37656 16.725 8.45625L16.5281 9.70781L16.9031 9.69375C17.5125 9.69375 17.9344 9.55313 17.9344 8.85C17.9297 8.35313 17.4844 8.32969 17.0859 8.32969ZM27 2.25V18.75C27 19.9922 25.9922 21 24.75 21H2.25C1.00781 21 0 19.9922 0 18.75V2.25C0 1.00781 1.00781 0 2.25 0H24.75C25.9922 0 27 1.00781 27 2.25ZM6.01406 8.59687C6.01406 7.6125 5.25469 7.28437 4.3875 7.28437H2.5125C2.39531 7.28437 2.27813 7.37813 2.26875 7.50469L1.5 12.2906C1.48594 12.3844 1.55625 12.4781 1.65 12.4781H2.54063C2.66719 12.4781 2.78437 12.3422 2.79844 12.2109L3.00937 10.9641C3.05625 10.6266 3.62812 10.7438 3.85312 10.7438C5.19375 10.7438 6.01406 9.94687 6.01406 8.59687ZM9.96094 9.00937H9.07031C8.89219 9.00937 8.88281 9.26719 8.87344 9.39375C8.60156 8.99531 8.20781 8.925 7.7625 8.925C6.61406 8.925 5.7375 9.93281 5.7375 11.0438C5.7375 11.9578 6.30938 12.5531 7.22344 12.5531C7.64531 12.5531 8.17031 12.3234 8.46563 11.9953C8.44219 12.0656 8.41875 12.2156 8.41875 12.2859C8.41875 12.3938 8.46562 12.4734 8.56875 12.4734H9.375C9.50156 12.4734 9.60938 12.3375 9.63281 12.2062L10.1109 9.19219C10.125 9.10313 10.0547 9.00937 9.96094 9.00937ZM11.8594 13.5984L14.8453 9.25781C14.8688 9.23438 14.8688 9.21094 14.8688 9.17813C14.8688 9.09844 14.7984 9.01406 14.7188 9.01406H13.8187C13.7391 9.01406 13.6547 9.06094 13.6078 9.13125L12.3656 10.9594L11.85 9.20156C11.8125 9.09844 11.7094 9.01406 11.5922 9.01406H10.7156C10.6359 9.01406 10.5656 9.09844 10.5656 9.17813C10.5656 9.23438 11.4797 11.8406 11.5594 12.0891C11.4328 12.2672 10.5984 13.4297 10.5984 13.5703C10.5984 13.6547 10.6687 13.7203 10.7484 13.7203H11.6484C11.7328 13.7156 11.8125 13.6688 11.8594 13.5984ZM19.3266 8.59687C19.3266 7.6125 18.5672 7.28437 17.7 7.28437H15.8391C15.7125 7.28437 15.5953 7.37813 15.5812 7.50469L14.8219 12.2859C14.8125 12.3797 14.8828 12.4734 14.9719 12.4734H15.9328C16.0266 12.4734 16.0969 12.4031 16.1203 12.3234L16.3312 10.9641C16.3781 10.6266 16.95 10.7438 17.175 10.7438C18.5063 10.7438 19.3266 9.94687 19.3266 8.59687ZM23.2734 9.00937H22.3828C22.2047 9.00937 22.1953 9.26719 22.1813 9.39375C21.9234 8.99531 21.525 8.925 21.0703 8.925C19.9219 8.925 19.0453 9.93281 19.0453 11.0438C19.0453 11.9578 19.6172 12.5531 20.5312 12.5531C20.9672 12.5531 21.4922 12.3234 21.7734 11.9953C21.7594 12.0656 21.7266 12.2156 21.7266 12.2859C21.7266 12.3938 21.7734 12.4734 21.8766 12.4734H22.6875C22.8141 12.4734 22.9219 12.3375 22.9453 12.2062L23.4234 9.19219C23.4375 9.10313 23.3672 9.00937 23.2734 9.00937ZM25.5 7.44844C25.5 7.35469 25.4297 7.28437 25.35 7.28437H24.4828C24.4125 7.28437 24.3422 7.34063 24.3328 7.41094L23.5734 12.2859L23.5594 12.3094C23.5594 12.3938 23.6297 12.4734 23.7234 12.4734H24.4969C24.6141 12.4734 24.7312 12.3375 24.7406 12.2062L25.5 7.4625V7.44844ZM21.2812 9.87656C20.7094 9.87656 20.2641 10.3313 20.2641 10.9078C20.2641 11.3625 20.5922 11.6109 21.0234 11.6109C21.5859 11.6109 22.0406 11.1797 22.0406 10.6031C22.0453 10.1438 21.7172 9.87656 21.2812 9.87656Z" fill="black"/>
</svg>
