<svg width="63" height="21" viewBox="0 0 63 21" fill="none" xmlns="http://www.w3.org/2000/svg">
<path d="M32.5821 6.71346C32.5461 9.63884 35.1077 11.2712 37.0374 12.2419C39.0199 13.2377 39.6858 13.8763 39.6779 14.7669C39.6632 16.1298 38.0965 16.7313 36.6306 16.7547C34.0729 16.7956 32.5858 16.0419 31.4035 15.4718L30.4822 19.9222C31.6683 20.4864 33.8647 20.9784 36.1423 21C41.4887 21 44.9864 18.2758 45.0054 14.0521C45.0263 8.69157 37.8224 8.39487 37.8716 5.99887C37.8886 5.27235 38.5602 4.49706 40.0318 4.29993C40.7603 4.20036 42.7711 4.12415 45.0509 5.20783L45.9457 0.902054C44.7197 0.441246 43.1439 0 41.1821 0C36.1499 0 32.6106 2.76129 32.5821 6.71346ZM54.5437 0.37088C53.5675 0.37088 52.7448 0.9587 52.3776 1.86075L44.7406 20.6837H50.083L51.1462 17.6509H57.6745L58.2912 20.6837H63L58.891 0.37088H54.5437ZM55.2911 5.85814L56.8329 13.4858H52.6104L55.2911 5.85814ZM26.1046 0.371134L21.8935 20.6835H26.9844L31.1936 0.370626H26.1046M18.5734 0.370626L13.2745 14.1966L11.1311 2.44096C10.8796 1.12865 9.88632 0.37088 8.78333 0.37088H0.121324L0 0.960733C1.77827 1.35905 3.7987 2.00149 5.02277 2.68889C5.77188 3.1088 5.98549 3.47587 6.23159 4.47369L10.2914 20.6837H15.6713L23.9193 0.37088L18.5734 0.370626Z" fill="url(#paint0_linear_1011_2608)"/>
<defs>
<linearGradient id="paint0_linear_1011_2608" x1="2896.36" y1="63.126" x2="2959.1" y2="-2093.49" gradientUnits="userSpaceOnUse">
<stop stop-color="#222357"/>
<stop offset="1" stop-color="#254AA5"/>
</linearGradient>
</defs>
</svg>
