<svg width="20" height="19" viewBox="0 0 20 19" fill="none" xmlns="http://www.w3.org/2000/svg">
<g id="instagram">
<rect x="0.538086" y="0.0454102" width="18.7208" height="18.7208" rx="4.68019" fill="#EAAD1E"/>
<g id="Group">
<g id="Group_2">
<path id="Vector" d="M9.89842 5.01807C8.70444 5.01807 8.55617 5.02392 8.08989 5.04343C7.62167 5.06684 7.30366 5.13903 7.02468 5.24828C6.73594 5.36143 6.49012 5.51166 6.2482 5.75552C6.00433 5.99744 5.85216 6.24326 5.74095 6.532C5.6317 6.81099 5.55952 7.12899 5.5361 7.59722C5.51464 8.06545 5.51074 8.21372 5.51074 9.40575C5.51074 10.5978 5.5166 10.748 5.5361 11.2143C5.55952 11.6825 5.6317 12.0005 5.74095 12.2795C5.85411 12.5682 6.00433 12.8141 6.2482 13.056C6.49012 13.2998 6.73594 13.452 7.02468 13.5632C7.30366 13.6705 7.62362 13.7447 8.08989 13.7681C8.55812 13.7895 8.70639 13.7934 9.89842 13.7934C11.0905 13.7934 11.2407 13.7876 11.707 13.7681C12.1752 13.7447 12.4932 13.6705 12.7722 13.5632C13.0609 13.4501 13.3067 13.2998 13.5486 13.056C13.7925 12.8141 13.9447 12.5682 14.0559 12.2795C14.1632 12.0005 14.2373 11.6806 14.2607 11.2143C14.2822 10.746 14.2861 10.5978 14.2861 9.40575C14.2861 8.21372 14.2803 8.0635 14.2607 7.59722C14.2373 7.12899 14.1632 6.80904 14.0559 6.532C13.9427 6.24326 13.7925 5.99744 13.5486 5.75552C13.3067 5.51166 13.0609 5.35948 12.7722 5.24828C12.4932 5.13903 12.1732 5.06684 11.707 5.04343C11.2407 5.02197 11.0924 5.01807 9.89842 5.01807ZM9.89842 5.8082C11.0709 5.8082 11.2095 5.81405 11.6738 5.83356C12.101 5.85307 12.3332 5.92526 12.4873 5.98574C12.6941 6.06573 12.8365 6.15937 12.9926 6.3135C13.1448 6.46567 13.2404 6.61199 13.3204 6.81879C13.3809 6.97292 13.453 7.20508 13.4726 7.63234C13.4921 8.09471 13.4979 8.23518 13.4979 9.4077C13.4979 10.5802 13.4921 10.7187 13.4706 11.1831C13.4472 11.6103 13.377 11.8425 13.3165 11.9966C13.2326 12.2034 13.1409 12.3458 12.9868 12.5019C12.8326 12.6541 12.6844 12.7497 12.4815 12.8297C12.3293 12.8901 12.0932 12.9623 11.664 12.9818C11.1978 13.0013 11.0612 13.0072 9.88672 13.0072C8.71225 13.0072 8.57568 13.0013 8.1094 12.9799C7.68215 12.9565 7.44608 12.8862 7.29196 12.8258C7.08321 12.7419 6.94079 12.6502 6.78666 12.496C6.63254 12.3419 6.53304 12.1937 6.4589 11.9908C6.39647 11.8386 6.32624 11.6025 6.30478 11.1733C6.28917 10.7129 6.28137 10.5705 6.28137 9.40184C6.28137 8.23323 6.28917 8.09081 6.30478 7.62453C6.32819 7.19532 6.39842 6.96121 6.4589 6.80709C6.53499 6.59833 6.63254 6.45591 6.78666 6.30179C6.93884 6.14962 7.08321 6.05012 7.29196 5.97208C7.44608 5.9116 7.67629 5.84137 8.1055 5.81991C8.57178 5.80235 8.70834 5.79649 9.88086 5.79649L9.89842 5.8082ZM9.89842 7.15435C8.65177 7.15435 7.64508 8.16299 7.64508 9.4077C7.64508 10.6544 8.65372 11.661 9.89842 11.661C11.1451 11.661 12.1518 10.6524 12.1518 9.4077C12.1518 8.16299 11.1431 7.15435 9.89842 7.15435ZM9.89842 10.8709C9.08878 10.8709 8.43521 10.2173 8.43521 9.4077C8.43521 8.59805 9.08878 7.94449 9.89842 7.94449C10.7081 7.94449 11.3616 8.59805 11.3616 9.4077C11.3616 10.2173 10.7081 10.8709 9.89842 10.8709ZM12.7702 7.06461C12.7702 7.35725 12.5322 7.59137 12.2435 7.59137C11.9508 7.59137 11.7167 7.3553 11.7167 7.06461C11.7167 6.77392 11.9547 6.53785 12.2435 6.53785C12.5322 6.53785 12.7702 6.77392 12.7702 7.06461Z" fill="black"/>
</g>
</g>
</g>
</svg>
