<svg width="20" height="19" viewBox="0 0 20 19" fill="none" xmlns="http://www.w3.org/2000/svg">
<g id="linkedin">
<rect x="0.736328" y="0.0454102" width="18.7208" height="18.7208" rx="4.68019" fill="#EAAD1E"/>
<path id="Vector" d="M7.68344 13.7934H5.86569V7.93274H7.68344V13.7934ZM6.77456 7.14923C6.17909 7.14923 5.70898 6.64778 5.70898 6.08365C5.70898 5.51952 6.17909 5.01807 6.77456 5.01807C7.37003 5.01807 7.84014 5.48818 7.84014 6.08365C7.8088 6.64778 7.33869 7.14923 6.77456 7.14923ZM14.4843 13.7934H12.6666V10.9414C12.6666 10.2519 12.6666 9.40575 11.7264 9.40575C10.7862 9.40575 10.6295 10.1579 10.6295 10.9101V13.7934H8.8117V7.93274H10.5668V8.74759H10.5981C10.8488 8.27749 11.4443 7.80738 12.3218 7.80738C14.1709 7.80738 14.5157 9.02966 14.5157 10.5967L14.4843 13.7934Z" fill="black"/>
</g>
</svg>
