<svg width="20" height="19" viewBox="0 0 20 19" fill="none" xmlns="http://www.w3.org/2000/svg">
<g id="medium">
<rect x="0.939453" y="0.0454102" width="18.7208" height="18.7208" rx="4.68019" fill="#EAAD1E"/>
<path id="Vector" d="M8.26004 6.7439C9.7181 6.7439 10.9 7.93402 10.9 9.40195C10.9 10.8699 9.71799 12.0599 8.26004 12.0599C6.80216 12.0599 5.62012 10.8699 5.62012 9.40195C5.62012 7.93405 6.80205 6.7439 8.26004 6.7439ZM12.4759 6.89959C13.2049 6.89959 13.7959 8.01983 13.7959 9.40195H13.796C13.796 10.7837 13.205 11.9043 12.476 11.9043C11.747 11.9043 11.156 10.7837 11.156 9.40195C11.156 8.0202 11.7469 6.89959 12.4759 6.89959H12.4759ZM14.5162 7.16025C14.7726 7.16025 14.9805 8.1639 14.9805 9.40199C14.9805 10.6397 14.7727 11.6437 14.5162 11.6437C14.2598 11.6437 14.0521 10.64 14.0521 9.40199C14.0521 8.16397 14.2599 7.16025 14.5162 7.16025Z" fill="black"/>
</g>
</svg>
