<svg width="20" height="19" viewBox="0 0 20 19" fill="none" xmlns="http://www.w3.org/2000/svg">
<rect x="0.339844" y="0.0454102" width="18.7208" height="18.7208" rx="4.68019" fill="#EAAD1E"/>
<path d="M12.763 5.8844H6.63689C6.39208 5.8844 6.14966 5.93264 5.9235 6.02636C5.69733 6.12009 5.49185 6.25746 5.3188 6.43063C5.14574 6.6038 5.00851 6.80937 4.91493 7.03559C4.82136 7.26182 4.77328 7.50427 4.77344 7.74909V11.0622C4.77328 11.307 4.82136 11.5494 4.91493 11.7757C5.00851 12.0019 5.14574 12.2075 5.3188 12.3806C5.49185 12.5538 5.69733 12.6912 5.9235 12.7849C6.14966 12.8786 6.39208 12.9269 6.63689 12.9269H12.763C13.0078 12.9269 13.2503 12.8786 13.4764 12.7849C13.7026 12.6912 13.9081 12.5538 14.0811 12.3806C14.2542 12.2075 14.3914 12.0019 14.485 11.7757C14.5786 11.5494 14.6266 11.307 14.6265 11.0622V7.74909C14.6266 7.50427 14.5786 7.26182 14.485 7.03559C14.3914 6.80937 14.2542 6.6038 14.0811 6.43063C13.9081 6.25746 13.7026 6.12009 13.4764 6.02636C13.2503 5.93264 13.0078 5.8844 12.763 5.8844ZM8.40182 10.9156V7.89565L10.9981 9.40563L8.40182 10.9156Z" fill="black"/>
</svg>
