<svg width="18" height="18" viewBox="0 0 18 18" fill="none" xmlns="http://www.w3.org/2000/svg">
<path fill-rule="evenodd" clip-rule="evenodd" d="M18 9C18 13.9707 13.9707 18 9 18C4.0293 18 0 13.9707 0 9C0 4.0293 4.0293 0 9 0C13.9707 0 18 4.0293 18 9ZM11.7 6.3C11.7 7.01608 11.4155 7.70284 10.9092 8.20919C10.4028 8.71554 9.71609 9 9 9C8.28392 9 7.59716 8.71554 7.09081 8.20919C6.58446 7.70284 6.3 7.01608 6.3 6.3C6.3 5.58392 6.58446 4.89716 7.09081 4.39081C7.59716 3.88446 8.28392 3.6 9 3.6C9.71609 3.6 10.4028 3.88446 10.9092 4.39081C11.4155 4.89716 11.7 5.58392 11.7 6.3ZM9 16.65C10.5446 16.6525 12.0535 16.1851 13.3263 15.3099C13.8699 14.9364 14.1021 14.2254 13.7853 13.6467C13.131 12.447 11.781 11.7 9 11.7C6.219 11.7 4.869 12.447 4.2138 13.6467C3.8979 14.2254 4.1301 14.9364 4.6737 15.3099C5.94648 16.1851 7.45535 16.6525 9 16.65Z" fill="#7E7E7E"/>
</svg>
