<svg width="17" height="16" viewBox="0 0 17 16" fill="none" xmlns="http://www.w3.org/2000/svg">
<path d="M14.7812 13.5312V4.96875L2.37531 4.96875C2.37524 4.96875 2.37517 4.96875 2.37511 4.96875H2.375V4.71875C2.19401 4.71897 2.01473 4.6904 1.84375 4.63463L14.7812 13.5312ZM14.7812 13.5312H2.375C2.2341 13.5312 2.09898 13.4753 1.99935 13.3757C1.89972 13.276 1.84375 13.1409 1.84375 13V4.89583L14.7812 13.5312ZM13.5082 1.24177L13.3316 1.41837L13.5082 1.24177C13.3734 1.10697 13.1906 1.03125 13 1.03125H2.375C1.85286 1.03125 1.3521 1.23867 0.982883 1.60788C0.613671 1.9771 0.40625 2.47786 0.40625 3V13C0.40625 13.5221 0.613671 14.0229 0.982884 14.3921C1.3521 14.7613 1.85286 14.9688 2.375 14.9688H14.875C15.2314 14.9688 15.5732 14.8272 15.8252 14.5752C16.0772 14.3232 16.2188 13.9814 16.2188 13.625V4.875C16.2188 4.51862 16.0772 4.17683 15.8252 3.92482C15.5732 3.67282 15.2314 3.53125 14.875 3.53125H2.375C2.2341 3.53125 2.09898 3.47528 1.99935 3.37565C1.89972 3.27602 1.84375 3.1409 1.84375 3C1.84375 2.8591 1.89972 2.72398 1.99935 2.62435C2.09898 2.52472 2.2341 2.46875 2.375 2.46875H13C13.1906 2.46875 13.3734 2.39303 13.5082 2.25823L13.3315 2.08146L13.5082 2.25823C13.643 2.12344 13.7188 1.94062 13.7188 1.75C13.7188 1.55938 13.643 1.37656 13.5082 1.24177ZM12.92 9.51043C13.0333 9.34084 13.0938 9.14146 13.0938 8.9375C13.0938 8.664 12.9851 8.40169 12.7917 8.2083C12.5983 8.0149 12.336 7.90625 12.0625 7.90625C11.8585 7.90625 11.6592 7.96673 11.4896 8.08005C11.32 8.19336 11.1878 8.35442 11.1097 8.54286C11.0317 8.7313 11.0113 8.93864 11.0511 9.13869C11.0909 9.33873 11.1891 9.52248 11.3333 9.6667C11.4775 9.81093 11.6613 9.90914 11.8613 9.94893C12.0614 9.98873 12.2687 9.9683 12.4571 9.89025C12.6456 9.8122 12.8066 9.68002 12.92 9.51043Z" fill="#7E7E7E" stroke="#7E7E7E" stroke-width="0.5"/>
</svg>
