<svg width="22" height="22" viewBox="0 0 22 22" fill="none" xmlns="http://www.w3.org/2000/svg">
<path d="M19.3438 16.1563H17.6961C17.5836 16.1563 17.4781 16.2055 17.4078 16.2922C17.2438 16.4914 17.068 16.6836 16.8828 16.8664C16.1255 17.6245 15.2285 18.2286 14.2414 18.6453C13.2187 19.0773 12.1195 19.2989 11.0094 19.2969C9.88672 19.2969 8.79922 19.0766 7.77735 18.6453C6.79023 18.2286 5.89322 17.6245 5.13594 16.8664C4.3773 16.111 3.77239 15.2155 3.35469 14.2297C2.9211 13.2078 2.70313 12.1227 2.70313 11C2.70313 9.87738 2.92344 8.79222 3.35469 7.77035C3.77188 6.78363 4.37188 5.89535 5.13594 5.13363C5.9 4.37191 6.78828 3.77191 7.77735 3.35472C8.79922 2.92347 9.88672 2.70316 11.0094 2.70316C12.132 2.70316 13.2195 2.92113 14.2414 3.35472C15.2305 3.77191 16.1188 4.37191 16.8828 5.13363C17.068 5.31879 17.2414 5.51097 17.4078 5.70785C17.4781 5.79457 17.5859 5.84379 17.6961 5.84379H19.3438C19.4914 5.84379 19.5828 5.67972 19.5008 5.5555C17.7031 2.76175 14.5578 0.912535 10.9836 0.92191C5.36797 0.935973 0.865628 5.49457 0.921878 11.1032C0.978128 16.6227 5.47344 21.0782 11.0094 21.0782C14.5742 21.0782 17.7055 19.2313 19.5008 16.4446C19.5805 16.3203 19.4914 16.1563 19.3438 16.1563ZM21.4273 10.8524L18.1016 8.22738C17.9773 8.12894 17.7969 8.218 17.7969 8.37504V10.1563H10.4375C10.3344 10.1563 10.25 10.2407 10.25 10.3438V11.6563C10.25 11.7594 10.3344 11.8438 10.4375 11.8438H17.7969V13.625C17.7969 13.7821 17.9797 13.8711 18.1016 13.7727L21.4273 11.1477C21.4498 11.1302 21.4679 11.1077 21.4803 11.0822C21.4928 11.0566 21.4993 11.0285 21.4993 11C21.4993 10.9716 21.4928 10.9435 21.4803 10.9179C21.4679 10.8923 21.4498 10.8699 21.4273 10.8524Z" fill="#7E7E7E"/>
</svg>
