<svg width="19" height="20" viewBox="0 0 19 20" fill="none" xmlns="http://www.w3.org/2000/svg">
<g clip-path="url(#clip0_1151_2899)">
<path d="M1.77445 11.2092L8.22606 18.9511C8.79057 19.5963 9.44918 19.9189 10.2019 19.9189C10.8739 19.9189 11.4519 19.7172 11.9357 19.314L17.5406 14.5963C18.0782 14.1124 18.3873 13.5076 18.468 12.7818C18.5486 12.1097 18.347 11.4511 17.8632 10.806L11.4115 3.06402C10.7126 2.15004 9.79864 1.57209 8.66961 1.33015L3.06477 0.0398275C2.52713 -0.121463 2.01638 -0.000495028 1.53251 0.402731L0.847026 1.00757C0.4438 1.30327 0.242188 1.78714 0.242188 2.45918L0.564768 8.22531C0.699177 9.38122 1.1024 10.3758 1.77445 11.2092ZM2.74219 1.69305L8.42767 3.06402C9.01907 3.19843 9.61047 3.56133 10.2019 4.15273L16.6535 11.8947C16.8685 12.1097 16.9357 12.3517 16.8551 12.6205C16.8551 12.7818 16.7341 13.0103 16.4922 13.306L10.8873 18.0237C10.6992 18.185 10.4707 18.2589 10.2019 18.2455C9.93305 18.232 9.73143 18.1312 9.59703 17.9431L3.14541 10.2011C2.63466 9.55596 2.37928 8.89735 2.37928 8.22531L1.97606 2.29789L2.74219 1.69305ZM5.04057 4.51563C5.04057 4.75757 4.95993 4.95918 4.79864 5.12047C4.63735 5.28176 4.43574 5.36241 4.1938 5.36241C3.95186 5.36241 3.75025 5.28176 3.58896 5.12047C3.42767 4.95918 3.34703 4.75757 3.34703 4.51563C3.34703 4.2737 3.42767 4.07209 3.58896 3.9108C3.75025 3.7495 3.95186 3.66886 4.1938 3.66886C4.43574 3.66886 4.63735 3.7495 4.79864 3.9108C4.95993 4.07209 5.04057 4.2737 5.04057 4.51563ZM5.48412 10.5237L13.3873 13.0237H13.6696C14.046 13.0237 14.3282 12.8221 14.5164 12.4189C14.597 12.2038 14.5836 11.9888 14.4761 11.7737C14.3685 11.5586 14.2072 11.4108 13.9922 11.3302L6.08896 8.83015C5.87391 8.72262 5.65213 8.72262 5.42364 8.83015C5.19514 8.93768 5.04057 9.09897 4.95993 9.31402C4.79864 9.9323 4.97337 10.3355 5.48412 10.5237ZM11.9357 14.3947C11.9357 14.7441 11.8148 15.0465 11.5728 15.3019C11.3309 15.5573 11.0218 15.685 10.6454 15.685C10.2691 15.685 9.95993 15.5573 9.71799 15.3019C9.47606 15.0465 9.35509 14.7441 9.35509 14.3947C9.35509 14.0452 9.48278 13.7428 9.73816 13.4874C9.99353 13.232 10.296 13.1043 10.6454 13.1043C10.9949 13.1043 11.2973 13.232 11.5527 13.4874C11.808 13.7428 11.9357 14.0452 11.9357 14.3947ZM9.35509 7.53983C9.35509 7.88929 9.2274 8.19171 8.97203 8.44709C8.71665 8.70246 8.41423 8.83015 8.06477 8.83015C7.71531 8.83015 7.41289 8.70246 7.15751 8.44709C6.90213 8.19171 6.77445 7.88929 6.77445 7.53983C6.77445 7.19036 6.89541 6.88795 7.13735 6.63257C7.37928 6.37719 7.68842 6.2495 8.06477 6.2495C8.44111 6.2495 8.75025 6.37719 8.99219 6.63257C9.23412 6.88795 9.35509 7.19036 9.35509 7.53983Z" fill="#00C5F7"/>
</g>
<defs>
<clipPath id="clip0_1151_2899">
<rect width="18.7097" height="20" fill="white"/>
</clipPath>
</defs>
</svg>
