<svg width="24" height="24" viewBox="0 0 24 24" fill="none" xmlns="http://www.w3.org/2000/svg">
<g clip-path="url(#clip0_1009_7684)">
<path d="M7.90678 11.0329C7.41363 11.0346 6.9292 11.1631 6.50012 11.4062C7.10422 9.84256 8.10616 8.46375 9.40678 7.40623C9.4812 7.34494 9.54282 7.2696 9.58811 7.18451C9.63341 7.09941 9.66151 7.00622 9.67079 6.91027C9.68008 6.81432 9.67038 6.71747 9.64223 6.62527C9.61409 6.53307 9.56807 6.44731 9.50678 6.37289C9.4455 6.29848 9.37016 6.23686 9.28506 6.19156C9.19997 6.14626 9.10678 6.11817 9.01083 6.10888C8.91487 6.0996 8.81803 6.1093 8.72583 6.13744C8.63362 6.16558 8.54787 6.21161 8.47345 6.27289C5.80678 8.43956 4.62012 11.4396 4.62012 13.2996C4.62471 13.9572 4.8207 14.5993 5.18414 15.1474C5.54759 15.6956 6.06277 16.126 6.66678 16.3862C7.05769 16.5756 7.48577 16.6758 7.92012 16.6796C8.30242 16.6981 8.68452 16.6389 9.04325 16.5054C9.40197 16.3719 9.72984 16.1669 10.007 15.9029C10.2841 15.6389 10.5048 15.3214 10.6555 14.9696C10.8063 14.6178 10.884 14.239 10.884 13.8562C10.884 13.4735 10.8063 13.0947 10.6555 12.7429C10.5048 12.3911 10.2841 12.0735 10.007 11.8095C9.72984 11.5455 9.40197 11.3406 9.04325 11.2071C8.68452 11.0736 8.30242 11.0143 7.92012 11.0329H7.90678Z" fill="#00C5F7"/>
<path d="M15.3335 11.033C14.8403 11.0341 14.3557 11.1627 13.9269 11.4064C14.5307 9.84433 15.53 8.46597 16.8269 7.40635C16.908 7.34785 16.9764 7.27335 17.0277 7.18744C17.079 7.10153 17.1122 7.00603 17.1252 6.90683C17.1382 6.80762 17.1308 6.70679 17.1033 6.61056C17.0759 6.51433 17.0291 6.42473 16.9658 6.34727C16.9024 6.2698 16.8239 6.20612 16.7351 6.16014C16.6462 6.11416 16.5489 6.08685 16.449 6.0799C16.3492 6.07294 16.249 6.08649 16.1547 6.1197C16.0603 6.15291 15.9737 6.20509 15.9002 6.27302C13.2335 8.43969 12.0469 11.4397 12.0469 13.2997C12.05 13.9499 12.2403 14.5855 12.595 15.1304C12.9496 15.6754 13.4537 16.1068 14.0469 16.373C14.4477 16.5679 14.8879 16.6683 15.3335 16.6664C15.7158 16.6849 16.0979 16.6257 16.4567 16.4922C16.8154 16.3587 17.1433 16.1537 17.4204 15.8897C17.6976 15.6257 17.9182 15.3082 18.0689 14.9564C18.2197 14.6046 18.2974 14.2258 18.2974 13.843C18.2974 13.4603 18.2197 13.0815 18.0689 12.7297C17.9182 12.3779 17.6976 12.0603 17.4204 11.7963C17.1433 11.5323 16.8154 11.3274 16.4567 11.1939C16.0979 11.0604 15.7158 11.0011 15.3335 11.0197V11.033Z" fill="#00C5F7"/>
</g>
<defs>
<clipPath id="clip0_1009_7684">
<rect width="24" height="24" fill="white"/>
</clipPath>
</defs>
</svg>
