<svg width="20" height="20" viewBox="0 0 20 20" fill="none" xmlns="http://www.w3.org/2000/svg">
<path d="M1 8.2507C1 7.91918 1.1317 7.60124 1.36612 7.36682C1.60054 7.1324 1.91848 7.0007 2.25 7.0007C2.58152 7.0007 2.89946 7.1324 3.13388 7.36682C3.3683 7.60124 3.5 7.91918 3.5 8.2507V15.7507C3.5 16.0822 3.3683 16.4002 3.13388 16.6346C2.89946 16.869 2.58152 17.0007 2.25 17.0007C1.91848 17.0007 1.60054 16.869 1.36612 16.6346C1.1317 16.4002 1 16.0822 1 15.7507V8.2507ZM11 3.0007V1.7007C11 1.4327 11.14 1.1747 11.395 1.0937C11.6948 0.998558 12.0128 0.97546 12.3232 1.02628C12.6336 1.07711 12.9276 1.20042 13.1814 1.38621C13.4352 1.57199 13.6416 1.81502 13.7838 2.09554C13.926 2.37606 14.0001 2.68618 14 3.0007C14 3.9957 13.818 4.9487 13.486 5.8267C13.282 6.3667 13.652 7.0007 14.23 7.0007H16.75C17.993 7.0007 19.011 8.0107 18.896 9.2477C18.7074 11.2884 18.2567 13.2962 17.555 15.2217C17.153 16.3237 16.072 17.0007 14.9 17.0007H11.708C11.2425 17.0005 10.7833 16.892 10.367 16.6837L7.633 15.3177C7.21665 15.1094 6.75754 15.0009 6.292 15.0007H5V8.0007H5.963C6.648 8.0007 7.221 7.5177 7.575 6.9327C8.06845 6.11694 8.83634 5.50362 9.741 5.2027C10.173 5.0597 10.594 4.8167 10.752 4.3887C10.912 3.9567 11 3.4887 11 3.0007Z" fill="#00C5F7"/>
</svg>
