<svg width="20" height="18" viewBox="0 0 20 18" fill="none" xmlns="http://www.w3.org/2000/svg">
<g clip-path="url(#clip0_1009_7664)">
<path d="M-2 28V24H-6V28H-8V18H-6V22H-2V18H0V28H-2ZM4 28V20H1.2V18H8.6V20H6V28H4ZM10 28V18H12L14.8 24.8H15L18 18H20V28H18V21.8H17.8L15.6 26.8H14.4L12.2 21.8H12V28H10ZM28 28H22V18H24V26H28V28ZM8.8 4.4L4.2 9L8.8 13.6L7.6 16L0.6 9L7.6 2L8.8 4.4ZM11.2 13.6L15.8 9L11.2 4.4L12.4 2L19.4 9L12.4 16L11.2 13.6Z" fill="#00C5F7"/>
</g>
<defs>
<clipPath id="clip0_1009_7664">
<rect width="24" height="18" fill="white" transform="translate(-2)"/>
</clipPath>
</defs>
</svg>
