<svg width="20" height="20" viewBox="0 0 20 20" fill="none" xmlns="http://www.w3.org/2000/svg">
<g clip-path="url(#clip0_1122_2813)">
<path d="M0.666992 6.35417C0.666992 5.6635 0.941359 5.00112 1.42973 4.51274C1.91811 4.02437 2.58049 3.75 3.27116 3.75H14.7295C15.4202 3.75 16.0825 4.02437 16.5709 4.51274C17.0593 5.00112 17.3337 5.6635 17.3337 6.35417V13.6458C17.3337 14.3365 17.0593 14.9989 16.5709 15.4873C16.0825 15.9756 15.4202 16.25 14.7295 16.25H3.27116C2.58049 16.25 1.91811 15.9756 1.42973 15.4873C0.941359 14.9989 0.666992 14.3365 0.666992 13.6458V6.35417ZM3.27116 4.79167C2.85676 4.79167 2.45933 4.95629 2.1663 5.24931C1.87328 5.54234 1.70866 5.93977 1.70866 6.35417V7.70833H16.292V6.35417C16.292 5.93977 16.1274 5.54234 15.8343 5.24931C15.5413 4.95629 15.1439 4.79167 14.7295 4.79167H3.27116ZM1.70866 13.6458C1.70866 14.0602 1.87328 14.4577 2.1663 14.7507C2.45933 15.0437 2.85676 15.2083 3.27116 15.2083H14.7295C15.1439 15.2083 15.5413 15.0437 15.8343 14.7507C16.1274 14.4577 16.292 14.0602 16.292 13.6458V8.75H1.70866V13.6458ZM12.0212 12.2917C11.883 12.2917 11.7505 12.3465 11.6529 12.4442C11.5552 12.5419 11.5003 12.6744 11.5003 12.8125C11.5003 12.9506 11.5552 13.0831 11.6529 13.1808C11.7505 13.2785 11.883 13.3333 12.0212 13.3333H14.3128C14.451 13.3333 14.5834 13.2785 14.6811 13.1808C14.7788 13.0831 14.8337 12.9506 14.8337 12.8125C14.8337 12.6744 14.7788 12.5419 14.6811 12.4442C14.5834 12.3465 14.451 12.2917 14.3128 12.2917H12.0212Z" fill="#00C5F7"/>
</g>
<defs>
<clipPath id="clip0_1122_2813">
<rect width="20" height="20" fill="white"/>
</clipPath>
</defs>
</svg>
