<svg width="20" height="20" viewBox="0 0 20 20" fill="none" xmlns="http://www.w3.org/2000/svg">
<path d="M13.333 14.166C14.4858 14.166 15.4686 13.7596 16.2813 12.9468C17.0941 12.1341 17.5002 11.1516 17.4997 9.99935C17.4997 8.84657 17.0933 7.86379 16.2805 7.05102C15.4677 6.23824 14.4852 5.83213 13.333 5.83268C12.958 5.83268 12.5933 5.88129 12.2388 5.97852C11.8844 6.07574 11.5547 6.21463 11.2497 6.39518C11.6525 6.89518 11.9616 7.45074 12.1772 8.06185C12.3927 8.67296 12.5002 9.31879 12.4997 9.99935C12.4997 10.6799 12.3919 11.3257 12.1763 11.9369C11.9608 12.548 11.6519 13.1035 11.2497 13.6035C11.5552 13.7841 11.8852 13.923 12.2397 14.0202C12.5941 14.1174 12.9586 14.166 13.333 14.166ZM9.99968 12.4994C10.2636 12.1521 10.4686 11.7666 10.6147 11.3427C10.7608 10.9188 10.8336 10.471 10.833 9.99935C10.833 9.52713 10.76 9.07907 10.6138 8.65518C10.4677 8.23129 10.263 7.84602 9.99968 7.49935C9.73579 7.84657 9.53079 8.23213 9.38468 8.65602C9.23856 9.0799 9.16579 9.52768 9.16634 9.99935C9.16634 10.4716 9.2394 10.9196 9.38551 11.3435C9.53162 11.7674 9.73634 12.1527 9.99968 12.4994ZM6.66634 14.166C7.04134 14.166 7.40606 14.1174 7.76051 14.0202C8.11495 13.923 8.44468 13.7841 8.74968 13.6035C8.3469 13.1035 8.03773 12.548 7.82218 11.9369C7.60662 11.3257 7.49912 10.6799 7.49968 9.99935C7.49968 9.31879 7.60745 8.67296 7.82301 8.06185C8.03856 7.45074 8.34745 6.89518 8.74968 6.39518C8.44412 6.21463 8.11412 6.07574 7.75968 5.97852C7.40523 5.88129 7.04079 5.83268 6.66634 5.83268C5.51356 5.83268 4.53079 6.23907 3.71801 7.05185C2.90523 7.86463 2.49912 8.84713 2.49967 9.99935C2.49967 11.1521 2.90606 12.1349 3.71884 12.9477C4.53162 13.7605 5.51412 14.1666 6.66634 14.166ZM6.66634 15.8327C5.04134 15.8327 3.66273 15.2666 2.53051 14.1343C1.39829 13.0021 0.832453 11.6238 0.833008 9.99935C0.833008 8.37435 1.39912 6.99574 2.53134 5.86352C3.66356 4.73129 5.0419 4.16546 6.66634 4.16602C7.29134 4.16602 7.88523 4.25629 8.44801 4.43685C9.01079 4.6174 9.52801 4.87435 9.99968 5.20768C10.4719 4.87435 10.9894 4.6174 11.5522 4.43685C12.115 4.25629 12.7086 4.16602 13.333 4.16602C14.958 4.16602 16.3366 4.73213 17.4688 5.86435C18.6011 6.99657 19.1669 8.37491 19.1663 9.99935C19.1663 11.6243 18.6002 13.003 17.468 14.1352C16.3358 15.2674 14.9575 15.8332 13.333 15.8327C12.708 15.8327 12.1141 15.7424 11.5513 15.5618C10.9886 15.3813 10.4713 15.1244 9.99968 14.791C9.52745 15.1244 9.00995 15.3813 8.44718 15.5618C7.8844 15.7424 7.29079 15.8327 6.66634 15.8327Z" fill="#00C5F7"/>
</svg>
