<svg width="20" height="20" viewBox="0 0 20 20" fill="none" xmlns="http://www.w3.org/2000/svg">
<path d="M17.8567 3.57227H2.14244C1.35346 3.57227 0.713867 4.21186 0.713867 5.00084V15.0008C0.713867 15.7898 1.35346 16.4294 2.14244 16.4294H17.8567C18.6457 16.4294 19.2853 15.7898 19.2853 15.0008V5.00084C19.2853 4.21186 18.6457 3.57227 17.8567 3.57227Z" stroke="#00C5F7" stroke-linecap="round" stroke-linejoin="round"/>
<path d="M9.9993 12.1431C11.1828 12.1431 12.1422 11.1837 12.1422 10.0003C12.1422 8.81681 11.1828 7.85742 9.9993 7.85742C8.81584 7.85742 7.85645 8.81681 7.85645 10.0003C7.85645 11.1837 8.81584 12.1431 9.9993 12.1431Z" stroke="#00C5F7" stroke-linecap="round" stroke-linejoin="round"/>
<path d="M4.28516 7.14453H4.99944M14.9994 12.8588H15.7137" stroke="#00C5F7" stroke-linecap="round" stroke-linejoin="round"/>
</svg>
