<svg width="24" height="24" viewBox="0 0 24 24" fill="none" xmlns="http://www.w3.org/2000/svg">
<path d="M9.74983 20.8493C11.5298 20.1493 11.1398 18.2193 10.2398 16.9993C9.34983 15.7493 8.11983 14.8893 6.87983 14.0593C5.99509 13.5017 5.20513 12.8062 4.53983 11.9993C4.25983 11.6693 3.68983 11.0593 4.26983 10.9393C4.85983 10.8193 5.87983 11.3993 6.39983 11.6193C7.30983 11.9993 8.20983 12.4393 9.04983 12.9593L10.0598 11.2593C8.49983 10.2293 6.49983 9.3193 4.63983 9.0493C3.57983 8.8893 2.45983 9.1093 2.09983 10.2593C1.77983 11.2493 2.28983 12.2493 2.86983 13.0293C4.23983 14.8593 6.36983 15.7393 7.95983 17.3193C8.29983 17.6493 8.70983 18.0393 8.90983 18.4993C9.11983 18.9393 9.06983 18.9693 8.59983 18.9693C7.35983 18.9693 5.80983 17.9993 4.79983 17.3593L3.78983 19.0593C5.31983 19.9993 7.87983 21.4693 9.74983 20.8493ZM20.8398 5.2493C21.0598 5.0293 21.0598 4.6693 20.8398 4.4593L19.5398 3.1593C19.4351 3.05836 19.2953 3.00195 19.1498 3.00195C19.0044 3.00195 18.8646 3.05836 18.7598 3.1593L17.7398 4.1793L19.8198 6.2593M10.9998 10.9193V12.9993H13.0798L19.2298 6.8493L17.1498 4.7693L10.9998 10.9193Z" fill="#00C5F7"/>
</svg>
