<svg width="19" height="12" viewBox="0 0 19 12" fill="none" xmlns="http://www.w3.org/2000/svg">
<path d="M11.4199 0.78261L18.2025 7.56522C19.0285 8.3913 19.2129 9.33652 18.7555 10.4009C18.2998 11.467 17.4851 12 16.3112 12L2.87638 12C1.70247 12 0.887688 11.467 0.432035 10.4009C-0.0253565 9.33652 0.158991 8.39131 0.985077 7.56522L7.76768 0.78261C8.02855 0.52174 8.31116 0.32609 8.61551 0.195655C8.91985 0.0652198 9.24594 8.52727e-07 9.59377 8.22319e-07C9.94159 7.91911e-07 10.2677 0.0652197 10.572 0.195655C10.8764 0.32609 11.159 0.52174 11.4199 0.78261Z" fill="black"/>
</svg>
