<svg width="40" height="40" viewBox="0 0 40 40" fill="none" xmlns="http://www.w3.org/2000/svg">
<path d="M20 0C8.97167 0 0 8.97167 0 20C0 31.0283 8.97167 40 20 40C31.0283 40 40 31.0283 40 20C40 8.97167 31.0283 0 20 0ZM30.1367 15.7617L19.3033 26.595C18.9783 26.92 18.5517 27.0833 18.125 27.0833C17.6983 27.0833 17.2717 26.92 16.9467 26.595L11.53 21.1783C10.8783 20.5267 10.8783 19.4733 11.53 18.8217C12.1817 18.17 13.235 18.17 13.8867 18.8217L18.125 23.06L27.78 13.405C28.4317 12.7533 29.485 12.7533 30.1367 13.405C30.7883 14.0567 30.7883 15.11 30.1367 15.7617Z" fill="#00BD48"/>
</svg>
