<svg width="28" height="28" viewBox="0 0 28 28" fill="none" xmlns="http://www.w3.org/2000/svg">
<path d="M11.7895 0C8.54737 0 5.89474 2.65263 5.89474 5.89474C5.89474 9.13684 8.54737 11.7895 11.7895 11.7895C15.0316 11.7895 17.6842 9.13684 17.6842 5.89474C17.6842 2.65263 15.0316 0 11.7895 0ZM11.7895 2.94737C13.4105 2.94737 14.7368 4.27368 14.7368 5.89474C14.7368 7.51579 13.4105 8.8421 11.7895 8.8421C10.1684 8.8421 8.8421 7.51579 8.8421 5.89474C8.8421 4.27368 10.1684 2.94737 11.7895 2.94737ZM11.7895 13.2632C7.81053 13.2632 0 15.1789 0 19.1579V23.5789H14C13.5579 22.6947 13.4105 21.8105 13.2632 20.7789H2.8V19.1579C2.8 18.2737 7.36842 16.0632 11.7895 16.0632C12.5263 16.0632 13.2632 16.2105 14 16.2105C14.4421 15.3263 14.8842 14.4421 15.6211 13.7053C14.1474 13.4105 12.8211 13.2632 11.7895 13.2632ZM22.1053 23.5789C20.0421 23.5789 18.4211 21.9579 18.4211 19.8947C18.4211 19.3053 18.5684 18.7158 18.8632 18.2737L17.2421 16.6526C16.6526 17.5368 16.2105 18.7158 16.2105 19.8947C16.2105 23.1368 18.8632 25.7895 22.1053 25.7895V28L25.3474 24.7579L22.1053 21.3684V23.5789ZM22.1053 14V11.7895L18.8632 15.0316L22.1053 18.2737V16.2105C24.1684 16.2105 25.7895 17.8316 25.7895 19.8947C25.7895 20.4842 25.6421 21.0737 25.3474 21.5158L26.9684 23.1368C27.5579 22.2526 28 21.0737 28 19.8947C28 16.6526 25.3474 14 22.1053 14Z" fill="#6EC4CF"/>
</svg>
