<svg width="28" height="28" viewBox="0 0 28 28" fill="none" xmlns="http://www.w3.org/2000/svg">
<path d="M26.88 0H1.12C0.5005 0 0 0.5005 0 1.12V26.88C0 27.4995 0.5005 28 1.12 28H26.88C27.4995 28 28 27.4995 28 26.88V1.12C28 0.5005 27.4995 0 26.88 0ZM25.48 25.48H2.52V2.52H25.48V25.48ZM7.98 19.985V22.68C7.98 22.834 8.106 22.96 8.26 22.96H9.94C10.094 22.96 10.22 22.834 10.22 22.68V19.985C9.8665 20.1005 9.492 20.16 9.1 20.16C8.708 20.16 8.3335 20.097 7.98 19.985ZM10.22 13.055V5.32C10.22 5.166 10.094 5.04 9.94 5.04H8.26C8.106 5.04 7.98 5.166 7.98 5.32V13.055C8.3335 12.9395 8.708 12.88 9.1 12.88C9.492 12.88 9.8665 12.943 10.22 13.055ZM7.98 19.985C8.3335 20.1005 8.708 20.16 9.1 20.16C9.492 20.16 9.8665 20.097 10.22 19.985C11.683 19.5125 12.74 18.1405 12.74 16.52C12.74 14.8995 11.683 13.5275 10.22 13.055C9.8665 12.9395 9.492 12.88 9.1 12.88C8.708 12.88 8.3335 12.943 7.98 13.055C6.517 13.5275 5.46 14.8995 5.46 16.52C5.46 18.1405 6.517 19.5125 7.98 19.985ZM7.9835 15.9355C7.994 15.9145 8.008 15.8935 8.0185 15.8725V15.869L8.0605 15.806C8.064 15.799 8.0675 15.7955 8.071 15.7885C8.0815 15.771 8.0955 15.757 8.106 15.7395C8.1095 15.736 8.113 15.729 8.1165 15.7255C8.134 15.7045 8.148 15.687 8.1655 15.6695L8.176 15.659L8.218 15.617L8.232 15.603C8.2495 15.5855 8.267 15.5715 8.288 15.554C8.309 15.5365 8.3265 15.5225 8.3475 15.5085C8.3545 15.505 8.358 15.5015 8.365 15.498C8.3825 15.4875 8.3965 15.4735 8.414 15.463C8.4175 15.4595 8.4245 15.456 8.428 15.4525C8.449 15.4385 8.47 15.428 8.4945 15.414C8.498 15.4105 8.505 15.4105 8.5085 15.407C8.526 15.3965 8.5435 15.3895 8.5645 15.379L8.5855 15.3685C8.61 15.358 8.631 15.3475 8.6555 15.3405C8.68 15.33 8.7045 15.323 8.729 15.316C8.736 15.3125 8.743 15.3125 8.75 15.309C8.771 15.302 8.7885 15.2985 8.8095 15.295C8.8165 15.295 8.82 15.2915 8.827 15.2915C8.8515 15.2845 8.8795 15.281 8.904 15.2775C8.911 15.2775 8.9145 15.2775 8.9215 15.274C8.9425 15.2705 8.9635 15.2705 8.9845 15.267H9.0055C9.0335 15.267 9.058 15.2635 9.086 15.2635C9.114 15.2635 9.1385 15.2635 9.1665 15.267H9.1875C9.2085 15.267 9.2295 15.2705 9.2505 15.274C9.2575 15.274 9.261 15.274 9.268 15.2775C9.2925 15.281 9.3205 15.2845 9.345 15.2915C9.352 15.2915 9.3555 15.295 9.3625 15.295C9.3835 15.2985 9.4045 15.3055 9.422 15.309C9.429 15.3125 9.436 15.3125 9.443 15.316C9.4675 15.323 9.492 15.33 9.5165 15.3405C9.541 15.3475 9.562 15.358 9.5865 15.3685L9.6075 15.379C9.625 15.386 9.646 15.3965 9.6635 15.407C9.667 15.4105 9.674 15.4105 9.6775 15.414C9.6985 15.4245 9.723 15.4385 9.744 15.4525C9.7475 15.456 9.7545 15.4595 9.758 15.463C9.7755 15.4735 9.793 15.484 9.807 15.498C9.814 15.5015 9.8175 15.505 9.8245 15.5085C9.8455 15.5225 9.8665 15.54 9.884 15.554C9.9015 15.568 9.9225 15.5855 9.94 15.603L9.954 15.617L9.996 15.659L10.0065 15.6695C10.024 15.687 10.0415 15.708 10.0555 15.7255C10.059 15.729 10.0625 15.736 10.066 15.7395C10.08 15.7535 10.0905 15.771 10.101 15.7885C10.1045 15.7955 10.108 15.799 10.1115 15.806L10.1535 15.869C10.1535 15.869 10.1535 15.8725 10.157 15.8725C10.2737 16.0683 10.3354 16.292 10.3355 16.52C10.3355 16.73 10.283 16.9295 10.192 17.1045C10.1815 17.1255 10.1675 17.1465 10.157 17.1675C10.157 17.1675 10.157 17.171 10.1535 17.171L10.1115 17.234C10.108 17.241 10.1045 17.2445 10.101 17.2515C10.0905 17.269 10.0765 17.283 10.066 17.3005C10.0625 17.304 10.059 17.311 10.0555 17.3145C10.038 17.3355 10.024 17.353 10.0065 17.3705L9.996 17.381L9.954 17.423L9.94 17.437C9.9225 17.4545 9.905 17.4685 9.884 17.486C9.863 17.5035 9.8455 17.5175 9.8245 17.5315C9.8175 17.535 9.814 17.5385 9.807 17.542C9.7895 17.5525 9.7755 17.5665 9.758 17.577C9.7545 17.5805 9.7475 17.584 9.744 17.5875C9.723 17.6015 9.702 17.612 9.6775 17.626C9.674 17.6295 9.667 17.6295 9.6635 17.633C9.646 17.6435 9.6285 17.6505 9.6075 17.661L9.5865 17.6715C9.562 17.682 9.541 17.6925 9.5165 17.6995C9.492 17.71 9.4675 17.717 9.443 17.724C9.436 17.7275 9.429 17.7275 9.422 17.731C9.401 17.738 9.3835 17.7415 9.3625 17.745C9.3555 17.745 9.352 17.7485 9.345 17.7485C9.3205 17.7555 9.2925 17.759 9.268 17.7625C9.261 17.7625 9.2575 17.7625 9.2505 17.766C9.2295 17.7695 9.2085 17.7695 9.1875 17.773H9.1665C9.1385 17.773 9.114 17.7765 9.086 17.7765C9.058 17.7765 9.0335 17.7765 9.0055 17.773H8.9845C8.9635 17.773 8.9425 17.7695 8.9215 17.766C8.9145 17.766 8.911 17.766 8.904 17.7625C8.8795 17.759 8.8515 17.7555 8.827 17.7485C8.82 17.7485 8.8165 17.745 8.8095 17.745C8.7885 17.7415 8.7675 17.7345 8.75 17.731C8.743 17.7275 8.736 17.7275 8.729 17.724C8.7045 17.717 8.68 17.71 8.6555 17.6995C8.631 17.6925 8.61 17.682 8.5855 17.6715L8.5645 17.661C8.547 17.654 8.526 17.6435 8.5085 17.633C8.505 17.6295 8.498 17.6295 8.4945 17.626C8.4735 17.6155 8.449 17.6015 8.428 17.5875C8.4245 17.584 8.4175 17.5805 8.414 17.577C8.3965 17.5665 8.379 17.556 8.365 17.542C8.358 17.5385 8.3545 17.535 8.3475 17.5315C8.3265 17.5175 8.3055 17.5 8.288 17.486C8.2705 17.472 8.2495 17.4545 8.232 17.437L8.218 17.423L8.176 17.381L8.1655 17.3705C8.148 17.353 8.1305 17.332 8.1165 17.3145C8.113 17.311 8.1095 17.304 8.106 17.3005C8.092 17.2865 8.0815 17.269 8.071 17.2515C8.0675 17.2445 8.064 17.241 8.0605 17.234L8.0185 17.171V17.1675C8.0045 17.1465 7.994 17.1255 7.9835 17.1045C7.8925 16.9295 7.84 16.73 7.84 16.52C7.84 16.31 7.8925 16.1105 7.9835 15.9355ZM17.78 14.945V22.68C17.78 22.834 17.906 22.96 18.06 22.96H19.74C19.894 22.96 20.02 22.834 20.02 22.68V14.945C19.6665 15.0605 19.292 15.12 18.9 15.12C18.508 15.12 18.1335 15.057 17.78 14.945ZM20.02 8.015V5.32C20.02 5.166 19.894 5.04 19.74 5.04H18.06C17.906 5.04 17.78 5.166 17.78 5.32V8.015C18.1335 7.8995 18.508 7.84 18.9 7.84C19.292 7.84 19.6665 7.903 20.02 8.015ZM17.78 14.945C18.1335 15.0605 18.508 15.12 18.9 15.12C19.292 15.12 19.6665 15.057 20.02 14.945C21.483 14.4725 22.54 13.1005 22.54 11.48C22.54 9.8595 21.483 8.4875 20.02 8.015C19.6665 7.8995 19.292 7.84 18.9 7.84C18.508 7.84 18.1335 7.903 17.78 8.015C16.317 8.4875 15.26 9.8595 15.26 11.48C15.26 13.1005 16.317 14.4725 17.78 14.945ZM17.7835 10.8955C17.794 10.8745 17.808 10.8535 17.8185 10.8325V10.829L17.8605 10.766C17.864 10.759 17.8675 10.7555 17.871 10.7485C17.8815 10.731 17.8955 10.717 17.906 10.6995C17.9095 10.696 17.913 10.689 17.9165 10.6855C17.934 10.6645 17.948 10.647 17.9655 10.6295L17.976 10.619L18.018 10.577L18.032 10.563C18.0495 10.5455 18.067 10.5315 18.088 10.514C18.109 10.4965 18.1265 10.4825 18.1475 10.4685C18.1545 10.465 18.158 10.4615 18.165 10.458C18.1825 10.4475 18.1965 10.4335 18.214 10.423C18.2175 10.4195 18.2245 10.416 18.228 10.4125C18.249 10.3985 18.27 10.388 18.2945 10.374C18.298 10.3705 18.305 10.3705 18.3085 10.367C18.326 10.3565 18.3435 10.3495 18.3645 10.339L18.3855 10.3285C18.41 10.318 18.431 10.3075 18.4555 10.3005C18.48 10.29 18.5045 10.283 18.529 10.276C18.536 10.2725 18.543 10.2725 18.55 10.269C18.571 10.262 18.5885 10.2585 18.6095 10.255C18.6165 10.255 18.62 10.2515 18.627 10.2515C18.6515 10.2445 18.6795 10.241 18.704 10.2375C18.711 10.2375 18.7145 10.2375 18.7215 10.234C18.7425 10.2305 18.7635 10.2305 18.7845 10.227H18.8055C18.8335 10.227 18.858 10.2235 18.886 10.2235C18.914 10.2235 18.9385 10.2235 18.9665 10.227H18.9875C19.0085 10.227 19.0295 10.2305 19.0505 10.234C19.0575 10.234 19.061 10.234 19.068 10.2375C19.0925 10.241 19.1205 10.2445 19.145 10.2515C19.152 10.2515 19.1555 10.255 19.1625 10.255C19.1835 10.2585 19.2045 10.2655 19.222 10.269C19.229 10.2725 19.236 10.2725 19.243 10.276C19.2675 10.283 19.292 10.29 19.3165 10.3005C19.341 10.3075 19.362 10.318 19.3865 10.3285L19.4075 10.339C19.425 10.346 19.446 10.3565 19.4635 10.367C19.467 10.3705 19.474 10.3705 19.4775 10.374C19.4985 10.3845 19.523 10.3985 19.544 10.4125C19.5475 10.416 19.5545 10.4195 19.558 10.423C19.5755 10.4335 19.593 10.444 19.607 10.458C19.614 10.4615 19.6175 10.465 19.6245 10.4685C19.6455 10.4825 19.6665 10.5 19.684 10.514C19.7015 10.528 19.7225 10.5455 19.74 10.563L19.754 10.577L19.796 10.619L19.8065 10.6295C19.824 10.647 19.8415 10.668 19.8555 10.6855C19.859 10.689 19.8625 10.696 19.866 10.6995C19.88 10.7135 19.8905 10.731 19.901 10.7485C19.9045 10.7555 19.908 10.759 19.9115 10.766L19.9535 10.829V10.8325C20.0702 11.0283 20.1319 11.252 20.132 11.48C20.132 11.69 20.0795 11.8895 19.9885 12.0645C19.978 12.0855 19.964 12.1065 19.9535 12.1275V12.131L19.9115 12.194C19.908 12.201 19.9045 12.2045 19.901 12.2115C19.8905 12.229 19.8765 12.243 19.866 12.2605C19.8625 12.264 19.859 12.271 19.8555 12.2745C19.838 12.2955 19.824 12.313 19.8065 12.3305L19.796 12.341L19.754 12.383L19.74 12.397C19.7225 12.4145 19.705 12.4285 19.684 12.446C19.663 12.4635 19.6455 12.4775 19.6245 12.4915C19.6175 12.495 19.614 12.4985 19.607 12.502C19.5895 12.5125 19.5755 12.5265 19.558 12.537C19.5545 12.5405 19.5475 12.544 19.544 12.5475C19.523 12.5615 19.502 12.572 19.4775 12.586C19.474 12.5895 19.467 12.5895 19.4635 12.593C19.446 12.6035 19.4285 12.6105 19.4075 12.621L19.3865 12.6315C19.362 12.642 19.341 12.6525 19.3165 12.6595C19.292 12.67 19.2675 12.677 19.243 12.684C19.236 12.6875 19.229 12.6875 19.222 12.691C19.201 12.698 19.1835 12.7015 19.1625 12.705C19.1555 12.705 19.152 12.7085 19.145 12.7085C19.1205 12.7155 19.0925 12.719 19.068 12.7225C19.061 12.7225 19.0575 12.7225 19.0505 12.726C19.0295 12.7295 19.0085 12.7295 18.9875 12.733H18.9665C18.9385 12.733 18.914 12.7365 18.886 12.7365C18.858 12.7365 18.8335 12.7365 18.8055 12.733H18.7845C18.7635 12.733 18.7425 12.7295 18.7215 12.726C18.7145 12.726 18.711 12.726 18.704 12.7225C18.6795 12.719 18.6515 12.7155 18.627 12.7085C18.62 12.7085 18.6165 12.705 18.6095 12.705C18.5885 12.7015 18.5675 12.6945 18.55 12.691C18.543 12.6875 18.536 12.6875 18.529 12.684C18.5045 12.677 18.48 12.67 18.4555 12.6595C18.431 12.6525 18.41 12.642 18.3855 12.6315L18.3645 12.621C18.347 12.614 18.326 12.6035 18.3085 12.593C18.305 12.5895 18.298 12.5895 18.2945 12.586C18.2735 12.5755 18.249 12.5615 18.228 12.5475C18.2245 12.544 18.2175 12.5405 18.214 12.537C18.1965 12.5265 18.179 12.516 18.165 12.502C18.158 12.4985 18.1545 12.495 18.1475 12.4915C18.1265 12.4775 18.1055 12.46 18.088 12.446C18.0705 12.432 18.0495 12.4145 18.032 12.397L18.018 12.383L17.976 12.341L17.9655 12.3305C17.948 12.313 17.9305 12.292 17.9165 12.2745C17.913 12.271 17.9095 12.264 17.906 12.2605C17.892 12.2465 17.8815 12.229 17.871 12.2115C17.8675 12.2045 17.864 12.201 17.8605 12.194L17.8185 12.131V12.1275C17.8045 12.1065 17.794 12.0855 17.7835 12.0645C17.6925 11.8895 17.64 11.69 17.64 11.48C17.64 11.27 17.6925 11.0705 17.7835 10.8955Z" fill="#6EC4CF"/>
</svg>
