<svg width="40" height="40" viewBox="0 0 40 40" fill="none" xmlns="http://www.w3.org/2000/svg">
<path d="M20 0C8.97167 0 0 8.97167 0 20C0 31.0283 8.97167 40 20 40C31.0283 40 40 31.0283 40 20C40 8.97167 31.0283 0 20 0ZM27.365 25.0083C28.0167 25.66 28.0167 26.7133 27.365 27.365C27.04 27.69 26.6133 27.8533 26.1867 27.8533C25.76 27.8533 25.3333 27.69 25.0083 27.365L20 22.3567L14.9917 27.365C14.6667 27.69 14.24 27.8533 13.8133 27.8533C13.3867 27.8533 12.96 27.69 12.635 27.365C11.9833 26.7133 11.9833 25.66 12.635 25.0083L17.6433 20L12.635 14.9917C11.9833 14.34 11.9833 13.2867 12.635 12.635C13.2867 11.9833 14.34 11.9833 14.9917 12.635L20 17.6433L25.0083 12.635C25.66 11.9833 26.7133 11.9833 27.365 12.635C28.0167 13.2867 28.0167 14.34 27.365 14.9917L22.3567 20L27.365 25.0083Z" fill="#AA0802"/>
</svg>
