<svg width="28" height="28" viewBox="0 0 28 28" fill="none" xmlns="http://www.w3.org/2000/svg">
<path d="M5.00367 0.104023C5.18186 0.189702 5.33224 0.323966 5.43747 0.491354C5.54271 0.658743 5.59853 0.85245 5.59851 1.05017C5.59851 2.21186 6.0352 2.88088 6.58245 3.69547L6.62304 3.75425C7.08772 4.44567 7.69795 5.35123 7.69795 6.64868C7.69795 7.97273 7.03033 9.14002 6.0128 9.83283C6.28013 10.0568 6.51667 10.3325 6.72101 10.6628C7.38724 11.7405 7.69795 13.3879 7.69795 15.7533C7.69795 18.1494 7.37604 21.0271 6.85118 23.3252C6.59085 24.4673 6.26753 25.5213 5.88264 26.312C5.70092 26.7055 5.46021 27.0689 5.16883 27.3898C4.8805 27.6851 4.43682 28 3.84898 28C3.26113 28 2.81745 27.6851 2.53053 27.3898C2.2383 27.0696 1.9975 26.706 1.81672 26.312C1.43042 25.5199 1.10711 24.4673 0.846776 23.3238C0.300846 20.8363 0.0170389 18.2985 1.34855e-06 15.7519C1.34855e-06 13.3865 0.310719 11.7405 0.976941 10.6628C1.16701 10.35 1.40613 10.0698 1.68515 9.83283C1.16557 9.48008 0.740316 9.00542 0.446555 8.45035C0.152795 7.89527 -0.000524588 7.27669 1.34855e-06 6.64868C1.34855e-06 6.13362 1.20965e-06 5.24765 0.536059 4.10416C1.06092 2.98446 2.05885 1.6982 3.89237 0.229989C4.0469 0.10638 4.23322 0.0289675 4.42984 0.00667986C4.62647 -0.0156078 4.82539 0.0181369 5.00367 0.104023ZM2.09944 6.64728C2.09944 7.11129 2.28377 7.55769 2.61187 7.88579C2.93997 8.21389 3.38497 8.39822 3.84898 8.39822C4.31298 8.39822 4.75798 8.21389 5.08608 7.88579C5.41419 7.55769 5.59851 7.11269 5.59851 6.64868C5.59851 6.03425 5.33958 5.60876 4.83991 4.86556L4.82312 4.84036C4.5026 4.36449 4.1233 3.80044 3.85458 3.07683C3.09458 3.84943 2.67469 4.49046 2.43815 4.99432C2.09944 5.71653 2.09944 6.23159 2.09944 6.64728ZM2.76287 11.7657C2.41576 12.3284 2.09944 13.4817 2.09944 15.7533C2.09944 17.9941 2.40456 20.7149 2.89303 22.8578C3.13937 23.9355 3.41929 24.8102 3.70342 25.3925C3.7552 25.5003 3.80419 25.5898 3.84898 25.6654C3.89377 25.5898 3.94275 25.5003 3.99454 25.3925C4.27866 24.8102 4.55859 23.9341 4.80492 22.8578C5.29479 20.7163 5.59851 17.9955 5.59851 15.7533C5.59851 13.4817 5.2822 12.3284 4.93509 11.7657C4.8304 11.5763 4.67218 11.422 4.48021 11.322C4.28144 11.2355 4.06558 11.1953 3.84898 11.2045C3.56905 11.2045 3.3689 11.2479 3.21774 11.322C3.02578 11.422 2.86755 11.5763 2.76287 11.7657ZM11.197 18.0808C10.4555 17.9565 9.73423 17.7324 9.05279 17.4146C9.09376 16.6208 9.10543 15.8257 9.08778 15.0311C9.71902 15.4551 10.4314 15.7673 11.197 15.9408V11.8973C11.197 11.3405 11.4182 10.8065 11.8119 10.4128C12.2057 10.019 12.7397 9.79784 13.2965 9.79784H18.895C18.8949 8.62313 18.5663 7.47184 17.9463 6.47406C17.3263 5.47628 16.4397 4.67177 15.3865 4.15143C14.3333 3.6311 13.1556 3.41568 11.9864 3.5295C10.8172 3.64333 9.70312 4.08187 8.77007 4.79557C8.49014 4.02158 8.09125 3.42954 7.81412 3.01805L7.75814 2.93407C9.01564 2.04761 10.4925 1.52365 12.0275 1.41938C13.5625 1.31511 15.0967 1.63454 16.4625 2.3428C17.8283 3.05106 18.9734 4.12093 19.7726 5.43562C20.5717 6.75031 20.9944 8.2593 20.9944 9.79784H25.8931C26.4499 9.79784 26.9839 10.019 27.3776 10.4128C27.7714 10.8065 27.9926 11.3405 27.9926 11.8973V24.4939C27.9926 25.0507 27.7714 25.5847 27.3776 25.9785C26.9839 26.3722 26.4499 26.5934 25.8931 26.5934H13.2965C12.7397 26.5934 12.2057 26.3722 11.8119 25.9785C11.4182 25.5847 11.197 25.0507 11.197 24.4939V18.0794V18.0808ZM13.2965 18.169V24.4953H25.8931V11.8987H20.7285C20.2924 13.5853 19.343 15.0946 18.0115 16.218C16.6801 17.3413 15.0324 18.0231 13.2965 18.169ZM18.5367 11.8987H13.2965V16.0598C14.4724 15.9279 15.5875 15.4678 16.5142 14.7319C17.4409 13.996 18.1418 13.0142 18.5367 11.8987Z" fill="#6EC4CF"/>
</svg>
