<svg width="14" height="14" viewBox="0 0 14 14" fill="none" xmlns="http://www.w3.org/2000/svg">
<g clip-path="url(#clip0_74_1123)">
<path d="M13.6729 7.1309C13.6729 6.55732 13.6263 6.13877 13.5256 5.70471H6.97595V8.29354H10.8204C10.743 8.9369 10.3244 9.90578 9.39427 10.5568L9.38123 10.6435L11.4521 12.2478L11.5956 12.2621C12.9132 11.0452 13.6729 9.25467 13.6729 7.1309Z" fill="#4285F4"/>
<path d="M6.97601 13.9519C8.85949 13.9519 10.4407 13.3317 11.5956 12.2621L9.39432 10.5569C8.80525 10.9677 8.01463 11.2544 6.97601 11.2544C5.13127 11.2544 3.56557 10.0376 3.00744 8.35559L2.92563 8.36254L0.772301 10.029L0.744141 10.1073C1.89129 12.3861 4.24761 13.9519 6.97601 13.9519Z" fill="#34A853"/>
<path d="M3.00738 8.35551C2.86011 7.92146 2.77489 7.45636 2.77489 6.97581C2.77489 6.49522 2.86011 6.03017 2.99963 5.59612L2.99573 5.50368L0.81542 3.81042L0.744084 3.84436C0.27129 4.79 0 5.85191 0 6.97581C0 8.09972 0.27129 9.16158 0.744084 10.1072L3.00738 8.35551Z" fill="#FBBC05"/>
<path d="M6.97601 2.69723C8.28592 2.69723 9.16952 3.26305 9.67336 3.7359L11.6421 1.81363C10.433 0.689725 8.85949 -0.00012207 6.97601 -0.00012207C4.24761 -0.00012207 1.89129 1.56558 0.744141 3.84437L2.99969 5.59614C3.56557 3.91416 5.13127 2.69723 6.97601 2.69723Z" fill="#EB4335"/>
</g>
<defs>
<clipPath id="clip0_74_1123">
<rect width="13.6794" height="14" fill="white"/>
</clipPath>
</defs>
</svg>
