<svg width="29" height="28" viewBox="0 0 29 28" fill="none" xmlns="http://www.w3.org/2000/svg">
<path d="M17.3756 0.049554C20.5867 0.763132 23.2507 2.40436 25.3677 4.97324C27.4846 7.54212 28.5431 10.551 28.5431 14C28.5431 16.1645 28.1088 18.1625 27.2401 19.9941C26.3724 21.8256 25.1893 23.3954 23.6908 24.7037H25.6888C26.0932 24.7037 26.4319 24.8407 26.7049 25.1147C26.979 25.3878 27.116 25.7265 27.116 26.1308C27.116 26.5352 26.979 26.8739 26.7049 27.147C26.4319 27.421 26.0932 27.558 25.6888 27.558H19.9802C19.5758 27.558 19.2371 27.421 18.964 27.147C18.69 26.8739 18.553 26.5352 18.553 26.1308V20.4222C18.553 20.0178 18.69 19.6787 18.964 19.4046C19.2371 19.1316 19.5758 18.995 19.9802 18.995C20.3845 18.995 20.7233 19.1316 20.9963 19.4046C21.2703 19.6787 21.4073 20.0178 21.4073 20.4222V22.884C22.7156 21.8137 23.7564 20.5173 24.53 18.995C25.3025 17.4727 25.6888 15.8077 25.6888 14C25.6888 11.2646 24.8506 8.87984 23.1742 6.84567C21.4968 4.81245 19.3855 3.49851 16.8404 2.90387C16.5074 2.83251 16.2339 2.66601 16.0198 2.40436C15.8057 2.14272 15.6987 1.84539 15.6987 1.51239C15.6987 1.03667 15.8652 0.644202 16.1982 0.334985C16.5312 0.0257681 16.9237 -0.0693756 17.3756 0.049554ZM11.1675 27.9504C7.95639 27.2369 5.29237 25.5956 3.17542 23.0268C1.05847 20.4579 0 17.449 0 14C0 11.8355 0.434331 9.83746 1.30299 8.00595C2.1707 6.17443 3.35382 4.60456 4.85233 3.29633H2.85431C2.44995 3.29633 2.11124 3.15933 1.83818 2.88531C1.56416 2.61225 1.42716 2.27354 1.42716 1.86918C1.42716 1.46482 1.56416 1.12563 1.83818 0.851615C2.11124 0.578553 2.44995 0.442022 2.85431 0.442022H8.56293C8.9673 0.442022 9.30648 0.578553 9.5805 0.851615C9.85356 1.12563 9.99009 1.46482 9.99009 1.86918V7.5778C9.99009 7.98216 9.85356 8.32135 9.5805 8.59536C9.30648 8.86843 8.9673 9.00496 8.56293 9.00496C8.15857 9.00496 7.81939 8.86843 7.54537 8.59536C7.27231 8.32135 7.13578 7.98216 7.13578 7.5778V5.11596C5.82755 6.16254 4.78668 7.45316 4.01316 8.98783C3.24059 10.5215 2.85431 12.1923 2.85431 14C2.85431 16.7354 3.693 19.1197 5.37039 21.1529C7.04682 23.1871 9.15758 24.5015 11.7027 25.0961C12.0357 25.1675 12.3092 25.334 12.5233 25.5956C12.7374 25.8573 12.8444 26.1546 12.8444 26.4876C12.8444 26.9633 12.6779 27.3558 12.3449 27.665C12.0119 27.9742 11.6194 28.0694 11.1675 27.9504ZM12.2379 19.9584C12.0476 19.9584 11.8692 19.9289 11.7027 19.8699C11.5362 19.81 11.3816 19.7086 11.2389 19.5659L7.20714 15.4985C6.94549 15.2369 6.80896 14.9096 6.79754 14.5166C6.78517 14.1246 6.92171 13.7859 7.20714 13.5005C7.46878 13.2388 7.80178 13.108 8.20615 13.108C8.61051 13.108 8.94351 13.2388 9.20515 13.5005L12.2379 16.5332L19.338 9.4331C19.6234 9.14767 19.9564 9.01066 20.337 9.02208C20.7175 9.03445 21.0505 9.18335 21.336 9.46878C21.5976 9.75421 21.7346 10.0872 21.747 10.4678C21.7584 10.8484 21.6214 11.1814 21.336 11.4668L13.2369 19.5659C13.0942 19.7086 12.9395 19.81 12.773 19.8699C12.6065 19.9289 12.4281 19.9584 12.2379 19.9584Z" fill="#6EC4CF"/>
</svg>
