<svg width="15" height="14" viewBox="0 0 15 14" fill="none" xmlns="http://www.w3.org/2000/svg">
<rect width="15" height="14" rx="2.1" fill="#2B4465"/>
<path d="M12.3125 3H2.6875C2.50516 3 2.3303 3.07024 2.20136 3.19526C2.07243 3.32029 2 3.48986 2 3.66667V10.3333C2 10.5101 2.07243 10.6797 2.20136 10.8047C2.3303 10.9298 2.50516 11 2.6875 11H12.3125C12.4948 11 12.6697 10.9298 12.7986 10.8047C12.9276 10.6797 13 10.5101 13 10.3333V3.66667C13 3.48986 12.9276 3.32029 12.7986 3.19526C12.6697 3.07024 12.4948 3 12.3125 3ZM11.7831 10.3333H3.25812L5.66437 7.92L5.16938 7.45667L2.6875 9.94667V4.17333L6.96031 8.29667C7.08912 8.42083 7.26337 8.49053 7.445 8.49053C7.62663 8.49053 7.80088 8.42083 7.92969 8.29667L12.3125 4.07V9.90333L9.7825 7.45L9.29781 7.92L11.7831 10.3333ZM3.13781 3.66667H11.7556L7.445 7.82333L3.13781 3.66667Z" fill="white"/>
</svg>
