<svg width="25" height="25" viewBox="0 0 25 25" fill="none" xmlns="http://www.w3.org/2000/svg">
<circle cx="12.5" cy="12.5" r="12.5" fill="white"/>
<path d="M7.24132 19.9996V12.7894L5.00519 10.7436L3 9.6084V18.7272C3 19.4313 3.57042 19.9996 4.27243 19.9996H7.24132Z" fill="#4285F4"/>
<path d="M17.4204 19.9996H20.3893C21.0934 19.9996 21.6617 19.4291 21.6617 18.7271V9.6084L19.3905 10.9087L17.4204 12.7893V19.9996Z" fill="#34A853"/>
<path d="M7.24129 12.7896L6.93701 9.97228L7.24129 7.27588L12.3308 11.0931L17.4204 7.27588L17.7608 9.82671L17.4204 12.7896L12.3308 16.6068L7.24129 12.7896Z" fill="#EA4335"/>
<path d="M17.4204 7.27585V12.7895L21.6617 9.60857V7.91203C21.6617 6.33854 19.8655 5.44153 18.6081 6.38519L17.4204 7.27585Z" fill="#FBBC04"/>
<path d="M3 9.6086L4.95066 11.0717L7.24132 12.7896V7.27589L6.05367 6.38522C4.79401 5.44149 3 6.33857 3 7.91199V9.60853V9.6086Z" fill="#C5221F"/>
</svg>
