<svg width="40" height="40" viewBox="0 0 40 40" fill="none" xmlns="http://www.w3.org/2000/svg">
<path fill-rule="evenodd" clip-rule="evenodd" d="M40 20C40 31.046 31.046 40 20 40C8.954 40 0 31.046 0 20C0 8.954 8.954 0 20 0C31.046 0 40 8.954 40 20ZM26 14C26 15.5913 25.3679 17.1174 24.2426 18.2426C23.1174 19.3679 21.5913 20 20 20C18.4087 20 16.8826 19.3679 15.7574 18.2426C14.6321 17.1174 14 15.5913 14 14C14 12.4087 14.6321 10.8826 15.7574 9.75736C16.8826 8.63214 18.4087 8 20 8C21.5913 8 23.1174 8.63214 24.2426 9.75736C25.3679 10.8826 26 12.4087 26 14ZM20 37C23.4326 37.0055 26.7856 35.9669 29.614 34.022C30.822 33.192 31.338 31.612 30.634 30.326C29.18 27.66 26.18 26 20 26C13.82 26 10.82 27.66 9.364 30.326C8.662 31.612 9.178 33.192 10.386 34.022C13.2144 35.9669 16.5674 37.0055 20 37Z" fill="#2B4465"/>
</svg>
