<svg width="14" height="14" viewBox="0 0 14 14" fill="none" xmlns="http://www.w3.org/2000/svg">
<path d="M8.66553 2.96838V5.70688L9.62353 6.30938C9.65811 6.31699 9.69394 6.31699 9.72853 6.30938L13.8475 3.53238C13.8445 3.39761 13.7952 3.26798 13.7079 3.16527C13.6206 3.06256 13.5006 2.99304 13.368 2.96838H8.66553Z" fill="#0072C6"/>
<path d="M8.66549 6.7284L9.53899 7.3284C9.57989 7.35331 9.62685 7.36649 9.67474 7.36649C9.72262 7.36649 9.76959 7.35331 9.81049 7.3284C9.66049 7.4189 13.847 4.6394 13.847 4.6394V9.6724C13.8579 9.77439 13.8464 9.87753 13.8133 9.97461C13.7802 10.0717 13.7263 10.1604 13.6553 10.2344C13.5843 10.3085 13.4981 10.3661 13.4025 10.4033C13.3069 10.4406 13.2043 10.4565 13.102 10.4499H8.66499L8.66549 6.7284ZM4.14349 5.4659C3.99835 5.46521 3.85573 5.50378 3.73074 5.57755C3.60574 5.65131 3.50303 5.75751 3.43349 5.8849C3.24354 6.22259 3.15241 6.60689 3.17049 6.9939C3.15075 7.38012 3.24201 7.76391 3.43349 8.0999C3.50274 8.22205 3.60292 8.32382 3.72397 8.39498C3.84501 8.46614 3.98265 8.50419 4.12306 8.50531C4.26347 8.50642 4.4017 8.47056 4.52386 8.40133C4.64602 8.3321 4.7478 8.23194 4.81899 8.1109C5.00838 7.77646 5.09775 7.39466 5.07649 7.0109C5.09818 6.6151 5.01175 6.22085 4.82649 5.8704C4.76028 5.74717 4.66167 5.64436 4.5413 5.57307C4.42093 5.50178 4.28338 5.46473 4.14349 5.4659Z" fill="#0072C6"/>
<path d="M0 1.57738V12.2909L8.15 13.9999V-0.00012207L0 1.57738ZM5.454 8.74538C5.30154 8.96031 5.09882 9.13468 4.86351 9.25329C4.62821 9.3719 4.36746 9.43115 4.104 9.42588C3.84717 9.43044 3.59304 9.37291 3.36322 9.25817C3.13341 9.14344 2.9347 8.97489 2.784 8.76688C2.42659 8.26789 2.2478 7.66299 2.2765 7.04988C2.2461 6.4067 2.42812 5.77138 2.7945 5.24188C2.94888 5.02284 3.15479 4.84515 3.39405 4.72448C3.63331 4.6038 3.89859 4.54384 4.1665 4.54988C4.42147 4.54476 4.67379 4.60231 4.90133 4.71747C5.12886 4.83263 5.32465 5.00189 5.4715 5.21038C5.82533 5.7202 6.00108 6.33251 5.9715 6.95238C6.00267 7.5909 5.82062 8.22166 5.454 8.74538Z" fill="#0072C6"/>
</svg>
