<svg width="16" height="14" viewBox="0 0 16 14" fill="none" xmlns="http://www.w3.org/2000/svg">
<path d="M4.66667 8.16654C4.43592 8.16654 4.21036 8.09812 4.0185 7.96993C3.82664 7.84173 3.67711 7.65952 3.58881 7.44634C3.5005 7.23316 3.4774 6.99858 3.52242 6.77227C3.56743 6.54596 3.67855 6.33808 3.84171 6.17492C4.00487 6.01176 4.21275 5.90064 4.43906 5.85563C4.66537 5.81061 4.89995 5.83372 5.11313 5.92202C5.32631 6.01032 5.50852 6.15986 5.63671 6.35171C5.76491 6.54357 5.83333 6.76913 5.83333 6.99988C5.83333 7.3093 5.71042 7.60604 5.49162 7.82484C5.27283 8.04363 4.97609 8.16654 4.66667 8.16654ZM15.1667 6.41654V12.8332C15.1666 12.9917 15.1342 13.1485 15.0715 13.294C15.0088 13.4396 14.9172 13.5708 14.8021 13.6798C14.7855 13.6965 14.7679 13.7123 14.7496 13.7272C14.5397 13.9037 14.2742 14.0003 14 13.9999H4.66667C4.35725 13.9999 4.0605 13.877 3.84171 13.6582C3.62292 13.4394 3.5 13.1426 3.5 12.8332V11.6665H1.16667C0.857247 11.6665 0.560501 11.5436 0.341709 11.3248C0.122916 11.106 0 10.8093 0 10.4999V3.49988C0 3.19046 0.122916 2.89371 0.341709 2.67492C0.560501 2.45613 0.857247 2.33321 1.16667 2.33321H5.25V1.16654C5.25 0.857125 5.37292 0.560379 5.59171 0.341587C5.8105 0.122794 6.10725 -0.00012207 6.41667 -0.00012207H12.25C12.5594 -0.00012207 12.8562 0.122794 13.075 0.341587C13.2937 0.560379 13.4167 0.857125 13.4167 1.16654V5.24988H14C14.2654 5.25015 14.5227 5.34124 14.7292 5.508L14.735 5.51311L14.7452 5.52113C14.7644 5.5363 14.7824 5.55287 14.7992 5.57071C14.9149 5.67914 15.0072 5.81012 15.0705 5.95559C15.1337 6.10106 15.1664 6.25794 15.1667 6.41654ZM6.41667 2.33321H8.16667C8.47608 2.33321 8.77283 2.45613 8.99162 2.67492C9.21042 2.89371 9.33333 3.19046 9.33333 3.49988V8.90519L12.25 6.79863V1.16654H6.41667V2.33321ZM4.66667 9.33321C5.12816 9.33321 5.57928 9.19636 5.963 8.93997C6.34671 8.68358 6.64578 8.31917 6.82238 7.89281C6.99899 7.46644 7.0452 6.99729 6.95516 6.54467C6.86513 6.09204 6.6429 5.67628 6.31658 5.34996C5.99026 5.02364 5.5745 4.80141 5.12188 4.71138C4.66925 4.62135 4.2001 4.66755 3.77374 4.84416C3.34738 5.02076 2.98296 5.31983 2.72657 5.70355C2.47018 6.08726 2.33333 6.53839 2.33333 6.99988C2.33333 7.61872 2.57917 8.21221 3.01675 8.64979C3.45434 9.08738 4.04783 9.33321 4.66667 9.33321ZM12.7794 12.8332L9.33333 10.3446V10.4999C9.33333 10.8093 9.21042 11.106 8.99162 11.3248C8.77283 11.5436 8.47608 11.6665 8.16667 11.6665H4.66667V12.8332H12.7794ZM14 6.97436L10.3294 9.62488L14 12.2754V6.97436Z" fill="#0072C6"/>
</svg>
