<svg width="23" height="14" viewBox="0 0 23 14" fill="none" xmlns="http://www.w3.org/2000/svg">
<path d="M21.6874 -0.00012207H18.8879C18.5026 -0.00012207 18.1993 0.313144 18.2142 0.698511L18.5399 9.79814H20.6383L22.2642 0.688566C22.3314 0.310658 22.0703 -0.00012207 21.6874 -0.00012207ZM19.7631 11.1979H19.4125C18.7388 11.1979 18.1893 11.7498 18.1893 12.4236V12.7742C18.1893 13.4479 18.7413 13.9999 19.4125 13.9999H19.7631C20.4369 13.9999 20.9863 13.4479 20.9863 12.7742V12.4236C20.9863 11.7498 20.4344 11.1979 19.7631 11.1979ZM8.39354 -0.00012207C3.75919 -0.00012207 0 3.13254 0 6.99863C0 10.8647 3.75919 13.9974 8.39354 13.9974C13.0279 13.9974 16.7871 10.8647 16.7871 6.99863C16.7871 3.13254 13.0304 -0.00012207 8.39354 -0.00012207ZM13.9925 5.59888H12.369L9.79329 8.17462V9.79814H11.8917V11.1979H6.29515V9.79814H8.39354V8.17462L4.42302 4.19913H3.50311V2.79938H7.69242V4.19913H6.77251L9.09465 6.52376L9.79329 5.82513V4.20162H13.9901V5.59888H13.9925Z" fill="#2B4465"/>
</svg>
