<svg width="131" height="44" viewBox="0 0 131 44" fill="none" xmlns="http://www.w3.org/2000/svg">
<g clip-path="url(#clip0_1009_8294)">
<path d="M108.954 14.6947C108.653 14.3964 108.502 14.0299 108.502 13.5953C108.502 13.4731 108.539 13.2288 108.614 12.8634C108.69 12.4969 108.933 11.9477 109.345 11.2148C109.632 10.7131 110.043 10.4288 110.577 10.3596C110.673 10.3466 110.763 10.3391 110.845 10.3391C111.284 10.3391 111.704 10.4548 112.109 10.685C112.513 10.9164 112.728 11.2418 112.756 11.6612V11.7023H112.715L112.633 11.6818C112.427 11.6818 112.187 11.8612 111.913 12.2212C111.639 12.5802 111.351 13.0526 111.051 13.6353C111.01 13.7034 110.968 13.778 110.928 13.8591C110.694 14.3877 110.434 14.7748 110.146 15.018C110.037 15.1131 109.92 15.1607 109.797 15.1607C109.55 15.1607 109.269 15.005 108.954 14.6926V14.6947ZM131 20.5748C130.109 22.1618 128.928 23.7693 127.456 25.3964C125.983 27.0245 124.459 28.4018 122.884 29.5272C122.13 31.2234 121.411 32.8775 120.727 34.4915C119.549 37.232 118.623 39.3066 117.953 40.7185C117.432 41.7629 116.822 42.5499 116.124 43.0785C115.425 43.6083 114.741 43.8991 114.07 43.9531H113.823C113.247 43.9531 112.748 43.7704 112.323 43.4039C111.898 43.0375 111.685 42.4472 111.685 41.6342C111.685 40.3996 112.065 39.1175 112.826 37.7888C113.587 36.4591 114.552 35.1975 115.723 34.0039C116.894 32.8104 118.137 31.7661 119.451 30.871C119.739 30.1791 120.055 29.4331 120.397 28.6331C120.739 27.7791 121.109 26.8969 121.506 25.9877C121.259 26.3672 120.838 26.9607 120.242 27.7683C119.647 28.5747 119.027 29.325 118.383 30.0169C117.738 30.7088 117.219 31.0753 116.821 31.1164C116.109 31.1034 115.598 30.8796 115.29 30.445C114.982 30.0115 114.827 29.4342 114.827 28.7164C114.827 27.8602 114.999 26.8666 115.327 25.7477C114.162 26.7488 113.125 27.5175 112.218 28.045C112.245 28.3704 112.258 28.7023 112.258 29.0418C112.258 30.6148 111.96 32.3856 111.364 34.3521C110.768 36.3185 110.012 38.1434 109.095 39.8256C108.178 41.5077 107.396 42.565 106.753 42.9996C106.547 43.1218 106.301 43.1823 106.013 43.1823C105.877 43.1823 105.649 43.152 105.335 43.0904C105.02 43.0299 104.684 42.8364 104.329 42.511C104.013 42.2396 103.856 41.9012 103.856 41.4937L103.877 41.3099C104.465 38.271 105.78 34.2904 107.821 29.3661C107.588 29.191 107.473 28.9737 107.473 28.7153C107.473 28.6072 107.521 28.4202 107.617 28.1553C107.713 27.8904 108.048 27.6569 108.623 27.4537C109.053 26.445 109.479 25.4612 109.902 24.4991C108.922 25.9726 107.898 27.3834 106.825 28.725C105.625 30.2245 104.691 31.0277 104.021 31.1358H103.918C103.275 31.1358 102.761 30.871 102.377 30.3423C102.131 30.0029 102.008 29.4948 102.008 28.8158C102.008 28.3953 102.056 27.9077 102.152 27.351C102.348 26.3931 102.623 25.4115 102.964 24.4104C101.948 25.3715 100.889 26.0958 99.7883 26.5769C98.391 28.9239 97.0766 30.3888 95.8441 30.9715C95.5832 31.0666 95.3234 31.1142 95.0625 31.1142C94.7339 31.1142 94.3606 31.0126 93.9425 30.8093C93.5243 30.6061 93.2471 30.2331 93.1106 29.6904C93.0822 29.5823 93.0691 29.4807 93.0691 29.3856C93.0691 28.938 93.3016 28.4699 93.7678 27.9812C94.2743 27.4115 95.3016 26.9845 96.8507 26.6991C97.0559 26.3466 97.3637 25.7391 97.7742 24.8785C98.1847 24.0169 98.5864 23.098 98.9761 22.1207C99.367 21.1445 99.6311 20.3099 99.7676 19.618C99.8091 19.4277 99.8298 19.2645 99.8298 19.1293C99.8298 18.7639 99.6999 18.5802 99.439 18.5802C99.1519 18.5802 98.6246 18.9131 97.8572 19.5769C97.0897 20.2418 96.0079 21.3466 94.6106 22.8937C93.7612 24.698 92.9086 26.6861 92.0528 28.8558C91.1969 31.0266 90.4437 33.1283 89.7919 35.1629C89.1424 37.1975 88.7068 38.9131 88.4874 40.3099C88.4186 40.7845 88.3848 41.1985 88.3848 41.551C88.3848 42.2288 88.5212 42.6558 88.7952 42.8331C88.8083 42.8331 88.816 42.8396 88.816 42.8537C88.816 42.8677 88.8083 42.8807 88.7952 42.8937C88.6173 43.0699 88.3564 43.1585 88.0136 43.1585C87.8903 43.1585 87.661 43.1283 87.3259 43.0677C86.9896 43.0061 86.6108 42.8126 86.1862 42.4883C85.8303 42.2169 85.6523 41.8904 85.6523 41.511C85.6523 41.4429 85.6589 41.3683 85.672 41.2872C85.9056 38.9942 86.5628 36.2504 87.6446 33.0558C88.4994 30.5315 89.4328 28.0731 90.4371 25.6764C90.3247 25.8375 90.2166 25.9942 90.0998 26.1585C89.1752 27.4677 88.2712 28.6072 87.387 29.5769C86.5038 30.5477 85.7953 31.0591 85.2604 31.1131H85.1993C84.8838 31.1131 84.5629 31.018 84.2343 30.8288C83.9057 30.6385 83.659 30.272 83.4941 29.7293C83.4253 29.4991 83.3915 29.2202 83.3915 28.8948C83.3915 28.4612 83.4526 27.9456 83.576 27.3488C83.8642 26.1683 84.3609 24.711 85.0661 22.9737C85.7713 21.2375 86.4187 19.9088 87.0082 18.9856C86.6512 19.311 86.0344 20.0169 85.1589 21.1023C84.2823 22.1877 83.3435 23.3737 82.3446 24.6634C81.3446 25.952 80.4811 27.071 79.7562 28.0202C79.7148 28.0742 79.6744 28.1218 79.6329 28.1629C79.4135 28.4472 79.2421 28.6785 79.1187 28.8548C78.9397 29.0991 78.8076 29.272 78.7181 29.3737C78.6286 29.4753 78.5565 29.5261 78.5019 29.5261H78.419C78.3644 29.5261 78.3032 29.5196 78.2345 29.5056C78.1941 29.4926 78.1449 29.4785 78.0904 29.4656C77.2269 29.2353 76.7956 28.8072 76.7956 28.1834C76.7956 28.1564 76.7989 27.9769 76.8055 27.6439C76.812 27.311 76.9594 26.8126 77.2476 26.1488C77.5631 25.2537 78.0205 24.0937 78.6242 22.6699C79.2268 21.2461 79.741 20.1066 80.1645 19.2515C79.3294 20.1337 78.2639 21.4418 76.9703 23.178C75.6756 24.9153 74.4256 26.725 73.2204 28.6104C73.0971 29.1802 73.0359 29.6407 73.0359 29.9942C73.0359 30.4018 73.1178 30.6656 73.2816 30.7877C73.2947 30.8018 73.3056 30.8115 73.3121 30.818C73.3198 30.8245 73.3154 30.8353 73.3023 30.8483C73.1113 31.0256 72.8504 31.1131 72.5207 31.1131C72.3973 31.1131 72.1648 31.0829 71.822 31.0212C71.4803 30.9607 71.1168 30.7672 70.7336 30.4418C70.4323 30.1975 70.2817 29.9066 70.2817 29.5672C70.2817 29.4591 70.2948 29.3499 70.3232 29.2418C70.6157 27.6861 71.0327 26.1456 71.5611 24.6202C71.203 25.1369 70.8275 25.6699 70.4258 26.2299C69.4804 27.5466 68.5623 28.6991 67.6726 29.6893C66.7818 30.6796 66.0908 31.1748 65.5973 31.1748C64.843 31.1748 64.3299 30.951 64.0559 30.5034C63.8365 30.111 63.7273 29.6353 63.7273 29.0796C63.7273 28.9845 63.7371 28.7445 63.7579 28.3575C63.7786 27.9704 63.8911 27.405 64.0963 26.658C63.2885 27.9196 62.473 28.9877 61.651 29.8623C60.8289 30.7369 60.0691 31.1748 59.3705 31.1748C58.7133 31.0115 58.2406 30.6526 57.9524 30.0958C57.6653 29.5402 57.5212 28.8612 57.5212 28.0612C57.5212 27.4148 57.5943 26.7283 57.7362 26.0039C57.7013 26.0526 57.6696 26.0991 57.6336 26.1488C56.6948 27.4645 55.7811 28.6137 54.8903 29.5975C53.9995 30.5812 53.2811 31.1002 52.7331 31.1542C52.6654 31.1683 52.5967 31.1748 52.5279 31.1748C52.2943 31.1748 52.0519 31.1175 51.7987 31.0018C51.5454 30.8872 51.326 30.6558 51.1415 30.3099C50.9559 29.9639 50.8631 29.4861 50.8631 28.8753C50.8631 27.8991 51.1851 26.5056 51.8292 24.6937C52.4733 22.8829 53.2571 20.9737 54.1818 18.9661C55.1064 16.9585 56.0136 15.1077 56.9044 13.4115H56.6577C55.9863 13.4115 55.2123 13.4591 54.3357 13.5542C53.541 15.0602 52.5683 16.4029 51.4177 17.5823C50.2671 18.7629 49.1033 19.3996 47.9254 19.4948C46.6646 19.4948 45.6853 19.2342 44.9867 18.711C44.288 18.1888 43.8775 17.5683 43.7542 16.8493C43.74 16.7142 43.7334 16.5845 43.7334 16.4634C43.7334 15.8666 43.931 15.311 44.3295 14.7942C45.014 14.0083 46.0751 13.3737 47.5139 12.8915C48.9516 12.4104 50.4177 12.1012 51.9111 11.9661C52.5967 10.6504 52.9798 9.47097 53.0617 8.42556C53.0748 8.31745 53.0825 8.22232 53.0825 8.14016C53.0825 7.38124 52.6982 7.0007 51.9318 7.0007C51.6578 7.0007 51.3358 7.04826 50.9657 7.1434C49.2256 7.60502 47.4735 8.59529 45.7061 10.1142C43.9398 11.6342 42.4736 13.3369 41.3099 15.2212C40.1724 17.0526 39.6037 18.7348 39.6037 20.2677V20.431C39.6855 21.3131 40.1408 22.0688 40.9704 22.7002C41.799 23.3304 42.7411 23.925 43.7957 24.4807C44.8906 25.0375 45.8425 25.6342 46.6515 26.271C47.4593 26.9088 47.8708 27.6753 47.8839 28.5704C47.7879 29.5607 47.0925 30.5575 45.7989 31.5607C44.5041 32.565 42.9496 33.4266 41.1353 34.1445C39.3198 34.8634 37.5917 35.2969 35.9477 35.4472C35.6322 35.4742 35.332 35.4872 35.0438 35.4872C33.8386 35.4872 32.9063 35.2093 32.2491 34.6526C31.4271 33.8656 31.0166 32.991 31.0166 32.0277C31.0166 31.8915 31.0537 31.5056 31.129 30.8677C31.2044 30.2299 32.0231 29.4158 33.5842 28.4266C34.1999 28.0602 35.0394 27.6839 36.1016 27.2969C37.1627 26.911 38.2216 26.6493 39.2762 26.5131C39.5644 26.4731 39.8307 26.4526 40.0774 26.4526C40.763 26.4526 41.3176 26.5888 41.7422 26.8602C42.2477 27.2537 42.5566 27.7488 42.6658 28.3456C42.6789 28.4266 42.6865 28.5077 42.6865 28.5899C42.6865 28.7531 42.6396 28.9358 42.5424 29.1402C42.4464 29.3434 42.1658 29.5672 41.6997 29.8115H41.6385V29.7196C41.6385 29.7002 41.6582 29.6688 41.6997 29.6288C41.9464 29.4526 42.1243 29.2688 42.2335 29.0785C42.275 28.9975 42.2957 28.9229 42.2957 28.8548C42.2957 28.7466 42.2542 28.6375 42.1723 28.5293C41.8438 28.2039 41.3361 28.0407 40.6517 28.0407C40.3776 28.0407 39.8678 28.0991 39.1211 28.2137C38.3744 28.3283 37.3919 28.631 36.1725 29.1185C34.9532 29.6072 34.0493 30.0818 33.4608 30.5423C32.8168 31.058 32.4063 31.458 32.2284 31.7423C32.1323 31.9056 32.0843 32.0472 32.0843 32.1693C32.0843 32.2645 32.1323 32.3661 32.2284 32.4742C32.3244 32.5823 32.5362 32.671 32.8648 32.7391C33.2218 32.8202 33.6453 32.8612 34.1388 32.8612C34.8505 32.8612 35.8614 32.7531 37.1692 32.5358C38.4771 32.3185 39.929 31.858 41.525 31.1521C43.121 30.4472 44.2749 29.538 44.9867 28.4256C45.1373 28.1402 45.2126 27.8688 45.2126 27.6115C45.2126 27.1499 44.9255 26.6688 44.3491 26.1672C43.7738 25.6656 42.9114 25.1164 41.7608 24.5196C40.7608 23.9899 39.822 23.4104 38.9454 22.7802C38.0688 22.1499 37.4662 21.4137 37.1376 20.5726C37 20.111 36.9313 19.6299 36.9313 19.1283C36.9313 18.0299 37.3221 16.6872 38.1026 15.1002C38.8842 13.5131 40.0993 11.8818 41.7499 10.2072C43.4005 8.53151 45.0958 7.26664 46.8349 6.41259C47.9582 5.91097 49.1088 5.66016 50.2867 5.66016C50.5607 5.66016 51.1262 5.69799 51.9821 5.77151C52.8379 5.8461 53.7178 6.29799 54.6217 7.12502C55.3073 7.74881 55.649 8.55637 55.649 9.54664C55.649 9.85908 55.614 10.191 55.5464 10.5434C55.4645 10.9239 55.3335 11.3304 55.1555 11.7639C55.9503 11.7099 56.7035 11.6829 57.4164 11.6829H57.8476C58.2853 10.8969 58.662 10.2591 58.9775 9.77043C59.21 9.39097 59.5528 9.2007 60.0047 9.2007C60.0451 9.2007 60.2023 9.21475 60.4774 9.24178C60.7514 9.2688 61.1149 9.43529 61.5669 9.74016C62.0188 10.045 62.2448 10.3737 62.2448 10.7272C62.2448 10.7402 62.2372 10.751 62.2241 10.7575C62.211 10.765 62.1957 10.7672 62.1826 10.7672C62.1553 10.7542 62.128 10.7466 62.1007 10.7466C61.8267 10.7466 61.4359 11.1002 60.9294 11.805C63.3954 11.8191 65.9663 11.9953 68.6453 12.3348C71.3231 12.6742 73.5043 13.0537 75.1898 13.4742C75.3394 13.5142 75.4158 13.5423 75.4158 13.5553H75.1898C71.9978 13.2429 69.1212 13.0872 66.5602 13.0872C63.9991 13.0872 61.8278 13.1348 60.0058 13.2299C59.0189 14.912 58.0364 16.8515 57.0572 19.0493C56.078 21.2472 55.2494 23.271 54.5715 25.1229C53.8936 26.9748 53.5541 28.1304 53.5541 28.5921C53.5541 28.7002 53.5879 28.7553 53.6567 28.7553C53.8062 28.7553 54.1567 28.4872 54.7047 27.951C55.2527 27.4158 55.9721 26.6353 56.8618 25.6115C57.3607 25.0385 57.8345 24.4839 58.2941 23.9412C58.3519 23.7704 58.4109 23.5985 58.4753 23.4245C59.1117 21.7023 59.8628 20.1758 60.7252 18.8461C61.5876 17.5175 62.4031 16.6893 63.1695 16.3639C63.4566 16.2688 63.7317 16.2212 63.9926 16.2212C64.6083 16.2212 65.2 16.5304 65.7698 17.1466C66.3375 17.7639 66.7392 18.6148 66.9717 19.7002C67.2457 19.1985 67.5132 18.7175 67.773 18.2558C68.0055 17.8623 68.356 17.6656 68.821 17.6656C68.8625 17.6656 69.0164 17.6731 69.2828 17.6861C69.5503 17.6991 69.9127 17.8558 70.3723 18.1542C70.8308 18.4526 71.06 18.7845 71.06 19.151V19.1715C71.0458 19.1845 71.0295 19.1953 71.0087 19.2018C70.9891 19.2093 70.9651 19.2115 70.9367 19.2115C70.5939 19.2256 70.1736 19.6429 69.6736 20.4634C69.1736 21.2839 68.6769 22.271 68.1846 23.4234C67.6912 24.5769 67.273 25.658 66.9313 26.6688C66.5886 27.6796 66.4183 28.3412 66.4183 28.6526C66.4183 28.7337 66.4445 28.7748 66.5001 28.7748C66.6377 28.7748 66.9903 28.4969 67.558 27.9402C68.1267 27.3845 68.8592 26.5942 69.7566 25.5704C70.6539 24.5466 71.4891 23.5737 72.263 22.6504C72.2969 22.6104 72.3264 22.5748 72.3591 22.5358C73.2095 20.5056 74.1582 18.5748 75.2116 16.7499C75.4442 16.3564 75.7935 16.1596 76.2596 16.1596C76.288 16.1596 76.4343 16.1629 76.7018 16.1693C76.9681 16.1769 77.3175 16.3218 77.7498 16.6072C78.181 16.8926 78.4244 17.2245 78.479 17.6039C78.479 17.618 78.4757 17.631 78.4692 17.6439C78.4615 17.658 78.4517 17.672 78.4386 17.685H78.3567C77.9998 17.698 77.3699 18.5056 76.466 20.1066C75.5621 21.7066 74.6647 23.8645 73.775 26.5769C74.775 24.9077 75.942 23.1553 77.2782 21.3175C78.6133 19.4796 79.8632 18.045 81.0269 17.0137C81.4647 16.6342 81.849 16.3834 82.1776 16.2612C82.3424 16.2072 82.5127 16.1802 82.6917 16.1802C82.9101 16.1802 83.1371 16.2137 83.3697 16.2818C83.7528 16.4039 84.0749 16.5866 84.3347 16.832C84.5945 17.0764 84.7386 17.3337 84.7659 17.605V17.645C84.7659 17.6591 84.7583 17.6731 84.7452 17.6861H84.6425C84.4504 17.7131 84.0913 18.1639 83.564 19.0396C83.0367 19.9142 82.457 20.9899 81.8282 22.2645C81.1983 23.5402 80.6427 24.7942 80.1634 26.0288C80.2868 25.8526 80.4298 25.6493 80.5947 25.4191C81.2933 24.4429 82.1765 23.245 83.2452 21.8277C84.3129 20.4104 85.3914 19.1358 86.4809 18.0029C87.5704 16.871 88.471 16.2429 89.1828 16.1207H89.3269C89.8061 16.1207 90.245 16.2493 90.6423 16.5066C90.9164 16.6839 91.0528 16.9002 91.0528 17.1575C91.0528 17.3066 91.0048 17.4699 90.9087 17.6461C90.7723 17.8634 90.388 18.538 89.7581 19.671C89.1282 20.8039 88.4568 22.1639 87.7451 23.7499C87.0333 25.3369 86.4853 26.911 86.1021 28.471V28.5726C86.1021 28.6537 86.1294 28.6947 86.184 28.6947C86.2659 28.6947 86.458 28.5629 86.7593 28.298C87.0606 28.0331 87.5431 27.5391 88.2079 26.8126C88.8728 26.0872 89.5605 25.3034 90.2734 24.4623C90.7832 23.8591 91.257 23.298 91.698 22.7758C92.8322 20.2612 93.83 18.2515 94.6913 16.751C94.9097 16.3575 95.2525 16.1607 95.7186 16.1607C95.7459 16.1607 95.8933 16.1639 96.1607 16.1704C96.4271 16.178 96.7797 16.3229 97.2185 16.6083C97.6563 16.8937 97.8965 17.2256 97.938 17.605V17.645C97.938 17.6591 97.9249 17.6731 97.8965 17.6861H97.8146C97.4172 17.7402 96.7459 18.6699 95.8016 20.4742C96.6913 19.3477 97.641 18.351 98.6464 17.4829C99.653 16.6148 100.465 16.1802 101.081 16.1802C102.012 16.4245 102.533 17.0483 102.642 18.0526C102.655 18.2288 102.663 18.4115 102.663 18.6018C102.663 19.4839 102.461 20.5315 102.057 21.7456C101.652 22.9596 101.108 24.1899 100.424 25.4385C101.635 24.6634 102.63 23.9023 103.42 23.152C103.58 22.7477 103.745 22.3402 103.926 21.9283C104.754 20.0493 105.613 18.3369 106.504 16.791C106.737 16.3985 107.086 16.2018 107.552 16.2018C107.58 16.2018 107.727 16.205 107.994 16.2115C108.262 16.2191 108.618 16.3683 109.063 16.6591C109.509 16.951 109.752 17.2872 109.792 17.6666V17.7066C109.792 17.7207 109.783 17.7304 109.762 17.7369C109.742 17.7445 109.71 17.7466 109.67 17.7466C109.218 17.8277 108.444 18.9131 107.348 21.0018C106.252 23.0915 105.335 25.5672 104.595 28.4288C104.581 28.4829 104.574 28.5304 104.574 28.5715C104.574 28.6937 104.615 28.7542 104.698 28.7542C104.781 28.7542 104.968 28.6385 105.263 28.4083C105.558 28.178 106.044 27.6958 106.722 26.9639C107.399 26.231 108.108 25.432 108.848 24.5629C109.588 23.6948 110.249 22.9045 110.832 22.192C110.908 22.0991 110.972 22.0191 111.042 21.9337C111.979 19.8569 112.895 17.8958 113.789 16.058C115.44 12.6666 116.532 10.5639 117.066 9.74989C117.299 9.37043 117.641 9.18016 118.093 9.18016C118.134 9.18016 118.291 9.18989 118.566 9.21043C118.84 9.23097 119.196 9.39313 119.635 9.69908C120.073 10.0039 120.306 10.3402 120.334 10.7066C120.334 10.7207 120.326 10.7304 120.313 10.7369C120.3 10.7434 120.285 10.7466 120.272 10.7466H120.253C119.896 10.7466 119.283 11.4829 118.413 12.9542C117.543 14.4266 116.533 16.3726 115.383 18.7942C114.233 21.2158 113.075 23.8029 111.911 26.5564C111.924 26.5834 111.942 26.631 111.963 26.6991C111.983 26.7672 112.004 26.8385 112.024 26.9131C112.044 26.9877 112.061 27.0385 112.075 27.0656C113.521 26.1564 114.742 25.2991 115.74 24.4958C116.24 23.1056 116.806 21.7402 117.447 20.4018C118.138 18.9575 118.772 17.7402 119.348 16.7488C119.58 16.3553 119.93 16.1585 120.396 16.1585C120.436 16.1585 120.591 16.1661 120.857 16.1791C121.125 16.1931 121.487 16.3488 121.946 16.6472C122.405 16.9456 122.635 17.2775 122.635 17.6439C122.635 17.658 122.631 17.6677 122.625 17.6742C122.617 17.6807 122.607 17.6915 122.593 17.7045H122.511C122.183 17.7326 121.741 18.2061 121.186 19.1283C120.63 20.0515 120.066 21.1596 119.491 22.4558C118.915 23.751 118.425 24.9823 118.022 26.1488C117.617 27.3153 117.417 28.0947 117.417 28.4883C117.417 28.5423 117.436 28.5693 117.478 28.5693C117.601 28.5693 117.909 28.3488 118.402 27.9077C118.896 27.4666 119.535 26.8288 120.324 25.9953C121.111 25.1607 121.867 24.3304 122.593 23.5023C123.456 21.6029 124.12 20.1931 124.587 19.2699C125.052 18.3477 125.504 17.5066 125.942 16.7466C126.175 16.3531 126.524 16.1564 126.99 16.1564C127.031 16.1564 127.186 16.1639 127.452 16.1769C127.719 16.191 128.082 16.3466 128.542 16.645C129 16.9434 129.229 17.2688 129.229 17.6223C129.229 17.6353 129.226 17.6493 129.22 17.6623C129.212 17.6764 129.202 17.6861 129.189 17.6926C129.175 17.6991 129.149 17.7023 129.107 17.7023C128.641 17.7434 127.97 18.6277 127.094 20.3575C126.218 22.0872 125.224 24.2072 124.115 26.7164L123.663 27.7337C125.348 26.4861 126.756 25.2385 127.886 23.9899C129.016 22.7423 129.841 21.765 130.362 21.0602C130.526 20.8569 130.656 20.6937 130.752 20.5715H130.999L131 20.5748ZM50.5411 14.165C48.5553 14.4634 47.1438 14.8602 46.3087 15.3553C45.4725 15.8504 45.014 16.2948 44.9321 16.6883C44.9048 16.7834 44.8917 16.871 44.8917 16.9531C44.8917 17.2926 45.1177 17.4623 45.5696 17.4623C45.5827 17.4623 45.741 17.4591 46.0423 17.4526C46.3436 17.4461 46.9528 17.1683 47.8708 16.618C48.7889 16.0677 49.6786 15.2515 50.5422 14.1661L50.5411 14.165ZM66.7108 20.2083C66.0667 18.9877 65.4369 18.3769 64.8201 18.3769C64.7786 18.3769 64.5941 18.3942 64.2655 18.4277C63.9369 18.4623 63.5013 18.9293 62.961 19.832C62.4195 20.7348 61.9468 21.792 61.5429 23.0061C61.139 24.2202 60.8235 25.3434 60.5986 26.3737C60.3726 27.405 60.2602 28.0429 60.2602 28.2872C60.2602 28.5996 60.3551 28.7553 60.5473 28.7553C60.5604 28.7553 60.6292 28.7456 60.7525 28.725C60.8759 28.7056 61.116 28.5499 61.4719 28.2569C61.8278 27.965 62.2077 27.6093 62.6127 27.1888C63.0166 26.7683 63.3998 26.351 63.7633 25.938C64.1258 25.5239 64.4238 25.1748 64.6563 24.8893C65.081 23.6418 65.7654 22.0818 66.7108 20.2093V20.2083ZM96.1334 27.778C95.7765 27.8321 95.4206 27.951 95.0647 28.1337C94.7088 28.3164 94.449 28.5034 94.2841 28.6937C94.2154 28.7748 94.1815 28.8429 94.1815 28.8969C94.1815 28.978 94.2438 29.0396 94.3671 29.0796H94.4905C94.723 29.0796 94.9806 28.9683 95.2612 28.7445C95.5417 28.5207 95.8332 28.1985 96.1356 27.778H96.1334ZM111.666 28.4083C111.447 28.5715 111.207 28.7272 110.946 28.8764C109.111 33.3391 107.816 36.9953 107.063 39.8439L107.023 40.0072C106.981 40.1153 106.955 40.2104 106.941 40.2926V40.4753C106.955 40.4883 106.968 40.4958 106.981 40.4958C107.01 40.4958 107.057 40.472 107.125 40.4245C107.194 40.3769 107.311 40.258 107.475 40.0688C107.954 39.5672 108.529 38.7261 109.201 37.5456C109.872 36.3661 110.462 34.9748 110.967 33.3748C111.433 31.9099 111.666 30.3834 111.666 28.7964V28.4104V28.4083ZM118.713 32.5791C117.084 33.9488 115.717 35.4656 114.614 37.1261C113.512 38.7877 112.96 40.1066 112.96 41.0839C112.96 41.5315 113.063 41.8775 113.268 42.1218C113.364 42.2299 113.481 42.285 113.618 42.285C113.782 42.285 114.012 42.1791 114.305 41.9693C114.6 41.7585 115.008 41.138 115.528 40.1077C115.871 39.3477 116.473 37.9369 117.336 35.8753C117.76 34.858 118.219 33.7596 118.712 32.5791H118.713Z" fill="url(#paint0_linear_1009_8294)"/>
<path d="M10.2213 25.7217L2.57197 16.5801L0 23.5466L9.48113 34.8774L24.1062 32.2752L26.6782 25.3087L14.8783 27.4082C13.1328 27.7185 11.3533 27.0741 10.2213 25.7217Z" fill="url(#paint1_linear_1009_8294)"/>
<path d="M22.3425 0.046875L7.71747 2.64904L5.14551 9.61553L16.9453 7.51606C18.6909 7.20579 20.4703 7.85012 21.6024 9.20255L29.2517 18.3442L31.8237 11.3777L22.3425 0.046875Z" fill="url(#paint2_linear_1009_8294)"/>
<path d="M5.14355 9.61384L14.6247 20.9447L24.1058 32.2755L26.6778 25.309L17.1966 13.9782L7.71552 2.64844L5.14355 9.61384Z" fill="url(#paint3_linear_1009_8294)"/>
</g>
<defs>
<linearGradient id="paint0_linear_1009_8294" x1="64.0897" y1="52.9121" x2="96.4043" y2="-3.60821" gradientUnits="userSpaceOnUse">
<stop stop-color="#010039"/>
<stop offset="0.15" stop-color="#00356C"/>
<stop offset="0.29" stop-color="#006399"/>
<stop offset="0.44" stop-color="#0088BD"/>
<stop offset="0.58" stop-color="#00A5D9"/>
<stop offset="0.72" stop-color="#00BAED"/>
<stop offset="0.86" stop-color="#00C6F9"/>
<stop offset="1" stop-color="#00CBFE"/>
</linearGradient>
<linearGradient id="paint1_linear_1009_8294" x1="23.9273" y1="32.2136" x2="0.537871" y2="23.5798" gradientUnits="userSpaceOnUse">
<stop stop-color="#010039"/>
<stop offset="0.15" stop-color="#00356C"/>
<stop offset="0.29" stop-color="#006399"/>
<stop offset="0.44" stop-color="#0088BD"/>
<stop offset="0.58" stop-color="#00A5D9"/>
<stop offset="0.72" stop-color="#00BAED"/>
<stop offset="0.86" stop-color="#00C6F9"/>
<stop offset="1" stop-color="#00CBFE"/>
</linearGradient>
<linearGradient id="paint2_linear_1009_8294" x1="8.3385" y1="2.87785" x2="31.0518" y2="11.262" gradientUnits="userSpaceOnUse">
<stop stop-color="#010039"/>
<stop offset="0.15" stop-color="#00356C"/>
<stop offset="0.29" stop-color="#006399"/>
<stop offset="0.44" stop-color="#0088BD"/>
<stop offset="0.58" stop-color="#00A5D9"/>
<stop offset="0.72" stop-color="#00BAED"/>
<stop offset="0.86" stop-color="#00C6F9"/>
<stop offset="1" stop-color="#00CBFE"/>
</linearGradient>
<linearGradient id="paint3_linear_1009_8294" x1="6.90127" y1="6.22064" x2="29.038" y2="34.2769" gradientUnits="userSpaceOnUse">
<stop stop-color="#010039"/>
<stop offset="0.15" stop-color="#00356C"/>
<stop offset="0.29" stop-color="#006399"/>
<stop offset="0.44" stop-color="#0088BD"/>
<stop offset="0.58" stop-color="#00A5D9"/>
<stop offset="0.72" stop-color="#00BAED"/>
<stop offset="0.86" stop-color="#00C6F9"/>
<stop offset="1" stop-color="#00CBFE"/>
</linearGradient>
<clipPath id="clip0_1009_8294">
<rect width="131" height="44" fill="white"/>
</clipPath>
</defs>
</svg>
