<svg width="80" height="15" viewBox="0 0 80 15" fill="none" xmlns="http://www.w3.org/2000/svg">
<path d="M28.552 8.744L26.752 4.08C26.6987 3.94133 26.6427 3.78133 26.584 3.6C26.5253 3.41333 26.4693 3.216 26.416 3.008C26.304 3.44 26.1893 3.8 26.072 4.088L24.272 8.744H28.552ZM31.784 13H30.584C30.4453 13 30.3333 12.9653 30.248 12.896C30.1627 12.8267 30.0987 12.7387 30.056 12.632L28.984 9.864H23.84L22.768 12.632C22.736 12.728 22.6747 12.8133 22.584 12.888C22.4933 12.9627 22.3813 13 22.248 13H21.048L25.632 1.536H27.2L31.784 13ZM34.2689 6.072C34.4449 5.87467 34.6315 5.696 34.8289 5.536C35.0262 5.376 35.2342 5.24 35.4529 5.128C35.6769 5.01067 35.9115 4.92267 36.1569 4.864C36.4075 4.8 36.6769 4.768 36.9649 4.768C37.4075 4.768 37.7969 4.84267 38.1329 4.992C38.4742 5.136 38.7569 5.344 38.9809 5.616C39.2102 5.88267 39.3835 6.20533 39.5009 6.584C39.6182 6.96267 39.6769 7.38133 39.6769 7.84V13H38.2449V7.84C38.2449 7.22667 38.1035 6.752 37.8209 6.416C37.5435 6.07467 37.1195 5.904 36.5489 5.904C36.1275 5.904 35.7329 6.00533 35.3649 6.208C35.0022 6.41067 34.6662 6.68533 34.3569 7.032V13H32.9249V4.896H33.7809C33.9835 4.896 34.1089 4.99467 34.1569 5.192L34.2689 6.072ZM43.3508 4.896V13H41.9268V4.896H43.3508ZM43.6548 2.352C43.6548 2.49067 43.6254 2.62133 43.5668 2.744C43.5134 2.86133 43.4388 2.968 43.3428 3.064C43.2521 3.15467 43.1428 3.22667 43.0148 3.28C42.8921 3.33333 42.7614 3.36 42.6228 3.36C42.4841 3.36 42.3534 3.33333 42.2308 3.28C42.1134 3.22667 42.0094 3.15467 41.9188 3.064C41.8281 2.968 41.7561 2.86133 41.7028 2.744C41.6494 2.62133 41.6228 2.49067 41.6228 2.352C41.6228 2.21333 41.6494 2.08267 41.7028 1.96C41.7561 1.832 41.8281 1.72267 41.9188 1.632C42.0094 1.536 42.1134 1.46133 42.2308 1.408C42.3534 1.35467 42.4841 1.328 42.6228 1.328C42.7614 1.328 42.8921 1.35467 43.0148 1.408C43.1428 1.46133 43.2521 1.536 43.3428 1.632C43.4388 1.72267 43.5134 1.832 43.5668 1.96C43.6254 2.08267 43.6548 2.21333 43.6548 2.352ZM45.6905 13V4.896H46.5465C46.7492 4.896 46.8745 4.99467 46.9225 5.192L47.0265 6.024C47.3252 5.656 47.6612 5.35467 48.0345 5.12C48.4078 4.88533 48.8398 4.768 49.3305 4.768C49.8745 4.768 50.3145 4.92 50.6505 5.224C50.9918 5.528 51.2372 5.93867 51.3865 6.456C51.5038 6.16267 51.6532 5.90933 51.8345 5.696C52.0212 5.48267 52.2292 5.30667 52.4585 5.168C52.6878 5.02933 52.9305 4.928 53.1865 4.864C53.4478 4.8 53.7118 4.768 53.9785 4.768C54.4052 4.768 54.7838 4.83733 55.1145 4.976C55.4505 5.10933 55.7332 5.30667 55.9625 5.568C56.1972 5.82933 56.3758 6.152 56.4985 6.536C56.6212 6.91467 56.6825 7.34933 56.6825 7.84V13H55.2505V7.84C55.2505 7.20533 55.1118 6.72533 54.8345 6.4C54.5572 6.06933 54.1572 5.904 53.6345 5.904C53.3998 5.904 53.1758 5.94667 52.9625 6.032C52.7545 6.112 52.5705 6.232 52.4105 6.392C52.2505 6.552 52.1225 6.75467 52.0265 7C51.9358 7.24 51.8905 7.52 51.8905 7.84V13H50.4585V7.84C50.4585 7.18933 50.3278 6.704 50.0665 6.384C49.8052 6.064 49.4238 5.904 48.9225 5.904C48.5705 5.904 48.2452 6 47.9465 6.192C47.6478 6.37867 47.3732 6.63467 47.1225 6.96V13H45.6905ZM63.2388 9.352C62.5828 9.37333 62.0228 9.42667 61.5588 9.512C61.1001 9.592 60.7241 9.69867 60.4308 9.832C60.1428 9.96533 59.9321 10.1227 59.7988 10.304C59.6708 10.4853 59.6068 10.688 59.6068 10.912C59.6068 11.1253 59.6414 11.3093 59.7108 11.464C59.7801 11.6187 59.8734 11.7467 59.9908 11.848C60.1134 11.944 60.2548 12.016 60.4148 12.064C60.5801 12.1067 60.7561 12.128 60.9428 12.128C61.1934 12.128 61.4228 12.104 61.6308 12.056C61.8388 12.0027 62.0334 11.928 62.2148 11.832C62.4014 11.736 62.5774 11.6213 62.7428 11.488C62.9134 11.3547 63.0788 11.2027 63.2388 11.032V9.352ZM58.6388 6.04C59.0868 5.608 59.5694 5.28533 60.0868 5.072C60.6041 4.85867 61.1774 4.752 61.8068 4.752C62.2601 4.752 62.6628 4.82667 63.0148 4.976C63.3668 5.12533 63.6628 5.33333 63.9028 5.6C64.1428 5.86667 64.3241 6.18933 64.4468 6.568C64.5694 6.94667 64.6308 7.36267 64.6308 7.816V13H63.9988C63.8601 13 63.7534 12.9787 63.6788 12.936C63.6041 12.888 63.5454 12.7973 63.5028 12.664L63.3428 11.896C63.1294 12.0933 62.9214 12.2693 62.7188 12.424C62.5161 12.5733 62.3028 12.7013 62.0788 12.808C61.8548 12.9093 61.6148 12.9867 61.3588 13.04C61.1081 13.0987 60.8281 13.128 60.5188 13.128C60.2041 13.128 59.9081 13.0853 59.6308 13C59.3534 12.9093 59.1108 12.776 58.9028 12.6C58.7001 12.424 58.5374 12.2027 58.4148 11.936C58.2974 11.664 58.2388 11.344 58.2388 10.976C58.2388 10.656 58.3268 10.3493 58.5028 10.056C58.6788 9.75733 58.9641 9.49333 59.3588 9.264C59.7534 9.03467 60.2681 8.848 60.9028 8.704C61.5374 8.55467 62.3161 8.46933 63.2388 8.448V7.816C63.2388 7.18667 63.1028 6.712 62.8308 6.392C62.5588 6.06667 62.1614 5.904 61.6388 5.904C61.2868 5.904 60.9908 5.94933 60.7508 6.04C60.5161 6.12533 60.3108 6.224 60.1348 6.336C59.9641 6.44267 59.8148 6.54133 59.6868 6.632C59.5641 6.71733 59.4414 6.76 59.3188 6.76C59.2228 6.76 59.1401 6.736 59.0708 6.688C59.0014 6.63467 58.9428 6.57067 58.8947 6.496L58.6388 6.04ZM69.1785 13.128C68.5385 13.128 68.0452 12.9493 67.6985 12.592C67.3572 12.2347 67.1865 11.72 67.1865 11.048V6.088H66.2105C66.1252 6.088 66.0532 6.064 65.9945 6.016C65.9358 5.96267 65.9065 5.88267 65.9065 5.776V5.208L67.2345 5.04L67.5625 2.536C67.5785 2.456 67.6132 2.392 67.6665 2.344C67.7252 2.29067 67.7998 2.264 67.8905 2.264H68.6105V5.056H70.9545V6.088H68.6105V10.952C68.6105 11.2933 68.6932 11.5467 68.8585 11.712C69.0238 11.8773 69.2372 11.96 69.4985 11.96C69.6478 11.96 69.7758 11.9413 69.8825 11.904C69.9945 11.8613 70.0905 11.816 70.1705 11.768C70.2505 11.72 70.3172 11.6773 70.3705 11.64C70.4292 11.5973 70.4798 11.576 70.5225 11.576C70.5972 11.576 70.6638 11.6213 70.7225 11.712L71.1385 12.392C70.8932 12.6213 70.5972 12.8027 70.2505 12.936C69.9038 13.064 69.5465 13.128 69.1785 13.128ZM77.802 8.064C77.802 7.73333 77.754 7.432 77.658 7.16C77.5673 6.88267 77.4313 6.64533 77.25 6.448C77.074 6.24533 76.858 6.09067 76.602 5.984C76.346 5.872 76.0553 5.816 75.73 5.816C75.0473 5.816 74.506 6.016 74.106 6.416C73.7113 6.81067 73.466 7.36 73.37 8.064H77.802ZM78.954 11.864C78.778 12.0773 78.5673 12.264 78.322 12.424C78.0767 12.5787 77.8127 12.7067 77.53 12.808C77.2527 12.9093 76.9647 12.984 76.666 13.032C76.3673 13.0853 76.0713 13.112 75.778 13.112C75.218 13.112 74.7007 13.0187 74.226 12.832C73.7567 12.64 73.3487 12.3627 73.002 12C72.6607 11.632 72.394 11.1787 72.202 10.64C72.01 10.1013 71.914 9.48267 71.914 8.784C71.914 8.21867 71.9993 7.69067 72.17 7.2C72.346 6.70933 72.5967 6.28533 72.922 5.928C73.2473 5.56533 73.6447 5.28267 74.114 5.08C74.5833 4.872 75.1113 4.768 75.698 4.768C76.1833 4.768 76.6313 4.85067 77.042 5.016C77.458 5.176 77.8153 5.41067 78.114 5.72C78.418 6.024 78.6553 6.40267 78.826 6.856C78.9967 7.304 79.082 7.816 79.082 8.392C79.082 8.616 79.058 8.76533 79.01 8.84C78.962 8.91467 78.8713 8.952 78.738 8.952H73.322C73.338 9.464 73.4073 9.90933 73.53 10.288C73.658 10.6667 73.834 10.984 74.058 11.24C74.282 11.4907 74.5487 11.68 74.858 11.808C75.1673 11.9307 75.514 11.992 75.898 11.992C76.2553 11.992 76.562 11.952 76.818 11.872C77.0793 11.7867 77.3033 11.696 77.49 11.6C77.6767 11.504 77.8313 11.416 77.954 11.336C78.082 11.2507 78.1913 11.208 78.282 11.208C78.3993 11.208 78.49 11.2533 78.554 11.344L78.954 11.864Z" fill="#2B4465"/>
<path d="M5.625 10.875L10.875 7.5L5.625 4.125V10.875ZM7.5 15C6.4625 15 5.4875 14.803 4.575 14.409C3.6625 14.015 2.86875 13.4808 2.19375 12.8063C1.51875 12.1313 0.9845 11.3375 0.591 10.425C0.1975 9.5125 0.0005 8.5375 0 7.5C0 6.4625 0.197 5.4875 0.591 4.575C0.985 3.6625 1.51925 2.86875 2.19375 2.19375C2.86875 1.51875 3.6625 0.9845 4.575 0.591C5.4875 0.1975 6.4625 0.0005 7.5 0C8.5375 0 9.5125 0.197 10.425 0.591C11.3375 0.985 12.1313 1.51925 12.8063 2.19375C13.4813 2.86875 14.0157 3.6625 14.4097 4.575C14.8037 5.4875 15.0005 6.4625 15 7.5C15 8.5375 14.803 9.5125 14.409 10.425C14.015 11.3375 13.4808 12.1313 12.8063 12.8063C12.1313 13.4813 11.3375 14.0157 10.425 14.4097C9.5125 14.8037 8.5375 15.0005 7.5 15ZM7.5 13.5C9.175 13.5 10.5937 12.9187 11.7562 11.7562C12.9187 10.5937 13.5 9.175 13.5 7.5C13.5 5.825 12.9187 4.40625 11.7562 3.24375C10.5937 2.08125 9.175 1.5 7.5 1.5C5.825 1.5 4.40625 2.08125 3.24375 3.24375C2.08125 4.40625 1.5 5.825 1.5 7.5C1.5 9.175 2.08125 10.5937 3.24375 11.7562C4.40625 12.9187 5.825 13.5 7.5 13.5Z" fill="#2B4465"/>
</svg>
