<svg width="18" height="18" viewBox="0 0 18 18" fill="none" xmlns="http://www.w3.org/2000/svg">
<path d="M2.82348 0.631219L8.99948 6.80722L15.1435 0.663219C15.2792 0.518767 15.4427 0.40321 15.6241 0.323478C15.8056 0.243746 16.0013 0.201482 16.1995 0.199219C16.6238 0.199219 17.0308 0.36779 17.3309 0.667848C17.6309 0.967906 17.7995 1.37487 17.7995 1.79922C17.8032 1.99538 17.7668 2.19024 17.6925 2.37183C17.6182 2.55342 17.5076 2.71792 17.3675 2.85522L11.1435 8.99922L17.3675 15.2232C17.6312 15.4812 17.7858 15.8306 17.7995 16.1992C17.7995 16.6236 17.6309 17.0305 17.3309 17.3306C17.0308 17.6306 16.6238 17.7992 16.1995 17.7992C15.9956 17.8077 15.7921 17.7736 15.6021 17.6993C15.412 17.6249 15.2395 17.5118 15.0955 17.3672L8.99948 11.1912L2.83948 17.3512C2.70429 17.4909 2.54278 17.6023 2.36428 17.6792C2.18578 17.7561 1.99382 17.7969 1.79948 17.7992C1.37513 17.7992 0.968166 17.6306 0.668108 17.3306C0.36805 17.0305 0.199479 16.6236 0.199479 16.1992C0.195749 16.0031 0.232144 15.8082 0.306431 15.6266C0.380718 15.445 0.491331 15.2805 0.631479 15.1432L6.85548 8.99922L0.631479 2.77522C0.367775 2.51723 0.213142 2.16788 0.199479 1.79922C0.199479 1.37487 0.36805 0.967906 0.668108 0.667848C0.968166 0.36779 1.37513 0.199219 1.79948 0.199219C2.18348 0.204019 2.55148 0.359219 2.82348 0.631219Z" fill="white"/>
</svg>
