<svg width="19" height="18" viewBox="0 0 19 18" fill="none" xmlns="http://www.w3.org/2000/svg">
<path d="M9.22344 0C8.0122 0 6.81282 0.238571 5.69378 0.702093C4.57474 1.16561 3.55796 1.84501 2.70148 2.70148C0.971753 4.43121 0 6.77723 0 9.22344C0 13.3002 2.64713 16.759 6.30884 17.9857C6.77001 18.0595 6.91758 17.7736 6.91758 17.5245V15.9658C4.36269 16.5192 3.81851 14.7298 3.81851 14.7298C3.39423 13.6599 2.7947 13.374 2.7947 13.374C1.95537 12.8021 2.85927 12.8206 2.85927 12.8206C3.78161 12.8851 4.27045 13.7706 4.27045 13.7706C5.07289 15.1726 6.42874 14.7575 6.95448 14.5361C7.03749 13.9366 7.2773 13.5308 7.53555 13.3002C5.48795 13.0696 3.33889 12.2764 3.33889 8.76227C3.33889 7.73847 3.68938 6.91758 4.2889 6.26272C4.19667 6.03213 3.87385 5.07289 4.38114 3.82773C4.38114 3.82773 5.1559 3.5787 6.91758 4.76852C7.64623 4.5656 8.43945 4.46415 9.22344 4.46415C10.0074 4.46415 10.8007 4.5656 11.5293 4.76852C13.291 3.5787 14.0658 3.82773 14.0658 3.82773C14.573 5.07289 14.2502 6.03213 14.158 6.26272C14.7575 6.91758 15.108 7.73847 15.108 8.76227C15.108 12.2856 12.9497 13.0604 10.8929 13.291C11.2249 13.5769 11.5293 14.1395 11.5293 14.9973V17.5245C11.5293 17.7736 11.6769 18.0687 12.1473 17.9857C15.809 16.7498 18.4469 13.3002 18.4469 9.22344C18.4469 8.0122 18.2083 6.81282 17.7448 5.69378C17.2813 4.57474 16.6019 3.55796 15.7454 2.70148C14.8889 1.84501 13.8721 1.16561 12.7531 0.702093C11.6341 0.238571 10.4347 0 9.22344 0Z" fill="black"/>
</svg>
