<svg width="18" height="18" viewBox="0 0 18 18" fill="none" xmlns="http://www.w3.org/2000/svg">
<path d="M13.7812 0H4.21875C1.8888 0 0 1.8888 0 4.21875V13.7812C0 16.1112 1.8888 18 4.21875 18H13.7812C16.1112 18 18 16.1112 18 13.7812V4.21875C18 1.8888 16.1112 0 13.7812 0Z" fill="url(#paint0_radial_416_544)"/>
<path d="M13.7812 0H4.21875C1.8888 0 0 1.8888 0 4.21875V13.7812C0 16.1112 1.8888 18 4.21875 18H13.7812C16.1112 18 18 16.1112 18 13.7812V4.21875C18 1.8888 16.1112 0 13.7812 0Z" fill="url(#paint1_radial_416_544)"/>
<path d="M9.00063 1.96875C7.09109 1.96875 6.85139 1.97712 6.10144 2.01122C5.35289 2.04553 4.84193 2.16401 4.39488 2.33789C3.93237 2.51747 3.54009 2.75773 3.1493 3.14866C2.75815 3.53953 2.51789 3.9318 2.33775 4.39411C2.16338 4.8413 2.04476 5.35247 2.01108 6.10066C1.97754 6.85069 1.96875 7.09045 1.96875 9.00007C1.96875 10.9097 1.97719 11.1486 2.01122 11.8986C2.04567 12.6471 2.16415 13.1581 2.33789 13.6051C2.51761 14.0676 2.75787 14.4599 3.1488 14.8507C3.53953 15.2419 3.9318 15.4827 4.39397 15.6622C4.84137 15.8361 5.3524 15.9546 6.1008 15.9889C6.85083 16.023 7.09031 16.0314 8.99979 16.0314C10.9095 16.0314 11.1485 16.023 11.8984 15.9889C12.647 15.9546 13.1585 15.8361 13.6059 15.6622C14.0682 15.4827 14.4599 15.2419 14.8506 14.8507C15.2417 14.4599 15.4819 14.0676 15.6621 13.6053C15.8349 13.1581 15.9536 12.647 15.9888 11.8987C16.0225 11.1488 16.0312 10.9097 16.0312 9.00007C16.0312 7.09045 16.0225 6.85083 15.9888 6.1008C15.9536 5.35226 15.8349 4.84137 15.6621 4.39432C15.4819 3.9318 15.2417 3.53953 14.8506 3.14866C14.4595 2.75759 14.0683 2.51733 13.6055 2.33796C13.1572 2.16401 12.646 2.04546 11.8974 2.01122C11.1474 1.97712 10.9086 1.96875 8.99845 1.96875H9.00063ZM8.36986 3.23585C8.5571 3.23557 8.766 3.23585 9.00063 3.23585C10.878 3.23585 11.1005 3.2426 11.8419 3.27628C12.5274 3.30764 12.8995 3.42218 13.1474 3.51844C13.4755 3.64584 13.7095 3.79821 13.9554 4.04437C14.2015 4.29047 14.3538 4.52482 14.4816 4.85297C14.5778 5.10047 14.6925 5.47256 14.7237 6.15811C14.7574 6.89934 14.7647 7.12195 14.7647 8.99845C14.7647 10.875 14.7574 11.0976 14.7237 11.8388C14.6924 12.5243 14.5778 12.8964 14.4816 13.144C14.3542 13.4722 14.2015 13.7058 13.9554 13.9518C13.7093 14.1979 13.4757 14.3501 13.1474 14.4776C12.8998 14.5743 12.5274 14.6886 11.8419 14.7199C11.1007 14.7536 10.878 14.7609 9.00063 14.7609C7.12315 14.7609 6.90061 14.7536 6.15945 14.7199C5.4739 14.6883 5.1018 14.5737 4.85374 14.4775C4.52566 14.35 4.29124 14.1977 4.04515 13.9516C3.79905 13.7055 3.64676 13.4717 3.519 13.1434C3.42274 12.8959 3.30806 12.5238 3.27684 11.8382C3.24316 11.097 3.23641 10.8744 3.23641 8.9967C3.23641 7.11907 3.24316 6.89759 3.27684 6.15635C3.3082 5.4708 3.42274 5.09871 3.519 4.85086C3.64648 4.52271 3.79905 4.28836 4.04522 4.04227C4.29131 3.79617 4.52566 3.6438 4.85381 3.51612C5.10166 3.41944 5.4739 3.30518 6.15945 3.27368C6.80808 3.24436 7.05945 3.23557 8.36986 3.23409V3.23585ZM12.7539 4.40332C12.2881 4.40332 11.9102 4.7809 11.9102 5.24679C11.9102 5.71261 12.2881 6.09054 12.7539 6.09054C13.2197 6.09054 13.5977 5.71261 13.5977 5.24679C13.5977 4.78097 13.2197 4.40304 12.7539 4.40304V4.40332ZM9.00063 5.38917C7.00657 5.38917 5.3898 7.00594 5.3898 9.00007C5.3898 10.9942 7.00657 12.6102 9.00063 12.6102C10.9948 12.6102 12.611 10.9942 12.611 9.00007C12.611 7.00601 10.9946 5.38917 9.00049 5.38917H9.00063ZM9.00063 6.65627C10.295 6.65627 11.3444 7.70555 11.3444 9.00007C11.3444 10.2945 10.295 11.3439 9.00063 11.3439C7.70618 11.3439 6.65691 10.2945 6.65691 9.00007C6.65691 7.70555 7.70618 6.65627 9.00063 6.65627Z" fill="white"/>
<defs>
<radialGradient id="paint0_radial_416_544" cx="0" cy="0" r="1" gradientUnits="userSpaceOnUse" gradientTransform="translate(4.78125 19.3864) rotate(-90) scale(17.8393 16.592)">
<stop stop-color="#FFDD55"/>
<stop offset="0.1" stop-color="#FFDD55"/>
<stop offset="0.5" stop-color="#FF543E"/>
<stop offset="1" stop-color="#C837AB"/>
</radialGradient>
<radialGradient id="paint1_radial_416_544" cx="0" cy="0" r="1" gradientUnits="userSpaceOnUse" gradientTransform="translate(-3.01507 1.29663) rotate(78.681) scale(7.97428 32.8702)">
<stop stop-color="#3771C8"/>
<stop offset="0.128" stop-color="#3771C8"/>
<stop offset="1" stop-color="#6600FF" stop-opacity="0"/>
</radialGradient>
</defs>
</svg>
