<svg width="18" height="18" viewBox="0 0 18 18" fill="none" xmlns="http://www.w3.org/2000/svg">
<rect width="18" height="18" rx="9" fill="#0A66C2"/>
<g clip-path="url(#clip0_429_286)">
<path d="M3.75 5.15089C3.75 4.81305 3.86825 4.53433 4.10473 4.31474C4.34121 4.09515 4.64865 3.98535 5.02703 3.98535C5.39865 3.98535 5.69932 4.09345 5.92905 4.30968C6.16554 4.53265 6.28378 4.82318 6.28378 5.1813C6.28378 5.50562 6.16892 5.77588 5.93919 5.99211C5.70271 6.21508 5.39189 6.32657 5.00676 6.32657H4.99662C4.625 6.32657 4.32433 6.21508 4.09459 5.99211C3.86486 5.76913 3.75 5.48873 3.75 5.15089ZM3.88176 14.0191V7.24886H6.13176V14.0191H3.88176ZM7.37838 14.0191H9.62838V10.2387C9.62838 10.0022 9.65541 9.8198 9.70946 9.69143C9.80405 9.4617 9.94763 9.26744 10.1402 9.10866C10.3328 8.94987 10.5743 8.87049 10.8649 8.87049C11.6216 8.87049 12 9.38062 12 10.4009V14.0191H14.25V10.1374C14.25 9.13737 14.0135 8.37893 13.5405 7.86204C13.0676 7.34515 12.4426 7.0867 11.6655 7.0867C10.7939 7.0867 10.1149 7.4617 9.62838 8.2117V8.23197H9.61824L9.62838 8.2117V7.24886H7.37838C7.39189 7.46508 7.39865 8.13737 7.39865 9.26576C7.39865 10.3941 7.39189 11.9786 7.37838 14.0191Z" fill="white"/>
</g>
<defs>
<clipPath id="clip0_429_286">
<rect x="3.75" y="3.75024" width="10.5" height="10.5" fill="white"/>
</clipPath>
</defs>
</svg>
