<svg width="18" height="18" viewBox="0 0 18 18" fill="none" xmlns="http://www.w3.org/2000/svg">
<path d="M9 16.2C10.9096 16.2 12.7409 15.4414 14.0912 14.0912C15.4414 12.7409 16.2 10.9096 16.2 9C16.2 7.09044 15.4414 5.25909 14.0912 3.90883C12.7409 2.55857 10.9096 1.8 9 1.8C7.09044 1.8 5.25909 2.55857 3.90883 3.90883C2.55857 5.25909 1.8 7.09044 1.8 9C1.8 10.9096 2.55857 12.7409 3.90883 14.0912C5.25909 15.4414 7.09044 16.2 9 16.2ZM9 18C4.0293 18 0 13.9707 0 9C0 4.0293 4.0293 0 9 0C13.9707 0 18 4.0293 18 9C18 13.9707 13.9707 18 9 18Z" fill="#D9001E"/>
<path d="M11.6307 5.87341H6.3693C5.337 5.87341 4.5 6.70141 4.5 7.72201V10.323C4.5 11.3445 5.337 12.1716 6.3693 12.1716H11.6307C12.663 12.1716 13.5 11.3436 13.5 10.323V7.72201C13.5 6.70051 12.663 5.87341 11.6307 5.87341ZM10.3671 9.14941L7.9056 10.3104C7.89054 10.3175 7.87393 10.3207 7.85731 10.3197C7.84068 10.3187 7.82458 10.3135 7.81049 10.3046C7.79641 10.2958 7.78479 10.2835 7.77671 10.2689C7.76864 10.2543 7.76437 10.238 7.7643 10.2213V7.82731C7.76445 7.81044 7.76891 7.79389 7.77725 7.77923C7.78559 7.76457 7.79755 7.75228 7.81197 7.74354C7.8264 7.73479 7.84282 7.72988 7.85968 7.72926C7.87654 7.72864 7.89327 7.73234 7.9083 7.74001L10.3689 8.97301C10.3851 8.98147 10.3986 8.99423 10.408 9.0099C10.4174 9.02556 10.4222 9.04351 10.422 9.06176C10.4219 9.08002 10.4166 9.09787 10.4069 9.11334C10.3972 9.1288 10.3834 9.14129 10.3671 9.14941Z" fill="#D9001E"/>
</svg>
