<svg width="34" height="34" viewBox="0 0 34 34" fill="none" xmlns="http://www.w3.org/2000/svg">
<rect x="1.49442" y="0.972936" width="31.3216" height="31.3216" rx="2.47276" fill="white"/>
<path d="M17.1547 6.74292C14.4632 6.74292 14.1289 6.75611 13.0778 6.80009C12.0223 6.85287 11.3054 7.01559 10.6765 7.26188C10.0256 7.51696 9.47146 7.85561 8.92611 8.40535C8.37636 8.9507 8.03332 9.50485 7.78263 10.1557C7.53635 10.7847 7.37362 11.5015 7.32085 12.557C7.27247 13.6126 7.26367 13.9468 7.26367 16.634C7.26367 19.3211 7.27687 19.6598 7.32085 20.7109C7.37362 21.7664 7.53635 22.4833 7.78263 23.1122C8.03772 23.7631 8.37636 24.3172 8.92611 24.8626C9.47146 25.4123 10.0256 25.7554 10.6765 26.0061C11.3054 26.2479 12.0267 26.4151 13.0778 26.4678C14.1333 26.5162 14.4676 26.525 17.1547 26.525C19.8419 26.525 20.1805 26.5118 21.2316 26.4678C22.2872 26.4151 23.004 26.2479 23.6329 26.0061C24.2838 25.751 24.838 25.4123 25.3833 24.8626C25.9331 24.3172 26.2761 23.7631 26.5268 23.1122C26.7687 22.4833 26.9358 21.762 26.9886 20.7109C27.037 19.6554 27.0458 19.3211 27.0458 16.634C27.0458 13.9468 27.0326 13.6082 26.9886 12.557C26.9358 11.5015 26.7687 10.7803 26.5268 10.1557C26.2717 9.50485 25.9331 8.9507 25.3833 8.40535C24.838 7.85561 24.2838 7.51257 23.6329 7.26188C23.004 7.01559 22.2828 6.85287 21.2316 6.80009C20.1805 6.75172 19.8463 6.74292 17.1547 6.74292ZM17.1547 8.5241C19.7979 8.5241 20.1102 8.53729 21.1569 8.58127C22.12 8.62525 22.6434 8.78798 22.9908 8.92432C23.457 9.10463 23.7781 9.31574 24.1299 9.66318C24.4729 10.0062 24.6884 10.3361 24.8688 10.8023C25.0051 11.1497 25.1678 11.6731 25.2118 12.6362C25.2558 13.6785 25.269 13.9952 25.269 16.6384C25.269 19.2815 25.2558 19.5938 25.2074 20.6405C25.1546 21.6037 24.9963 22.127 24.86 22.4745C24.6709 22.9407 24.4642 23.2617 24.1167 23.6136C23.7693 23.9566 23.435 24.1721 22.9776 24.3524C22.6346 24.4888 22.1024 24.6515 21.1349 24.6955C20.0838 24.7394 19.7759 24.7526 17.1283 24.7526C14.4807 24.7526 14.1729 24.7394 13.1218 24.6911C12.1586 24.6383 11.6265 24.48 11.279 24.3436C10.8084 24.1545 10.4874 23.9478 10.1399 23.6004C9.79251 23.2529 9.56821 22.9187 9.40109 22.4613C9.26035 22.1182 9.10203 21.5861 9.05365 20.6185C9.01846 19.5806 9.00087 19.2596 9.00087 16.6252C9.00087 13.9908 9.01846 13.6697 9.05365 12.6186C9.10642 11.6511 9.26475 11.1233 9.40109 10.7759C9.57261 10.3053 9.79251 9.98423 10.1399 9.63679C10.483 9.29375 10.8084 9.06945 11.279 8.89353C11.6265 8.75719 12.1454 8.59887 13.113 8.55049C14.1641 8.51091 14.472 8.49771 17.1151 8.49771L17.1547 8.5241ZM17.1547 11.5587C14.3444 11.5587 12.0751 13.8325 12.0751 16.6384C12.0751 19.4487 14.3488 21.718 17.1547 21.718C19.965 21.718 22.2344 19.4443 22.2344 16.6384C22.2344 13.8325 19.9606 11.5587 17.1547 11.5587ZM17.1547 19.9368C15.3296 19.9368 13.8562 18.4635 13.8562 16.6384C13.8562 14.8132 15.3296 13.3399 17.1547 13.3399C18.9799 13.3399 20.4532 14.8132 20.4532 16.6384C20.4532 18.4635 18.9799 19.9368 17.1547 19.9368ZM23.6285 11.3564C23.6285 12.0161 23.092 12.5438 22.4411 12.5438C21.7814 12.5438 21.2536 12.0117 21.2536 11.3564C21.2536 10.7011 21.7902 10.1689 22.4411 10.1689C23.092 10.1689 23.6285 10.7011 23.6285 11.3564Z" fill="black"/>
<rect x="1.49442" y="0.972936" width="31.3216" height="31.3216" rx="2.47276" stroke="black" stroke-width="1.64851"/>
</svg>
