<svg width="34" height="34" viewBox="0 0 34 34" fill="none" xmlns="http://www.w3.org/2000/svg">
<rect x="1.17142" y="0.972936" width="31.3216" height="31.3216" rx="2.47276" fill="white"/>
<g clip-path="url(#clip0_206_602)">
<path d="M15.0794 16.0403C15.49 15.8338 15.8003 15.6038 16.013 15.3553C16.3914 14.9077 16.5781 14.3142 16.5781 13.5785C16.5781 12.8626 16.3914 12.2505 16.0179 11.7374C15.3947 10.9015 14.34 10.4737 12.8488 10.4514H6.94092V22.5108H12.4494C13.0702 22.5108 13.6451 22.4577 14.1768 22.3488C14.7085 22.2388 15.1685 22.0373 15.558 21.743C15.9042 21.487 16.1935 21.1692 16.4235 20.7946C16.787 20.2283 16.9688 19.5865 16.9688 18.8719C16.9688 18.1794 16.8093 17.5896 16.4927 17.1049C16.1725 16.6202 15.7026 16.2654 15.0794 16.0403ZM9.37802 12.546H12.0389C12.6238 12.546 13.106 12.6091 13.4844 12.734C13.9221 12.9157 14.141 13.2854 14.141 13.8493C14.141 14.355 13.974 14.7086 13.6439 14.9077C13.3113 15.1068 12.8797 15.2069 12.3505 15.2069H9.37802V12.546ZM13.5858 20.206C13.2915 20.3482 12.8773 20.4187 12.3468 20.4187H9.37802V17.2026H12.3876C12.9119 17.2063 13.3199 17.2756 13.6117 17.4054C14.1311 17.6403 14.3895 18.0706 14.3895 18.7C14.3895 19.4419 14.1224 19.9414 13.5858 20.206Z" fill="black"/>
<path d="M24.8213 11.014H19.5823V12.5151H24.8213V11.014Z" fill="black"/>
<path d="M26.6412 16.9379C26.5324 16.2393 26.2925 15.6248 25.9191 15.0943C25.5099 14.4934 24.9905 14.0532 24.3587 13.775C23.7293 13.4955 23.0208 13.3558 22.2319 13.3571C20.9077 13.3571 19.8319 13.7713 18.9998 14.5935C18.1701 15.4183 17.7546 16.6041 17.7546 18.1497C17.7546 19.7979 18.2134 20.9886 19.1358 21.7194C20.0545 22.4514 21.1154 22.8162 22.3197 22.8162C23.7775 22.8162 24.9114 22.3821 25.7213 21.5166C26.2394 20.9701 26.5324 20.4322 26.5967 19.9042H24.1831C24.0434 20.1651 23.8814 20.3692 23.6959 20.5175C23.3596 20.7896 22.9219 20.9256 22.3853 20.9256C21.8746 20.9256 21.4418 20.8131 21.0808 20.5892C20.4848 20.2307 20.1732 19.6025 20.1336 18.7086H26.7204C26.7303 17.9382 26.7055 17.346 26.6412 16.9379ZM20.193 17.1691C20.2795 16.5892 20.4897 16.1293 20.8236 15.7892C21.1574 15.4504 21.6298 15.2798 22.2344 15.2786C22.7921 15.2786 23.2582 15.4381 23.6378 15.7583C24.0125 16.081 24.2239 16.5497 24.2672 17.1691H20.193Z" fill="black"/>
</g>
<rect x="1.17142" y="0.972936" width="31.3216" height="31.3216" rx="2.47276" stroke="black" stroke-width="1.64851"/>
<defs>
<clipPath id="clip0_206_602">
<rect width="19.7821" height="19.7821" fill="white" transform="translate(6.94116 6.74292)"/>
</clipPath>
</defs>
</svg>
