<svg width="12" height="12" viewBox="0 0 12 12" fill="none" xmlns="http://www.w3.org/2000/svg">
<path d="M3.79825 3.09755C3.71504 3.01437 3.64904 2.91562 3.604 2.80692C3.55897 2.69823 3.53579 2.58173 3.53579 2.46408C3.53579 2.34643 3.55897 2.22993 3.604 2.12123C3.64904 2.01254 3.71504 1.91379 3.79825 1.83061L5.36626 0.262064C5.53448 0.0942457 5.76239 0 6 0C6.23761 0 6.46552 0.0942457 6.63374 0.262064L8.20175 1.83061C8.28496 1.91379 8.35096 2.01254 8.396 2.12123C8.44103 2.22993 8.46421 2.34643 8.46421 2.46408C8.46421 2.58173 8.44103 2.69823 8.396 2.80692C8.35096 2.91562 8.28496 3.01437 8.20175 3.09755L6.63374 4.66609C6.46552 4.83391 6.23761 4.92816 6 4.92816C5.76239 4.92816 5.53448 4.83391 5.36626 4.66609L3.79825 3.09755ZM11.7379 5.36626L10.1694 3.79772C10.0013 3.62993 9.77345 3.5357 9.53592 3.5357C9.2984 3.5357 9.07057 3.62993 8.90245 3.79772L7.33391 5.36626C7.16609 5.53448 7.07184 5.76239 7.07184 6C7.07184 6.23761 7.16609 6.46552 7.33391 6.63374L8.90245 8.20228C9.07057 8.37007 9.2984 8.4643 9.53592 8.4643C9.77345 8.4643 10.0013 8.37007 10.1694 8.20228L11.7379 6.63374C11.9058 6.46552 12 6.23761 12 6C12 5.76239 11.9058 5.53448 11.7379 5.36626ZM4.66663 5.36626L3.09755 3.79772C2.92943 3.62993 2.7016 3.5357 2.46408 3.5357C2.22655 3.5357 1.99873 3.62993 1.83061 3.79772L0.262064 5.36626C0.0942457 5.53448 0 5.76239 0 6C0 6.23761 0.0942457 6.46552 0.262064 6.63374L1.83061 8.20228C1.99873 8.37007 2.22655 8.4643 2.46408 8.4643C2.7016 8.4643 2.92943 8.37007 3.09755 8.20228L4.66609 6.63374C4.83391 6.46552 4.92816 6.23761 4.92816 6C4.92816 5.76239 4.83391 5.53448 4.66609 5.36626H4.66663ZM6.63427 7.33391C6.46606 7.16609 6.23815 7.07184 6.00054 7.07184C5.76292 7.07184 5.53501 7.16609 5.3668 7.33391L3.79825 8.90245C3.71504 8.98563 3.64904 9.08438 3.604 9.19308C3.55897 9.30177 3.53579 9.41827 3.53579 9.53592C3.53579 9.65357 3.55897 9.77007 3.604 9.87877C3.64904 9.98746 3.71504 10.0862 3.79825 10.1694L5.36626 11.7379C5.53448 11.9058 5.76239 12 6 12C6.23761 12 6.46552 11.9058 6.63374 11.7379L8.20175 10.1694C8.28496 10.0862 8.35096 9.98746 8.396 9.87877C8.44103 9.77007 8.46421 9.65357 8.46421 9.53592C8.46421 9.41827 8.44103 9.30177 8.396 9.19308C8.35096 9.08438 8.28496 8.98563 8.20175 8.90245L6.63427 7.33391Z" fill="#6EC4CF"/>
</svg>
