<svg width="12" height="12" viewBox="0 0 12 12" fill="none" xmlns="http://www.w3.org/2000/svg">
<path d="M8.88107e-07 1.5C9.06138e-07 1.0875 0.14675 0.734499 0.44025 0.440999C0.734251 0.146999 1.0875 -4.77e-07 1.5 -4.5897e-07L8.25 -1.63918e-07L8.25 3L1.5 3C1.0875 3 0.734251 2.853 0.44025 2.559C0.14675 2.2655 8.70076e-07 1.9125 8.88107e-07 1.5ZM9 -1.31134e-07L10.5 -6.55671e-08C10.9125 -4.75361e-08 11.2655 0.147 11.559 0.441C11.853 0.7345 12 1.0875 12 1.5C12 1.9125 11.853 2.2655 11.559 2.559C11.2655 2.853 10.9125 3 10.5 3L9 3L9 -1.31134e-07ZM6.91406e-07 6C7.09437e-07 5.5875 0.14675 5.2345 0.44025 4.941C0.734251 4.647 1.0875 4.5 1.5 4.5L6 4.5L6 7.5L1.5 7.5C1.0875 7.5 0.734251 7.35325 0.44025 7.05975C0.14675 6.76575 6.73375e-07 6.4125 6.91406e-07 6ZM6.75 4.5L8.25 4.5C8.6625 4.5 9.01575 4.647 9.30975 4.941C9.60325 5.2345 9.75 5.5875 9.75 6C9.75 6.4125 9.60325 6.76575 9.30975 7.05975C9.01575 7.35325 8.6625 7.5 8.25 7.5L6.75 7.5L6.75 4.5ZM4.94705e-07 10.5C5.12736e-07 10.0875 0.14675 9.73425 0.44025 9.44025C0.734251 9.14675 1.0875 9 1.5 9L3.75 9L3.75 12L1.5 12C1.0875 12 0.734251 11.8533 0.44025 11.5598C0.14675 11.2658 4.76674e-07 10.9125 4.94705e-07 10.5ZM4.5 9L6 9C6.4125 9 6.76575 9.14675 7.05975 9.44025C7.35325 9.73425 7.5 10.0875 7.5 10.5C7.5 10.9125 7.35325 11.2658 7.05975 11.5598C6.76575 11.8533 6.4125 12 6 12L4.5 12L4.5 9Z" fill="#6EC4CF"/>
</svg>
