<svg width="12" height="12" viewBox="0 0 12 12" fill="none" xmlns="http://www.w3.org/2000/svg">
<path d="M9.23654 8.30584C8.98777 8.30575 8.74157 8.35608 8.51279 8.4538C8.28402 8.55152 8.07743 8.6946 7.90549 8.8744L3.63412 6.47117C3.71686 6.16047 3.71686 5.83352 3.63412 5.52282L7.90549 3.11959C8.21653 3.44207 8.63447 3.64007 9.08101 3.67651C9.52756 3.71295 9.97207 3.58533 10.3313 3.31756C10.6905 3.04978 10.9397 2.66023 11.0323 2.22187C11.1249 1.78352 11.0545 1.32644 10.8343 0.936264C10.6141 0.54609 10.2592 0.249594 9.83604 0.102321C9.41291 -0.0449517 8.9506 -0.0328961 8.53571 0.136229C8.12083 0.305355 7.78185 0.619945 7.58226 1.02107C7.38268 1.42219 7.3362 1.88231 7.45152 2.31525L3.18015 4.71847C2.925 4.45244 2.5961 4.26884 2.23575 4.19127C1.8754 4.11371 1.50009 4.14574 1.15809 4.28323C0.816089 4.42073 0.523049 4.6574 0.316667 4.96281C0.110285 5.26822 0 5.62839 0 5.99699C0 6.3656 0.110285 6.72577 0.316667 7.03118C0.523049 7.33659 0.816089 7.57327 1.15809 7.71076C1.50009 7.84826 1.8754 7.88028 2.23575 7.80272C2.5961 7.72515 2.925 7.54155 3.18015 7.27552L7.45152 9.67874C7.35248 10.0516 7.37267 10.4461 7.50925 10.8069C7.64583 11.1676 7.89194 11.4766 8.21305 11.6904C8.53415 11.9042 8.91414 12.0121 9.29969 11.9989C9.68524 11.9858 10.057 11.8522 10.3628 11.617C10.6686 11.3819 10.893 11.0568 11.0047 10.6876C11.1164 10.3183 11.1096 9.92336 10.9854 9.55814C10.8612 9.19292 10.6257 8.87576 10.3121 8.65116C9.99841 8.42657 9.62231 8.30581 9.23654 8.30584Z" fill="#6EC4CF"/>
</svg>
