<svg width="12" height="12" viewBox="0 0 12 12" fill="none" xmlns="http://www.w3.org/2000/svg">
<path d="M2.14443 0.0445811C2.2208 0.0813008 2.28524 0.138843 2.33035 0.21058C2.37545 0.282318 2.39937 0.365336 2.39936 0.450073C2.39936 0.947941 2.58651 1.23466 2.82105 1.58377L2.83845 1.60897C3.03759 1.90529 3.29912 2.29338 3.29912 2.84944C3.29912 3.41688 3.013 3.91715 2.57692 4.21407C2.69148 4.31005 2.79286 4.42822 2.88043 4.56978C3.16596 5.03165 3.29912 5.73767 3.29912 6.7514C3.29912 7.77832 3.16116 9.0116 2.93622 9.99653C2.82465 10.486 2.68609 10.9377 2.52113 11.2766C2.44325 11.4452 2.34009 11.601 2.21521 11.7385C2.09164 11.865 1.90149 12 1.64956 12C1.39763 12 1.20748 11.865 1.08451 11.7385C0.959271 11.6013 0.856072 11.4454 0.778593 11.2766C0.613038 10.9371 0.474474 10.486 0.362904 9.99593C0.128934 8.92986 0.0073024 7.84221 5.77949e-07 6.7508C5.77949e-07 5.73707 0.133165 5.03165 0.418689 4.56978C0.500146 4.43571 0.602626 4.31561 0.722208 4.21407C0.499532 4.06289 0.317278 3.85946 0.191381 3.62158C0.0654834 3.38369 -0.000224823 3.11858 5.77949e-07 2.84944C5.77949e-07 2.62869 5.18422e-07 2.24899 0.229739 1.75893C0.45468 1.27905 0.882366 0.727799 1.66816 0.0985669C1.73438 0.0455914 1.81424 0.0124147 1.8985 0.0028628C1.98277 -0.00668906 2.06803 0.00777296 2.14443 0.0445811ZM4.79872 7.74833C4.48093 7.69503 4.17181 7.59898 3.87977 7.46281C3.89237 7.21927 3.89896 6.98054 3.89896 6.7514C3.89896 6.50786 3.89177 6.27512 3.87617 6.05318C4.1419 6.27212 4.45562 6.43468 4.79872 6.52286V5.09884C4.79872 4.8602 4.89352 4.63135 5.06226 4.46261C5.231 4.29387 5.45985 4.19908 5.69848 4.19908H7.79793C7.79798 3.7414 7.66714 3.29325 7.42083 2.9075C7.17451 2.52175 6.82301 2.2145 6.40779 2.02199C5.99256 1.82948 5.53094 1.75974 5.07738 1.82101C4.62382 1.88228 4.19724 2.07199 3.84798 2.36776C3.7442 1.87949 3.50307 1.52199 3.34891 1.29345L3.32492 1.25746C3.86385 0.877547 4.49679 0.652991 5.15465 0.608304C5.81251 0.563617 6.47001 0.700516 7.05536 1.00406C7.64072 1.3076 8.13144 1.76611 8.47395 2.32955C8.81646 2.89299 8.99761 3.5397 8.99761 4.19908H11.097C11.3357 4.19908 11.5645 4.29387 11.7333 4.46261C11.902 4.63135 11.9968 4.8602 11.9968 5.09884V10.4974C11.9968 10.736 11.902 10.9649 11.7333 11.1336C11.5645 11.3024 11.3357 11.3972 11.097 11.3972H5.69848C5.45985 11.3972 5.231 11.3024 5.06226 11.1336C4.89352 10.9649 4.79872 10.736 4.79872 10.4974V7.74833ZM5.9984 7.74833V10.1975H10.7971V5.39876H8.79306C8.57864 6.00386 8.20647 6.54071 7.71505 6.95378C7.22362 7.36686 6.63077 7.64116 5.9978 7.74833H5.9984ZM7.47701 5.39876H5.9984V6.52286C6.3071 6.44291 6.5968 6.30235 6.85065 6.10936C7.1045 5.91638 7.31742 5.67482 7.47701 5.39876Z" fill="#6EC4CF"/>
</svg>
