<svg width="40" height="40" viewBox="0 0 40 40" fill="none" xmlns="http://www.w3.org/2000/svg">
<rect width="40" height="40" rx="20" fill="#339FF8"/>
<path d="M20.9279 33.2331C18.0079 33.2331 15.2987 32.3352 13.0501 30.8049C11.9961 31.3593 9.61485 31.4842 8.57646 31.3593C7.07742 31.1797 5.4925 29.9305 7.01496 28.7125C9.38063 26.8309 8.74041 26.0892 8.74041 26.0892C7.60833 24.0671 6.9603 21.7404 6.9603 19.2654C6.96811 11.5438 13.2219 5.29004 20.9279 5.29004C28.6417 5.29004 34.8955 11.5438 34.8955 19.2576C34.8955 26.9714 28.6417 33.2331 20.9279 33.2331ZM20.9279 7.3356C14.2993 7.3356 8.92779 12.715 8.92779 19.3435C8.92779 21.6233 9.56801 23.7626 10.6689 25.5817C10.6689 25.5817 11.4574 27.6195 9.43528 29.1419C10.7001 29.5713 13.3703 28.7828 13.503 28.7828C15.5485 30.3911 18.125 31.3514 20.9279 31.3514C27.5565 31.3514 32.9358 25.9721 32.9358 19.3435C32.9358 12.715 27.5643 7.3356 20.9279 7.3356ZM27.3535 22.7788C25.8857 22.7788 24.7536 21.8107 24.7536 20.1867C24.7536 18.5628 25.8232 17.5244 27.4394 17.5244C28.9852 17.5244 30.008 18.5862 30.008 20.1009C30.008 21.9356 28.7042 22.7788 27.3535 22.7788ZM27.4003 18.633C26.6508 18.633 26.3697 19.406 26.3697 20.1477C26.3697 21.0143 26.7289 21.6623 27.4003 21.6623C28.0093 21.6623 28.3997 21.0534 28.3997 20.1477C28.3919 19.3982 28.1108 18.633 27.4003 18.633ZM23.0281 22.6695C23.0281 22.6695 22.4348 22.6695 22.1849 22.6695C21.7867 22.6695 21.8648 22.0918 21.8648 22.0918V19.9291C21.8648 19.1952 21.6306 18.7736 21.1231 18.7736C20.764 18.7736 20.5063 19.0234 20.4048 19.3201C20.3658 19.4372 20.3423 19.6012 20.3423 19.7183V22.1698C20.3423 22.1698 20.3502 22.6617 19.9129 22.6617C19.5928 22.6617 19.2181 22.6617 19.2181 22.6617C19.2181 22.6617 18.8199 22.6305 18.8199 22.123C18.8199 21.3032 18.8199 19.8354 18.8199 19.8354C18.8199 19.1952 18.5935 18.7658 18.1016 18.7658C17.7034 18.7658 17.4614 19.0781 17.3677 19.3357C17.313 19.4606 17.3052 19.6012 17.3052 19.7261V22.123C17.3052 22.123 17.3599 22.6617 16.9539 22.6617C16.7509 22.6617 16.5011 22.6617 16.2824 22.6617C15.7828 22.6617 15.7828 22.123 15.7828 22.123V19.2342C15.7828 18.7423 15.7515 17.9304 15.7515 17.9304C15.7515 17.9304 15.7437 17.6259 16.0716 17.6259C16.2746 17.6259 16.5245 17.6259 16.7275 17.6259C17.0398 17.6259 17.0944 17.9304 17.0944 17.9304L17.1335 18.3051H17.1647C17.3833 17.985 17.8205 17.5088 18.6872 17.5088C19.3352 17.5088 19.8505 17.8367 20.0691 18.3598H20.0925C20.2799 18.1021 20.5063 17.8991 20.7405 17.7508C21.0216 17.5868 21.3261 17.501 21.7008 17.501C22.669 17.501 23.3951 18.1802 23.3951 19.6871C23.3951 19.6871 23.3951 21.2642 23.3951 22.1152C23.3873 22.6305 23.0281 22.6695 23.0281 22.6695ZM13.3234 16.5875C12.8315 16.5875 12.5036 16.2361 12.5114 15.8067C12.5036 15.3539 12.8315 15.0104 13.3312 15.0104C13.8387 15.0104 14.151 15.3539 14.1666 15.8067C14.1666 16.2439 13.8387 16.5875 13.3234 16.5875ZM12.8706 17.6337C13.2297 17.6337 13.7762 17.6337 13.7762 17.6337C13.7762 17.6337 14.1198 17.6337 14.1198 18.0241C14.1198 18.9375 14.1198 22.2167 14.1198 22.2167C14.1198 22.2167 14.1432 22.6695 13.7606 22.6695C13.3781 22.6695 12.8315 22.6695 12.8315 22.6695C12.8315 22.6695 12.5583 22.6539 12.5583 22.2791C12.5583 21.1549 12.5583 17.9538 12.5583 17.9538C12.5583 17.9538 12.5505 17.6337 12.8706 17.6337Z" fill="white"/>
</svg>
