<svg width="40" height="40" viewBox="0 0 40 40" fill="none" xmlns="http://www.w3.org/2000/svg">
<rect width="40" height="40" rx="20" fill="#3A76F0"/>
<path d="M17.577 6.76089L17.8692 7.9444C16.7177 8.229 15.6155 8.68533 14.5998 9.29803L13.9747 8.25137C15.0928 7.57431 16.3075 7.07171 17.577 6.76089ZM23.8274 6.76089L23.5353 7.9444C24.6868 8.229 25.789 8.68533 26.8047 9.29803L27.4371 8.25137C26.3162 7.5749 25.0991 7.07236 23.8274 6.76089ZM9.55507 12.6673C8.87864 13.787 8.37609 15.0028 8.06459 16.2733L9.24809 16.5655C9.5327 15.4139 9.98903 14.3118 10.6017 13.2961L9.55507 12.6673ZM8.90414 19.3985C8.90405 18.8067 8.94856 18.2158 9.03728 17.6307L7.83158 17.4457C7.63557 18.739 7.63557 20.0544 7.83158 21.3476L9.03728 21.1664C8.94869 20.5813 8.90419 19.9903 8.90414 19.3985ZM27.4298 30.542L26.8047 29.499C25.7906 30.1123 24.6896 30.5687 23.539 30.8527L23.8311 32.0362C25.0991 31.7224 26.3124 31.2186 27.4298 30.542ZM32.5003 19.3985C32.5003 19.9903 32.4558 20.5813 32.3672 21.1664L33.5729 21.3476C33.7689 20.0544 33.7689 18.739 33.5729 17.4457L32.3672 17.6307C32.4559 18.2158 32.5004 18.8067 32.5003 19.3985ZM33.3399 22.52L32.1564 22.2279C31.8725 23.3808 31.4161 24.4843 30.8027 25.501L31.8494 26.1297C32.5265 25.0091 33.0291 23.7919 33.3399 22.52ZM22.4701 31.0635C21.2982 31.241 20.1063 31.241 18.9344 31.0635L18.7531 32.2692C20.0451 32.4652 21.3593 32.4652 22.6513 32.2692L22.4701 31.0635ZM30.1999 26.396C29.4969 27.3493 28.654 28.1909 27.6997 28.8925L28.4246 29.8763C29.4758 29.1025 30.4057 28.1763 31.1837 27.1283L30.1999 26.396ZM27.6997 9.90088C28.6541 10.6038 29.497 11.4467 30.1999 12.401L31.1837 11.6687C30.4084 10.6198 29.481 9.69237 28.432 8.91709L27.6997 9.90088ZM11.2046 12.401C11.9075 11.4467 12.7504 10.6038 13.7047 9.90088L12.9724 8.91709C11.9235 9.69237 10.9961 10.6198 10.2208 11.6687L11.2046 12.401ZM31.8494 12.6673L30.8027 13.2961C31.416 14.3102 31.8724 15.4112 32.1564 16.5618L33.3399 16.2696C33.0284 15.0003 32.5258 13.7857 31.8494 12.6673ZM18.9344 7.73359C20.1063 7.55604 21.2982 7.55604 22.4701 7.73359L22.6513 6.52789C21.3593 6.33185 20.0451 6.33185 18.7531 6.52789L18.9344 7.73359ZM11.8296 30.2017L9.31097 30.7861L9.89902 28.2674L8.71182 27.9901L8.12376 30.5087C8.08697 30.6649 8.08132 30.8267 8.10714 30.9851C8.13297 31.1434 8.18976 31.2951 8.27426 31.4315C8.35876 31.5679 8.46932 31.6862 8.59961 31.7798C8.72991 31.8734 8.87737 31.9404 9.03358 31.977C9.21627 32.0177 9.40567 32.0177 9.58835 31.977L12.107 31.3963L11.8296 30.2017ZM8.96331 26.9027L10.1542 27.1764L10.561 25.4307C9.96694 24.4341 9.52444 23.3547 9.24809 22.2279L8.06459 22.52C8.33079 23.5986 8.73348 24.6389 9.26289 25.6156L8.96331 26.9027ZM14.6589 29.5434L12.9133 29.9502L13.1907 31.1411L14.474 30.8416C15.45 31.3726 16.4905 31.7753 17.5696 32.0399L17.8618 30.8564C16.7385 30.5764 15.6629 30.1314 14.67 29.536L14.6589 29.5434ZM20.7022 8.82093C14.8587 8.82463 10.1283 13.5624 10.1283 19.4022C10.1315 21.3913 10.6942 23.3394 11.752 25.0239L10.7349 29.3659L15.0732 28.3488C20.018 31.4592 26.5495 29.9761 29.6599 25.035C32.7703 20.0938 31.2909 13.5624 26.3498 10.4483C24.6582 9.3845 22.7005 8.82039 20.7022 8.82093Z" fill="white"/>
</svg>
