<svg width="40" height="40" viewBox="0 0 40 40" fill="none" xmlns="http://www.w3.org/2000/svg">
<rect width="40" height="40" rx="20" fill="black"/>
<path d="M25.5775 16.1075C27.3781 17.3992 29.5838 18.1592 31.9662 18.1592V13.5585C31.5153 13.5586 31.0656 13.5115 30.6245 13.4177V17.0391C28.2424 17.0391 26.0369 16.2791 24.2358 14.9875V24.3762C24.2358 29.0729 20.4419 32.88 15.7622 32.88C14.0161 32.88 12.3931 32.3503 11.0449 31.4417C12.5837 33.0206 14.7295 34.0001 17.1036 34.0001C21.7836 34.0001 25.5777 30.193 25.5777 25.4961V16.1075H25.5775ZM27.2326 11.466C26.3124 10.4571 25.7082 9.15328 25.5775 7.71187V7.12012H24.3061C24.6261 8.95216 25.7177 10.5173 27.2326 11.466ZM14.0049 27.8376C13.4907 27.1611 13.2129 26.3335 13.2141 25.4826C13.2141 23.3345 14.9495 21.5928 17.0904 21.5928C17.4893 21.5927 17.8859 21.654 18.2662 21.7751V17.0716C17.8218 17.0104 17.3734 16.9845 16.9251 16.994V20.655C16.5446 20.5339 16.1478 20.4724 15.7487 20.4728C13.6078 20.4728 11.8726 22.2143 11.8726 24.3627C11.8726 25.8818 12.7399 27.1969 14.0049 27.8376Z" fill="#FF004F"/>
<path d="M24.2359 14.9874C26.0369 16.279 28.2424 17.039 30.6246 17.039V13.4176C29.2949 13.1333 28.1177 12.436 27.2326 11.466C25.7176 10.5172 24.6261 8.95206 24.3061 7.12012H20.9664V25.4959C20.9589 27.6381 19.2265 29.3727 17.0902 29.3727C15.8313 29.3727 14.7129 28.7705 14.0046 27.8376C12.7398 27.1969 11.8724 25.8817 11.8724 24.3628C11.8724 22.2146 13.6076 20.4729 15.7485 20.4729C16.1587 20.4729 16.5541 20.537 16.9249 20.6551V16.9941C12.3274 17.0894 8.62988 20.8594 8.62988 25.496C8.62988 27.8105 9.55065 29.9087 11.0451 31.4418C12.3933 32.3503 14.0162 32.8801 15.7623 32.8801C20.4422 32.8801 24.236 29.0728 24.236 24.3762V14.9874H24.2359Z" fill="white"/>
<path d="M30.6244 13.4174V12.4382C29.4253 12.4401 28.2498 12.1031 27.2324 11.4658C28.133 12.4552 29.3189 13.1375 30.6244 13.4174ZM24.3059 7.11998C24.2754 6.9449 24.2519 6.76866 24.2356 6.59175V6H19.6244V24.3759C19.6171 26.5179 17.8848 28.2525 15.7483 28.2525C15.1211 28.2525 14.5289 28.1031 14.0044 27.8375C14.7127 28.7703 15.8311 29.3725 17.09 29.3725C19.2261 29.3725 20.9587 27.6381 20.9662 25.4958V7.11998H24.3059ZM16.9249 16.994V15.9515C16.5396 15.8987 16.1511 15.8722 15.7622 15.8724C11.082 15.8723 7.28809 19.6796 7.28809 24.3759C7.28809 27.3203 8.77915 29.9151 11.0449 31.4415C9.55053 29.9085 8.62976 27.8102 8.62976 25.4957C8.62976 20.8593 12.3272 17.0893 16.9249 16.994Z" fill="#00F2EA"/>
</svg>
