<svg width="40" height="40" viewBox="0 0 40 40" fill="none" xmlns="http://www.w3.org/2000/svg">
<rect width="40" height="40" rx="20" fill="url(#paint0_linear_856_3398)"/>
<path d="M7.86816 31.6355L9.58305 25.4082C8.52283 23.5803 7.96665 21.5103 7.97245 19.3942C7.97245 12.7633 13.3952 7.37207 20.052 7.37207C23.2848 7.37207 26.3206 8.6233 28.5975 10.8951C30.8801 13.1669 32.1373 16.1883 32.1315 19.4C32.1315 26.0309 26.7088 31.4221 20.0462 31.4221H20.0404C18.0185 31.4221 16.0313 30.9147 14.2642 29.9576L7.86816 31.6355ZM14.5713 27.7838L14.9363 28.0029C16.4774 28.9139 18.2444 29.3925 20.0462 29.3982H20.052C25.5848 29.3982 30.0922 24.9181 30.0922 19.4057C30.0922 16.7361 29.0494 14.2279 27.1549 12.3366C25.2604 10.4454 22.7344 9.40747 20.052 9.40747C14.5192 9.40171 10.0118 13.8819 10.0118 19.3942C10.0118 21.2797 10.539 23.1191 11.5471 24.7105L11.7846 25.091L10.7707 28.7755L14.5713 27.7838Z" fill="white"/>
<path d="M8.29102 31.2145L9.94797 25.2006C8.92251 23.4419 8.38371 21.4411 8.38371 19.4C8.38951 12.9997 13.6211 7.79297 20.0519 7.79297C23.1746 7.79297 26.1004 9.00383 28.3019 11.1949C30.5035 13.386 31.7143 16.3036 31.7143 19.4057C31.7143 25.806 26.477 31.0127 20.0519 31.0127H20.0461C18.0937 31.0127 16.176 30.5226 14.4727 29.6L8.29102 31.2145Z" fill="url(#paint1_linear_856_3398)"/>
<path d="M7.86816 31.6355L9.58305 25.4082C8.52283 23.5803 7.96665 21.5103 7.97245 19.3942C7.97245 12.7633 13.3952 7.37207 20.052 7.37207C23.2848 7.37207 26.3206 8.6233 28.5975 10.8951C30.8801 13.1669 32.1373 16.1883 32.1315 19.4C32.1315 26.0309 26.7088 31.4221 20.0462 31.4221H20.0404C18.0185 31.4221 16.0313 30.9147 14.2642 29.9576L7.86816 31.6355ZM14.5713 27.7838L14.9363 28.0029C16.4774 28.9139 18.2444 29.3925 20.0462 29.3982H20.052C25.5848 29.3982 30.0922 24.9181 30.0922 19.4057C30.0922 16.7361 29.0494 14.2279 27.1549 12.3366C25.2604 10.4454 22.7344 9.40747 20.052 9.40747C14.5192 9.40171 10.0118 13.8819 10.0118 19.3942C10.0118 21.2797 10.539 23.1191 11.5471 24.7105L11.7846 25.091L10.7707 28.7755L14.5713 27.7838Z" fill="url(#paint2_linear_856_3398)"/>
<path fill-rule="evenodd" clip-rule="evenodd" d="M17.0339 14.3665C16.808 13.8649 16.5704 13.8533 16.3561 13.8476C16.1823 13.8418 15.9795 13.8418 15.7767 13.8418C15.5739 13.8418 15.2495 13.9168 14.9714 14.2166C14.6933 14.5164 13.917 15.2429 13.917 16.7248C13.917 18.2009 15.0004 19.6309 15.151 19.8327C15.3016 20.0345 17.2425 23.1654 20.3073 24.3705C22.8564 25.3738 23.3779 25.172 23.9282 25.1201C24.4786 25.0682 25.7127 24.3936 25.9676 23.6902C26.2167 22.9867 26.2167 22.387 26.1414 22.2602C26.0661 22.1333 25.8633 22.0584 25.562 21.9085C25.2608 21.7585 23.7776 21.032 23.4995 20.9282C23.2214 20.8302 23.0187 20.7783 22.8217 21.0781C22.6189 21.378 22.0395 22.0526 21.8657 22.2544C21.6919 22.4562 21.5123 22.4793 21.2111 22.3294C20.9098 22.1795 19.9365 21.8623 18.7836 20.836C17.8856 20.0403 17.2772 19.0543 17.1034 18.7544C16.9296 18.4546 17.0861 18.2932 17.2367 18.1432C17.3699 18.0106 17.538 17.7915 17.6886 17.6185C17.8392 17.4456 17.8914 17.3187 17.9899 17.1169C18.0883 16.9151 18.042 16.7421 17.9667 16.5922C17.8914 16.448 17.3004 14.9604 17.0339 14.3665Z" fill="white"/>
<defs>
<linearGradient id="paint0_linear_856_3398" x1="19.999" y1="39.998" x2="19.999" y2="-0.0013995" gradientUnits="userSpaceOnUse">
<stop stop-color="#20B038"/>
<stop offset="1" stop-color="#60D66A"/>
</linearGradient>
<linearGradient id="paint1_linear_856_3398" x1="20.0021" y1="31.2134" x2="20.0021" y2="7.79215" gradientUnits="userSpaceOnUse">
<stop stop-color="#20B038"/>
<stop offset="1" stop-color="#60D66A"/>
</linearGradient>
<linearGradient id="paint2_linear_856_3398" x1="20.0022" y1="31.6332" x2="20.0022" y2="7.37207" gradientUnits="userSpaceOnUse">
<stop stop-color="#F9F9F9"/>
<stop offset="1" stop-color="white"/>
</linearGradient>
</defs>
</svg>
