<svg width="40" height="40" viewBox="0 0 40 40" fill="none" xmlns="http://www.w3.org/2000/svg">
<rect width="40" height="40" rx="20" fill="#0078D7"/>
<path d="M20.0517 27.7325C15.7836 27.7325 13.8335 25.5582 13.8335 23.9635C13.833 23.5831 13.9891 23.2192 14.2652 22.9575C14.5413 22.6958 14.9131 22.5593 15.2929 22.5803C17.1203 22.5803 16.6423 25.3213 20.0517 25.3213C21.7945 25.3213 22.8181 24.2723 22.8181 23.2867C22.8181 22.6945 22.4797 22.0177 21.3292 21.747L17.5221 20.7867C14.4638 20.0084 13.9308 18.3079 13.9308 16.7301C13.9308 13.4561 16.9257 12.2717 19.7767 12.2717C22.4036 12.2717 25.5254 13.7226 25.5254 15.6853C25.5254 16.5313 24.8189 16.9839 23.9983 16.9839C22.4374 16.9839 22.6997 14.7928 19.561 14.7928C18.0001 14.7928 17.1795 15.5246 17.1795 16.5482C17.1795 17.5719 18.3935 17.9188 19.4595 18.1514L22.2682 18.7859C25.3477 19.4797 26.1683 21.2859 26.1683 23.016C26.1683 25.6767 24.1083 27.7325 20.0475 27.7325H20.0517ZM31.8366 22.1023C31.9585 21.4039 32.0194 20.6962 32.0185 19.9873C32.0334 16.426 30.4686 13.0415 27.746 10.7459C25.0233 8.45037 21.423 7.48009 17.9155 8.09664C16.8375 7.47593 15.6147 7.15056 14.3708 7.15334C11.8173 7.16894 9.4637 8.53744 8.187 10.7488C6.9103 12.9602 6.90204 15.6828 8.1653 17.9019C7.46041 21.775 8.69517 25.748 11.4713 28.5393C14.2474 31.3306 18.2136 32.587 22.0906 31.9033C23.1673 32.5234 24.3885 32.8488 25.6311 32.8466C28.1832 32.8301 30.5354 31.4622 31.8119 29.2522C33.0883 27.0421 33.0977 24.3211 31.8366 22.1023Z" fill="white"/>
</svg>
