<svg width="48" height="48" viewBox="0 0 48 48" fill="none" xmlns="http://www.w3.org/2000/svg">
<rect width="48" height="48" rx="24" fill="black"/>
<path d="M29.24 12H25.0966V28.3478C25.0966 30.2957 23.503 31.8957 21.5199 31.8957C19.5367 31.8957 17.9431 30.2957 17.9431 28.3478C17.9431 26.4348 19.5013 24.8695 21.4137 24.8V20.6957C17.1995 20.7652 13.7998 24.1391 13.7998 28.3478C13.7998 32.5913 17.2703 36 21.5553 36C25.8403 36 29.3107 32.5565 29.3107 28.3478V19.9652C30.8689 21.0783 32.7812 21.7391 34.7998 21.7739V17.6696C31.6835 17.5652 29.24 15.0609 29.24 12Z" fill="white"/>
</svg>
