<svg width="48" height="48" viewBox="0 0 48 48" fill="none" xmlns="http://www.w3.org/2000/svg">
<rect width="48" height="48" rx="24" fill="black"/>
<g clip-path="url(#clip0_856_3296)">
<path d="M24.0491 31.2229C20.0622 31.2229 18.2407 29.192 18.2407 27.7023C18.2402 27.347 18.386 27.0071 18.6439 26.7626C18.9019 26.5182 19.2491 26.3907 19.6039 26.4103C21.3108 26.4103 20.8644 28.9707 24.0491 28.9707C25.677 28.9707 26.6332 27.9908 26.6332 27.0701C26.6332 26.517 26.3171 25.8848 25.2424 25.6319L21.6862 24.7349C18.8295 24.0079 18.3316 22.4195 18.3316 20.9457C18.3316 17.8874 21.1291 16.781 23.7922 16.781C26.246 16.781 29.162 18.1363 29.162 19.9697C29.162 20.76 28.5021 21.1828 27.7356 21.1828C26.2776 21.1828 26.5226 19.136 23.5907 19.136C22.1327 19.136 21.3662 19.8196 21.3662 20.7758C21.3662 21.732 22.5002 22.056 23.4959 22.2733L26.1195 22.866C28.9961 23.514 29.7626 25.2012 29.7626 26.8173C29.7626 29.3026 27.8383 31.2229 24.0451 31.2229H24.0491ZM35.0573 25.9638C35.1712 25.3114 35.228 24.6504 35.2272 23.9882C35.2411 20.6616 33.7795 17.5001 31.2363 15.3558C28.693 13.2116 25.33 12.3052 22.0537 12.8811C21.0467 12.3014 19.9045 11.9974 18.7425 12C16.3574 12.0146 14.1589 13.2929 12.9663 15.3585C11.7737 17.4242 11.766 19.9673 12.946 22.0402C12.2876 25.6581 13.441 29.3693 16.0341 31.9766C18.6273 34.584 22.3321 35.7576 25.9536 35.1189C26.9594 35.6982 28.1001 36.0021 29.2608 36C31.6447 35.9846 33.8419 34.7069 35.0342 32.6425C36.2265 30.5781 36.2353 28.0364 35.0573 25.9638Z" fill="white"/>
</g>
<defs>
<clipPath id="clip0_856_3296">
<rect width="24" height="24" fill="white" transform="translate(12 12)"/>
</clipPath>
</defs>
</svg>
