<svg width="48" height="48" viewBox="0 0 48 48" fill="none" xmlns="http://www.w3.org/2000/svg">
<rect width="48" height="48" rx="24" fill="black"/>
<path d="M35.5057 18.2289C35.2289 17.2009 34.4184 16.3904 33.3904 16.1136C31.5123 15.5996 23.9999 15.5996 23.9999 15.5996C23.9999 15.5996 16.4876 15.5996 14.6095 16.0938C13.6013 16.3706 12.771 17.2009 12.4942 18.2289C12 20.107 12 24.0015 12 24.0015C12 24.0015 12 27.9159 12.4942 29.7742C12.771 30.8022 13.5815 31.6127 14.6095 31.8895C16.5074 32.4035 23.9999 32.4035 23.9999 32.4035C23.9999 32.4035 31.5123 32.4035 33.3904 31.9093C34.4184 31.6325 35.2289 30.8219 35.5057 29.7939C35.9999 27.9159 35.9999 24.0213 35.9999 24.0213C35.9999 24.0213 36.0197 20.107 35.5057 18.2289Z" fill="white"/>
<path d="M21.6074 27.5993L27.8545 24.0013L21.6074 20.4033V27.5993Z" fill="black"/>
</svg>
