<svg width="48" height="48" viewBox="0 0 48 48" fill="none" xmlns="http://www.w3.org/2000/svg">
<rect width="48" height="48" rx="24" fill="black"/>
<g clip-path="url(#clip0_856_3278)">
<path d="M24 14.1628C27.206 14.1628 27.5824 14.1771 28.8496 14.2342C30.0215 14.2866 30.655 14.4819 31.079 14.6487C31.6411 14.8678 32.0413 15.125 32.4605 15.5443C32.8797 15.9635 33.1417 16.3636 33.3561 16.9258C33.5181 17.3497 33.7182 17.9833 33.7706 19.1552C33.8277 20.4224 33.842 20.7987 33.842 24.0048C33.842 27.2108 33.8277 27.5871 33.7706 28.8543C33.7182 30.0262 33.5228 30.6598 33.3561 31.0838C33.137 31.6459 32.8797 32.046 32.4605 32.4653C32.0413 32.8845 31.6411 33.1465 31.079 33.3609C30.655 33.5228 30.0215 33.7229 28.8496 33.7753C27.5824 33.8325 27.206 33.8468 24 33.8468C20.794 33.8468 20.4176 33.8325 19.1505 33.7753C17.9786 33.7229 17.345 33.5276 16.921 33.3609C16.3589 33.1417 15.9587 32.8845 15.5395 32.4653C15.1203 32.046 14.8583 31.6459 14.6439 31.0838C14.4819 30.6598 14.2819 30.0262 14.2295 28.8543C14.1723 27.5871 14.158 27.2108 14.158 24.0048C14.158 20.7987 14.1723 20.4224 14.2295 19.1552C14.2819 17.9833 14.4772 17.3497 14.6439 16.9258C14.863 16.3636 15.1203 15.9635 15.5395 15.5443C15.9587 15.125 16.3589 14.863 16.921 14.6487C17.345 14.4867 17.9786 14.2866 19.1505 14.2342C20.4176 14.1723 20.7987 14.1628 24 14.1628ZM24 12C20.7416 12 20.3319 12.0143 19.0504 12.0715C17.7737 12.1286 16.9019 12.3335 16.1397 12.6288C15.349 12.9337 14.682 13.3482 14.0151 14.0151C13.3482 14.682 12.9385 15.3537 12.6288 16.1397C12.3335 16.9019 12.1286 17.7737 12.0715 19.0552C12.0143 20.3319 12 20.7416 12 24C12 27.2584 12.0143 27.6681 12.0715 28.9496C12.1286 30.2263 12.3335 31.0981 12.6288 31.865C12.9337 32.6558 13.3482 33.3227 14.0151 33.9897C14.682 34.6566 15.3537 35.0663 16.1397 35.3759C16.9019 35.6713 17.7737 35.8761 19.0552 35.9333C20.3366 35.9905 20.7416 36.0048 24.0048 36.0048C27.268 36.0048 27.6729 35.9905 28.9544 35.9333C30.2311 35.8761 31.1028 35.6713 31.8698 35.3759C32.6606 35.0711 33.3275 34.6566 33.9945 33.9897C34.6614 33.3227 35.0711 32.6511 35.3807 31.865C35.6761 31.1028 35.8809 30.231 35.9381 28.9496C35.9953 27.6681 36.0095 27.2632 36.0095 24C36.0095 20.7368 35.9953 20.3319 35.9381 19.0504C35.8809 17.7737 35.6761 16.9019 35.3807 16.135C35.0758 15.3442 34.6614 14.6773 33.9945 14.0103C33.3275 13.3434 32.6558 12.9337 31.8698 12.6241C31.1076 12.3287 30.2358 12.1239 28.9544 12.0667C27.6681 12.0143 27.2584 12 24 12Z" fill="white"/>
<path d="M24 14.1628C27.206 14.1628 27.5824 14.1771 28.8496 14.2342C30.0215 14.2866 30.655 14.4819 31.079 14.6487C31.6411 14.8678 32.0413 15.125 32.4605 15.5443C32.8797 15.9635 33.1417 16.3636 33.3561 16.9258C33.5181 17.3497 33.7182 17.9833 33.7706 19.1552C33.8277 20.4224 33.842 20.7987 33.842 24.0048C33.842 27.2108 33.8277 27.5871 33.7706 28.8543C33.7182 30.0262 33.5228 30.6598 33.3561 31.0838C33.137 31.6459 32.8797 32.046 32.4605 32.4653C32.0413 32.8845 31.6411 33.1465 31.079 33.3609C30.655 33.5228 30.0215 33.7229 28.8496 33.7753C27.5824 33.8325 27.206 33.8468 24 33.8468C20.794 33.8468 20.4176 33.8325 19.1505 33.7753C17.9786 33.7229 17.345 33.5276 16.921 33.3609C16.3589 33.1417 15.9587 32.8845 15.5395 32.4653C15.1203 32.046 14.8583 31.6459 14.6439 31.0838C14.4819 30.6598 14.2819 30.0262 14.2295 28.8543C14.1723 27.5871 14.158 27.2108 14.158 24.0048C14.158 20.7987 14.1723 20.4224 14.2295 19.1552C14.2819 17.9833 14.4772 17.3497 14.6439 16.9258C14.863 16.3636 15.1203 15.9635 15.5395 15.5443C15.9587 15.125 16.3589 14.863 16.921 14.6487C17.345 14.4867 17.9786 14.2866 19.1505 14.2342C20.4176 14.1723 20.7987 14.1628 24 14.1628Z" fill="white"/>
<path d="M24.0003 17.8408C20.5989 17.8408 17.8359 20.5991 17.8359 24.0052C17.8359 27.4113 20.5942 30.1695 24.0003 30.1695C27.4064 30.1695 30.1646 27.4113 30.1646 24.0052C30.1646 20.5991 27.4064 17.8408 24.0003 17.8408ZM24.0003 28.002C21.7899 28.002 19.9987 26.2108 19.9987 24.0004C19.9987 21.79 21.7899 19.9988 24.0003 19.9988C26.2107 19.9988 28.0019 21.79 28.0019 24.0004C28.0019 26.2108 26.2107 28.002 24.0003 28.002Z" fill="black"/>
<path d="M30.4074 19.0316C31.202 19.0316 31.8461 18.3875 31.8461 17.593C31.8461 16.7984 31.202 16.1543 30.4074 16.1543C29.6129 16.1543 28.9688 16.7984 28.9688 17.593C28.9688 18.3875 29.6129 19.0316 30.4074 19.0316Z" fill="black"/>
</g>
<defs>
<clipPath id="clip0_856_3278">
<rect width="24" height="24" fill="white" transform="translate(12 12)"/>
</clipPath>
</defs>
</svg>
