<svg width="48" height="48" viewBox="0 0 48 48" fill="none" xmlns="http://www.w3.org/2000/svg">
<rect width="48" height="48" rx="24" fill="black"/>
<g clip-path="url(#clip0_856_3280)">
<path d="M34.2283 12H13.7717C13.3018 12 12.8512 12.1867 12.5189 12.5189C12.1867 12.8512 12 13.3018 12 13.7717V34.2283C12 34.6982 12.1867 35.1488 12.5189 35.4811C12.8512 35.8133 13.3018 36 13.7717 36H34.2283C34.6982 36 35.1488 35.8133 35.4811 35.4811C35.8133 35.1488 36 34.6982 36 34.2283V13.7717C36 13.3018 35.8133 12.8512 35.4811 12.5189C35.1488 12.1867 34.6982 12 34.2283 12ZM19.1533 32.445H15.545V20.9833H19.1533V32.445ZM17.3467 19.395C16.9374 19.3927 16.5379 19.2692 16.1987 19.0401C15.8596 18.811 15.5958 18.4865 15.4409 18.1077C15.2859 17.7288 15.2466 17.3126 15.328 16.9115C15.4094 16.5103 15.6078 16.1423 15.8982 15.8538C16.1885 15.5653 16.5578 15.3693 16.9595 15.2905C17.3611 15.2117 17.7771 15.2536 18.155 15.411C18.5328 15.5684 18.8555 15.8342 19.0825 16.1748C19.3094 16.5155 19.4303 16.9157 19.43 17.325C19.4339 17.599 19.3825 17.871 19.279 18.1248C19.1755 18.3786 19.022 18.6089 18.8276 18.8021C18.6332 18.9952 18.4018 19.1473 18.1474 19.2492C17.893 19.351 17.6207 19.4006 17.3467 19.395ZM32.4533 32.455H28.8467V26.1933C28.8467 24.3467 28.0617 23.7767 27.0483 23.7767C25.9783 23.7767 24.9283 24.5833 24.9283 26.24V32.455H21.32V20.9917H24.79V22.58H24.8367C25.185 21.875 26.405 20.67 28.2667 20.67C30.28 20.67 32.455 21.865 32.455 25.365L32.4533 32.455Z" fill="white"/>
</g>
<defs>
<clipPath id="clip0_856_3280">
<rect width="24" height="24" fill="white" transform="translate(12 12)"/>
</clipPath>
</defs>
</svg>
