<svg width="48" height="48" viewBox="0 0 48 48" fill="none" xmlns="http://www.w3.org/2000/svg">
<rect width="48" height="48" rx="24" fill="black"/>
<path d="M33.7723 29.7033C33.406 30.5418 32.9725 31.3136 32.4702 32.0232C31.7855 32.9906 31.2249 33.6602 30.7928 34.032C30.1231 34.6424 29.4055 34.955 28.6371 34.9728C28.0855 34.9728 27.4202 34.8172 26.6459 34.5017C25.8689 34.1876 25.1549 34.032 24.5021 34.032C23.8174 34.032 23.0831 34.1876 22.2977 34.5017C21.511 34.8172 20.8773 34.9816 20.3928 34.9979C19.6559 35.0291 18.9215 34.7076 18.1884 34.032C17.7204 33.6276 17.1352 32.9343 16.434 31.9521C15.6818 30.9033 15.0633 29.687 14.5788 28.3004C14.0599 26.8026 13.7998 25.3523 13.7998 23.9482C13.7998 22.3398 14.1505 20.9526 14.853 19.7901C15.4051 18.8564 16.1395 18.1198 17.0588 17.5791C17.978 17.0383 18.9713 16.7628 20.0409 16.7452C20.6262 16.7452 21.3937 16.9246 22.3474 17.2771C23.2985 17.6309 23.9092 17.8103 24.177 17.8103C24.3771 17.8103 25.0555 17.6005 26.2056 17.1823C27.2932 16.7945 28.2111 16.6339 28.963 16.6972C31.0006 16.8601 32.5315 17.6561 33.5495 19.0901C31.7272 20.1843 30.8257 21.7169 30.8437 23.6829C30.8601 25.2142 31.4207 26.4886 32.5225 27.5004C33.0218 27.97 33.5794 28.333 34.1998 28.5907C34.0653 28.9774 33.9232 29.3477 33.7723 29.7033ZM29.0991 11.4801C29.0991 12.6804 28.6566 13.8011 27.7745 14.8384C26.7101 16.0716 25.4227 16.7841 24.0266 16.6717C24.0088 16.5277 23.9985 16.3761 23.9985 16.2169C23.9985 15.0646 24.5046 13.8315 25.4036 12.8232C25.8523 12.3127 26.4231 11.8882 27.1153 11.5496C27.8059 11.2161 28.4592 11.0316 29.0736 11C29.0916 11.1605 29.0991 11.3209 29.0991 11.4801V11.4801Z" fill="white"/>
</svg>
