<svg width="48" height="48" viewBox="0 0 48 48" fill="none" xmlns="http://www.w3.org/2000/svg">
<rect width="48" height="48" rx="24" fill="black"/>
<g clip-path="url(#clip0_856_3304)">
<path d="M12 35L13.6963 28.8403C12.6476 27.0323 12.0974 24.9848 12.1032 22.8916C12.1032 16.3327 17.467 11 24.0516 11C27.2493 11 30.2521 12.2376 32.5043 14.4848C34.7622 16.7319 36.0057 19.7205 36 22.8973C36 29.4563 30.6361 34.789 24.0458 34.789H24.0401C22.0401 34.789 20.0745 34.2871 18.3266 33.3403L12 35ZM18.6304 31.1901L18.9914 31.4068C20.5158 32.308 22.2636 32.7814 24.0458 32.7871H24.0516C29.5243 32.7871 33.9828 28.3555 33.9828 22.903C33.9828 20.2624 32.9513 17.7814 31.0773 15.9106C29.2034 14.0399 26.7049 13.0133 24.0516 13.0133C18.5788 13.0076 14.1203 17.4392 14.1203 22.8916C14.1203 24.7567 14.6418 26.576 15.639 28.1502L15.8739 28.5266L14.8711 32.1711L18.6304 31.1901Z" fill="white"/>
<path d="M12.418 34.5833L14.0569 28.6347C13.0426 26.8951 12.5097 24.916 12.5097 22.897C12.5154 16.5662 17.6902 11.416 24.0512 11.416C27.14 11.416 30.034 12.6137 32.2117 14.781C34.3893 16.9483 35.587 19.8343 35.587 22.9027C35.587 29.2335 30.4065 34.3837 24.0512 34.3837H24.0455C22.1142 34.3837 20.2174 33.8989 18.5326 32.9864L12.418 34.5833Z" fill="black"/>
<path d="M12 35L13.6963 28.8403C12.6476 27.0323 12.0974 24.9848 12.1032 22.8916C12.1032 16.3327 17.467 11 24.0516 11C27.2493 11 30.2521 12.2376 32.5043 14.4848C34.7622 16.7319 36.0057 19.7205 36 22.8973C36 29.4563 30.6361 34.789 24.0458 34.789H24.0401C22.0401 34.789 20.0745 34.2871 18.3266 33.3403L12 35ZM18.6304 31.1901L18.9914 31.4068C20.5158 32.308 22.2636 32.7814 24.0458 32.7871H24.0516C29.5243 32.7871 33.9828 28.3555 33.9828 22.903C33.9828 20.2624 32.9513 17.7814 31.0773 15.9106C29.2034 14.0399 26.7049 13.0133 24.0516 13.0133C18.5788 13.0076 14.1203 17.4392 14.1203 22.8916C14.1203 24.7567 14.6418 26.576 15.639 28.1502L15.8739 28.5266L14.8711 32.1711L18.6304 31.1901Z" fill="white"/>
<path fill-rule="evenodd" clip-rule="evenodd" d="M21.0655 17.9184C20.842 17.4222 20.6071 17.4108 20.395 17.4051C20.2231 17.3994 20.0225 17.3994 19.822 17.3994C19.6214 17.3994 19.3005 17.4736 19.0254 17.7701C18.7503 18.0667 17.9824 18.7853 17.9824 20.2511C17.9824 21.7112 19.0541 23.1257 19.2031 23.3253C19.352 23.5249 21.2718 26.6218 24.3033 27.8139C26.8248 28.8063 27.3406 28.6066 27.885 28.5553C28.4294 28.504 29.65 27.8367 29.9022 27.1409C30.1486 26.445 30.1486 25.8519 30.0741 25.7264C29.9996 25.6009 29.799 25.5268 29.501 25.3785C29.203 25.2302 27.736 24.5116 27.4609 24.4089C27.1859 24.312 26.9853 24.2606 26.7904 24.5572C26.5899 24.8538 26.0168 25.5211 25.8449 25.7207C25.673 25.9203 25.4953 25.9431 25.1973 25.7949C24.8993 25.6466 23.9366 25.3329 22.7962 24.3177C21.9079 23.5306 21.3062 22.5553 21.1343 22.2587C20.9624 21.9622 21.1171 21.8025 21.2661 21.6542C21.3979 21.523 21.5641 21.3063 21.7131 21.1352C21.8621 20.9641 21.9137 20.8386 22.0111 20.639C22.1085 20.4393 22.0626 20.2682 21.9881 20.1199C21.9137 19.9774 21.3291 18.5059 21.0655 17.9184Z" fill="white"/>
</g>
<defs>
<clipPath id="clip0_856_3304">
<rect width="24" height="24" fill="white" transform="translate(12 11)"/>
</clipPath>
</defs>
</svg>
