<svg width="48" height="48" viewBox="0 0 48 48" fill="none" xmlns="http://www.w3.org/2000/svg">
<rect width="48" height="48" rx="24" fill="black"/>
<g clip-path="url(#clip0_856_3298)">
<path fill-rule="evenodd" clip-rule="evenodd" d="M24 12C17.3753 12 12 17.3753 12 24C12 30.6248 17.3753 36 24 36C30.6117 36 36 30.6248 36 24C36 17.3753 30.6117 12 24 12ZM31.9262 17.5315C33.3579 19.2755 34.217 21.5011 34.243 23.9089C33.9046 23.8439 30.5206 23.154 27.1106 23.5835C27.0326 23.4143 26.9675 23.2321 26.8894 23.0499C26.6811 22.5554 26.4469 22.0478 26.2126 21.5662C29.987 20.0304 31.705 17.8178 31.9262 17.5315ZM24 13.7701C26.603 13.7701 28.9848 14.7462 30.794 16.3471C30.6117 16.6074 29.0629 18.6768 25.4186 20.0434C23.7397 16.9588 21.8786 14.4338 21.5922 14.0434C22.3601 13.8612 23.1671 13.7701 24 13.7701ZM19.64 14.7332C19.9133 15.0976 21.7354 17.6356 23.4404 20.6551C18.6508 21.9306 14.4208 21.9046 13.9653 21.9046C14.6291 18.7289 16.7766 16.0868 19.64 14.7332ZM13.744 24.0131C13.744 23.9089 13.744 23.8048 13.744 23.7007C14.1866 23.7137 19.1584 23.7788 24.2733 22.243C24.5727 22.8156 24.846 23.4013 25.1063 23.987C24.9761 24.026 24.833 24.0651 24.7028 24.1041C19.4187 25.8091 16.6074 30.4685 16.3731 30.859C14.7462 29.0499 13.744 26.6421 13.744 24.0131ZM24 34.256C21.6312 34.256 19.4447 33.449 17.7137 32.0954C17.8959 31.718 19.9783 27.7094 25.757 25.692C25.7831 25.679 25.7961 25.679 25.8221 25.666C27.2668 29.4013 27.8525 32.5379 28.0087 33.436C26.7722 33.9696 25.4186 34.256 24 34.256ZM29.7137 32.4989C29.6096 31.8742 29.0629 28.8807 27.7223 25.1974C30.9371 24.6898 33.7484 25.5228 34.0998 25.64C33.6573 28.4903 32.0174 30.9501 29.7137 32.4989Z" fill="white"/>
</g>
<defs>
<clipPath id="clip0_856_3298">
<rect width="24" height="24" fill="white" transform="translate(12 12)"/>
</clipPath>
</defs>
</svg>
