<svg width="48" height="48" viewBox="0 0 48 48" fill="none" xmlns="http://www.w3.org/2000/svg">
<rect width="48" height="48" rx="24" fill="black"/>
<g clip-path="url(#clip0_856_3302)">
<path fill-rule="evenodd" clip-rule="evenodd" d="M23.9962 12.5996C21.1652 12.6011 18.427 13.6038 16.2712 15.4284C14.1155 17.253 12.6828 19.7806 12.2293 22.5592C11.7757 25.3377 12.331 28.1861 13.7958 30.595C15.2605 33.0038 17.5393 34.8161 20.2245 35.7077C20.8169 35.8176 21.0401 35.4505 21.0401 35.1383C21.0401 34.8261 21.0282 33.9209 21.0243 32.9313C17.7068 33.648 17.0057 31.5314 17.0057 31.5314C16.4647 30.157 15.6827 29.7957 15.6827 29.7957C14.6006 29.0613 15.7637 29.0751 15.7637 29.0751C16.9623 29.1595 17.5922 30.2983 17.5922 30.2983C18.6546 32.1106 20.3825 31.5864 21.0618 31.2801C21.1684 30.5124 21.4785 29.9901 21.8201 29.6936C19.17 29.3951 16.3857 28.3781 16.3857 23.8346C16.3693 22.6563 16.809 21.5168 17.614 20.6518C17.4915 20.3534 17.0828 19.1478 17.7305 17.5103C17.7305 17.5103 18.7316 17.1922 21.0105 18.7256C22.9651 18.1942 25.0273 18.1942 26.9819 18.7256C29.2588 17.1922 30.258 17.5103 30.258 17.5103C30.9077 19.1439 30.4989 20.3494 30.3765 20.6518C31.184 21.5169 31.6246 22.6584 31.6067 23.8385C31.6067 28.3918 28.8164 29.3951 26.1624 29.6877C26.589 30.0568 26.9701 30.7774 26.9701 31.8848C26.9701 33.4713 26.9563 34.7476 26.9563 35.1383C26.9563 35.4544 27.1715 35.8235 27.7758 35.7077C30.4613 34.816 32.7403 33.0034 34.205 30.5941C35.6698 28.1849 36.2247 25.3361 35.7707 22.5572C35.3167 19.7784 33.8833 17.2508 31.7268 15.4265C29.5703 13.6022 26.8315 12.6001 24.0001 12.5996H23.9962Z" fill="white"/>
<path d="M16.5866 29.6245C16.5609 29.6834 16.4661 29.7011 16.3891 29.6599C16.3121 29.6186 16.2548 29.542 16.2825 29.4812C16.3101 29.4203 16.4029 29.4046 16.4799 29.4458C16.5569 29.4871 16.6162 29.5656 16.5866 29.6245Z" fill="white"/>
<path d="M17.0703 30.1613C17.0294 30.1818 16.9826 30.1875 16.9379 30.1774C16.8933 30.1674 16.8535 30.1423 16.8254 30.1063C16.7484 30.0238 16.7326 29.9099 16.7918 29.8589C16.8511 29.8078 16.9577 29.8314 17.0347 29.9139C17.1117 29.9963 17.1295 30.1102 17.0703 30.1613Z" fill="white"/>
<path d="M17.5409 30.8425C17.4678 30.8936 17.3434 30.8425 17.2743 30.7404C17.2552 30.7221 17.24 30.7002 17.2296 30.6759C17.2192 30.6516 17.2139 30.6255 17.2139 30.5991C17.2139 30.5727 17.2192 30.5465 17.2296 30.5223C17.24 30.498 17.2552 30.476 17.2743 30.4577C17.3474 30.4086 17.4718 30.4577 17.5409 30.5578C17.61 30.658 17.612 30.7915 17.5409 30.8425Z" fill="white"/>
<path d="M18.1782 31.5022C18.113 31.5748 17.9807 31.5552 17.8721 31.457C17.7635 31.3589 17.7378 31.2253 17.803 31.1547C17.8682 31.084 18.0005 31.1036 18.113 31.1998C18.2256 31.296 18.2473 31.4315 18.1782 31.5022Z" fill="white"/>
<path d="M19.0733 31.8872C19.0437 31.9795 18.9094 32.0207 18.7751 31.9815C18.6409 31.9422 18.552 31.8322 18.5777 31.738C18.6033 31.6438 18.7396 31.6006 18.8758 31.6438C19.0121 31.6869 19.099 31.791 19.0733 31.8872Z" fill="black"/>
<path d="M20.0486 31.9531C20.0486 32.0493 19.938 32.1318 19.7958 32.1337C19.6536 32.1357 19.5371 32.0572 19.5371 31.9609C19.5371 31.8647 19.6477 31.7823 19.7899 31.7803C19.932 31.7783 20.0486 31.8549 20.0486 31.9531Z" fill="black"/>
<path d="M20.9568 31.8025C20.9745 31.8987 20.8758 31.9989 20.7336 32.0224C20.5914 32.046 20.467 31.9891 20.4493 31.8948C20.4315 31.8006 20.5342 31.6985 20.6724 31.673C20.8106 31.6474 20.939 31.7063 20.9568 31.8025Z" fill="black"/>
</g>
<defs>
<clipPath id="clip0_856_3302">
<rect width="24" height="24" fill="white" transform="translate(12 12)"/>
</clipPath>
</defs>
</svg>
