<svg width="48" height="48" viewBox="0 0 48 48" fill="none" xmlns="http://www.w3.org/2000/svg">
<rect width="48" height="48" rx="24" fill="black"/>
<g clip-path="url(#clip0_856_3290)">
<path d="M24.2374 34.7661C21.7784 34.7661 19.4969 34.01 17.6033 32.7213C16.7157 33.1882 14.7103 33.2934 13.8358 33.1882C12.5734 33.0369 11.2387 31.9849 12.5208 30.9592C14.513 29.3747 13.9739 28.7501 13.9739 28.7501C13.0205 27.0471 12.4748 25.0878 12.4748 23.0035C12.4814 16.5009 17.7479 11.2344 24.2374 11.2344C30.7335 11.2344 36 16.5009 36 22.997C36 29.493 30.7335 34.7661 24.2374 34.7661ZM24.2374 12.957C18.6553 12.957 14.1317 17.4872 14.1317 23.0693C14.1317 24.9892 14.6708 26.7907 15.5979 28.3227C15.5979 28.3227 16.262 30.0388 14.5591 31.3209C15.6242 31.6825 17.8729 31.0184 17.9846 31.0184C19.7073 32.3729 21.877 33.1816 24.2374 33.1816C29.8196 33.1816 34.3497 28.6514 34.3497 23.0693C34.3497 17.4872 29.8261 12.957 24.2374 12.957ZM29.6486 25.9623C28.4125 25.9623 27.4591 25.147 27.4591 23.7794C27.4591 22.4118 28.3599 21.5373 29.7209 21.5373C31.0228 21.5373 31.8841 22.4315 31.8841 23.7071C31.8841 25.2522 30.7861 25.9623 29.6486 25.9623ZM29.6881 22.471C29.0569 22.471 28.8202 23.1219 28.8202 23.7465C28.8202 24.4763 29.1226 25.0221 29.6881 25.0221C30.2009 25.0221 30.5296 24.5092 30.5296 23.7465C30.5231 23.1153 30.2864 22.471 29.6881 22.471ZM26.0061 25.8702C26.0061 25.8702 25.5064 25.8702 25.296 25.8702C24.9607 25.8702 25.0264 25.3837 25.0264 25.3837V23.5624C25.0264 22.9444 24.8292 22.5893 24.4018 22.5893C24.0993 22.5893 23.8824 22.7997 23.7969 23.0496C23.764 23.1482 23.7443 23.2863 23.7443 23.3849V25.4494C23.7443 25.4494 23.7509 25.8637 23.3827 25.8637C23.1131 25.8637 22.7975 25.8637 22.7975 25.8637C22.7975 25.8637 22.4622 25.8374 22.4622 25.41C22.4622 24.7196 22.4622 23.4835 22.4622 23.4835C22.4622 22.9444 22.2715 22.5828 21.8573 22.5828C21.522 22.5828 21.3181 22.8457 21.2392 23.0627C21.1932 23.1679 21.1866 23.2863 21.1866 23.3915V25.41C21.1866 25.41 21.2327 25.8637 20.8908 25.8637C20.7198 25.8637 20.5094 25.8637 20.3253 25.8637C19.9045 25.8637 19.9045 25.41 19.9045 25.41V22.9772C19.9045 22.563 19.8782 21.8792 19.8782 21.8792C19.8782 21.8792 19.8716 21.6228 20.1478 21.6228C20.3187 21.6228 20.5291 21.6228 20.7001 21.6228C20.9631 21.6228 21.0091 21.8792 21.0091 21.8792L21.042 22.1948H21.0683C21.2524 21.9253 21.6206 21.5242 22.3504 21.5242C22.8961 21.5242 23.3301 21.8003 23.5142 22.2409H23.5339C23.6917 22.0239 23.8824 21.8529 24.0796 21.728C24.3163 21.5899 24.5727 21.5176 24.8883 21.5176C25.7036 21.5176 26.3151 22.0896 26.3151 23.3586C26.3151 23.3586 26.3151 24.6867 26.3151 25.4034C26.3085 25.8374 26.0061 25.8702 26.0061 25.8702ZM17.8334 20.7483C17.4192 20.7483 17.143 20.4525 17.1496 20.0908C17.143 19.7095 17.4192 19.4202 17.84 19.4202C18.2674 19.4202 18.5303 19.7095 18.5435 20.0908C18.5435 20.459 18.2674 20.7483 17.8334 20.7483ZM17.4521 21.6294C17.7545 21.6294 18.2148 21.6294 18.2148 21.6294C18.2148 21.6294 18.504 21.6294 18.504 21.9581C18.504 22.7274 18.504 25.4889 18.504 25.4889C18.504 25.4889 18.5238 25.8702 18.2016 25.8702C17.8794 25.8702 17.4192 25.8702 17.4192 25.8702C17.4192 25.8702 17.1891 25.8571 17.1891 25.5415C17.1891 24.5947 17.1891 21.899 17.1891 21.899C17.1891 21.899 17.1825 21.6294 17.4521 21.6294Z" fill="white"/>
</g>
<defs>
<clipPath id="clip0_856_3290">
<rect width="24" height="24" fill="white" transform="translate(12 11)"/>
</clipPath>
</defs>
</svg>
