<svg width="48" height="48" viewBox="0 0 48 48" fill="none" xmlns="http://www.w3.org/2000/svg">
<rect width="48" height="48" rx="24" fill="black"/>
<path d="M34.8002 24.1805C34.8002 22.7951 33.7373 21.6707 32.4276 21.6707C31.7823 21.6707 31.2128 21.9317 30.7953 22.3734C29.1819 21.1486 26.9422 20.3455 24.4747 20.2451L25.5566 14.8841L29.068 15.6671C29.106 16.6108 29.8462 17.3738 30.7573 17.3738C31.6874 17.3738 32.4466 16.5707 32.4466 15.5868C32.4466 14.603 31.6874 13.7998 30.7573 13.7998C30.093 13.7998 29.5236 14.2014 29.2578 14.8037L25.3288 13.9203C25.215 13.9002 25.1011 13.9203 25.0062 13.9805C24.9113 14.0407 24.8543 14.1411 24.8164 14.2616L23.6206 20.2451C21.0962 20.3254 18.8375 21.1085 17.2051 22.3734C16.7875 21.9518 16.1991 21.6707 15.5728 21.6707C14.2631 21.6707 13.2002 22.7951 13.2002 24.1805C13.2002 25.2045 13.7696 26.0679 14.6048 26.4695C14.5668 26.7104 14.5478 26.9715 14.5478 27.2325C14.5478 31.0876 18.7805 34.1998 24.0192 34.1998C29.2578 34.1998 33.4905 31.0876 33.4905 27.2325C33.4905 26.9715 33.4715 26.7305 33.4336 26.4896C34.2118 26.088 34.8002 25.2045 34.8002 24.1805ZM18.5717 25.9675C18.5717 24.9837 19.331 24.1805 20.261 24.1805C21.1911 24.1805 21.9503 24.9837 21.9503 25.9675C21.9503 26.9514 21.1911 27.7545 20.261 27.7545C19.331 27.7545 18.5717 26.9514 18.5717 25.9675ZM28.0051 30.686C26.8473 31.9108 24.6455 31.9911 24.0002 31.9911C23.3549 31.9911 21.1341 31.8908 19.9953 30.686C19.8244 30.5053 19.8244 30.2041 19.9953 30.0234C20.1661 29.8427 20.4508 29.8427 20.6216 30.0234C21.3429 30.7864 22.8993 31.0675 24.0192 31.0675C25.139 31.0675 26.6765 30.7864 27.4167 30.0234C27.5875 29.8427 27.8723 29.8427 28.0431 30.0234C28.1759 30.2242 28.1759 30.5053 28.0051 30.686ZM27.7014 27.7545C26.7714 27.7545 26.0121 26.9514 26.0121 25.9675C26.0121 24.9837 26.7714 24.1805 27.7014 24.1805C28.6315 24.1805 29.3907 24.9837 29.3907 25.9675C29.3907 26.9514 28.6315 27.7545 27.7014 27.7545Z" fill="white"/>
</svg>
