<svg width="48" height="48" viewBox="0 0 48 48" fill="none" xmlns="http://www.w3.org/2000/svg">
<rect width="48" height="48" rx="24" fill="black"/>
<path d="M33.0566 19.1811C33.0659 19.3923 33.0659 19.5939 33.0659 19.8051C33.0752 26.2084 28.3707 33.6004 19.7674 33.6004C17.23 33.6004 14.7388 32.842 12.5996 31.4212C12.97 31.4692 13.3405 31.4884 13.7109 31.4884C15.8131 31.4884 17.8597 30.7588 19.5174 29.4052C17.5171 29.3668 15.7575 28.0132 15.1463 26.0356C15.8501 26.1796 16.5725 26.1508 17.2578 25.9492C15.0815 25.5076 13.5164 23.5204 13.5072 21.2068C13.5072 21.1876 13.5072 21.1684 13.5072 21.1492C14.1554 21.5236 14.887 21.7348 15.6279 21.754C13.5813 20.3331 12.9423 17.5011 14.1832 15.2835C16.5632 18.3171 20.0638 20.1507 23.8237 20.3523C23.444 18.6723 23.9626 16.9059 25.1757 15.7155C27.0557 13.8819 30.0191 13.9779 31.7972 15.9267C32.8436 15.7155 33.8531 15.3123 34.7699 14.7459C34.418 15.8691 33.6864 16.8195 32.714 17.4243C33.6401 17.3091 34.5476 17.0499 35.3996 16.6659C34.7699 17.6451 33.9734 18.4899 33.0566 19.1811Z" fill="white"/>
</svg>
