<svg width="48" height="48" viewBox="0 0 48 48" fill="none" xmlns="http://www.w3.org/2000/svg">
<rect width="48" height="48" rx="24" fill="black"/>
<g clip-path="url(#clip0_856_3284)">
<path d="M23.9951 12C17.3608 12 12 17.3706 12 23.9951C12 29.0794 15.1592 33.4233 19.6216 35.1707C19.513 34.2229 19.4241 32.7618 19.661 31.7252C19.8782 30.7873 21.0629 25.7622 21.0629 25.7622C21.0629 25.7622 20.7075 25.0416 20.7075 23.9852C20.7075 22.3167 21.675 21.0728 22.8795 21.0728C23.9062 21.0728 24.3998 21.8429 24.3998 22.761C24.3998 23.7877 23.7482 25.3278 23.4027 26.7594C23.1164 27.9539 24.0049 28.9313 25.1798 28.9313C27.3122 28.9313 28.9511 26.6804 28.9511 23.4422C28.9511 20.5693 26.8877 18.5652 23.9358 18.5652C20.52 18.5652 18.5158 21.1222 18.5158 23.768C18.5158 24.7947 18.9107 25.9004 19.4044 26.5027C19.5031 26.6211 19.513 26.7297 19.4833 26.8482C19.3945 27.2234 19.1872 28.0428 19.1477 28.2106C19.0983 28.4278 18.97 28.4772 18.7429 28.3686C17.262 27.6577 16.334 25.4661 16.334 23.7088C16.334 19.9276 19.0786 16.4525 24.2616 16.4525C28.4179 16.4525 31.6561 19.4142 31.6561 23.383C31.6561 27.5195 29.0498 30.8466 25.4364 30.8466C24.2221 30.8466 23.0769 30.2147 22.6919 29.4644C22.6919 29.4644 22.0897 31.7548 21.9416 32.3176C21.675 33.3641 20.9445 34.6672 20.4508 35.4669C21.5763 35.8124 22.761 36 24.0049 36C30.6294 36 36 30.6294 36 24.0049C35.9901 17.3706 30.6195 12 23.9951 12Z" fill="white"/>
</g>
<defs>
<clipPath id="clip0_856_3284">
<rect width="24" height="24" fill="white" transform="translate(12 12)"/>
</clipPath>
</defs>
</svg>
