<svg width="48" height="48" viewBox="0 0 48 48" fill="none" xmlns="http://www.w3.org/2000/svg">
<rect width="48" height="48" rx="24" fill="black"/>
<rect x="7" y="7" width="34" height="34" rx="17" fill="black"/>
<path fill-rule="evenodd" clip-rule="evenodd" d="M12.6465 23.6584C12.6465 17.3317 17.6051 12.6455 24 12.6455C30.3948 12.6455 35.3534 17.3345 35.3534 23.6612C35.3534 29.9879 30.3948 34.6741 24 34.6741C22.8504 34.6741 21.7491 34.5208 20.7131 34.237C20.5116 34.183 20.2959 34.1972 20.1057 34.2824L17.8521 35.2758C17.2617 35.5369 16.5975 35.1169 16.5776 34.4726L16.5152 32.4516C16.5095 32.2019 16.396 31.9691 16.2115 31.8045C14.0032 29.829 12.6465 26.9679 12.6465 23.6584ZM20.5171 21.5892L17.182 26.8799C16.8613 27.388 17.4857 27.9585 17.9625 27.5952L21.5446 24.876C21.7858 24.6915 22.1207 24.6915 22.3648 24.8732L25.0187 26.8629C25.8163 27.459 26.9516 27.2518 27.4824 26.4088L30.8203 21.1209C31.1382 20.6128 30.5138 20.0395 30.0369 20.4028L26.4549 23.1219C26.2137 23.3064 25.8787 23.3064 25.6346 23.1248L22.9808 21.1351C22.1832 20.539 21.0478 20.7462 20.5171 21.5892Z" fill="white"/>
</svg>
