<svg width="48" height="48" viewBox="0 0 48 48" fill="none" xmlns="http://www.w3.org/2000/svg">
<rect width="48" height="48" rx="24" fill="black"/>
<g clip-path="url(#clip0_856_3306)">
<path d="M21.1191 11.3503L21.3884 12.4413C20.3269 12.7037 19.3109 13.1243 18.3746 13.6891L17.7984 12.7243C18.829 12.1002 19.9488 11.6368 21.1191 11.3503ZM26.8809 11.3503L26.6115 12.4413C27.6731 12.7037 28.6891 13.1243 29.6254 13.6891L30.2084 12.7243C29.1751 12.1007 28.0531 11.6374 26.8809 11.3503ZM13.7243 16.795C13.1007 17.8271 12.6375 18.9479 12.3503 20.1191L13.4413 20.3885C13.7036 19.3269 14.1243 18.3109 14.6891 17.3746L13.7243 16.795ZM13.1242 23C13.1241 22.4545 13.1652 21.9097 13.247 21.3703L12.1355 21.1999C11.9548 22.392 11.9548 23.6046 12.1355 24.7967L13.247 24.6297C13.1653 24.0903 13.1243 23.5455 13.1242 23ZM30.2016 33.2723L29.6254 32.3109C28.6905 32.8762 27.6756 33.2969 26.6149 33.5587L26.8843 34.6497C28.0532 34.3604 29.1716 33.896 30.2016 33.2723ZM34.8757 23C34.8757 23.5455 34.8347 24.0903 34.753 24.6297L35.8645 24.7967C36.0451 23.6046 36.0451 22.392 35.8645 21.1999L34.753 21.3703C34.8348 21.9097 34.8758 22.4545 34.8757 23ZM35.6497 25.8775L34.5587 25.6081C34.2969 26.671 33.8763 27.6882 33.3109 28.6254L34.2757 29.205C34.8999 28.1719 35.3631 27.0499 35.6497 25.8775ZM25.6296 33.753C24.5494 33.9167 23.4506 33.9167 22.3703 33.753L22.2033 34.8645C23.3943 35.0452 24.6057 35.0452 25.7967 34.8645L25.6296 33.753ZM32.7551 29.4505C32.1071 30.3292 31.3301 31.105 30.4504 31.7517L31.1187 32.6586C32.0876 31.9453 32.9448 31.0916 33.662 30.1255L32.7551 29.4505ZM30.4504 14.2448C31.3302 14.8928 32.1072 15.6698 32.7551 16.5495L33.662 15.8745C32.9474 14.9076 32.0924 14.0526 31.1255 13.338L30.4504 14.2448ZM15.2448 16.5495C15.8928 15.6698 16.6698 14.8928 17.5495 14.2448L16.8745 13.338C15.9075 14.0526 15.0526 14.9076 14.3379 15.8745L15.2448 16.5495ZM34.2757 16.795L33.3109 17.3746C33.8762 18.3094 34.2969 19.3244 34.5587 20.385L35.6497 20.1157C35.3625 18.9456 34.8992 17.8259 34.2757 16.795ZM22.3703 12.247C23.4506 12.0833 24.5494 12.0833 25.6296 12.247L25.7967 11.1355C24.6057 10.9548 23.3943 10.9548 22.2033 11.1355L22.3703 12.247ZM15.821 32.9586L13.4993 33.4973L14.0413 31.1756L12.9469 30.9199L12.4049 33.2416C12.3709 33.3856 12.3657 33.5348 12.3895 33.6808C12.4133 33.8267 12.4657 33.9665 12.5436 34.0923C12.6215 34.218 12.7234 34.3271 12.8435 34.4134C12.9636 34.4997 13.0996 34.5614 13.2436 34.5951C13.412 34.6326 13.5865 34.6326 13.755 34.5951L16.0767 34.0599L15.821 32.9586ZM13.1788 29.9175L14.2766 30.1698L14.6516 28.5606C14.1039 27.6419 13.696 26.6469 13.4413 25.6081L12.3503 25.8775C12.5957 26.8718 12.9669 27.8307 13.4549 28.7311L13.1788 29.9175ZM18.4291 32.3518L16.8199 32.7268L17.0756 33.8246L18.2587 33.5485C19.1584 34.038 20.1175 34.4092 21.1123 34.6531L21.3816 33.5621C20.3461 33.304 19.3546 32.8939 18.4394 32.345L18.4291 32.3518ZM24 13.2493C18.6132 13.2527 14.2527 17.6201 14.2527 23.0034C14.2557 24.837 14.7743 26.6328 15.7494 28.1856L14.8118 32.1881L18.811 31.2506C23.3693 34.1178 29.3901 32.7507 32.2574 28.1958C35.1246 23.641 33.7609 17.6201 29.206 14.7494C27.6467 13.7688 25.842 13.2488 24 13.2493Z" fill="white"/>
</g>
<defs>
<clipPath id="clip0_856_3306">
<rect width="24" height="24" fill="white" transform="translate(12 11)"/>
</clipPath>
</defs>
</svg>
