<svg width="48" height="48" viewBox="0 0 48 48" fill="none" xmlns="http://www.w3.org/2000/svg">
<rect width="48" height="48" rx="24" fill="black"/>
<g clip-path="url(#clip0_856_3316)">
<path fill-rule="evenodd" clip-rule="evenodd" d="M35.52 24.2729C35.52 23.422 35.4436 22.6038 35.3018 21.8184H24V26.4602H30.4582C30.18 27.9602 29.3345 29.2311 28.0636 30.082V33.0929H31.9418C34.2109 31.0038 35.52 27.9274 35.52 24.2729Z" fill="white"/>
<path fill-rule="evenodd" clip-rule="evenodd" d="M24 36.0003C27.24 36.0003 29.9564 34.9257 31.9418 33.093L28.0636 30.0821C26.9891 30.8021 25.6145 31.2275 24 31.2275C20.8745 31.2275 18.2291 29.1166 17.2855 26.2803H13.2764V29.3894C15.2509 33.3112 19.3091 36.0003 24 36.0003Z" fill="white"/>
<path fill-rule="evenodd" clip-rule="evenodd" d="M17.2855 26.2804C17.0455 25.5604 16.9091 24.7913 16.9091 24.0004C16.9091 23.2095 17.0455 22.4404 17.2855 21.7204V18.6113H13.2764C12.4636 20.2313 12 22.0641 12 24.0004C12 25.9368 12.4636 27.7695 13.2764 29.3895L17.2855 26.2804Z" fill="white"/>
<path fill-rule="evenodd" clip-rule="evenodd" d="M24 16.7727C25.7618 16.7727 27.3436 17.3782 28.5873 18.5673L32.0291 15.1255C29.9509 13.1891 27.2345 12 24 12C19.3091 12 15.2509 14.6891 13.2764 18.6109L17.2855 21.72C18.2291 18.8836 20.8745 16.7727 24 16.7727Z" fill="white"/>
</g>
<defs>
<clipPath id="clip0_856_3316">
<rect width="24" height="24" fill="white" transform="translate(12 12)"/>
</clipPath>
</defs>
</svg>
