<svg width="48" height="48" viewBox="0 0 48 48" fill="none" xmlns="http://www.w3.org/2000/svg">
<rect width="48" height="48" rx="24" fill="black"/>
<path d="M34.4908 29.4029C30.7035 27.5988 30.0999 24.8134 30.0731 24.6068C30.0406 24.3566 30.0037 24.1598 30.2843 23.9053C30.5548 23.6593 31.7552 22.9282 32.0882 22.6995C32.6387 22.3207 32.8812 21.9426 32.7024 21.4777C32.5775 21.1561 32.2732 21.035 31.9526 21.035C31.8515 21.0353 31.7507 21.0464 31.6521 21.0682C31.0472 21.1973 30.4598 21.4955 30.1199 21.5761C30.0791 21.5865 30.0371 21.592 29.9949 21.5927C29.8137 21.5927 29.745 21.5134 29.7625 21.2988C29.805 20.6482 29.895 19.3785 29.7906 18.1924C29.6475 16.5605 29.1126 15.7519 28.4784 15.0368C28.1716 14.69 26.7469 13.2002 23.9976 13.2002C21.2482 13.2002 19.8254 14.69 19.5205 15.0325C18.8844 15.7476 18.3501 16.5562 18.2083 18.1881C18.1039 19.3742 18.1977 20.6433 18.2364 21.2945C18.2489 21.4986 18.1852 21.5884 18.0039 21.5884C17.9618 21.5877 17.9198 21.5821 17.879 21.5718C17.5397 21.4912 16.9523 21.193 16.3475 21.0639C16.2488 21.0421 16.148 21.031 16.0469 21.0307C15.7251 21.0307 15.422 21.1537 15.2971 21.4734C15.1184 21.9383 15.3596 22.3164 15.9119 22.6952C16.245 22.9239 17.4453 23.6544 17.7159 23.901C17.9958 24.1555 17.9596 24.3523 17.9271 24.6025C17.9002 24.8122 17.296 27.5976 13.5094 29.3986C13.2875 29.5044 12.9101 29.7282 13.5756 30.0897C14.6203 30.6579 15.3158 30.597 15.8563 30.9395C16.315 31.2303 16.0438 31.8575 16.3774 32.0838C16.7874 32.3623 17.9989 32.0641 19.5642 32.5726C20.8764 32.9981 21.6737 34.2002 24.0007 34.2002C26.3277 34.2002 27.1481 32.9926 28.4372 32.5726C29.9993 32.0641 31.2134 32.3623 31.6239 32.0838C31.957 31.8575 31.6864 31.2303 32.1451 30.9395C32.6856 30.597 33.3804 30.6579 34.4258 30.0897C35.09 29.7325 34.7126 29.5087 34.4908 29.4029Z" fill="white"/>
</svg>
