<svg width="48" height="48" viewBox="0 0 48 48" fill="none" xmlns="http://www.w3.org/2000/svg">
<rect width="48" height="48" rx="24" fill="black"/>
<path d="M32.242 17.1853C30.7262 16.4898 29.1007 15.9773 27.4012 15.6838C27.3703 15.6782 27.3393 15.6923 27.3234 15.7207C27.1144 16.0925 26.8828 16.5775 26.7206 16.9588C24.8927 16.6851 23.0741 16.6851 21.2837 16.9588C21.1215 16.569 20.8815 16.0925 20.6715 15.7207C20.6556 15.6933 20.6247 15.6791 20.5937 15.6838C18.8951 15.9764 17.2697 16.4888 15.7529 17.1853C15.7398 17.1909 15.7286 17.2004 15.7211 17.2126C12.6379 21.8188 11.7933 26.3118 12.2077 30.749C12.2095 30.7707 12.2217 30.7915 12.2386 30.8047C14.2728 32.2985 16.2432 33.2054 18.1771 33.8066C18.208 33.816 18.2408 33.8047 18.2605 33.7792C18.718 33.1545 19.1258 32.4958 19.4754 31.8031C19.496 31.7625 19.4763 31.7144 19.4342 31.6984C18.7873 31.453 18.1715 31.1538 17.579 30.8141C17.5321 30.7868 17.5284 30.7197 17.5715 30.6877C17.6962 30.5942 17.8209 30.497 17.9399 30.3989C17.9615 30.381 17.9915 30.3772 18.0168 30.3885C21.9089 32.1655 26.1226 32.1655 29.9688 30.3885C29.9941 30.3762 30.0241 30.38 30.0466 30.3979C30.1656 30.4961 30.2903 30.5942 30.4159 30.6877C30.459 30.7197 30.4562 30.7868 30.4094 30.8141C29.8169 31.1604 29.201 31.453 28.5533 31.6974C28.5111 31.7135 28.4924 31.7625 28.513 31.8031C28.8701 32.4948 29.2779 33.1535 29.7269 33.7783C29.7457 33.8047 29.7794 33.816 29.8104 33.8066C31.7536 33.2054 33.724 32.2985 35.7582 30.8047C35.776 30.7915 35.7873 30.7717 35.7892 30.75C36.285 25.62 34.9586 21.1639 32.2729 17.2136C32.2663 17.2004 32.2551 17.1909 32.242 17.1853ZM20.0566 28.0472C18.8848 28.0472 17.9193 26.9714 17.9193 25.6502C17.9193 24.329 18.8661 23.2532 20.0566 23.2532C21.2565 23.2532 22.2126 24.3385 22.1939 25.6502C22.1939 26.9714 21.2471 28.0472 20.0566 28.0472ZM27.959 28.0472C26.7872 28.0472 25.8217 26.9714 25.8217 25.6502C25.8217 24.329 26.7684 23.2532 27.959 23.2532C29.1589 23.2532 30.115 24.3385 30.0963 25.6502C30.0963 26.9714 29.1589 28.0472 27.959 28.0472Z" fill="white"/>
</svg>
