<svg width="48" height="48" viewBox="0 0 48 48" fill="none" xmlns="http://www.w3.org/2000/svg">
<rect width="48" height="48" rx="24" fill="black"/>
<g clip-path="url(#clip0_856_3320)">
<path d="M24 12C17.3727 12 12 17.3722 12 24C12 30.6278 17.3727 36 24 36C30.6273 36 36 30.6278 36 24C36 17.3722 30.6273 12 24 12ZM29.8545 29.2987C29.6618 29.64 29.3073 29.832 28.9418 29.832C28.7709 29.832 28.5945 29.7893 28.4327 29.6993C26.9345 28.8593 25.3018 28.3447 23.5764 28.17C21.8473 27.9967 20.14 28.1722 18.5 28.6958C17.9527 28.8705 17.3636 28.5682 17.1891 28.02C17.0127 27.4709 17.3164 26.8838 17.8655 26.7082C19.7782 26.0971 21.7727 25.8893 23.7873 26.094C25.7982 26.2987 27.7036 26.8987 29.4527 27.8791C29.9564 28.1595 30.1364 28.7955 29.8545 29.2987ZM31.2909 25.6538C31.1055 26.0107 30.7418 26.2155 30.3655 26.2155C30.2018 26.2155 30.0382 26.178 29.8836 26.0971C28.0418 25.1378 26.0527 24.5438 23.9673 24.3322C21.8654 24.1171 19.7836 24.3045 17.7764 24.8835C17.2218 25.0409 16.6436 24.7238 16.4855 24.1695C16.3255 23.616 16.6454 23.0378 17.1982 22.878C19.4636 22.2247 21.8127 22.0155 24.1782 22.2555C26.5273 22.4947 28.7709 23.1638 30.8491 24.2467C31.3582 24.5131 31.5582 25.1429 31.2909 25.6538ZM31.8109 22.6215C31.6545 22.6215 31.4964 22.5862 31.3455 22.512C29.16 21.4222 26.8091 20.7435 24.3564 20.4945C21.9 20.2433 19.4564 20.4375 17.0909 21.0691C16.5345 21.2167 15.9636 20.8867 15.8145 20.3295C15.6655 19.7729 15.9964 19.2007 16.5546 19.0522C19.1636 18.3555 21.8618 18.1433 24.5691 18.4185C27.2727 18.6922 29.8655 19.4415 32.2764 20.6438C32.7927 20.9009 33.0018 21.528 32.7455 22.0433C32.5636 22.41 32.1945 22.6215 31.8109 22.6215Z" fill="white"/>
</g>
<defs>
<clipPath id="clip0_856_3320">
<rect width="24" height="24" fill="white" transform="translate(12 12)"/>
</clipPath>
</defs>
</svg>
