<svg width="48" height="48" viewBox="0 0 48 48" fill="none" xmlns="http://www.w3.org/2000/svg">
<rect width="48" height="48" rx="24" fill="black"/>
<path d="M25.5374 24.2281C25.5374 27.9988 22.5069 31.0556 18.7688 31.0556C15.0307 31.0556 12 27.9981 12 24.2281C12 20.4581 15.0305 17.4004 18.7688 17.4004C22.5072 17.4004 25.5374 20.4574 25.5374 24.2281Z" fill="white"/>
<path d="M32.9632 24.2285C32.9632 27.7779 31.4479 30.6563 29.5788 30.6563C27.7096 30.6563 26.1943 27.7779 26.1943 24.2285C26.1943 20.6792 27.7094 17.8008 29.5785 17.8008C31.4477 17.8008 32.9629 20.6783 32.9629 24.2285" fill="white"/>
<path d="M35.9995 24.228C35.9995 27.4073 35.4667 29.9862 34.8092 29.9862C34.1517 29.9862 33.6191 27.408 33.6191 24.228C33.6191 21.048 34.152 18.4697 34.8092 18.4697C35.4665 18.4697 35.9995 21.0477 35.9995 24.228Z" fill="white"/>
</svg>
