<svg width="48" height="48" viewBox="0 0 48 48" fill="none" xmlns="http://www.w3.org/2000/svg">
<rect width="48" height="48" rx="24" fill="black"/>
<path fill-rule="evenodd" clip-rule="evenodd" d="M14.0374 22.2928C20.2389 19.5909 24.3742 17.8097 26.4433 16.9491C32.351 14.4919 33.5786 14.065 34.3787 14.0509C34.5546 14.0478 34.9481 14.0914 35.203 14.2983C35.4182 14.4729 35.4774 14.7088 35.5058 14.8744C35.5341 15.0399 35.5694 15.4171 35.5413 15.7118C35.2212 19.0755 33.8359 27.2385 33.1312 31.0059C32.833 32.6001 32.2458 33.1346 31.6774 33.1869C30.442 33.3006 29.504 32.3705 28.3075 31.5862C26.4352 30.3588 25.3774 29.5948 23.5601 28.3972C21.4598 27.0131 22.8213 26.2524 24.0183 25.0092C24.3315 24.6839 29.7745 19.733 29.8799 19.2839C29.893 19.2278 29.9053 19.0184 29.7809 18.9078C29.6565 18.7973 29.4729 18.8351 29.3404 18.8651C29.1527 18.9078 26.1616 20.8847 20.3674 24.796C19.5184 25.379 18.7494 25.663 18.0604 25.6481C17.3009 25.6317 15.8398 25.2187 14.7537 24.8656C13.4214 24.4325 12.3626 24.2036 12.4548 23.4681C12.5028 23.0851 13.0304 22.6933 14.0374 22.2928Z" fill="white"/>
</svg>
