<svg width="40" height="40" viewBox="0 0 40 40" fill="none" xmlns="http://www.w3.org/2000/svg">
<g clip-path="url(#clip0_856_3394)">
<path d="M20.0815 32.0382C13.4367 32.0382 10.4009 28.6533 10.4009 26.1706C10.4 25.5783 10.643 25.0118 11.0729 24.6044C11.5028 24.1969 12.0815 23.9845 12.6728 24.0171C15.5177 24.0171 14.7736 28.2845 20.0815 28.2845C22.7947 28.2845 24.3883 26.6513 24.3883 25.1169C24.3883 24.1949 23.8615 23.1413 22.0703 22.7198L16.1434 21.2249C11.3821 20.0132 10.5523 17.3658 10.5523 14.9095C10.5523 9.81233 15.2148 7.96841 19.6534 7.96841C23.743 7.96841 28.603 10.2272 28.603 13.2829C28.603 14.5999 27.5033 15.3046 26.2257 15.3046C23.7956 15.3046 24.2039 11.8933 19.3175 11.8933C16.8875 11.8933 15.6099 13.0326 15.6099 14.6263C15.6099 16.22 17.5 16.76 19.1595 17.1222L23.5322 18.11C28.3264 19.19 29.604 22.002 29.604 24.6954C29.604 28.8377 26.3969 32.0382 20.0749 32.0382H20.0815ZM38.4285 23.273C38.6183 22.1857 38.7131 21.084 38.7117 19.9803C38.7349 14.4361 36.2988 9.16688 32.0601 5.59308C27.8214 2.01929 22.2163 0.508725 16.7558 1.46858C15.0774 0.502254 13.1739 -0.00430082 11.2372 2.75068e-05C7.26198 0.0243113 3.59776 2.15483 1.61015 5.59758C-0.377454 9.04032 -0.390312 13.2789 1.57637 16.7336C0.478977 22.7635 2.40129 28.9488 6.72324 33.2943C11.0452 37.6399 17.2199 39.5959 23.2556 38.5314C24.932 39.4969 26.8332 40.0035 28.7677 40C32.7409 39.9744 36.4028 37.8448 38.39 34.4041C40.3772 30.9635 40.3919 26.7273 38.4285 23.273Z" fill="black"/>
</g>
<defs>
<clipPath id="clip0_856_3394">
<rect width="40" height="40" fill="white"/>
</clipPath>
</defs>
</svg>
