<svg width="40" height="40" viewBox="0 0 40 40" fill="none" xmlns="http://www.w3.org/2000/svg">
<g clip-path="url(#clip0_856_3383)">
<path d="M15.1985 0.583869L15.6474 2.40218C13.8782 2.83944 12.1848 3.54052 10.6243 4.48187L9.66403 2.8738C11.3817 1.83359 13.248 1.0614 15.1985 0.583869ZM24.8015 0.583869L24.3526 2.40218C26.1218 2.83944 27.8151 3.54052 29.3756 4.48187L30.3473 2.8738C28.6251 1.8345 26.7552 1.06241 24.8015 0.583869ZM2.87378 9.65837C1.83453 11.3786 1.06243 13.2466 0.583845 15.1985L2.40215 15.6474C2.83941 13.8782 3.5405 12.1849 4.48184 10.6243L2.87378 9.65837ZM1.87371 20C1.87357 19.0908 1.94195 18.1828 2.07827 17.2839L0.225865 16.9998C-0.0752883 18.9867 -0.0752883 21.0076 0.225865 22.9945L2.07827 22.7161C1.94216 21.8171 1.87379 20.9092 1.87371 20ZM30.3359 37.1205L29.3756 35.5181C27.8176 36.4603 26.126 37.1615 24.3582 37.5978L24.8071 39.4161C26.7553 38.934 28.6193 38.1601 30.3359 37.1205ZM38.1262 20C38.1262 20.9092 38.0578 21.8171 37.9217 22.7161L39.7741 22.9945C40.0752 21.0076 40.0752 18.9867 39.7741 16.9998L37.9217 17.2839C38.058 18.1828 38.1264 19.0908 38.1262 20ZM39.4161 24.7958L37.5978 24.3469C37.1616 26.1183 36.4604 27.8136 35.5181 29.3757L37.1262 30.3416C38.1664 28.6199 38.9386 26.7499 39.4161 24.7958ZM22.7161 37.9217C20.9156 38.1945 19.0843 38.1945 17.2839 37.9217L17.0054 39.7741C18.9904 40.0753 21.0095 40.0753 22.9945 39.7741L22.7161 37.9217ZM34.5919 30.7508C33.5119 32.2153 32.2169 33.5084 30.7507 34.5862L31.8644 36.0977C33.4794 34.9089 34.908 33.4859 36.1034 31.8758L34.5919 30.7508ZM30.7507 5.40807C32.217 6.48798 33.512 7.78295 34.5919 9.24925L36.1034 8.12417C34.9123 6.51259 33.4874 5.08772 31.8758 3.8966L30.7507 5.40807ZM5.40805 9.24925C6.48796 7.78295 7.78292 6.48798 9.24922 5.40807L8.12415 3.8966C6.51257 5.08772 5.08769 6.51259 3.89658 8.12417L5.40805 9.24925ZM37.1262 9.65837L35.5181 10.6243C36.4603 12.1824 37.1615 13.874 37.5978 15.6417L39.4161 15.1928C38.9375 13.2427 38.1654 11.3766 37.1262 9.65837ZM17.2839 2.07829C19.0843 1.80551 20.9156 1.80551 22.7161 2.07829L22.9945 0.225889C21.0095 -0.0752963 18.9904 -0.0752963 17.0054 0.225889L17.2839 2.07829ZM6.36834 36.5977L2.49875 37.4955L3.40222 33.6259L1.57823 33.1998L0.67476 37.0694C0.618231 37.3093 0.609556 37.558 0.649231 37.8013C0.688906 38.0445 0.776152 38.2776 0.90598 38.4871C1.03581 38.6966 1.20567 38.8785 1.40585 39.0223C1.60602 39.1661 1.83259 39.269 2.07259 39.3252C2.35326 39.3877 2.64425 39.3877 2.92492 39.3252L6.79451 38.4331L6.36834 36.5977ZM1.96462 31.5292L3.7943 31.9497L4.41934 29.2677C3.50657 27.7366 2.82673 26.0781 2.40215 24.3469L0.583845 24.7958C0.992841 26.4529 1.61151 28.0512 2.42488 29.5518L1.96462 31.5292ZM10.7152 35.5863L8.03323 36.2114L8.4594 38.041L10.4311 37.5808C11.9306 38.3966 13.5292 39.0154 15.1871 39.4218L15.636 37.6035C13.9102 37.1734 12.2576 36.4898 10.7323 35.575L10.7152 35.5863ZM20 3.74886C11.0221 3.75454 3.75452 11.0335 3.75452 20.0057C3.75947 23.0617 4.62388 26.0546 6.24901 28.6426L4.6864 35.3136L11.3516 33.751C18.9488 38.5297 28.9836 36.2511 33.7623 28.6597C38.541 21.0683 36.2682 11.0335 28.6767 6.24904C26.0778 4.61472 23.07 3.74803 20 3.74886Z" fill="black"/>
</g>
<defs>
<clipPath id="clip0_856_3383">
<rect width="40" height="40" fill="white"/>
</clipPath>
</defs>
</svg>
