<svg width="40" height="40" viewBox="0 0 40 40" fill="none" xmlns="http://www.w3.org/2000/svg">
<g clip-path="url(#clip0_856_3379)">
<path fill-rule="evenodd" clip-rule="evenodd" d="M20 0C8.95879 0 0 8.95879 0 20C0 31.0413 8.95879 40 20 40C31.0195 40 40 31.0413 40 20C40 8.95879 31.0195 0 20 0ZM33.2104 9.21909C35.5965 12.1258 37.0283 15.8351 37.0716 19.8481C36.5076 19.7398 30.8676 18.59 25.1844 19.3059C25.0543 19.0239 24.9458 18.7201 24.8156 18.4165C24.4685 17.5923 24.0781 16.7463 23.6876 15.9436C29.9783 13.384 32.8416 9.69632 33.2104 9.21909ZM20 2.95011C24.3384 2.95011 28.308 4.57701 31.3233 7.24513C31.0195 7.67897 28.4381 11.128 22.3644 13.4056C19.5661 8.26464 16.4643 4.0564 15.987 3.40564C17.2668 3.10195 18.6118 2.95011 20 2.95011ZM12.7333 4.55531C13.1888 5.16269 16.2256 9.39263 19.0673 14.4251C11.0846 16.551 4.03471 16.5076 3.27549 16.5076C4.38178 11.2148 7.96095 6.81128 12.7333 4.55531ZM2.90673 20.0218C2.90673 19.8481 2.90673 19.6746 2.90673 19.5011C3.64425 19.5228 11.9306 19.6313 20.4555 17.0716C20.9545 18.026 21.41 19.0021 21.8439 19.9783C21.6269 20.0434 21.3883 20.1085 21.1714 20.1735C12.3644 23.0151 7.67897 30.7809 7.2885 31.4316C4.577 28.4165 2.90673 24.4035 2.90673 20.0218ZM20 37.0933C16.052 37.0933 12.4078 35.7484 9.52278 33.4924C9.82647 32.8634 13.2971 26.1823 22.9284 22.82C22.9718 22.7983 22.9935 22.7983 23.0369 22.7766C25.4446 29.0021 26.4209 34.2299 26.6811 35.7266C24.6204 36.616 22.3644 37.0933 20 37.0933ZM29.5228 34.1649C29.3493 33.1236 28.4381 28.1345 26.2039 21.9956C31.5619 21.1496 36.2473 22.538 36.833 22.7333C36.0955 27.4838 33.3623 31.5835 29.5228 34.1649Z" fill="black"/>
</g>
<defs>
<clipPath id="clip0_856_3379">
<rect width="40" height="40" fill="white"/>
</clipPath>
</defs>
</svg>
