<svg width="40" height="40" viewBox="0 0 40 40" fill="none" xmlns="http://www.w3.org/2000/svg">
<path d="M33.736 8.64309C31.2097 7.4839 28.5006 6.62987 25.668 6.14072C25.6165 6.13128 25.5649 6.15488 25.5384 6.20206C25.1899 6.82174 24.804 7.63017 24.5338 8.26559C21.4872 7.80948 18.4562 7.80948 15.4721 8.26559C15.2018 7.61605 14.8019 6.82174 14.4519 6.20206C14.4253 6.15645 14.3738 6.13286 14.3222 6.14072C11.4912 6.6283 8.78214 7.48234 6.25425 8.64309C6.23236 8.65252 6.21361 8.66827 6.20116 8.6887C1.06256 16.3657 -0.345119 23.8539 0.345441 31.2493C0.348565 31.2855 0.368876 31.3201 0.396998 31.3421C3.7873 33.8319 7.07138 35.3434 10.2945 36.3453C10.3461 36.361 10.4007 36.3421 10.4335 36.2996C11.196 35.2585 11.8756 34.1606 12.4583 33.0061C12.4927 32.9385 12.4599 32.8583 12.3896 32.8316C11.3116 32.4226 10.2851 31.9241 9.2977 31.3579C9.2196 31.3123 9.21334 31.2005 9.28519 31.1471C9.49298 30.9914 9.70082 30.8294 9.89923 30.6658C9.93513 30.6359 9.98515 30.6296 10.0274 30.6485C16.5142 33.6101 23.537 33.6101 29.9473 30.6485C29.9895 30.628 30.0395 30.6343 30.077 30.6642C30.2754 30.8278 30.4832 30.9914 30.6926 31.1471C30.7644 31.2005 30.7597 31.3123 30.6816 31.3579C29.6942 31.9351 28.6677 32.4226 27.5881 32.83C27.5179 32.8568 27.4866 32.9385 27.521 33.0061C28.1162 34.159 28.7958 35.2569 29.5442 36.2981C29.5755 36.3421 29.6317 36.361 29.6833 36.3453C32.922 35.3434 36.2061 33.8319 39.5964 31.3421C39.6261 31.3201 39.6448 31.2871 39.6479 31.2509C40.4744 22.701 38.2637 15.2741 33.7875 8.69026C33.7766 8.66827 33.7579 8.65252 33.736 8.64309ZM13.427 26.7463C11.474 26.7463 9.86484 24.9533 9.86484 22.7513C9.86484 20.5494 11.4428 18.7564 13.427 18.7564C15.4268 18.7564 17.0204 20.5651 16.9892 22.7513C16.9892 24.9533 15.4112 26.7463 13.427 26.7463ZM26.5976 26.7463C24.6447 26.7463 23.0355 24.9533 23.0355 22.7513C23.0355 20.5494 24.6134 18.7564 26.5976 18.7564C28.5974 18.7564 30.191 20.5651 30.1598 22.7513C30.1598 24.9533 28.5974 26.7463 26.5976 26.7463Z" fill="black"/>
</svg>
