<svg width="40" height="40" viewBox="0 0 40 40" fill="none" xmlns="http://www.w3.org/2000/svg">
<g clip-path="url(#clip0_856_3380)">
<path d="M13.6668 40.0004C17.3468 40.0004 20.3335 37.0137 20.3335 33.3337V26.667H13.6668C9.98674 26.667 7 29.6537 7 33.3337C7 37.0137 9.98674 40.0004 13.6668 40.0004Z" fill="black"/>
<path d="M7 19.9997C7 16.3197 9.98674 13.333 13.6668 13.333H20.3335V26.6663H13.6668C9.98674 26.6664 7 23.6797 7 19.9997Z" fill="black"/>
<path d="M7 6.66672C7 2.98672 9.98674 0 13.6668 0H20.3335V13.3333H13.6668C9.98674 13.3333 7 10.3467 7 6.66672Z" fill="black"/>
<path d="M20.333 0H26.9998C30.6798 0 33.6665 2.98672 33.6665 6.66672C33.6665 10.3467 30.6798 13.3333 26.9998 13.3333H20.333V0Z" fill="black"/>
<path d="M33.6665 19.9997C33.6665 23.6797 30.6798 26.6664 26.9998 26.6664C23.3197 26.6664 20.333 23.6797 20.333 19.9997C20.333 16.3197 23.3197 13.333 26.9998 13.333C30.6798 13.333 33.6665 16.3197 33.6665 19.9997Z" fill="black"/>
</g>
<defs>
<clipPath id="clip0_856_3380">
<rect width="40" height="40" fill="white"/>
</clipPath>
</defs>
</svg>
