<svg width="40" height="40" viewBox="0 0 40 40" fill="none" xmlns="http://www.w3.org/2000/svg">
<path d="M37.4843 29.0045C31.1722 25.9977 30.1662 21.3554 30.1214 21.0111C30.0673 20.594 30.0058 20.266 30.4734 19.8418C30.9244 19.4318 32.925 18.2134 33.48 17.8321C34.3975 17.2009 34.8016 16.5706 34.5038 15.7959C34.2955 15.2599 33.7883 15.058 33.254 15.058C33.0855 15.0585 32.9176 15.0771 32.7531 15.1133C31.745 15.3285 30.7661 15.8256 30.1995 15.9598C30.1315 15.9771 30.0616 15.9864 29.9913 15.9875C29.6892 15.9875 29.5747 15.8553 29.6038 15.4976C29.6747 14.4134 29.8246 12.2972 29.6507 10.3204C29.4122 7.60053 28.5208 6.25292 27.4637 5.06108C26.9524 4.48309 24.5779 2 19.9956 2C15.4133 2 13.042 4.48309 12.5338 5.0539C11.4736 6.24575 10.5832 7.59336 10.3468 10.3132C10.1729 12.29 10.3291 14.4052 10.3937 15.4905C10.4145 15.8307 10.3083 15.9803 10.0063 15.9803C9.93597 15.9791 9.86606 15.9699 9.79797 15.9527C9.23247 15.8184 8.25353 15.3214 7.24543 15.1062C7.08099 15.0699 6.91303 15.0513 6.7445 15.0508C6.20817 15.0508 5.70308 15.2558 5.49479 15.7887C5.19694 16.5634 5.59893 17.1937 6.51955 17.825C7.07464 18.2062 9.07522 19.4236 9.52616 19.8346C9.99272 20.2589 9.93231 20.5868 9.87816 21.0039C9.83338 21.3533 8.82632 25.9957 2.51526 28.9973C2.14556 29.1736 1.51654 29.5466 2.62566 30.1492C4.36692 31.0961 5.52603 30.9947 6.42687 31.5655C7.19128 32.0502 6.7393 33.0955 7.29542 33.4726C7.9786 33.9369 9.99792 33.4398 12.6067 34.2873C14.7937 34.9965 16.1226 37 20.0008 37C23.8791 37 25.2465 34.9873 27.395 34.2873C29.9985 33.4398 32.022 33.9369 32.7063 33.4726C33.2613 33.0955 32.8104 32.0502 33.5748 31.5655C34.4756 30.9947 35.6337 31.0961 37.376 30.1492C38.4831 29.5538 37.854 29.1808 37.4843 29.0045Z" fill="black"/>
</svg>
