<svg width="40" height="40" viewBox="0 0 40 40" fill="none" xmlns="http://www.w3.org/2000/svg">
<g clip-path="url(#clip0_856_3385)">
<path d="M20.3957 39.6102C16.2973 39.6102 12.4948 38.35 9.3388 36.2022C7.85943 36.9803 4.51716 37.1556 3.05971 36.9803C0.955728 36.7282 -1.2688 34.9749 0.868062 33.2654C4.18842 30.6245 3.28984 29.5834 3.28984 29.5834C1.70089 26.7452 0.791354 23.4797 0.791354 20.0059C0.802312 9.16819 9.57988 0.390625 20.3957 0.390625C31.2225 0.390625 40 9.16819 40 19.995C40 30.8217 31.2225 39.6102 20.3957 39.6102ZM20.3957 3.26169C11.0921 3.26169 3.55284 10.8119 3.55284 20.1155C3.55284 23.3153 4.45141 26.3179 5.99653 28.8711C5.99653 28.8711 7.10331 31.7313 4.26512 33.8681C6.04036 34.4708 9.78809 33.364 9.97438 33.364C12.8454 35.6214 16.4617 36.9693 20.3957 36.9693C29.6993 36.9693 37.2495 29.4191 37.2495 20.1155C37.2495 10.8119 29.7102 3.26169 20.3957 3.26169ZM29.4143 24.9371C27.3542 24.9371 25.7652 23.5783 25.7652 21.299C25.7652 19.0197 27.2665 17.5622 29.5349 17.5622C31.7046 17.5622 33.1401 19.0525 33.1401 21.1784C33.1401 23.7536 31.3101 24.9371 29.4143 24.9371ZM29.4801 19.1183C28.4281 19.1183 28.0336 20.2032 28.0336 21.2442C28.0336 22.4606 28.5377 23.3701 29.4801 23.3701C30.3348 23.3701 30.8827 22.5154 30.8827 21.2442C30.8718 20.1922 30.4773 19.1183 29.4801 19.1183ZM23.3435 24.7837C23.3435 24.7837 22.5106 24.7837 22.16 24.7837C21.6011 24.7837 21.7107 23.9728 21.7107 23.9728V20.9374C21.7107 19.9073 21.3819 19.3155 20.6696 19.3155C20.1656 19.3155 19.8039 19.6662 19.6615 20.0826C19.6067 20.247 19.5738 20.4771 19.5738 20.6415V24.0824C19.5738 24.0824 19.5848 24.7728 18.9711 24.7728C18.5218 24.7728 17.9958 24.7728 17.9958 24.7728C17.9958 24.7728 17.437 24.7289 17.437 24.0166C17.437 22.866 17.437 20.8059 17.437 20.8059C17.437 19.9073 17.1192 19.3046 16.4288 19.3046C15.8699 19.3046 15.5302 19.7429 15.3987 20.1045C15.322 20.2799 15.3111 20.4771 15.3111 20.6525V24.0166C15.3111 24.0166 15.3878 24.7728 14.8179 24.7728C14.533 24.7728 14.1824 24.7728 13.8755 24.7728C13.1742 24.7728 13.1742 24.0166 13.1742 24.0166V19.9621C13.1742 19.2717 13.1304 18.1321 13.1304 18.1321C13.1304 18.1321 13.1194 17.7047 13.5796 17.7047C13.8646 17.7047 14.2152 17.7047 14.5001 17.7047C14.9385 17.7047 15.0152 18.1321 15.0152 18.1321L15.07 18.658H15.1138C15.4206 18.2088 16.0343 17.5403 17.2507 17.5403C18.1602 17.5403 18.8834 18.0006 19.1903 18.7348H19.2232C19.4861 18.3731 19.8039 18.0882 20.1327 17.88C20.5272 17.6499 20.9546 17.5293 21.4806 17.5293C22.8394 17.5293 23.8585 18.4827 23.8585 20.5977C23.8585 20.5977 23.8585 22.8112 23.8585 24.0057C23.8475 24.7289 23.3435 24.7837 23.3435 24.7837ZM9.72234 16.2472C9.03197 16.2472 8.57172 15.7541 8.58268 15.1514C8.57172 14.5158 9.03197 14.0337 9.7333 14.0337C10.4456 14.0337 10.8839 14.5158 10.9058 15.1514C10.9058 15.7651 10.4456 16.2472 9.72234 16.2472ZM9.08676 17.7156C9.59084 17.7156 10.3579 17.7156 10.3579 17.7156C10.3579 17.7156 10.8401 17.7156 10.8401 18.2636C10.8401 19.5457 10.8401 24.1481 10.8401 24.1481C10.8401 24.1481 10.873 24.7837 10.336 24.7837C9.79905 24.7837 9.03197 24.7837 9.03197 24.7837C9.03197 24.7837 8.64843 24.7618 8.64843 24.2358C8.64843 22.6578 8.64843 18.1649 8.64843 18.1649C8.64843 18.1649 8.63747 17.7156 9.08676 17.7156Z" fill="black"/>
</g>
<defs>
<clipPath id="clip0_856_3385">
<rect width="40" height="40" fill="white"/>
</clipPath>
</defs>
</svg>
