<svg width="40" height="40" viewBox="0 0 40 40" fill="none" xmlns="http://www.w3.org/2000/svg">
<rect width="40" height="40" rx="20" fill="black"/>
<path fill-rule="evenodd" clip-rule="evenodd" d="M6.64258 19.5979C6.64258 12.1547 12.4763 6.6416 19.9996 6.6416C27.5229 6.6416 33.3566 12.1581 33.3566 19.6013C33.3566 27.0445 27.5229 32.5576 19.9996 32.5576C18.6472 32.5576 17.3516 32.3772 16.1327 32.0433C15.8957 31.9799 15.6419 31.9966 15.4181 32.0968L12.7668 33.2655C12.0722 33.5727 11.2908 33.0785 11.2674 32.3205L11.194 29.9429C11.1873 29.6491 11.0537 29.3753 10.8367 29.1816C8.23874 26.8575 6.64258 23.4915 6.64258 19.5979ZM15.9021 17.1636L11.9785 23.388C11.6011 23.9857 12.3358 24.6569 12.8968 24.2295L17.1109 21.0305C17.3947 20.8134 17.7888 20.8134 18.0759 21.0271L21.1981 23.3679C22.1365 24.0692 23.4722 23.8254 24.0966 22.8337L28.0236 16.6126C28.3976 16.0149 27.6629 15.3404 27.1019 15.7678L22.8878 18.9668C22.604 19.1839 22.2099 19.1839 21.9228 18.9701L18.8006 16.6293C17.8622 15.9281 16.5265 16.1718 15.9021 17.1636Z" fill="white"/>
</svg>
