<svg width="40" height="40" viewBox="0 0 40 40" fill="none" xmlns="http://www.w3.org/2000/svg">
<rect width="40" height="40" rx="20" fill="black"/>
<path d="M7.86816 31.6335L9.58305 25.4062C8.52283 23.5784 7.96665 21.5084 7.97245 19.3923C7.97245 12.7613 13.3952 7.37012 20.052 7.37012C23.2848 7.37012 26.3206 8.62134 28.5975 10.8932C30.8801 13.165 32.1373 16.1864 32.1315 19.398C32.1315 26.0289 26.7088 31.4202 20.0462 31.4202H20.0404C18.0185 31.4202 16.0313 30.9128 14.2642 29.9556L7.86816 31.6335ZM14.5713 27.7818L14.9363 28.0009C16.4774 28.9119 18.2444 29.3905 20.0462 29.3963H20.052C25.5848 29.3963 30.0922 24.9161 30.0922 19.4038C30.0922 16.7341 29.0494 14.2259 27.1549 12.3347C25.2604 10.4434 22.7344 9.40552 20.052 9.40552C14.5192 9.39975 10.0118 13.8799 10.0118 19.3923C10.0118 21.2777 10.539 23.1171 11.5471 24.7085L11.7846 25.0891L10.7707 28.7736L14.5713 27.7818Z" fill="white"/>
<path d="M8.29102 31.2126L9.94797 25.1986C8.92251 23.44 8.38371 21.4392 8.38371 19.398C8.38951 12.9977 13.6211 7.79102 20.0519 7.79102C23.1746 7.79102 26.1004 9.00188 28.3019 11.193C30.5035 13.3841 31.7143 16.3017 31.7143 19.4038C31.7143 25.804 26.477 31.0108 20.0519 31.0108H20.0461C18.0937 31.0108 16.176 30.5206 14.4727 29.5981L8.29102 31.2126Z" fill="black"/>
<path d="M7.86816 31.6335L9.58305 25.4062C8.52283 23.5784 7.96665 21.5084 7.97245 19.3923C7.97245 12.7613 13.3952 7.37012 20.052 7.37012C23.2848 7.37012 26.3206 8.62134 28.5975 10.8932C30.8801 13.165 32.1373 16.1864 32.1315 19.398C32.1315 26.0289 26.7088 31.4202 20.0462 31.4202H20.0404C18.0185 31.4202 16.0313 30.9128 14.2642 29.9556L7.86816 31.6335ZM14.5713 27.7818L14.9363 28.0009C16.4774 28.9119 18.2444 29.3905 20.0462 29.3963H20.052C25.5848 29.3963 30.0922 24.9161 30.0922 19.4038C30.0922 16.7341 29.0494 14.2259 27.1549 12.3347C25.2604 10.4434 22.7344 9.40552 20.052 9.40552C14.5192 9.39975 10.0118 13.8799 10.0118 19.3923C10.0118 21.2777 10.539 23.1171 11.5471 24.7085L11.7846 25.0891L10.7707 28.7736L14.5713 27.7818Z" fill="white"/>
<path fill-rule="evenodd" clip-rule="evenodd" d="M17.0339 14.3646C16.808 13.8629 16.5704 13.8514 16.3561 13.8456C16.1823 13.8398 15.9795 13.8398 15.7767 13.8398C15.5739 13.8398 15.2495 13.9148 14.9714 14.2146C14.6933 14.5145 13.917 15.241 13.917 16.7229C13.917 18.199 15.0004 19.6289 15.151 19.8307C15.3016 20.0325 17.2425 23.1635 20.3073 24.3686C22.8564 25.3719 23.3779 25.1701 23.9282 25.1182C24.4786 25.0663 25.7127 24.3917 25.9676 23.6882C26.2167 22.9847 26.2167 22.3851 26.1414 22.2582C26.0661 22.1314 25.8633 22.0564 25.562 21.9065C25.2608 21.7566 23.7776 21.0301 23.4995 20.9263C23.2214 20.8283 23.0187 20.7764 22.8217 21.0762C22.6189 21.376 22.0395 22.0506 21.8657 22.2525C21.6919 22.4543 21.5123 22.4773 21.2111 22.3274C20.9098 22.1775 19.9365 21.8604 18.7836 20.834C17.8856 20.0383 17.2772 19.0523 17.1034 18.7525C16.9296 18.4527 17.0861 18.2912 17.2367 18.1413C17.3699 18.0087 17.538 17.7896 17.6886 17.6166C17.8392 17.4436 17.8914 17.3168 17.9899 17.1149C18.0883 16.9131 18.042 16.7401 17.9667 16.5902C17.8914 16.4461 17.3004 14.9585 17.0339 14.3646Z" fill="white"/>
</svg>
