<svg width="40" height="40" viewBox="0 0 40 40" fill="none" xmlns="http://www.w3.org/2000/svg">
<rect width="40" height="40" rx="20" fill="black"/>
<path d="M30.4305 26.3895C26.5251 24.499 25.9026 21.5801 25.8749 21.3636C25.8414 21.1013 25.8034 20.8951 26.0927 20.6284C26.3717 20.3706 27.6095 19.6045 27.953 19.3648C28.5207 18.9679 28.7707 18.5716 28.5864 18.0845C28.4575 17.7475 28.1437 17.6205 27.8132 17.6205C27.7089 17.6208 27.605 17.6325 27.5032 17.6553C26.8795 17.7906 26.2738 18.1031 25.9233 18.1876C25.8811 18.1984 25.8379 18.2043 25.7944 18.2049C25.6075 18.2049 25.5367 18.1218 25.5547 17.8969C25.5985 17.2152 25.6913 15.8846 25.5837 14.6417C25.4361 12.9316 24.8846 12.0842 24.2305 11.3348C23.9142 10.9714 22.445 9.41016 19.6099 9.41016C16.7747 9.41016 15.3075 10.9714 14.9931 11.3303C14.3371 12.0797 13.7862 12.927 13.6399 14.6372C13.5323 15.8801 13.629 17.2101 13.6689 17.8924C13.6818 18.1064 13.6161 18.2004 13.4292 18.2004C13.3857 18.1997 13.3425 18.1939 13.3004 18.183C12.9505 18.0986 12.3448 17.7861 11.721 17.6508C11.6193 17.628 11.5154 17.6163 11.4111 17.616C11.0793 17.616 10.7668 17.7449 10.6379 18.0799C10.4536 18.5671 10.7023 18.9634 11.2719 19.3603C11.6154 19.6 12.8532 20.3655 13.1322 20.6239C13.4209 20.8906 13.3835 21.0968 13.35 21.3591C13.3223 21.5788 12.6992 24.4977 8.79439 26.385C8.56565 26.4959 8.17646 26.7304 8.86269 27.1093C9.94005 27.7047 10.6572 27.6409 11.2146 27.9998C11.6875 28.3046 11.4079 28.9618 11.752 29.1989C12.1747 29.4908 13.4241 29.1783 15.0382 29.7112C16.3913 30.1571 17.2135 31.4168 19.6131 31.4168C22.0127 31.4168 22.8587 30.1513 24.188 29.7112C25.7989 29.1783 27.0509 29.4908 27.4742 29.1989C27.8177 28.9618 27.5387 28.3046 28.0116 27.9998C28.569 27.6409 29.2855 27.7047 30.3635 27.1093C31.0485 26.7349 30.6593 26.5004 30.4305 26.3895Z" fill="white"/>
<path d="M32.1295 26.1669C31.9542 25.6901 31.6204 25.4349 31.2403 25.2236C31.1688 25.1817 31.103 25.1482 31.047 25.1224C30.9336 25.0638 30.8176 25.0071 30.7022 24.9471C29.5173 24.3189 28.592 23.5263 27.9502 22.5869C27.768 22.3224 27.6099 22.042 27.4779 21.7492C27.4231 21.5926 27.4257 21.5037 27.465 21.4225C27.504 21.36 27.5556 21.3062 27.6164 21.2647C27.8201 21.13 28.0301 20.9934 28.1725 20.9013C28.4264 20.7369 28.6274 20.6068 28.7569 20.5146C29.2434 20.1744 29.5836 19.8129 29.7963 19.4089C29.9446 19.1298 30.0312 18.822 30.0499 18.5065C30.0687 18.1909 30.0194 17.875 29.9052 17.5803C29.583 16.7323 28.7821 16.2058 27.8117 16.2058C27.607 16.2057 27.4029 16.2273 27.2028 16.2703C27.1493 16.2819 27.0958 16.2941 27.0436 16.3077C27.0526 15.7277 27.0397 15.1156 26.9882 14.5131C26.8052 12.3951 26.0635 11.2849 25.2903 10.3996C24.7952 9.84478 24.2119 9.37541 23.5641 9.01035C22.3907 8.34022 21.0601 8 19.6097 8C18.1593 8 16.8351 8.34022 15.6605 9.01035C15.011 9.37552 14.4266 9.84583 13.931 10.4022C13.1578 11.2875 12.4161 12.3996 12.2331 14.5157C12.1816 15.1182 12.1687 15.7335 12.1771 16.3102C12.1249 16.2967 12.0721 16.2845 12.0186 16.2729C11.8185 16.2298 11.6143 16.2082 11.4097 16.2084C10.4386 16.2084 9.63639 16.7349 9.31551 17.5828C9.20081 17.8777 9.15094 18.1938 9.16928 18.5097C9.18763 18.8256 9.27376 19.1338 9.42182 19.4134C9.63511 19.8174 9.97532 20.1789 10.4618 20.5191C10.5907 20.6094 10.7924 20.7395 11.0462 20.9058C11.1835 20.9947 11.3839 21.1248 11.5804 21.255C11.6492 21.2995 11.7076 21.3581 11.7518 21.427C11.793 21.5115 11.7943 21.6023 11.7331 21.7698C11.6029 22.0565 11.4474 22.331 11.2685 22.5901C10.6409 23.5083 9.74271 24.2867 8.59576 24.9098C7.98814 25.232 7.35667 25.4472 7.08991 26.1721C6.88887 26.7191 7.02032 27.3416 7.53129 27.8661C7.71882 28.0618 7.93633 28.2265 8.17564 28.3538C8.67359 28.6275 9.20309 28.8393 9.75238 28.9847C9.86573 29.0139 9.97334 29.062 10.0707 29.1271C10.2569 29.2901 10.2305 29.5356 10.4786 29.8951C10.6031 30.081 10.7613 30.2418 10.9451 30.3694C11.4657 30.7289 12.0508 30.7515 12.6707 30.7753C13.2306 30.7966 13.8653 30.8211 14.5902 31.0601C14.8905 31.1594 15.2023 31.3514 15.5638 31.5756C16.4317 32.1091 17.6199 32.8392 19.6084 32.8392C21.5969 32.8392 22.7935 32.1053 23.6678 31.5698C24.0267 31.3494 24.3367 31.1594 24.6286 31.0627C25.3535 30.823 25.9882 30.7992 26.5481 30.7779C27.168 30.7541 27.753 30.7315 28.2737 30.372C28.4913 30.2202 28.6726 30.0222 28.8046 29.792C28.9831 29.4886 28.9786 29.2766 29.1461 29.1284C29.2375 29.0664 29.3385 29.0203 29.4451 28.9918C30.0019 28.846 30.5386 28.6322 31.0431 28.3551C31.2974 28.2187 31.5262 28.0396 31.7197 27.8255L31.7261 27.8177C32.2055 27.3048 32.326 26.7004 32.1295 26.1669ZM30.362 27.1167C29.284 27.7121 28.5675 27.6483 28.0101 28.0072C27.5365 28.312 27.8168 28.9692 27.4727 29.2063C27.05 29.4982 25.8006 29.1857 24.1865 29.7186C22.8553 30.1587 22.006 31.4242 19.6116 31.4242C17.2172 31.4242 16.3879 30.1613 15.0348 29.7154C13.4239 29.1825 12.1719 29.495 11.7486 29.2031C11.4051 28.966 11.6842 28.3087 11.2112 28.004C10.6532 27.6451 9.93666 27.7088 8.8593 27.1167C8.17307 26.7378 8.56226 26.5033 8.791 26.3924C12.6958 24.5019 13.3189 21.583 13.3466 21.3665C13.3801 21.1042 13.4175 20.898 13.1288 20.6313C12.8498 20.3735 11.612 19.6074 11.2685 19.3677C10.7002 18.9708 10.4502 18.5745 10.6345 18.0874C10.7634 17.7504 11.0778 17.6234 11.4077 17.6234C11.512 17.6237 11.6159 17.6354 11.7177 17.6582C12.3414 17.7935 12.9471 18.106 13.297 18.1905C13.3391 18.2013 13.3823 18.2071 13.4258 18.2079C13.6127 18.2079 13.6784 18.1138 13.6655 17.8999C13.6256 17.2175 13.5289 15.8875 13.6365 14.6446C13.7841 12.9345 14.335 12.0871 14.9897 11.3378C15.3041 10.9776 16.7816 9.41629 19.6071 9.41629C22.4326 9.41629 23.914 10.9711 24.2284 11.33C24.8837 12.0794 25.4353 12.9267 25.5816 14.6368C25.6892 15.8798 25.5964 17.2104 25.5526 17.8921C25.5378 18.117 25.6054 18.2001 25.7923 18.2001C25.8358 18.1994 25.879 18.1936 25.9211 18.1827C26.2717 18.0983 26.8774 17.7858 27.5011 17.6505C27.6028 17.6277 27.7068 17.616 27.811 17.6157C28.1429 17.6157 28.4554 17.7446 28.5843 18.0796C28.7685 18.5668 28.5198 18.963 27.9509 19.36C27.6074 19.5997 26.3696 20.3651 26.0906 20.6235C25.8013 20.8903 25.8393 21.0965 25.8728 21.3587C25.9005 21.5785 26.523 24.4974 30.4284 26.3847C30.6591 26.5 31.0483 26.7346 30.362 27.1167Z" fill="black"/>
</svg>
