<svg width="40" height="40" viewBox="0 0 40 40" fill="none" xmlns="http://www.w3.org/2000/svg">
<rect width="40" height="40" rx="20" fill="black"/>
<path d="M16.0004 32.9997C18.3924 32.9997 20.3338 31.0584 20.3338 28.6664V24.333H16.0004C13.6084 24.333 11.667 26.2744 11.667 28.6664C11.667 31.0584 13.6084 32.9997 16.0004 32.9997Z" fill="white"/>
<path d="M11.667 20.0004C11.667 17.6084 13.6084 15.667 16.0004 15.667H20.3338V24.3336H16.0004C13.6084 24.3337 11.667 22.3924 11.667 20.0004Z" fill="white"/>
<path d="M11.667 11.3334C11.667 8.94137 13.6084 7 16.0004 7H20.3338V15.6666H16.0004C13.6084 15.6666 11.667 13.7254 11.667 11.3334Z" fill="white"/>
<path d="M20.334 7H24.6674C27.0594 7 29.0008 8.94137 29.0008 11.3334C29.0008 13.7254 27.0594 15.6666 24.6674 15.6666H20.334V7Z" fill="white"/>
<path d="M29.0008 20.0004C29.0008 22.3924 27.0594 24.3337 24.6674 24.3337C22.2754 24.3337 20.334 22.3924 20.334 20.0004C20.334 17.6084 22.2754 15.667 24.6674 15.667C27.0594 15.667 29.0008 17.6084 29.0008 20.0004Z" fill="white"/>
</svg>
