<svg width="40" height="40" viewBox="0 0 40 40" fill="none" xmlns="http://www.w3.org/2000/svg">
<path d="M0 40L2.82712 29.7338C1.07927 26.7205 0.162369 23.308 0.17192 19.8194C0.17192 8.88783 9.11174 0 20.0859 0C25.4155 0 30.4202 2.06274 34.1738 5.80799C37.9369 9.55323 40.0095 14.5342 40 19.8289C40 30.7605 31.0601 39.6483 20.0764 39.6483H20.0668C16.7335 39.6483 13.4575 38.8118 10.5444 37.2338L0 40ZM11.0506 33.6502L11.6523 34.0114C14.1929 35.5133 17.106 36.3023 20.0764 36.3118H20.0859C29.2072 36.3118 36.638 28.9259 36.638 19.8384C36.638 15.4373 34.9188 11.3023 31.7956 8.18441C28.6724 5.06654 24.5081 3.35551 20.0859 3.35551C10.9647 3.34601 3.5339 10.7319 3.5339 19.8194C3.5339 22.9278 4.40305 25.9601 6.06494 28.5837L6.45654 29.211L4.7851 35.2852L11.0506 33.6502Z" fill="white"/>
<path d="M0.697266 39.3065L3.42888 29.3921C1.73833 26.4928 0.850083 23.1943 0.850083 19.8293C0.859634 9.27799 9.48427 0.694336 20.086 0.694336C25.234 0.694336 30.0573 2.69053 33.6867 6.3027C37.3162 9.91487 39.3123 14.7248 39.3123 19.8388C39.3123 30.3902 30.6781 38.9738 20.086 38.9738H20.0764C16.8577 38.9738 13.6963 38.1658 10.8883 36.6449L0.697266 39.3065Z" fill="url(#paint0_linear_946_109)"/>
<path d="M0 40L2.82712 29.7338C1.07927 26.7205 0.162369 23.308 0.17192 19.8194C0.17192 8.88783 9.11174 0 20.0859 0C25.4155 0 30.4202 2.06274 34.1738 5.80799C37.9369 9.55323 40.0095 14.5342 40 19.8289C40 30.7605 31.0601 39.6483 20.0764 39.6483H20.0668C16.7335 39.6483 13.4575 38.8118 10.5444 37.2338L0 40ZM11.0506 33.6502L11.6523 34.0114C14.1929 35.5133 17.106 36.3023 20.0764 36.3118H20.0859C29.2072 36.3118 36.638 28.9259 36.638 19.8384C36.638 15.4373 34.9188 11.3023 31.7956 8.18441C28.6724 5.06654 24.5081 3.35551 20.0859 3.35551C10.9647 3.34601 3.5339 10.7319 3.5339 19.8194C3.5339 22.9278 4.40305 25.9601 6.06494 28.5837L6.45654 29.211L4.7851 35.2852L11.0506 33.6502Z" fill="url(#paint1_linear_946_109)"/>
<path fill-rule="evenodd" clip-rule="evenodd" d="M15.1102 11.5301C14.7377 10.7031 14.3461 10.6841 13.9927 10.6745C13.7062 10.665 13.3719 10.665 13.0376 10.665C12.7033 10.665 12.1684 10.7886 11.71 11.2829C11.2515 11.7772 9.97168 12.9749 9.97168 15.4179C9.97168 17.8514 11.7577 20.2088 12.0061 20.5415C12.2544 20.8742 15.454 26.0358 20.5065 28.0225C24.709 29.6764 25.5686 29.3437 26.476 29.2582C27.3833 29.1726 29.4177 28.0605 29.8379 26.9008C30.2486 25.7411 30.2486 24.7525 30.1245 24.5434C30.0003 24.3342 29.666 24.2107 29.1694 23.9635C28.6727 23.7164 26.2276 22.5187 25.7692 22.3476C25.3107 22.186 24.9764 22.1004 24.6517 22.5947C24.3174 23.089 23.3623 24.2012 23.0758 24.5339C22.7892 24.8666 22.4932 24.9046 21.9965 24.6574C21.4998 24.4103 19.8953 23.8875 17.9946 22.1955C16.5142 20.8837 15.5113 19.2582 15.2248 18.7639C14.9382 18.2696 15.1961 18.0034 15.4445 17.7563C15.6641 17.5377 15.9411 17.1764 16.1894 16.8913C16.4378 16.6061 16.5237 16.397 16.6861 16.0643C16.8485 15.7316 16.7721 15.4464 16.6479 15.1993C16.5237 14.9616 15.5495 12.5091 15.1102 11.5301Z" fill="white"/>
<defs>
<linearGradient id="paint0_linear_946_109" x1="20.0038" y1="39.3046" x2="20.0038" y2="0.692985" gradientUnits="userSpaceOnUse">
<stop stop-color="#20B038"/>
<stop offset="1" stop-color="#60D66A"/>
</linearGradient>
<linearGradient id="paint1_linear_946_109" x1="20.0039" y1="39.9962" x2="20.0039" y2="0" gradientUnits="userSpaceOnUse">
<stop stop-color="#F9F9F9"/>
<stop offset="1" stop-color="white"/>
</linearGradient>
</defs>
</svg>
