<svg width="36" height="40" viewBox="0 0 36 40" fill="none" xmlns="http://www.w3.org/2000/svg">
<path d="M26.6534 14.4388C29.2256 16.2841 32.3768 17.3698 35.7801 17.3698V10.7974C35.1361 10.7975 34.4936 10.7301 33.8635 10.5961V15.7696C30.4604 15.7696 27.3096 14.6838 24.7367 12.8387V26.2511C24.7367 32.9607 19.3169 38.3995 12.6315 38.3995C10.1371 38.3995 7.81855 37.6427 5.89258 36.3447C8.09076 38.6004 11.1563 39.9996 14.5478 39.9996C21.2335 39.9996 26.6537 34.5608 26.6537 27.851V14.4388H26.6534ZM29.0178 7.808C27.7033 6.36672 26.8402 4.50413 26.6534 2.44497V1.59961H24.8371C25.2943 4.21681 26.8537 6.45279 29.0178 7.808ZM10.1211 31.196C9.3866 30.2296 8.9897 29.0473 8.99148 27.8317C8.99148 24.763 11.4705 22.2749 14.5289 22.2749C15.0989 22.2747 15.6655 22.3623 16.2087 22.5353V15.816C15.5739 15.7286 14.9332 15.6916 14.2928 15.7052V20.9352C13.7492 20.7622 13.1824 20.6744 12.6122 20.6749C9.55381 20.6749 7.07493 23.1628 7.07493 26.2319C7.07493 28.402 8.31403 30.2808 10.1211 31.196Z" fill="#FF004F"/>
<path d="M24.7357 12.8385C27.3086 14.6837 30.4593 15.7694 33.8624 15.7694V10.596C31.9628 10.1899 30.2812 9.19368 29.0168 7.808C26.8525 6.45265 25.2932 4.21667 24.836 1.59961H20.065V27.8507C20.0542 30.911 17.5795 33.389 14.5276 33.389C12.7292 33.389 11.1315 32.5287 10.1196 31.196C8.31272 30.2808 7.07362 28.4019 7.07362 26.232C7.07362 23.1632 9.55249 20.675 12.6109 20.675C13.1969 20.675 13.7617 20.7666 14.2915 20.9353V15.7053C7.72359 15.8415 2.44141 21.2272 2.44141 27.8508C2.44141 31.1573 3.75679 34.1548 5.89167 36.3449C7.81765 37.6427 10.1362 38.3997 12.6306 38.3997C19.3161 38.3997 24.7358 32.9606 24.7358 26.2511V12.8385H24.7357Z" fill="black"/>
<path d="M33.8629 10.5963V9.19747C32.15 9.20008 30.4706 8.71865 29.0173 7.80822C30.3038 9.22177 31.9979 10.1964 33.8629 10.5963ZM24.8365 1.59997C24.7929 1.34985 24.7594 1.09808 24.7362 0.845356V0H18.1487V26.2514C18.1382 29.3113 15.6636 31.7893 12.6114 31.7893C11.7154 31.7893 10.8694 31.5758 10.1201 31.1965C11.132 32.5291 12.7297 33.3892 14.5281 33.3892C17.5797 33.3892 20.0549 30.9115 20.0656 27.8512V1.59997H24.8365ZM14.2923 15.7057V14.2165C13.7418 14.141 13.1869 14.1031 12.6313 14.1034C5.94525 14.1032 0.525391 19.5423 0.525391 26.2514C0.525391 30.4575 2.65549 34.1645 5.89234 36.345C3.75745 34.155 2.44207 31.1574 2.44207 27.851C2.44207 21.2275 7.72411 15.8419 14.2923 15.7057Z" fill="#00F2EA"/>
</svg>
