<svg width="38" height="32" viewBox="0 0 38 32" fill="none" xmlns="http://www.w3.org/2000/svg">
<path d="M34.095 7.96792C34.1105 8.31992 34.1105 8.65593 34.1105 9.00793C34.1259 19.68 26.2851 32 11.9464 32C7.7173 32 3.56539 30.736 0 28.368C0.617384 28.448 1.23477 28.48 1.85215 28.48C5.35581 28.48 8.76686 27.264 11.5297 25.008C8.19578 24.944 5.2632 22.688 4.24452 19.392C5.41755 19.632 6.62145 19.584 7.76361 19.248C4.13647 18.512 1.52803 15.1999 1.51259 11.3439C1.51259 11.3119 1.51259 11.2799 1.51259 11.2479C2.59301 11.8719 3.81235 12.2239 5.04712 12.2559C1.63607 9.88793 0.571081 5.16791 2.63932 1.4719C6.60601 6.52792 12.4403 9.58393 18.7067 9.91993C18.0739 7.11992 18.9383 4.17591 20.9602 2.1919C24.0934 -0.864105 29.0325 -0.704105 31.9959 2.54391C33.7401 2.1919 35.4224 1.5199 36.9504 0.575899C36.3639 2.44791 35.1446 4.03191 33.524 5.03991C35.0674 4.84791 36.58 4.41591 38 3.77591C36.9504 5.40792 35.6231 6.81592 34.095 7.96792Z" fill="#1D9BF0"/>
</svg>
