<svg width="27" height="40" viewBox="0 0 27 40" fill="none" xmlns="http://www.w3.org/2000/svg">
<path d="M6.66677 40.0004C10.3468 40.0004 13.3335 37.0137 13.3335 33.3337V26.667H6.66677C2.98674 26.667 0 29.6537 0 33.3337C0 37.0137 2.98674 40.0004 6.66677 40.0004Z" fill="#0ACF83"/>
<path d="M0 19.9997C0 16.3197 2.98674 13.333 6.66677 13.333H13.3335V26.6663H6.66677C2.98674 26.6664 0 23.6797 0 19.9997Z" fill="#A259FF"/>
<path d="M0 6.66672C0 2.98672 2.98674 0 6.66677 0H13.3335V13.3333H6.66677C2.98674 13.3333 0 10.3467 0 6.66672Z" fill="#F24E1E"/>
<path d="M13.333 0H19.9998C23.6798 0 26.6665 2.98672 26.6665 6.66672C26.6665 10.3467 23.6798 13.3333 19.9998 13.3333H13.333V0Z" fill="#FF7262"/>
<path d="M26.6665 19.9997C26.6665 23.6797 23.6798 26.6664 19.9998 26.6664C16.3197 26.6664 13.333 23.6797 13.333 19.9997C13.333 16.3197 16.3197 13.333 19.9998 13.333C23.6798 13.333 26.6665 16.3197 26.6665 19.9997Z" fill="#1ABCFE"/>
</svg>
