<svg width="40" height="31" viewBox="0 0 40 31" fill="none" xmlns="http://www.w3.org/2000/svg">
<path d="M33.736 2.64309C31.2097 1.4839 28.5006 0.629866 25.668 0.140724C25.6165 0.131283 25.5649 0.154875 25.5384 0.20206C25.1899 0.821743 24.804 1.63017 24.5338 2.26559C21.4872 1.80948 18.4562 1.80948 15.4721 2.26559C15.2018 1.61605 14.8019 0.821743 14.4519 0.20206C14.4253 0.15645 14.3738 0.132858 14.3222 0.140724C11.4912 0.628303 8.78214 1.48234 6.25425 2.64309C6.23236 2.65252 6.21361 2.66827 6.20116 2.6887C1.06256 10.3657 -0.345119 17.8539 0.345441 25.2493C0.348565 25.2855 0.368876 25.3201 0.396998 25.3421C3.7873 27.8319 7.07138 29.3434 10.2945 30.3453C10.3461 30.361 10.4007 30.3421 10.4335 30.2996C11.196 29.2585 11.8756 28.1606 12.4583 27.0061C12.4927 26.9385 12.4599 26.8583 12.3896 26.8316C11.3116 26.4226 10.2851 25.9241 9.2977 25.3579C9.2196 25.3123 9.21334 25.2005 9.28519 25.1471C9.49298 24.9914 9.70082 24.8294 9.89923 24.6658C9.93513 24.6359 9.98515 24.6296 10.0274 24.6485C16.5142 27.6101 23.537 27.6101 29.9473 24.6485C29.9895 24.628 30.0395 24.6343 30.077 24.6642C30.2754 24.8278 30.4832 24.9914 30.6926 25.1471C30.7644 25.2005 30.7597 25.3123 30.6816 25.3579C29.6942 25.9351 28.6677 26.4226 27.5881 26.83C27.5179 26.8568 27.4866 26.9385 27.521 27.0061C28.1162 28.159 28.7958 29.2569 29.5442 30.2981C29.5755 30.3421 29.6317 30.361 29.6833 30.3453C32.922 29.3434 36.2061 27.8319 39.5964 25.3421C39.6261 25.3201 39.6448 25.2871 39.6479 25.2509C40.4744 16.701 38.2637 9.27413 33.7875 2.69026C33.7766 2.66827 33.7579 2.65252 33.736 2.64309ZM13.427 20.7463C11.474 20.7463 9.86484 18.9533 9.86484 16.7513C9.86484 14.5494 11.4428 12.7564 13.427 12.7564C15.4268 12.7564 17.0204 14.5651 16.9892 16.7513C16.9892 18.9533 15.4112 20.7463 13.427 20.7463ZM26.5976 20.7463C24.6447 20.7463 23.0355 18.9533 23.0355 16.7513C23.0355 14.5494 24.6134 12.7564 26.5976 12.7564C28.5974 12.7564 30.191 14.5651 30.1598 16.7513C30.1598 18.9533 28.5974 20.7463 26.5976 20.7463Z" fill="#5865F2"/>
</svg>
