<svg width="36" height="34" viewBox="0 0 36 34" fill="none" xmlns="http://www.w3.org/2000/svg">
<path d="M36 17.3012C36 14.9921 34.2285 13.1181 32.0457 13.1181C30.9701 13.1181 30.0211 13.5531 29.3251 14.2894C26.6362 12.248 22.9033 10.9095 18.7909 10.7421L20.594 1.80709L26.4464 3.11221C26.5097 4.68504 27.7434 5.95669 29.2619 5.95669C30.812 5.95669 32.0773 4.61811 32.0773 2.97835C32.0773 1.33859 30.812 0 29.2619 0C28.1547 0 27.2056 0.669291 26.7627 1.67323L20.2144 0.200789C20.0246 0.167325 19.8348 0.200788 19.6766 0.301182C19.5185 0.401575 19.4236 0.568899 19.3603 0.769686L17.3673 10.7421C13.1599 10.876 9.39543 12.1811 6.67487 14.2894C5.97891 13.5866 4.99824 13.1181 3.95431 13.1181C1.77153 13.1181 0 14.9921 0 17.3012C0 19.0079 0.949034 20.4469 2.34095 21.1161C2.27768 21.5177 2.24605 21.9528 2.24605 22.3878C2.24605 28.813 9.30053 34 18.0316 34C26.7627 34 33.8172 28.813 33.8172 22.3878C33.8172 21.9528 33.7856 21.5512 33.7223 21.1496C35.0193 20.4803 36 19.0079 36 17.3012ZM8.95255 20.2795C8.95255 18.6398 10.2179 17.3012 11.768 17.3012C13.3181 17.3012 14.5835 18.6398 14.5835 20.2795C14.5835 21.9193 13.3181 23.2579 11.768 23.2579C10.2179 23.2579 8.95255 21.9193 8.95255 20.2795ZM24.6749 28.1437C22.7452 30.185 19.0756 30.3189 18 30.3189C16.9244 30.3189 13.2232 30.1516 11.3251 28.1437C11.0404 27.8425 11.0404 27.3406 11.3251 27.0394C11.6098 26.7382 12.0844 26.7382 12.3691 27.0394C13.5712 28.311 16.1652 28.7795 18.0316 28.7795C19.8981 28.7795 22.4605 28.311 23.6942 27.0394C23.9789 26.7382 24.4534 26.7382 24.7381 27.0394C24.9596 27.374 24.9596 27.8425 24.6749 28.1437ZM24.1687 23.2579C22.6186 23.2579 21.3533 21.9193 21.3533 20.2795C21.3533 18.6398 22.6186 17.3012 24.1687 17.3012C25.7188 17.3012 26.9842 18.6398 26.9842 20.2795C26.9842 21.9193 25.7188 23.2579 24.1687 23.2579Z" fill="#FF4500"/>
</svg>
