<svg width="40" height="40" viewBox="0 0 40 40" fill="none" xmlns="http://www.w3.org/2000/svg">
<path d="M35.1669 28.031C29.6386 25.3549 28.7575 21.2231 28.7183 20.9166C28.6709 20.5454 28.6171 20.2535 29.0266 19.8759C29.4215 19.511 31.1737 18.4265 31.6598 18.0872C32.4634 17.5254 32.8173 16.9644 32.5564 16.2749C32.374 15.7979 31.9298 15.6182 31.4619 15.6182C31.3143 15.6186 31.1672 15.6351 31.0232 15.6674C30.1403 15.859 29.2829 16.3013 28.7867 16.4208C28.7271 16.4362 28.6658 16.4445 28.6043 16.4454C28.3398 16.4454 28.2394 16.3278 28.265 16.0095C28.327 15.0445 28.4583 13.1609 28.306 11.4015C28.0972 8.98076 27.3164 7.78134 26.3906 6.72056C25.9428 6.20613 23.8631 3.99609 19.8499 3.99609C15.8366 3.99609 13.7597 6.20613 13.3146 6.71417C12.3861 7.77496 11.6062 8.97438 11.3992 11.3951C11.2469 13.1546 11.3837 15.0372 11.4402 16.0031C11.4585 16.3059 11.3654 16.4391 11.1009 16.4391C11.0394 16.438 10.9782 16.4297 10.9185 16.4144C10.4232 16.295 9.56586 15.8526 8.68294 15.661C8.53892 15.6287 8.39181 15.6122 8.24422 15.6118C7.77448 15.6118 7.33211 15.7942 7.14969 16.2685C6.88883 16.9581 7.2409 17.519 8.0472 18.0809C8.53336 18.4202 10.2855 19.5037 10.6805 19.8695C11.0891 20.2471 11.0362 20.539 10.9887 20.9102C10.9495 21.2212 10.0675 25.3531 4.54015 28.0247C4.21635 28.1815 3.66544 28.5135 4.63683 29.0499C6.16188 29.8926 7.17705 29.8023 7.96602 30.3104C8.63551 30.7418 8.23966 31.6722 8.72672 32.0078C9.32507 32.421 11.0936 31.9786 13.3785 32.733C15.2939 33.3641 16.4577 35.1473 19.8544 35.1473C23.2511 35.1473 24.4487 33.3559 26.3304 32.733C28.6107 31.9786 30.3829 32.421 30.9821 32.0078C31.4683 31.6722 31.0734 30.7418 31.7428 30.3104C32.5318 29.8023 33.5461 29.8926 35.072 29.0499C36.0416 28.5199 35.4907 28.1879 35.1669 28.031Z" fill="white"/>
<path d="M37.5717 27.7159C37.3236 27.041 36.8512 26.6798 36.313 26.3806C36.2118 26.3213 36.1187 26.2739 36.0394 26.2374C35.8789 26.1544 35.7147 26.0741 35.5514 25.9893C33.874 25.1 32.5643 23.9781 31.6558 22.6483C31.3978 22.2739 31.1741 21.877 30.9872 21.4625C30.9097 21.2409 30.9133 21.115 30.969 21.0001C31.0242 20.9116 31.0972 20.8355 31.1833 20.7766C31.4716 20.586 31.7689 20.3926 31.9705 20.2622C32.3299 20.0296 32.6144 19.8454 32.7978 19.7149C33.4864 19.2333 33.968 18.7217 34.269 18.1498C34.479 17.7546 34.6015 17.3189 34.6281 16.8723C34.6547 16.4256 34.5848 15.9784 34.4231 15.5612C33.9671 14.3609 32.8333 13.6157 31.4597 13.6157C31.17 13.6154 30.881 13.646 30.5978 13.7069C30.5221 13.7233 30.4464 13.7406 30.3725 13.7598C30.3852 12.9389 30.367 12.0724 30.294 11.2196C30.035 8.22148 28.9852 6.64992 27.8906 5.39669C27.1897 4.61135 26.3641 3.94695 25.4471 3.43018C23.7861 2.48159 21.9026 2 19.8495 2C17.7963 2 15.922 2.48159 14.2592 3.43018C13.3399 3.9471 12.5127 4.61284 11.8111 5.40033C10.7166 6.65357 9.66674 8.22787 9.4077 11.2232C9.33473 12.076 9.31649 12.9471 9.32835 13.7634C9.25447 13.7443 9.17968 13.727 9.10397 13.7105C8.82071 13.6496 8.53177 13.6191 8.24203 13.6193C6.86749 13.6193 5.73191 14.3645 5.27768 15.5649C5.11532 15.9823 5.04473 16.4298 5.0707 16.8769C5.09667 17.324 5.21859 17.7603 5.42818 18.1561C5.73009 18.728 6.21168 19.2397 6.90032 19.7213C7.08274 19.849 7.36823 20.0333 7.7276 20.2686C7.92188 20.3945 8.20555 20.5787 8.48374 20.7629C8.58107 20.8259 8.6638 20.9089 8.72636 21.0065C8.78473 21.126 8.78656 21.2546 8.69991 21.4917C8.51561 21.8975 8.29553 22.2861 8.04228 22.6528C7.15389 23.9526 5.88241 25.0544 4.25886 25.9364C3.39875 26.3925 2.50488 26.6971 2.12727 27.7232C1.84269 28.4976 2.02876 29.3787 2.75206 30.1212C3.01752 30.3983 3.32541 30.6313 3.66417 30.8116C4.36904 31.199 5.11855 31.4989 5.89609 31.7046C6.05655 31.746 6.20888 31.8141 6.34667 31.9062C6.61027 32.1369 6.57288 32.4844 6.92404 32.9934C7.10031 33.2564 7.3243 33.4841 7.5844 33.6647C8.32138 34.1737 9.14958 34.2056 10.027 34.2393C10.8196 34.2694 11.7181 34.3041 12.7442 34.6425C13.1692 34.7829 13.6107 35.0547 14.1224 35.3722C15.351 36.1274 17.0329 37.1608 19.8477 37.1608C22.6624 37.1608 24.3562 36.1219 25.5939 35.364C26.102 35.052 26.5407 34.7829 26.9539 34.6461C27.98 34.3068 28.8784 34.2731 29.6711 34.243C30.5485 34.2092 31.3767 34.1773 32.1137 33.6683C32.4217 33.4535 32.6784 33.1732 32.8653 32.8475C33.1179 32.4178 33.1115 32.1178 33.3487 31.908C33.4779 31.8203 33.621 31.755 33.7719 31.7146C34.56 31.5083 35.3198 31.2056 36.0339 30.8135C36.3938 30.6204 36.7178 30.3667 36.9916 30.0637L37.0007 30.0528C37.6794 29.3267 37.8499 28.4712 37.5717 27.7159ZM35.0698 29.0604C33.5439 29.9032 32.5296 29.8129 31.7406 30.3209C31.0702 30.7523 31.467 31.6827 30.9799 32.0183C30.3816 32.4315 28.613 31.9892 26.3282 32.7435C24.4438 33.3664 23.2416 35.1578 19.8522 35.1578C16.4628 35.1578 15.289 33.3701 13.3735 32.7389C11.0933 31.9846 9.32105 32.427 8.7218 32.0138C8.23565 31.6781 8.63059 30.7478 7.9611 30.3164C7.17122 29.8083 6.15696 29.8986 4.63191 29.0604C3.66052 28.5241 4.21143 28.1921 4.53523 28.0352C10.0626 25.3591 10.9446 21.2272 10.9838 20.9207C11.0313 20.5495 11.0842 20.2576 10.6755 19.88C10.2806 19.5152 8.52843 18.4307 8.04228 18.0914C7.2378 17.5295 6.8839 16.9686 7.14477 16.279C7.32719 15.802 7.7723 15.6223 8.23929 15.6223C8.38689 15.6228 8.534 15.6393 8.67802 15.6716C9.56094 15.8631 10.4183 16.3055 10.9136 16.425C10.9732 16.4403 11.0345 16.4485 11.096 16.4496C11.3605 16.4496 11.4536 16.3164 11.4353 16.0136C11.3788 15.0477 11.2419 13.1651 11.3943 11.4056C11.6031 8.98491 12.383 7.78549 13.3097 6.72471C13.7548 6.21485 15.8463 4.00481 19.8458 4.00481C23.8454 4.00481 25.9424 6.20572 26.3875 6.71377C27.3151 7.77455 28.0959 8.97397 28.3029 11.3947C28.4552 13.1542 28.3239 15.0377 28.2619 16.0027C28.2409 16.321 28.3366 16.4386 28.6012 16.4386C28.6627 16.4377 28.724 16.4294 28.7836 16.414C29.2798 16.2945 30.1371 15.8522 31.0201 15.6606C31.1641 15.6283 31.3112 15.6118 31.4588 15.6114C31.9285 15.6114 32.3709 15.7938 32.5533 16.2681C32.8142 16.9576 32.4621 17.5186 31.6567 18.0804C31.1706 18.4197 29.4184 19.5033 29.0235 19.8691C28.6139 20.2467 28.6677 20.5386 28.7152 20.9098C28.7544 21.2208 29.6355 25.3527 35.1638 28.0242C35.4903 28.1875 36.0412 28.5195 35.0698 29.0604Z" fill="black"/>
</svg>
