<svg width="40" height="40" viewBox="0 0 40 40" fill="none" xmlns="http://www.w3.org/2000/svg">
<path d="M39.1761 10.3822C38.7148 8.66885 37.3639 7.31795 35.6506 6.85667C32.5205 6 19.9999 6 19.9999 6C19.9999 6 7.47937 6 4.34924 6.82372C2.66885 7.285 1.285 8.66885 0.82372 10.3822C0 13.5123 0 20.0032 0 20.0032C0 20.0032 0 26.5271 0.82372 29.6243C1.285 31.3376 2.6359 32.6885 4.34924 33.1498C7.51232 34.0065 19.9999 34.0065 19.9999 34.0065C19.9999 34.0065 32.5205 34.0065 35.6506 33.1827C37.3639 32.7215 38.7148 31.3706 39.1761 29.6572C39.9998 26.5271 39.9998 20.0362 39.9998 20.0362C39.9998 20.0362 40.0328 13.5123 39.1761 10.3822Z" fill="#FF0000"/>
<path d="M16.0127 26.0002L26.4245 20.0035L16.0127 14.0068V26.0002Z" fill="white"/>
</svg>
