<svg width="40" height="23" viewBox="0 0 40 23" fill="none" xmlns="http://www.w3.org/2000/svg">
<path d="M22.5624 11.3795C22.5624 17.664 17.5116 22.7586 11.2814 22.7586C5.05121 22.7586 0 17.6629 0 11.3795C0 5.09612 5.05083 0 11.2814 0C17.5119 0 22.5624 5.09497 22.5624 11.3795Z" fill="black"/>
<path d="M34.9377 11.3799C34.9377 17.2954 32.4122 22.0928 29.297 22.0928C26.1817 22.0928 23.6562 17.2954 23.6562 11.3799C23.6562 5.46438 26.1813 0.666992 29.2966 0.666992C32.4119 0.666992 34.9373 5.46285 34.9373 11.3799" fill="black"/>
<path d="M39.9995 11.3793C39.9995 16.6782 39.1115 20.9764 38.0157 20.9764C36.9199 20.9764 36.0322 16.6793 36.0322 11.3793C36.0322 6.0793 36.9203 1.78223 38.0157 1.78223C39.1111 1.78223 39.9995 6.07891 39.9995 11.3793Z" fill="black"/>
</svg>
