<svg width="40" height="40" viewBox="0 0 40 40" fill="none" xmlns="http://www.w3.org/2000/svg">
<path fill-rule="evenodd" clip-rule="evenodd" d="M39.2 20.4542C39.2 19.036 39.0727 17.6724 38.8364 16.3633H20V24.0996H30.7636C30.3 26.5996 28.8909 28.7178 26.7727 30.136V35.1542H33.2364C37.0182 31.6724 39.2 26.5451 39.2 20.4542Z" fill="#4285F4"/>
<path fill-rule="evenodd" clip-rule="evenodd" d="M19.9997 39.9998C25.3997 39.9998 29.927 38.2089 33.236 35.1544L26.7724 30.1362C24.9815 31.3362 22.6906 32.0453 19.9997 32.0453C14.7906 32.0453 10.3815 28.5271 8.80877 23.7998H2.12695V28.9816C5.41786 35.518 12.1815 39.9998 19.9997 39.9998Z" fill="#34A853"/>
<path fill-rule="evenodd" clip-rule="evenodd" d="M8.80909 23.8004C8.40909 22.6004 8.18182 21.3186 8.18182 20.0004C8.18182 18.6822 8.40909 17.4004 8.80909 16.2004V11.0186H2.12727C0.772727 13.7186 0 16.7731 0 20.0004C0 23.2276 0.772727 26.2822 2.12727 28.9822L8.80909 23.8004Z" fill="#FBBC05"/>
<path fill-rule="evenodd" clip-rule="evenodd" d="M19.9997 7.95455C22.936 7.95455 25.5724 8.96364 27.6451 10.9455L33.3815 5.20909C29.9179 1.98182 25.3906 0 19.9997 0C12.1815 0 5.41786 4.48182 2.12695 11.0182L8.80877 16.2C10.3815 11.4727 14.7906 7.95455 19.9997 7.95455Z" fill="#EA4335"/>
</svg>
