<svg width="40" height="39" viewBox="0 0 40 39" fill="none" xmlns="http://www.w3.org/2000/svg">
<path fill-rule="evenodd" clip-rule="evenodd" d="M19.9933 0C15.275 0.00244809 10.7113 1.6736 7.11841 4.71464C3.5255 7.75568 1.13763 11.9683 0.38177 16.5993C-0.374089 21.2302 0.551344 25.9775 2.99261 29.9922C5.43388 34.007 9.23177 37.0274 13.7072 38.5135C14.6945 38.6967 15.0665 38.0848 15.0665 37.5645C15.0665 37.0441 15.0467 35.5355 15.0401 33.8862C9.51095 35.0807 8.34259 31.553 8.34259 31.553C7.44081 29.2623 6.1375 28.6601 6.1375 28.6601C4.33394 27.4362 6.27245 27.4591 6.27245 27.4591C8.27019 27.5999 9.32008 29.4979 9.32008 29.4979C11.0907 32.5183 13.9705 31.6446 15.1026 31.1341C15.2804 29.8546 15.7971 28.9841 16.3665 28.49C11.9497 27.9925 7.30916 26.2974 7.30916 18.725C7.28178 16.7611 8.01471 14.8619 9.35628 13.4203C9.15222 12.9229 8.47094 10.9136 9.55044 8.1844C9.55044 8.1844 11.2191 7.65427 15.0171 10.2101C18.2748 9.32424 21.7119 9.32424 24.9696 10.2101C28.7643 7.65427 30.4296 8.1844 30.4296 8.1844C31.5124 10.9071 30.8312 12.9164 30.6271 13.4203C31.9729 14.8621 32.7074 16.7646 32.6775 18.7315C32.6775 26.3203 28.0271 27.9925 23.6037 28.4801C24.3146 29.0954 24.9498 30.2964 24.9498 32.142C24.9498 34.7862 24.9268 36.9132 24.9268 37.5645C24.9268 38.0913 25.2855 38.7066 26.2926 38.5135C30.7686 37.0273 34.5669 34.0063 37.0081 29.9908C39.4493 25.9754 40.3743 21.2274 39.6175 16.596C38.8608 11.9647 36.4718 7.75199 32.8777 4.71147C29.2836 1.67095 24.7188 0.00089637 19.9999 0H19.9933Z" fill="#191717"/>
<path d="M7.64458 28.3752C7.60179 28.4733 7.44382 28.5028 7.31546 28.4341C7.18711 28.3654 7.09167 28.2377 7.13775 28.1363C7.18382 28.0348 7.33851 28.0087 7.46686 28.0774C7.59522 28.1461 7.69395 28.277 7.64458 28.3752Z" fill="#191717"/>
<path d="M8.45078 29.2684C8.38262 29.3026 8.30464 29.3121 8.2302 29.2954C8.15575 29.2787 8.08947 29.2368 8.04268 29.1768C7.91432 29.0394 7.88798 28.8496 7.98671 28.7645C8.08545 28.6794 8.26319 28.7187 8.39154 28.8561C8.5199 28.9936 8.54952 29.1834 8.45078 29.2684Z" fill="#191717"/>
<path d="M9.23449 30.4039C9.11272 30.489 8.90536 30.4039 8.79017 30.2337C8.75832 30.2032 8.73299 30.1666 8.71569 30.1261C8.69838 30.0856 8.68945 30.0421 8.68945 29.9981C8.68945 29.9541 8.69838 29.9106 8.71569 29.8701C8.73299 29.8296 8.75832 29.793 8.79017 29.7625C8.91195 29.6807 9.1193 29.7625 9.23449 29.9294C9.34968 30.0963 9.35297 30.3188 9.23449 30.4039Z" fill="#191717"/>
<path d="M10.2967 31.5043C10.1881 31.6254 9.96758 31.5927 9.78656 31.429C9.60555 31.2654 9.56275 31.0429 9.67136 30.9251C9.77997 30.8073 10.0005 30.84 10.1881 31.0003C10.3757 31.1607 10.4119 31.3865 10.2967 31.5043Z" fill="#191717"/>
<path d="M11.7876 32.1457C11.7382 32.2995 11.5144 32.3682 11.2906 32.3028C11.0668 32.2373 10.9187 32.0541 10.9615 31.897C11.0043 31.7399 11.2313 31.6679 11.4584 31.7399C11.6855 31.8119 11.8303 31.9853 11.7876 32.1457Z" fill="#191717"/>
<path d="M13.4139 32.2568C13.4139 32.4171 13.2296 32.5546 12.9927 32.5579C12.7557 32.5611 12.5615 32.4302 12.5615 32.2699C12.5615 32.1095 12.7458 31.9721 12.9828 31.9688C13.2197 31.9655 13.4139 32.0932 13.4139 32.2568Z" fill="#191717"/>
<path d="M14.9273 32.0042C14.9569 32.1646 14.7924 32.3315 14.5554 32.3707C14.3184 32.41 14.1111 32.3151 14.0815 32.158C14.0518 32.001 14.223 31.8308 14.4534 31.7883C14.6837 31.7457 14.8977 31.8439 14.9273 32.0042Z" fill="#191717"/>
</svg>
