<svg width="40" height="40" viewBox="0 0 40 40" fill="none" xmlns="http://www.w3.org/2000/svg">
<g clip-path="url(#clip0_856_3424)">
<path d="M20 0C8.95455 0 0 8.95364 0 20C0 31.0464 8.95455 40 20 40C31.0455 40 40 31.0464 40 20C40 8.95364 31.0455 0 20 0ZM29.7576 28.8312C29.4363 29.4 28.8455 29.72 28.2364 29.72C27.9515 29.72 27.6576 29.6488 27.3879 29.4988C24.8909 28.0988 22.1697 27.2412 19.294 26.95C16.4121 26.6612 13.5667 26.9536 10.8333 27.8264C9.92121 28.1176 8.93941 27.6136 8.6485 26.7C8.35456 25.7848 8.86061 24.8064 9.77576 24.5136C12.9636 23.4952 16.2879 23.1488 19.6454 23.49C22.997 23.8312 26.1727 24.8312 29.0879 26.4652C29.9273 26.9324 30.2273 27.9924 29.7576 28.8312ZM32.1515 22.7564C31.8424 23.3512 31.2364 23.6924 30.6091 23.6924C30.3364 23.6924 30.0636 23.63 29.8061 23.4952C26.7364 21.8964 23.4212 20.9064 19.9454 20.5536C16.4424 20.1952 12.9727 20.5076 9.62728 21.4724C8.70304 21.7348 7.73941 21.2064 7.47577 20.2824C7.2091 19.36 7.74241 18.3964 8.66363 18.13C12.4394 17.0412 16.3545 16.6924 20.297 17.0924C24.2121 17.4912 27.9515 18.6064 31.4152 20.4112C32.2636 20.8552 32.597 21.9048 32.1515 22.7564ZM33.0182 17.7024C32.7576 17.7024 32.4939 17.6436 32.2424 17.52C28.6 15.7036 24.6818 14.5724 20.5939 14.1576C16.5 13.7388 12.4273 14.0624 8.48485 15.1152C7.55758 15.3612 6.60605 14.8112 6.35757 13.8824C6.10909 12.9548 6.66062 12.0012 7.59092 11.7536C11.9394 10.5924 16.4364 10.2388 20.9485 10.6976C25.4545 11.1536 29.7758 12.4024 33.7939 14.4064C34.6546 14.8348 35.003 15.88 34.5758 16.7388C34.2727 17.35 33.6576 17.7024 33.0182 17.7024Z" fill="#1ED760"/>
</g>
<defs>
<clipPath id="clip0_856_3424">
<rect width="40" height="40" fill="white"/>
</clipPath>
</defs>
</svg>
