<svg width="40" height="40" viewBox="0 0 40 40" fill="none" xmlns="http://www.w3.org/2000/svg">
<path fill-rule="evenodd" clip-rule="evenodd" d="M3.39499 18.8217C13.7308 14.3186 20.623 11.3498 24.0715 9.91547C33.9177 5.82011 35.9636 5.1087 37.2971 5.08521C37.5904 5.08004 38.2462 5.15273 38.671 5.49742C39.0297 5.78847 39.1284 6.18163 39.1756 6.45758C39.2228 6.73353 39.2816 7.36214 39.2349 7.85332C38.7013 13.4596 36.3926 27.0644 35.218 33.3435C34.721 36.0004 33.7424 36.8913 32.795 36.9785C30.7361 37.1679 29.1726 35.6178 27.1785 34.3106C24.058 32.2651 22.2951 30.9917 19.2661 28.9957C15.7656 26.6889 18.0348 25.4211 20.0298 23.349C20.5519 22.8068 29.6235 14.5554 29.7991 13.8069C29.8211 13.7132 29.8415 13.3643 29.6342 13.18C29.4269 12.9958 29.1209 13.0588 28.9001 13.1089C28.5871 13.1799 23.6021 16.4748 13.945 22.9936C12.53 23.9653 11.2484 24.4387 10.1001 24.4139C8.83416 24.3865 6.39904 23.6981 4.58877 23.1096C2.36841 22.3879 0.603709 22.0063 0.757375 20.7805C0.837413 20.1421 1.71662 19.4891 3.39499 18.8217Z" fill="url(#paint0_linear_856_3417)"/>
<defs>
<linearGradient id="paint0_linear_856_3417" x1="20" y1="5.08496" x2="20" y2="36.7576" gradientUnits="userSpaceOnUse">
<stop stop-color="#2AABEE"/>
<stop offset="1" stop-color="#229ED9"/>
</linearGradient>
</defs>
</svg>
