<svg width="40" height="40" viewBox="0 0 40 40" fill="none" xmlns="http://www.w3.org/2000/svg">
<g clip-path="url(#clip0_1009_3716)">
<path d="M30.0007 25H26.6673V28.3333H30.0007M30.0007 18.3333H26.6673V21.6667H30.0007M33.334 31.6667H20.0007V28.3333H23.334V25H20.0007V21.6667H23.334V18.3333H20.0007V15H33.334M16.6673 11.6667H13.334V8.33333H16.6673M16.6673 18.3333H13.334V15H16.6673M16.6673 25H13.334V21.6667H16.6673M16.6673 31.6667H13.334V28.3333H16.6673M10.0007 11.6667H6.66732V8.33333H10.0007M10.0007 18.3333H6.66732V15H10.0007M10.0007 25H6.66732V21.6667H10.0007M10.0007 31.6667H6.66732V28.3333H10.0007M20.0007 11.6667V5H3.33398V35H36.6673V11.6667H20.0007Z" fill="#8A8A8A"/>
</g>
<defs>
<clipPath id="clip0_1009_3716">
<rect width="40" height="40" fill="white"/>
</clipPath>
</defs>
</svg>
