<svg width="40" height="40" viewBox="0 0 40 40" fill="none" xmlns="http://www.w3.org/2000/svg">
<g clip-path="url(#clip0_1009_3682)">
<path d="M8 6H6V32C6 32.5304 6.21071 33.0391 6.58579 33.4142C6.96086 33.7893 7.46957 34 8 34H34V32H8V6Z" fill="#8A8A8A"/>
<path d="M34 13H27V15H30.59L23 22.59L18.71 18.29C18.617 18.1963 18.5064 18.1219 18.3846 18.0711C18.2627 18.0203 18.132 17.9942 18 17.9942C17.868 17.9942 17.7373 18.0203 17.6154 18.0711C17.4936 18.1219 17.383 18.1963 17.29 18.29L10 25.59L11.41 27L18 20.41L22.29 24.71C22.383 24.8037 22.4936 24.8781 22.6154 24.9289C22.7373 24.9797 22.868 25.0058 23 25.0058C23.132 25.0058 23.2627 24.9797 23.3846 24.9289C23.5064 24.8781 23.617 24.8037 23.71 24.71L32 16.41V20H34V13Z" fill="#8A8A8A"/>
</g>
<defs>
<clipPath id="clip0_1009_3682">
<rect width="40" height="40" fill="white"/>
</clipPath>
</defs>
</svg>
