<svg width="40" height="40" viewBox="0 0 40 40" fill="none" xmlns="http://www.w3.org/2000/svg">
<path d="M20.0013 15.0006C23.223 15.0006 25.8346 12.389 25.8346 9.16732C25.8346 5.94566 23.223 3.33398 20.0013 3.33398C16.7796 3.33398 14.168 5.94566 14.168 9.16732C14.168 12.389 16.7796 15.0006 20.0013 15.0006Z" stroke="#00356C" stroke-width="3" stroke-linecap="round" stroke-linejoin="round"/>
<path d="M3.33398 34.1673C3.33398 26.8032 10.0498 20.834 18.334 20.834M26.5423 23.334C24.7706 23.334 23.334 25.0082 23.334 27.0723C23.334 30.8115 27.1256 34.2098 29.1673 35.0007C31.209 34.2098 35.0006 30.8115 35.0006 27.0723C35.0006 25.009 33.564 23.334 31.7923 23.334C30.7073 23.334 29.7481 23.9615 29.1673 24.9223C28.5865 23.9615 27.6273 23.334 26.5423 23.334Z" stroke="#00356C" stroke-width="3" stroke-linecap="round" stroke-linejoin="round"/>
</svg>
