<svg width="81" height="81" viewBox="0 0 81 81" fill="none" xmlns="http://www.w3.org/2000/svg">
<circle cx="40.5" cy="40.5" r="40.5" fill="#00CBFE"/>
<g clip-path="url(#clip0_1009_3725)">
<path d="M54.2802 41.8808C54.3602 41.2808 54.4002 40.6608 54.4002 40.0008C54.4002 39.3608 54.3602 38.7208 54.2602 38.1208L58.3202 34.9608C58.6802 34.6808 58.7802 34.1408 58.5602 33.7408L54.7202 27.1008C54.4802 26.6608 53.9802 26.5208 53.5402 26.6608L48.7602 28.5808C47.7602 27.8208 46.7002 27.1808 45.5202 26.7008L44.8002 21.6208C44.7202 21.1408 44.3202 20.8008 43.8402 20.8008H36.1602C35.6802 20.8008 35.3002 21.1408 35.2202 21.6208L34.5002 26.7008C33.3202 27.1808 32.2402 27.8408 31.2602 28.5808L26.4802 26.6608C26.0402 26.5008 25.5402 26.6608 25.3002 27.1008L21.4802 33.7408C21.2402 34.1608 21.3202 34.6808 21.7202 34.9608L25.7802 38.1208C25.6802 38.7208 25.6002 39.3808 25.6002 40.0008C25.6002 40.6208 25.6402 41.2808 25.7402 41.8808L21.6802 45.0408C21.3202 45.3208 21.2202 45.8608 21.4402 46.2608L25.2802 52.9008C25.5202 53.3408 26.0202 53.4808 26.4602 53.3408L31.2402 51.4208C32.2402 52.1808 33.3002 52.8208 34.4802 53.3008L35.2002 58.3808C35.3002 58.8608 35.6802 59.2008 36.1602 59.2008H43.8402C44.3202 59.2008 44.7202 58.8608 44.7802 58.3808L45.5002 53.3008C46.6802 52.8208 47.7602 52.1808 48.7402 51.4208L53.5202 53.3408C53.9602 53.5008 54.4602 53.3408 54.7002 52.9008L58.5402 46.2608C58.7802 45.8208 58.6802 45.3208 58.3002 45.0408L54.2802 41.8808ZM40.0002 47.2008C36.0402 47.2008 32.8002 43.9608 32.8002 40.0008C32.8002 36.0408 36.0402 32.8008 40.0002 32.8008C43.9602 32.8008 47.2002 36.0408 47.2002 40.0008C47.2002 43.9608 43.9602 47.2008 40.0002 47.2008Z" fill="white"/>
</g>
<defs>
<clipPath id="clip0_1009_3725">
<rect width="48" height="48" fill="white" transform="translate(16 16)"/>
</clipPath>
</defs>
</svg>
