<svg width="40" height="40" viewBox="0 0 40 40" fill="none" xmlns="http://www.w3.org/2000/svg">
<g clip-path="url(#clip0_1009_3692)">
<path d="M18.9994 4.16602C10.2546 4.16602 3.16602 11.2546 3.16602 19.9994C3.16602 28.7441 10.2546 35.8327 18.9994 35.8327C27.7441 35.8327 34.8327 28.7441 34.8327 19.9994C34.8327 11.2546 27.7441 4.16602 18.9994 4.16602ZM29.9529 13.666H24.8624C24.6258 11.8845 24.3274 10.1116 23.9679 8.35077C26.482 9.43366 28.5806 11.2974 29.9529 13.666ZM20.6049 7.44668C20.7125 8.00402 21.2176 10.6735 21.6261 13.666H16.3726C16.7811 10.6735 17.2862 8.00402 17.3939 7.44668C17.9211 7.3786 18.4547 7.33268 18.9994 7.33268C19.544 7.33268 20.0776 7.3786 20.6049 7.44668ZM22.166 19.9994C22.166 20.9462 22.0979 22.0355 21.9934 23.166H16.0053C15.9008 22.0355 15.8327 20.9462 15.8327 19.9994C15.8327 19.0525 15.9008 17.9632 16.0053 16.8327H21.9934C22.0979 17.9632 22.166 19.0525 22.166 19.9994ZM14.0309 8.35077C13.6713 10.1116 13.3729 11.8845 13.1363 13.666H8.04585C9.41814 11.2974 11.5167 9.43366 14.0309 8.35077ZM6.7491 16.8327H12.799C12.7183 17.8904 12.666 18.9607 12.666 19.9994C12.666 21.038 12.7183 22.1084 12.8006 23.166H6.7491C6.48627 22.1511 6.33268 21.095 6.33268 19.9994C6.33268 18.9037 6.48785 17.8476 6.7491 16.8327ZM8.04585 26.3327H13.1363C13.4339 28.5874 13.8013 30.5285 14.0309 31.6479C11.5167 30.565 9.41814 28.7013 8.04585 26.3327ZM17.3939 32.552C17.0001 30.488 16.6596 28.4142 16.3726 26.3327H21.6261C21.3384 28.4141 20.9979 30.4879 20.6049 32.552C20.0776 32.6201 19.544 32.666 18.9994 32.666C18.4547 32.666 17.9211 32.6201 17.3939 32.552ZM23.9679 31.6479C24.1974 30.5285 24.5648 28.5874 24.8624 26.3327H29.9529C28.5806 28.7013 26.482 30.565 23.9679 31.6479ZM31.2496 23.166H25.1997C25.2804 22.1084 25.3327 21.038 25.3327 19.9994C25.3327 18.9607 25.2804 17.8904 25.1981 16.8327H31.248C31.5109 17.8476 31.666 18.9037 31.666 19.9994C31.666 21.095 31.5124 22.1511 31.2496 23.166Z" fill="#8A8A8A"/>
</g>
<defs>
<clipPath id="clip0_1009_3692">
<rect width="40" height="40" fill="white"/>
</clipPath>
</defs>
</svg>
