<svg width="34" height="31" viewBox="0 0 34 31" fill="none" xmlns="http://www.w3.org/2000/svg">
<path d="M15.5831 30.3307C17.8865 30.3327 20.1587 29.7974 22.219 28.7674C24.2792 27.7374 26.0709 26.241 27.4516 24.3972L27.751 23.9974H27.2515H23.2994H23.2049L23.134 24.0599C21.4863 25.5133 19.4542 26.4604 17.2816 26.7875C15.109 27.1146 12.8881 26.8078 10.8855 25.904C8.88289 25.0002 7.18361 23.5377 5.99158 21.6921C4.79954 19.8465 4.16539 17.6961 4.1652 15.499C4.16502 13.3019 4.79882 11.1514 5.99055 9.30557C7.18227 7.45974 8.8813 5.99699 10.8838 5.09285C12.8862 4.18871 15.107 3.88159 17.2797 4.20833C19.4524 4.53507 21.4846 5.4818 23.1326 6.93491L23.2034 6.9974H23.2979H27.25H27.7495L27.4501 6.59755C26.0696 4.75398 24.2782 3.25776 22.2182 2.22775C20.1582 1.19776 17.8864 0.662351 15.5832 0.664067C7.39084 0.664117 0.75 7.30499 0.75 15.4974C0.75 23.6898 7.39077 30.3306 15.5831 30.3307ZM15.5831 30.3307L15.5833 30.0807V30.3307C15.5833 30.3307 15.5832 30.3307 15.5831 30.3307ZM25.5417 21.3307V21.8509L25.9478 21.526L33.2395 15.6926L33.4835 15.4974L33.2395 15.3022L25.9478 9.46885L25.5417 9.14391V9.66407V13.7891H14.125H13.875V14.0391V16.9557V17.2057H14.125H25.5417V21.3307Z" fill="#858585" stroke="#858585" stroke-width="0.5"/>
</svg>
