<svg width="30" height="30" viewBox="0 0 30 30" fill="none" xmlns="http://www.w3.org/2000/svg">
<g id="linkedin">
<rect width="30" height="30" rx="15" fill="white"/>
<path id="Vector" d="M11.1328 22.0312H8.21987V12.6395H11.1328V22.0312ZM9.67634 11.3839C8.7221 11.3839 7.96875 10.5804 7.96875 9.67634C7.96875 8.77232 8.7221 7.96875 9.67634 7.96875C10.6306 7.96875 11.3839 8.7221 11.3839 9.67634C11.3337 10.5804 10.5804 11.3839 9.67634 11.3839ZM22.0313 22.0312H19.1183V17.4609C19.1183 16.356 19.1183 15 17.6116 15C16.1049 15 15.8538 16.2054 15.8538 17.4107V22.0312H12.9408V12.6395H15.7533V13.9453H15.8036C16.2054 13.192 17.1596 12.4386 18.5658 12.4386C21.529 12.4386 22.0815 14.3973 22.0815 16.9085L22.0313 22.0312Z" fill="#00CBFE"/>
</g>
</svg>
