<svg width="1200" height="407" viewBox="0 0 1200 407" fill="none" xmlns="http://www.w3.org/2000/svg">
<g clip-path="url(#clip0_1039_3624)">
<path d="M998.05 135.93C995.29 133.17 993.91 129.78 993.91 125.76C993.91 124.63 994.25 122.37 994.94 118.99C995.63 115.6 997.86 110.52 1001.63 103.74C1004.26 99.1003 1008.03 96.4704 1012.92 95.8304C1013.8 95.7104 1014.62 95.6404 1015.37 95.6404C1019.39 95.6404 1023.24 96.7103 1026.95 98.8403C1030.65 100.98 1032.62 103.99 1032.88 107.87V108.25H1032.5L1031.75 108.06C1029.86 108.06 1027.67 109.72 1025.16 113.05C1022.65 116.37 1020.01 120.74 1017.26 126.13C1016.88 126.76 1016.5 127.45 1016.13 128.2C1013.99 133.09 1011.61 136.67 1008.97 138.92C1007.97 139.8 1006.9 140.24 1005.77 140.24C1003.51 140.24 1000.94 138.8 998.05 135.91V135.93ZM1200 190.32C1191.84 205 1181.02 219.87 1167.53 234.92C1154.04 249.98 1140.08 262.72 1125.65 273.13C1118.75 288.82 1112.16 304.12 1105.89 319.05C1095.1 344.4 1086.62 363.59 1080.48 376.65C1075.71 386.31 1070.12 393.59 1063.73 398.48C1057.33 403.38 1051.06 406.07 1044.91 406.57H1042.65C1037.38 406.57 1032.8 404.88 1028.91 401.49C1025.02 398.1 1023.07 392.64 1023.07 385.12C1023.07 373.7 1026.55 361.84 1033.52 349.55C1040.49 337.25 1049.33 325.58 1060.06 314.54C1070.78 303.5 1082.17 293.84 1094.21 285.56C1096.84 279.16 1099.74 272.26 1102.87 264.86C1106 256.96 1109.39 248.8 1113.03 240.39C1110.77 243.9 1106.91 249.39 1101.45 256.86C1096 264.32 1090.32 271.26 1084.42 277.66C1078.51 284.06 1073.76 287.45 1070.11 287.83C1063.59 287.71 1058.91 285.64 1056.09 281.62C1053.27 277.61 1051.85 272.27 1051.85 265.63C1051.85 257.71 1053.42 248.52 1056.43 238.17C1045.76 247.43 1036.26 254.54 1027.95 259.42C1028.2 262.43 1028.32 265.5 1028.32 268.64C1028.32 283.19 1025.59 299.57 1020.13 317.76C1014.67 335.95 1007.74 352.83 999.34 368.39C990.94 383.95 983.78 393.73 977.89 397.75C976 398.88 973.75 399.44 971.11 399.44C969.86 399.44 967.78 399.16 964.9 398.59C962.01 398.03 958.94 396.24 955.68 393.23C952.79 390.72 951.35 387.59 951.35 383.82L951.54 382.12C956.93 354.01 968.98 317.19 987.67 271.64C985.54 270.02 984.48 268.01 984.48 265.62C984.48 264.62 984.92 262.89 985.8 260.44C986.68 257.99 989.75 255.83 995.02 253.95C998.96 244.62 1002.86 235.52 1006.73 226.62C997.76 240.25 988.38 253.3 978.55 265.71C967.56 279.58 959 287.01 952.86 288.01H951.92C946.03 288.01 941.32 285.56 937.8 280.67C935.55 277.53 934.42 272.83 934.42 266.55C934.42 262.66 934.86 258.15 935.74 253C937.54 244.14 940.06 235.06 943.18 225.8C933.87 234.69 924.17 241.39 914.09 245.84C901.29 267.55 889.25 281.1 877.96 286.49C875.57 287.37 873.19 287.81 870.8 287.81C867.79 287.81 864.37 286.87 860.54 284.99C856.71 283.11 854.17 279.66 852.92 274.64C852.66 273.64 852.54 272.7 852.54 271.82C852.54 267.68 854.67 263.35 858.94 258.83C863.58 253.56 872.99 249.61 887.18 246.97C889.06 243.71 891.88 238.09 895.64 230.13C899.4 222.16 903.08 213.66 906.65 204.62C910.23 195.59 912.65 187.87 913.9 181.47C914.28 179.71 914.47 178.2 914.47 176.95C914.47 173.57 913.28 171.87 910.89 171.87C908.26 171.87 903.43 174.95 896.4 181.09C889.37 187.24 879.46 197.46 866.66 211.77C858.88 228.46 851.07 246.85 843.23 266.92C835.39 287 828.49 306.44 822.52 325.26C816.57 344.08 812.58 359.95 810.57 372.87C809.94 377.26 809.63 381.09 809.63 384.35C809.63 390.62 810.88 394.57 813.39 396.21C813.51 396.21 813.58 396.27 813.58 396.4C813.58 396.53 813.51 396.65 813.39 396.77C811.76 398.4 809.37 399.22 806.23 399.22C805.1 399.22 803 398.94 799.93 398.38C796.85 397.81 793.38 396.02 789.49 393.02C786.23 390.51 784.6 387.49 784.6 383.98C784.6 383.35 784.66 382.66 784.78 381.91C786.92 360.7 792.94 335.32 802.85 305.77C810.68 282.42 819.23 259.68 828.43 237.51C827.4 239 826.41 240.45 825.34 241.97C816.87 254.08 808.59 264.62 800.49 273.59C792.4 282.57 785.91 287.3 781.01 287.8H780.45C777.56 287.8 774.62 286.92 771.61 285.17C768.6 283.41 766.34 280.02 764.83 275C764.2 272.87 763.89 270.29 763.89 267.28C763.89 263.27 764.45 258.5 765.58 252.98C768.22 242.06 772.77 228.58 779.23 212.51C785.69 196.45 791.62 184.16 797.02 175.62C793.75 178.63 788.1 185.16 780.08 195.2C772.05 205.24 763.45 216.21 754.3 228.14C745.14 240.06 737.23 250.41 730.59 259.19C730.21 259.69 729.84 260.13 729.46 260.51C727.45 263.14 725.88 265.28 724.75 266.91C723.11 269.17 721.9 270.77 721.08 271.71C720.26 272.65 719.6 273.12 719.1 273.12H718.34C717.84 273.12 717.28 273.06 716.65 272.93C716.28 272.81 715.83 272.68 715.33 272.56C707.42 270.43 703.47 266.47 703.47 260.7C703.47 260.45 703.5 258.79 703.56 255.71C703.62 252.63 704.97 248.02 707.61 241.88C710.5 233.6 714.69 222.87 720.22 209.7C725.74 196.53 730.45 185.99 734.33 178.08C726.68 186.24 716.92 198.34 705.07 214.4C693.21 230.47 681.76 247.21 670.72 264.65C669.59 269.92 669.03 274.18 669.03 277.45C669.03 281.22 669.78 283.66 671.28 284.79C671.4 284.92 671.5 285.01 671.56 285.07C671.63 285.13 671.59 285.23 671.47 285.35C669.72 286.99 667.33 287.8 664.31 287.8C663.18 287.8 661.05 287.52 657.91 286.95C654.78 286.39 651.45 284.6 647.94 281.59C645.18 279.33 643.8 276.64 643.8 273.5C643.8 272.5 643.92 271.49 644.18 270.49C646.86 256.1 650.68 241.85 655.52 227.74C652.24 232.52 648.8 237.45 645.12 242.63C636.46 254.81 628.05 265.47 619.9 274.63C611.74 283.79 605.41 288.37 600.89 288.37C593.98 288.37 589.28 286.3 586.77 282.16C584.76 278.53 583.76 274.13 583.76 268.99C583.76 268.11 583.85 265.89 584.04 262.31C584.23 258.73 585.26 253.5 587.14 246.59C579.74 258.26 572.27 268.14 564.74 276.23C557.21 284.32 550.25 288.37 543.85 288.37C537.83 286.86 533.5 283.54 530.86 278.39C528.23 273.25 526.91 266.97 526.91 259.57C526.91 253.59 527.58 247.24 528.88 240.54C528.56 240.99 528.27 241.42 527.94 241.88C519.34 254.05 510.97 264.68 502.81 273.78C494.65 282.88 488.07 287.68 483.05 288.18C482.43 288.31 481.8 288.37 481.17 288.37C479.03 288.37 476.81 287.84 474.49 286.77C472.17 285.71 470.16 283.57 468.47 280.37C466.77 277.17 465.92 272.75 465.92 267.1C465.92 258.07 468.87 245.18 474.77 228.42C480.67 211.67 487.85 194.01 496.32 175.44C504.79 156.87 513.1 139.75 521.26 124.06H519C512.85 124.06 505.76 124.5 497.73 125.38C490.45 139.31 481.54 151.73 471 162.64C460.46 173.56 449.8 179.45 439.01 180.33C427.46 180.33 418.49 177.92 412.09 173.08C405.69 168.25 401.93 162.51 400.8 155.86C400.67 154.61 400.61 153.41 400.61 152.29C400.61 146.77 402.42 141.63 406.07 136.85C412.34 129.58 422.06 123.71 435.24 119.25C448.41 114.8 461.84 111.94 475.52 110.69C481.8 98.5204 485.31 87.6104 486.06 77.9404C486.18 76.9404 486.25 76.0604 486.25 75.3004C486.25 68.2804 482.73 64.7604 475.71 64.7604C473.2 64.7604 470.25 65.2004 466.86 66.0804C450.92 70.3504 434.87 79.5103 418.68 93.5603C402.5 107.62 389.07 123.37 378.41 140.8C367.99 157.74 362.78 173.3 362.78 187.48V188.99C363.53 197.15 367.7 204.14 375.3 209.98C382.89 215.81 391.52 221.31 401.18 226.45C411.21 231.6 419.93 237.12 427.34 243.01C434.74 248.91 438.51 256 438.63 264.28C437.75 273.44 431.38 282.66 419.53 291.94C407.67 301.23 393.43 309.2 376.81 315.84C360.18 322.49 344.35 326.5 329.29 327.89C326.4 328.14 323.65 328.26 321.01 328.26C309.97 328.26 301.43 325.69 295.41 320.54C287.88 313.26 284.12 305.17 284.12 296.26C284.12 295 284.46 291.43 285.15 285.53C285.84 279.63 293.34 272.1 307.64 262.95C313.28 259.56 320.97 256.08 330.7 252.5C340.42 248.93 350.12 246.51 359.78 245.25C362.42 244.88 364.86 244.69 367.12 244.69C373.4 244.69 378.48 245.95 382.37 248.46C387 252.1 389.83 256.68 390.83 262.2C390.95 262.95 391.02 263.7 391.02 264.46C391.02 265.97 390.59 267.66 389.7 269.55C388.82 271.43 386.25 273.5 381.98 275.76H381.42V274.91C381.42 274.73 381.6 274.44 381.98 274.07C384.24 272.44 385.87 270.74 386.87 268.98C387.25 268.23 387.44 267.54 387.44 266.91C387.44 265.91 387.06 264.9 386.31 263.9C383.3 260.89 378.65 259.38 372.38 259.38C369.87 259.38 365.2 259.92 358.36 260.98C351.52 262.04 342.52 264.84 331.35 269.35C320.18 273.87 311.9 278.26 306.51 282.52C300.61 287.29 296.85 290.99 295.22 293.62C294.34 295.13 293.9 296.44 293.9 297.57C293.9 298.45 294.34 299.39 295.22 300.39C296.1 301.39 298.04 302.21 301.05 302.84C304.32 303.59 308.2 303.97 312.72 303.97C319.24 303.97 328.5 302.97 340.48 300.96C352.46 298.95 365.76 294.69 380.38 288.16C395 281.64 405.57 273.23 412.09 262.94C413.47 260.3 414.16 257.79 414.16 255.41C414.16 251.14 411.53 246.69 406.25 242.05C400.98 237.41 393.08 232.33 382.54 226.81C373.38 221.91 364.78 216.55 356.75 210.72C348.72 204.89 343.2 198.08 340.19 190.3C338.93 186.03 338.3 181.58 338.3 176.94C338.3 166.78 341.88 154.36 349.03 139.68C356.19 125 367.32 109.91 382.44 94.4203C397.56 78.9203 413.09 67.2204 429.02 59.3204C439.31 54.6804 449.85 52.3604 460.64 52.3604C463.15 52.3604 468.33 52.7104 476.17 53.3904C484.01 54.0804 492.07 58.2604 500.35 65.9104C506.63 71.6804 509.76 79.1503 509.76 88.3103C509.76 91.2003 509.44 94.2704 508.82 97.5303C508.07 101.05 506.87 104.81 505.24 108.82C512.52 108.32 519.42 108.07 525.95 108.07H529.9C533.91 100.8 537.36 94.9003 540.25 90.3803C542.38 86.8703 545.52 85.1104 549.66 85.1104C550.03 85.1104 551.47 85.2403 553.99 85.4903C556.5 85.7403 559.83 87.2803 563.97 90.1003C568.11 92.9203 570.18 95.9604 570.18 99.2304C570.18 99.3504 570.11 99.4504 569.99 99.5104C569.87 99.5804 569.73 99.6003 569.61 99.6003C569.36 99.4804 569.11 99.4104 568.86 99.4104C566.35 99.4104 562.77 102.68 558.13 109.2C580.72 109.33 604.27 110.96 628.81 114.1C653.34 117.24 673.32 120.75 688.76 124.64C690.13 125.01 690.83 125.27 690.83 125.39H688.76C659.52 122.5 633.17 121.06 609.71 121.06C586.25 121.06 566.36 121.5 549.67 122.38C540.63 137.94 531.63 155.88 522.66 176.21C513.69 196.54 506.1 215.26 499.89 232.39C493.68 249.52 490.57 260.21 490.57 264.48C490.57 265.48 490.88 265.99 491.51 265.99C492.88 265.99 496.09 263.51 501.11 258.55C506.13 253.6 512.72 246.38 520.87 236.91C525.44 231.61 529.78 226.48 533.99 221.46C534.52 219.88 535.06 218.29 535.65 216.68C541.48 200.75 548.36 186.63 556.26 174.33C564.16 162.04 571.63 154.38 578.65 151.37C581.28 150.49 583.8 150.05 586.19 150.05C591.83 150.05 597.25 152.91 602.47 158.61C607.67 164.32 611.35 172.19 613.48 182.23C615.99 177.59 618.44 173.14 620.82 168.87C622.95 165.23 626.16 163.41 630.42 163.41C630.8 163.41 632.21 163.48 634.65 163.6C637.1 163.72 640.42 165.17 644.63 167.93C648.83 170.69 650.93 173.76 650.93 177.15V177.34C650.8 177.46 650.65 177.56 650.46 177.62C650.28 177.69 650.06 177.71 649.8 177.71C646.66 177.84 642.81 181.7 638.23 189.29C633.65 196.88 629.1 206.01 624.59 216.67C620.07 227.34 616.24 237.34 613.11 246.69C609.97 256.04 608.41 262.16 608.41 265.04C608.41 265.79 608.65 266.17 609.16 266.17C610.42 266.17 613.65 263.6 618.85 258.45C624.06 253.31 630.77 246 638.99 236.53C647.21 227.06 654.86 218.06 661.95 209.52C662.26 209.15 662.53 208.82 662.83 208.46C670.62 189.68 679.31 171.82 688.96 154.94C691.09 151.3 694.29 149.48 698.56 149.48C698.82 149.48 700.16 149.51 702.61 149.57C705.05 149.64 708.25 150.98 712.21 153.62C716.16 156.26 718.39 159.33 718.89 162.84C718.89 162.97 718.86 163.09 718.8 163.21C718.73 163.34 718.64 163.47 718.52 163.59H717.77C714.5 163.71 708.73 171.18 700.45 185.99C692.17 200.79 683.95 220.75 675.8 245.84C684.96 230.4 695.65 214.19 707.89 197.19C720.12 180.19 731.57 166.92 742.23 157.38C746.24 153.87 749.76 151.55 752.77 150.42C754.28 149.92 755.84 149.67 757.48 149.67C759.48 149.67 761.56 149.98 763.69 150.61C767.2 151.74 770.15 153.43 772.53 155.7C774.91 157.96 776.23 160.34 776.48 162.85V163.22C776.48 163.35 776.41 163.48 776.29 163.6H775.35C773.59 163.85 770.3 168.02 765.47 176.12C760.64 184.21 755.33 194.16 749.57 205.95C743.8 217.75 738.71 229.35 734.32 240.77C735.45 239.14 736.76 237.26 738.27 235.13C744.67 226.1 752.76 215.02 762.55 201.91C772.33 188.8 782.21 177.01 792.19 166.53C802.17 156.06 810.42 150.25 816.94 149.12H818.26C822.65 149.12 826.67 150.31 830.31 152.69C832.82 154.33 834.07 156.33 834.07 158.71C834.07 160.09 833.63 161.6 832.75 163.23C831.5 165.24 827.98 171.48 822.21 181.96C816.44 192.44 810.29 205.02 803.77 219.69C797.25 234.37 792.23 248.93 788.72 263.36V264.3C788.72 265.05 788.97 265.43 789.47 265.43C790.22 265.43 791.98 264.21 794.74 261.76C797.5 259.31 801.92 254.74 808.01 248.02C814.1 241.31 820.4 234.06 826.93 226.28C831.6 220.7 835.94 215.51 839.98 210.68C850.37 187.42 859.51 168.83 867.4 154.95C869.4 151.31 872.54 149.49 876.81 149.49C877.06 149.49 878.41 149.52 880.86 149.58C883.3 149.65 886.53 150.99 890.55 153.63C894.56 156.27 896.76 159.34 897.14 162.85V163.22C897.14 163.35 897.02 163.48 896.76 163.6H896.01C892.37 164.1 886.22 172.7 877.57 189.39C885.72 178.97 894.42 169.75 903.63 161.72C912.85 153.69 920.29 149.67 925.93 149.67C934.46 151.93 939.23 157.7 940.23 166.99C940.35 168.62 940.42 170.31 940.42 172.07C940.42 180.23 938.57 189.92 934.87 201.15C931.16 212.38 926.18 223.76 919.91 235.31C931.01 228.14 940.12 221.1 947.36 214.16C948.82 210.42 950.33 206.65 951.99 202.84C959.58 185.46 967.45 169.62 975.61 155.32C977.74 151.69 980.94 149.87 985.21 149.87C985.46 149.87 986.81 149.9 989.26 149.96C991.71 150.03 994.97 151.41 999.05 154.1C1003.13 156.8 1005.36 159.91 1005.73 163.42V163.79C1005.73 163.92 1005.64 164.01 1005.45 164.07C1005.27 164.14 1004.98 164.16 1004.61 164.16C1000.47 164.91 993.38 174.95 983.34 194.27C973.3 213.6 964.9 236.5 958.12 262.97C957.99 263.47 957.93 263.91 957.93 264.29C957.93 265.42 958.3 265.98 959.06 265.98C959.82 265.98 961.54 264.91 964.24 262.78C966.94 260.65 971.39 256.19 977.6 249.42C983.81 242.64 990.3 235.25 997.08 227.21C1003.86 219.18 1009.91 211.87 1015.25 205.28C1015.95 204.42 1016.54 203.68 1017.18 202.89C1025.76 183.68 1034.15 165.54 1042.34 148.54C1057.46 117.17 1067.47 97.7204 1072.36 90.1904C1074.49 86.6804 1077.63 84.9203 1081.77 84.9203C1082.14 84.9203 1083.58 85.0103 1086.1 85.2003C1088.61 85.3903 1091.87 86.8904 1095.89 89.7204C1099.9 92.5404 1102.04 95.6504 1102.29 99.0404C1102.29 99.1704 1102.22 99.2603 1102.1 99.3204C1101.98 99.3804 1101.85 99.4104 1101.73 99.4104H1101.55C1098.28 99.4104 1092.67 106.22 1084.7 119.83C1076.73 133.45 1067.48 151.45 1056.94 173.85C1046.41 196.25 1035.8 220.18 1025.14 245.65C1025.26 245.9 1025.42 246.34 1025.61 246.97C1025.8 247.6 1025.99 248.26 1026.17 248.95C1026.36 249.64 1026.51 250.11 1026.64 250.36C1039.89 241.95 1051.07 234.02 1060.21 226.59C1064.79 213.73 1069.98 201.1 1075.85 188.72C1082.18 175.36 1087.99 164.1 1093.26 154.93C1095.39 151.29 1098.59 149.47 1102.86 149.47C1103.23 149.47 1104.65 149.54 1107.09 149.66C1109.54 149.79 1112.86 151.23 1117.06 153.99C1121.27 156.75 1123.37 159.82 1123.37 163.21C1123.37 163.34 1123.34 163.43 1123.28 163.49C1123.21 163.55 1123.12 163.65 1122.99 163.77H1122.24C1119.23 164.03 1115.18 168.41 1110.1 176.94C1105.01 185.48 1099.84 195.73 1094.57 207.72C1089.3 219.7 1084.81 231.09 1081.12 241.88C1077.41 252.67 1075.57 259.88 1075.57 263.52C1075.57 264.02 1075.75 264.27 1076.13 264.27C1077.26 264.27 1080.08 262.23 1084.6 258.15C1089.12 254.07 1094.98 248.17 1102.2 240.46C1109.41 232.74 1116.34 225.06 1122.99 217.4C1130.89 199.83 1136.98 186.79 1141.25 178.25C1145.51 169.72 1149.65 161.94 1153.67 154.91C1155.8 151.27 1159 149.45 1163.27 149.45C1163.64 149.45 1165.06 149.52 1167.5 149.64C1169.94 149.77 1173.27 151.21 1177.48 153.97C1181.68 156.73 1183.78 159.74 1183.78 163.01C1183.78 163.13 1183.75 163.26 1183.69 163.38C1183.62 163.51 1183.53 163.6 1183.41 163.66C1183.28 163.72 1183.04 163.75 1182.66 163.75C1178.39 164.13 1172.24 172.31 1164.22 188.31C1156.19 204.31 1147.09 223.92 1136.93 247.13L1132.79 256.54C1148.22 245 1161.12 233.46 1171.47 221.91C1181.82 210.37 1189.38 201.33 1194.15 194.81C1195.66 192.93 1196.85 191.42 1197.73 190.29H1199.99L1200 190.32ZM462.97 131.03C444.78 133.79 431.85 137.46 424.2 142.04C416.54 146.62 412.34 150.73 411.59 154.37C411.34 155.25 411.22 156.06 411.22 156.82C411.22 159.96 413.29 161.53 417.43 161.53C417.55 161.53 419 161.5 421.76 161.44C424.52 161.38 430.1 158.81 438.51 153.72C446.92 148.63 455.07 141.08 462.98 131.04L462.97 131.03ZM611.09 186.93C605.19 175.64 599.42 169.99 593.77 169.99C593.39 169.99 591.7 170.15 588.69 170.46C585.68 170.78 581.69 175.1 576.74 183.45C571.78 191.8 567.45 201.58 563.75 212.81C560.05 224.04 557.16 234.43 555.1 243.96C553.03 253.5 552 259.4 552 261.66C552 264.55 552.87 265.99 554.63 265.99C554.75 265.99 555.38 265.9 556.51 265.71C557.64 265.53 559.84 264.09 563.1 261.38C566.36 258.68 569.84 255.39 573.55 251.5C577.25 247.61 580.76 243.75 584.09 239.93C587.41 236.1 590.14 232.87 592.27 230.23C596.16 218.69 602.43 204.26 611.09 186.94V186.93ZM880.61 256.95C877.34 257.45 874.08 258.55 870.82 260.24C867.56 261.93 865.18 263.66 863.67 265.42C863.04 266.17 862.73 266.8 862.73 267.3C862.73 268.05 863.3 268.62 864.43 268.99H865.56C867.69 268.99 870.05 267.96 872.62 265.89C875.19 263.82 877.86 260.84 880.63 256.95H880.61ZM1022.89 262.78C1020.89 264.29 1018.69 265.73 1016.3 267.11C999.49 308.39 987.63 342.21 980.73 368.56L980.36 370.07C979.98 371.07 979.74 371.95 979.61 372.71V374.4C979.74 374.52 979.86 374.59 979.98 374.59C980.24 374.59 980.67 374.37 981.3 373.93C981.93 373.49 983 372.39 984.5 370.64C988.89 366 994.16 358.22 1000.31 347.3C1006.46 336.39 1011.86 323.52 1016.49 308.72C1020.76 295.17 1022.89 281.05 1022.89 266.37V262.8V262.78ZM1087.45 301.36C1072.52 314.03 1060 328.06 1049.9 343.42C1039.8 358.79 1034.75 370.99 1034.75 380.03C1034.75 384.17 1035.69 387.37 1037.57 389.63C1038.45 390.63 1039.52 391.14 1040.77 391.14C1042.28 391.14 1044.38 390.16 1047.07 388.22C1049.77 386.27 1053.51 380.53 1058.27 371C1061.41 363.97 1066.93 350.92 1074.83 331.85C1078.72 322.44 1082.92 312.28 1087.44 301.36H1087.45Z" fill="white"/>
<path d="M93.63 237.93L23.56 153.37L0 217.81L86.85 322.62L220.82 298.55L244.38 234.11L136.29 253.53C120.3 256.4 104 250.44 93.63 237.93Z" fill="white"/>
<path d="M204.66 0.429688L70.6899 24.4997L47.1299 88.9397L155.22 69.5197C171.21 66.6497 187.51 72.6097 197.88 85.1197L267.95 169.68L291.51 105.24L204.66 0.429688Z" fill="white"/>
<path d="M47.1201 88.93L133.97 193.74L220.82 298.55L244.38 234.11L157.53 129.3L70.6801 24.5L47.1201 88.93Z" fill="white"/>
</g>
<defs>
<clipPath id="clip0_1039_3624">
<rect width="1200" height="407" fill="white"/>
</clipPath>
</defs>
</svg>
