<svg width="30" height="30" viewBox="0 0 30 30" fill="none" xmlns="http://www.w3.org/2000/svg">
<circle cx="15" cy="15" r="15" fill="white"/>
<path d="M24.1527 9.75C23.4789 10.0563 22.7527 10.2575 22.0002 10.3537C22.7702 9.89 23.3652 9.155 23.6452 8.27125C22.9189 8.70875 22.1139 9.015 21.2652 9.19C20.5739 8.4375 19.6027 8 18.5002 8C16.4439 8 14.7639 9.68 14.7639 11.7537C14.7639 12.0512 14.7989 12.34 14.8602 12.6113C11.7452 12.4538 8.97141 10.9575 7.12516 8.69125C6.80141 9.2425 6.61766 9.89 6.61766 10.5725C6.61766 11.8763 7.27391 13.0312 8.28891 13.6875C7.66766 13.6875 7.09016 13.5125 6.58266 13.25V13.2762C6.58266 15.0962 7.87766 16.6187 9.59266 16.96C9.04204 17.1107 8.46399 17.1316 7.90391 17.0213C8.14156 17.7672 8.607 18.4199 9.2348 18.8876C9.86259 19.3553 10.6212 19.6145 11.4039 19.6288C10.0771 20.6791 8.4324 21.2469 6.74016 21.2387C6.44266 21.2387 6.14516 21.2212 5.84766 21.1862C7.51016 22.2537 9.48766 22.875 11.6052 22.875C18.5002 22.875 22.2889 17.1525 22.2889 12.1912C22.2889 12.025 22.2889 11.8675 22.2802 11.7012C23.0152 11.1762 23.6452 10.5113 24.1527 9.75Z" fill="#40D8FE"/>
</svg>
