<svg width="30" height="30" viewBox="0 0 30 30" fill="none" xmlns="http://www.w3.org/2000/svg">
<rect width="30" height="30" rx="15" fill="white"/>
<path d="M19.9088 9.35742H10.0917C9.69934 9.35742 9.31086 9.43473 8.94843 9.58492C8.58601 9.73511 8.25672 9.95525 7.9794 10.2328C7.70209 10.5103 7.48217 10.8397 7.33221 11.2022C7.18226 11.5647 7.10521 11.9533 7.10547 12.3456V17.6548C7.10521 18.0471 7.18226 18.4356 7.33221 18.7982C7.48217 19.1607 7.70209 19.4901 7.9794 19.7676C8.25672 20.0451 8.58601 20.2653 8.94843 20.4155C9.31086 20.5656 9.69934 20.6429 10.0917 20.6429H19.9088C20.3011 20.6429 20.6895 20.5656 21.052 20.4155C21.4144 20.2653 21.7437 20.0451 22.021 19.7676C22.2983 19.4901 22.5182 19.1607 22.6682 18.7982C22.8182 18.4356 22.8952 18.0471 22.8949 17.6548V12.3456C22.8952 11.9533 22.8182 11.5647 22.6682 11.2022C22.5182 10.8397 22.2983 10.5103 22.021 10.2328C21.7437 9.95525 21.4144 9.73511 21.052 9.58492C20.6895 9.43473 20.3011 9.35742 19.9088 9.35742ZM12.9199 17.4199V12.5804L17.0805 15.0002L12.9199 17.4199Z" fill="#00CBFE"/>
</svg>
