<svg width="34" height="34" viewBox="0 0 34 34" fill="none" xmlns="http://www.w3.org/2000/svg">
<g clip-path="url(#clip0_206_610)">
<rect x="1.81693" y="0.972936" width="31.3216" height="31.3216" rx="2.47276" fill="white" stroke="black" stroke-width="1.64851"/>
<path d="M22.8853 18.0108C21.9755 18.0108 21.123 17.6256 20.3485 16.9985L20.5371 16.1133L20.5453 16.0805C20.7132 15.138 21.246 13.556 22.8853 13.556C24.1147 13.556 25.1147 14.556 25.1147 15.7854C25.1106 17.0108 24.1107 18.0108 22.8853 18.0108ZM22.8853 11.298C20.7911 11.298 19.1683 12.6586 18.5085 14.8962C17.5003 13.3839 16.738 11.5685 16.2913 10.0398H14.0373V15.9043C14.0373 17.06 13.0947 18.0025 11.939 18.0025C10.7833 18.0025 9.84081 17.06 9.84081 15.9043V10.0398H7.58657V15.9043C7.57837 18.3059 9.53324 20.277 11.9347 20.277C14.3364 20.277 16.2912 18.3059 16.2912 15.9043V14.9208C16.7297 15.8346 17.2665 16.7567 17.9182 17.5764L16.537 24.0678H18.8444L19.8443 19.359C20.7213 19.9205 21.7295 20.273 22.8852 20.273C25.3564 20.273 27.3686 18.2485 27.3686 15.7772C27.3686 13.3101 25.3564 11.298 22.8852 11.298H22.8853Z" fill="black"/>
</g>
<defs>
<clipPath id="clip0_206_610">
<rect x="0.992798" y="0.148682" width="32.9702" height="32.9702" rx="3.29702" fill="white"/>
</clipPath>
</defs>
</svg>
